<?xml version="1.0" standalone="no"?>
<!DOCTYPE svg PUBLIC "-//W3C//DTD SVG 20010904//EN"
 "http://www.w3.org/TR/2001/REC-SVG-20010904/DTD/svg10.dtd">
<svg version="1.0" xmlns="http://www.w3.org/2000/svg"
 width="750.000000pt" height="750.000000pt" viewBox="0 0 750.000000 750.000000"
 preserveAspectRatio="xMidYMid meet">
<metadata>
Created by potrace 1.11, written by Peter Selinger 2001-2013
</metadata>
<g transform="translate(0.000000,750.000000) scale(0.100000,-0.100000)"
fill="#000000" stroke="none">
<path d="M3699 7194 c-41 -7 -97 -22 -122 -33 -26 -11 -49 -19 -50 -18 -4 2
-127 -77 -251 -162 -49 -34 -100 -68 -115 -75 -72 -39 -219 -106 -241 -110 -8
-1 -24 -7 -35 -13 -11 -6 -51 -23 -90 -37 -213 -81 -318 -160 -394 -294 -22
-41 -41 -75 -41 -77 0 -1 -10 -24 -22 -51 -12 -27 -23 -53 -24 -59 -1 -5 -20
-84 -42 -175 -38 -155 -58 -239 -68 -284 -2 -10 -8 -33 -14 -51 -6 -18 -12
-45 -15 -61 -2 -16 -13 -55 -24 -86 -11 -32 -18 -58 -16 -58 17 0 -121 -276
-150 -300 -8 -7 -12 -16 -9 -21 3 -5 1 -9 -3 -9 -5 0 -17 -13 -26 -30 -10 -16
-23 -35 -30 -43 -7 -7 -16 -20 -22 -29 -25 -39 -90 -133 -95 -138 -4 -3 -15
-21 -25 -40 -9 -19 -27 -53 -38 -75 -11 -22 -33 -75 -48 -118 -25 -69 -28 -89
-25 -180 4 -114 8 -142 24 -173 6 -12 14 -36 17 -54 3 -18 12 -42 20 -54 25
-35 18 -41 -38 -38 -52 4 -55 2 -100 -43 -26 -26 -47 -51 -47 -56 0 -5 -7 -9
-15 -9 -8 0 -15 -5 -15 -11 0 -6 -17 -28 -38 -49 -33 -33 -137 -145 -286 -307
-43 -47 -50 -51 -71 -41 -23 10 -23 12 -10 47 7 20 16 45 20 56 4 11 9 30 11
41 1 12 10 36 18 53 9 17 14 31 12 31 -5 0 23 99 32 115 4 6 8 19 9 30 4 22
37 129 60 190 8 22 17 49 19 60 2 11 9 39 15 63 13 48 5 75 -40 125 -20 22
-33 27 -71 27 -75 0 -100 -30 -150 -180 -24 -69 -49 -137 -57 -152 -7 -15 -13
-31 -13 -35 0 -8 -17 -66 -27 -93 -3 -8 -7 -19 -8 -25 -2 -5 -13 -35 -25 -65
-12 -30 -21 -56 -21 -58 1 -1 -5 -18 -14 -38 -13 -31 -17 -34 -36 -24 -11 7
-23 9 -26 7 -3 -3 -25 3 -50 14 -57 24 -74 24 -96 -2 -10 -11 -25 -18 -35 -15
-9 3 -34 7 -55 10 -21 4 -47 11 -57 16 -10 6 -24 10 -30 10 -10 0 -137 -125
-198 -196 -48 -56 -70 -102 -119 -254 -61 -187 -69 -249 -49 -380 8 -58 23
-137 32 -177 l17 -72 -87 -144 -86 -144 0 -813 c0 -447 2 -811 5 -808 3 3 8
15 10 27 3 19 33 108 110 331 9 25 22 59 30 75 14 29 47 105 50 115 0 3 29 64
64 135 34 72 72 150 84 175 12 25 28 56 36 69 9 13 16 29 17 35 2 11 45 104
171 366 145 302 176 360 189 360 17 0 207 99 215 112 3 5 8 8 11 6 17 -12 240
162 282 222 14 19 31 42 38 50 13 14 21 243 9 265 -2 5 -4 58 -4 117 1 114 5
127 59 185 14 15 47 55 72 88 25 33 59 73 74 89 15 17 28 33 28 37 0 4 7 14
15 22 8 8 43 50 77 94 34 43 75 92 90 108 15 17 35 46 45 65 l16 35 68 -138
c43 -87 72 -160 79 -199 11 -60 12 -134 1 -153 -3 -5 -6 -13 -6 -16 0 -4 -15
-26 -34 -49 -34 -42 -111 -86 -168 -96 -16 -2 -33 -7 -40 -9 -7 -2 -15 0 -18
5 -4 6 -13 10 -21 10 -42 0 -84 80 -84 160 0 32 -5 50 -14 53 -22 9 -43 -50
-45 -126 -2 -56 2 -75 25 -117 15 -28 33 -50 41 -50 7 0 13 -5 13 -10 0 -6 24
-22 54 -37 l53 -26 -86 -86 c-47 -48 -107 -111 -132 -141 -47 -56 -158 -214
-160 -227 -1 -5 -10 -26 -21 -48 -59 -114 -80 -255 -59 -380 13 -71 76 -214
99 -223 18 -6 33 18 26 41 -19 61 -28 215 -15 267 7 25 13 54 15 65 2 11 9 34
16 50 8 17 14 32 15 35 0 3 14 26 31 52 31 50 56 67 30 21 -18 -32 -56 -128
-62 -158 -23 -103 -27 -179 -15 -252 17 -100 16 -95 46 -181 14 -41 25 -84 25
-95 0 -24 -35 -87 -48 -87 -5 0 -17 -8 -28 -17 -24 -23 -55 -37 -121 -58 -52
-16 -68 -37 -38 -48 8 -4 47 -9 87 -12 81 -7 186 12 213 39 9 9 19 16 23 16 4
0 16 13 26 29 l19 28 53 -52 c56 -57 127 -109 168 -125 16 -6 28 -20 32 -37 3
-15 11 -41 17 -58 6 -16 12 -36 13 -43 4 -27 92 -105 152 -133 44 -22 62 -35
62 -49 0 -18 -6 -19 -57 -16 -32 2 -91 9 -130 15 -40 6 -110 13 -155 16 -46 3
-101 10 -123 16 -56 14 -172 26 -213 23 -42 -3 -82 -39 -114 -102 -13 -26 -28
-52 -34 -58 -6 -7 -17 -26 -24 -43 -11 -27 -17 -31 -54 -32 -22 0 -48 -2 -57
-4 -29 -5 -61 -46 -63 -78 -1 -28 -6 -32 -46 -42 -25 -7 -55 -17 -66 -23 -12
-6 -23 -9 -26 -7 -2 3 -38 -5 -79 -16 -41 -12 -141 -38 -224 -59 -82 -21 -177
-46 -210 -55 -33 -9 -71 -19 -85 -21 -14 -3 -90 -22 -170 -43 l-145 -38 -3
-416 c-2 -330 0 -417 10 -417 13 0 118 15 188 26 19 3 55 7 80 10 25 2 79 9
120 15 41 6 90 13 110 15 19 1 46 5 60 8 33 6 166 26 210 30 19 3 81 11 138
20 56 9 119 18 140 20 20 3 72 12 115 20 43 9 81 16 83 16 3 0 9 -13 15 -28
11 -32 55 -62 91 -62 13 0 40 9 61 20 38 20 48 19 91 -13 125 -89 193 -120
248 -114 88 9 119 26 212 112 27 25 51 45 52 45 4 0 101 -125 129 -168 l28
-42 2063 0 2064 0 0 23 c0 13 -7 45 -14 72 -8 26 -15 51 -14 54 0 3 -1 8 -2
11 -2 7 -7 24 -25 95 -8 33 -22 80 -30 105 -8 25 -17 63 -20 84 -3 22 -12 58
-19 80 -8 23 -17 61 -20 86 -3 25 -10 59 -16 75 -15 48 -19 82 -26 210 -3 66
-9 136 -14 155 -11 48 -24 151 -21 173 3 26 -39 97 -81 138 -21 19 -38 38 -38
41 0 4 17 12 38 18 20 6 44 14 52 17 8 4 17 7 20 8 46 16 160 91 160 105 0 22
18 8 31 -22 23 -57 87 -98 191 -123 85 -20 147 -20 155 1 7 18 -6 33 -34 38
-12 3 -31 13 -42 23 -12 10 -25 18 -29 18 -13 0 -72 53 -72 64 0 6 -4 11 -9
11 -14 0 -29 54 -24 86 3 16 12 37 21 47 8 9 12 17 8 17 -4 0 -1 7 6 15 29 32
39 45 33 45 -3 0 4 19 16 41 11 23 22 49 24 58 2 9 11 43 21 76 21 70 23 216
4 298 -6 28 -14 61 -16 72 -9 38 13 -7 37 -75 40 -117 30 -258 -29 -390 -21
-47 -21 -64 2 -68 22 -5 49 22 93 93 70 113 83 168 79 325 -4 140 -30 231
-115 395 -59 114 -153 261 -180 282 -9 7 -12 13 -7 13 4 0 -2 8 -14 18 l-23
19 49 13 c126 35 194 119 194 240 0 57 -7 80 -25 80 -18 0 -22 -8 -30 -60 -12
-86 -72 -140 -147 -135 -34 3 -96 33 -125 61 -7 7 -16 14 -20 16 -17 7 -54 56
-60 79 -4 13 -7 54 -7 91 1 58 7 79 39 143 21 41 45 83 54 92 9 10 41 52 71
93 30 41 57 77 61 80 3 3 21 30 40 60 18 30 38 60 45 67 6 6 17 25 24 42 7 17
16 31 21 31 5 0 8 3 7 8 -1 4 6 23 17 42 11 19 20 37 20 40 1 3 7 19 14 35 7
17 14 37 16 45 2 8 4 15 5 15 5 0 9 58 9 115 0 58 -5 115 -9 115 -1 0 -3 12
-5 26 -2 14 -9 45 -16 70 -7 24 -13 49 -15 54 -2 12 -41 97 -104 230 -60 126
-120 276 -125 312 -2 16 -8 39 -13 53 -11 28 -23 111 -28 185 -4 59 -10 143
-24 315 -5 69 -12 179 -15 245 -3 78 -11 142 -24 183 -10 34 -18 62 -16 62 2
0 -7 24 -19 53 -13 28 -24 56 -24 60 0 17 -83 123 -119 152 -20 17 -48 40 -60
53 -13 12 -26 22 -28 22 -4 0 -65 39 -91 57 -14 11 -52 33 -89 52 -16 9 -34
22 -38 29 -4 6 -13 12 -19 12 -6 0 -26 11 -43 25 -18 13 -35 21 -39 18 -3 -4
-6 -2 -6 4 0 5 -22 24 -49 41 -27 18 -104 86 -172 152 -160 156 -156 152 -214
192 -112 77 -216 113 -340 119 -239 10 -297 6 -391 -26 -27 -9 -56 -18 -64
-20 -8 -2 -27 -6 -41 -10 -20 -5 -52 7 -144 55 -64 34 -133 63 -153 65 -21 2
-66 7 -102 10 -36 3 -89 10 -119 15 -68 12 -87 12 -182 -6z m-1976 -4703 c9
-16 17 -49 17 -73 0 -35 -8 -53 -42 -98 -23 -30 -52 -70 -65 -89 l-23 -34 -2
49 c-4 83 2 141 17 177 15 36 61 97 74 97 4 0 14 -13 24 -29z m443 -308 c9
-15 28 -39 41 -53 28 -30 29 -60 5 -120 -27 -71 -73 -120 -113 -120 -40 0 -59
122 -30 195 19 48 64 125 72 125 4 0 15 -12 25 -27z m4097 -100 c26 -45 31
-65 30 -123 -1 -108 -25 -183 -39 -124 -4 16 -12 36 -19 44 -31 39 -55 94 -55
127 0 35 36 113 52 113 5 0 19 -17 31 -37z m-487 -253 c16 -49 23 -160 13
-199 -6 -23 -45 -61 -63 -61 -55 0 -102 74 -105 166 -2 60 -2 62 34 82 19 12
48 35 63 50 15 16 30 27 33 23 4 -3 15 -31 25 -61z m-3686 -194 c0 -3 -4 -8
-10 -11 -5 -3 -10 -1 -10 4 0 6 5 11 10 11 6 0 10 -2 10 -4z m194 -25 c3 -5 8
-25 10 -44 3 -20 12 -47 21 -60 29 -45 -8 -50 -66 -9 -43 30 -50 62 -23 100
15 22 48 30 58 13z"/>
</g>
</svg>
