<?xml version="1.0" standalone="no"?>
<!DOCTYPE svg PUBLIC "-//W3C//DTD SVG 20010904//EN"
 "http://www.w3.org/TR/2001/REC-SVG-20010904/DTD/svg10.dtd">
<svg version="1.0" xmlns="http://www.w3.org/2000/svg"
 width="400.000000pt" height="400.000000pt" viewBox="0 0 400.000000 400.000000"
 preserveAspectRatio="xMidYMid meet">
<metadata>
Created by potrace 1.14, written by Peter Selinger 2001-2017
</metadata>
<g transform="translate(0.000000,400.000000) scale(0.100000,-0.100000)"
fill="#000000" stroke="none">
<path d="M2286 3978 c-18 -26 -21 -47 -5 -31 6 6 17 9 25 6 10 -4 11 -9 1 -23
-6 -11 -8 -22 -5 -25 8 -9 67 -13 66 -6 0 4 1 8 2 11 1 3 3 17 4 32 2 24 -1
27 -20 22 -19 -5 -22 -2 -17 15 8 29 -31 28 -51 -1z"/>
<path d="M2660 3989 c0 -22 22 -49 40 -49 10 0 23 -7 28 -16 7 -12 11 -13 17
-5 8 13 -23 53 -35 46 -4 -3 -10 4 -13 15 -5 21 -37 28 -37 9z"/>
<path d="M2850 3990 c0 -5 7 -7 15 -4 8 4 15 8 15 10 0 2 -7 4 -15 4 -8 0 -15
-4 -15 -10z"/>
<path d="M2950 3988 c0 -23 16 -39 33 -32 9 3 17 2 17 -3 0 -8 51 -43 64 -43
3 0 6 7 6 15 0 20 49 20 57 -1 3 -8 0 -21 -7 -27 -10 -9 -14 -9 -17 0 -4 10
-32 4 -61 -13 -2 -1 0 -13 4 -28 6 -24 8 -25 27 -11 18 13 22 12 33 -3 8 -9
14 -27 14 -39 0 -13 5 -23 10 -23 6 0 10 7 10 15 0 8 5 15 10 15 17 0 11 -26
-10 -45 -18 -16 -20 -16 -36 -1 -11 12 -20 14 -27 7 -15 -15 -1 -42 19 -34 13
5 16 3 11 -10 -3 -9 -2 -19 3 -22 11 -7 3 -54 -11 -69 -4 -5 -16 -5 -26 -2
-17 7 -17 8 0 21 17 12 17 13 0 19 -10 4 -19 2 -21 -3 -2 -6 -8 -9 -13 -5 -5
3 -9 -6 -9 -19 0 -13 -8 -31 -18 -40 -23 -21 -39 -22 -22 -2 10 12 9 15 -4 15
-9 0 -19 -7 -22 -15 -4 -8 -15 -15 -26 -15 -11 0 -18 -5 -15 -12 2 -7 13 -11
23 -10 13 3 16 1 9 -7 -17 -17 -73 -20 -95 -4 -26 18 -40 9 -40 -27 0 -24 3
-28 18 -23 13 4 14 3 6 -6 -13 -14 -44 -4 -44 15 0 8 -5 14 -11 14 -5 0 -8 -4
-5 -9 3 -5 0 -14 -7 -20 -11 -8 -13 -6 -13 11 1 25 -21 34 -44 17 -11 -8 -12
-12 -2 -16 23 -9 12 -29 -20 -38 -23 -7 -33 -16 -33 -30 0 -24 38 -33 61 -15
17 15 18 1 1 -21 -7 -9 -18 -14 -25 -12 -6 3 -25 -1 -41 -8 -23 -10 -27 -16
-19 -26 8 -10 6 -13 -6 -13 -17 0 -20 -9 -10 -34 9 -23 24 -20 24 5 0 11 5 17
10 14 6 -4 8 -11 5 -16 -4 -5 -1 -9 5 -9 21 0 4 -23 -18 -25 -30 -2 -35 -10
-22 -34 7 -14 7 -21 0 -21 -5 0 -10 7 -10 15 0 9 -9 15 -22 15 -16 0 -19 3
-10 9 10 6 10 10 -3 21 -8 7 -15 19 -15 26 0 14 -27 8 -78 -18 -22 -11 -22
-12 -2 -30 11 -10 23 -18 27 -17 25 4 53 -3 53 -12 0 -6 -8 -9 -18 -7 -10 3
-23 -1 -30 -9 -16 -16 -32 -17 -32 -1 0 7 -6 5 -17 -4 -10 -9 -28 -19 -40 -22
-13 -4 -23 -12 -23 -17 0 -12 -36 -12 -60 1 -11 6 -21 6 -24 1 -3 -5 -15 -7
-26 -4 -45 12 0 -36 59 -62 41 -18 32 -35 -29 -55 -48 -16 -50 -24 -11 -45 17
-8 33 -20 37 -26 4 -8 3 -9 -4 -5 -13 8 -72 -20 -72 -34 0 -15 22 -23 30 -10
5 8 13 5 26 -12 26 -31 44 -33 45 -5 0 15 2 17 6 7 4 -10 10 -3 18 20 9 26 18
35 34 34 15 0 21 5 21 20 1 19 2 20 13 4 13 -17 32 -19 53 -5 6 3 14 4 17 0
11 -10 -3 -23 -25 -23 -14 0 -18 -5 -14 -16 3 -9 6 -20 6 -26 0 -6 7 -7 16 -4
14 5 15 4 5 -8 -10 -12 -8 -16 8 -21 25 -8 27 -21 5 -29 -10 -4 -13 -2 -9 7 4
6 0 4 -8 -5 -8 -10 -19 -18 -26 -18 -6 0 -11 -5 -11 -11 0 -6 -7 -9 -15 -5
-11 4 -15 -1 -15 -19 0 -14 -5 -25 -11 -25 -6 0 -9 6 -6 14 4 10 0 12 -14 9
-11 -3 -19 0 -19 6 0 7 -4 9 -10 6 -10 -6 -15 -65 -6 -65 3 0 16 4 30 10 30
11 34 -1 10 -25 -9 -8 -13 -22 -10 -30 4 -12 1 -12 -21 -2 -21 9 -27 8 -39 -8
-14 -18 -15 -18 -36 5 -13 14 -23 31 -23 40 0 8 -9 15 -20 16 -37 2 -65 18
-56 33 7 11 13 10 34 -4 25 -16 25 -16 20 4 -6 25 -51 29 -59 6 -4 -8 -12 -15
-19 -15 -8 0 -11 -8 -8 -20 3 -11 0 -20 -6 -20 -5 0 -8 -7 -5 -15 4 -8 1 -22
-5 -29 -8 -9 -8 -16 -2 -20 5 -4 12 -2 16 4 4 6 11 8 16 4 5 -3 7 -10 4 -15
-3 -5 1 -6 9 -3 9 3 16 2 16 -2 0 -5 11 -10 25 -10 26 -2 33 14 15 32 -8 8 -6
15 4 23 12 10 17 7 30 -18 24 -46 21 -52 -25 -47 -39 5 -41 4 -37 -19 3 -13 0
-26 -6 -29 -7 -3 -6 -9 4 -18 8 -7 14 -23 12 -34 -5 -35 27 -38 56 -7 25 27
36 72 19 84 -4 3 -5 13 -2 21 8 21 40 12 60 -18 14 -21 14 -24 0 -24 -8 0 -15
-6 -15 -14 0 -7 -6 -19 -14 -25 -8 -7 -12 -20 -9 -30 3 -10 -1 -22 -8 -26 -8
-5 -10 -4 -5 3 4 7 1 12 -8 12 -9 0 -16 -7 -16 -15 0 -8 5 -15 10 -15 6 0 10
-5 10 -11 0 -6 -7 -8 -16 -5 -8 3 -21 0 -28 -6 -10 -10 -10 -17 2 -41 17 -35
10 -44 -22 -27 -14 7 -32 10 -41 6 -12 -4 -16 -2 -12 8 3 7 0 19 -6 25 -19 19
24 13 45 -6 18 -16 18 -16 12 0 -3 9 -10 17 -16 17 -5 0 -6 5 -3 11 7 11 -39
59 -57 59 -7 0 -3 -7 8 -16 18 -15 18 -15 0 -10 -15 5 -17 4 -7 -8 8 -10 9
-21 1 -40 -13 -34 -13 -39 1 -30 7 4 9 0 5 -13 -4 -11 -7 -38 -8 -59 -1 -22
-7 -49 -15 -60 -12 -19 -12 -22 1 -27 9 -4 18 -2 21 3 3 4 -1 10 -7 13 -17 5
8 37 28 37 9 0 14 12 14 36 0 32 2 35 15 24 24 -20 16 -76 -12 -91 -22 -12
-22 -13 -6 -32 10 -11 12 -17 6 -13 -7 4 -22 -2 -35 -13 -12 -12 -27 -21 -34
-21 -6 0 -14 -7 -18 -15 -3 -8 -10 -15 -16 -15 -5 0 -10 7 -10 15 0 16 -12 20
-23 8 -4 -3 -2 -12 4 -20 9 -10 6 -13 -14 -13 -14 0 -29 5 -33 12 -5 8 -10 6
-14 -7 -4 -11 -18 -22 -31 -25 -19 -5 -23 -12 -21 -34 3 -25 1 -26 -18 -16
-11 6 -19 14 -16 18 4 6 -16 7 -56 3 -5 -1 -8 -6 -8 -12 0 -5 5 -7 10 -4 11 7
26 -22 16 -32 -3 -3 -12 -1 -19 6 -11 9 -17 7 -28 -6 -12 -14 -12 -15 0 -9 7
5 16 4 20 -2 8 -13 36 -19 38 -8 2 13 26 26 49 26 26 0 40 29 22 43 -9 6 -8 7
5 3 10 -3 20 0 23 8 4 9 21 12 61 10 32 -2 63 -6 70 -9 8 -2 11 0 8 5 -3 6
-15 10 -26 10 -26 0 -24 17 4 26 12 4 30 16 40 27 9 11 17 15 17 8 0 -7 5 -9
10 -6 6 3 10 -3 10 -14 0 -31 11 -51 27 -51 9 0 13 -6 10 -14 -3 -8 -3 -17 1
-21 4 -4 8 -11 8 -16 1 -5 2 -13 3 -18 0 -5 9 -8 18 -7 25 2 27 -27 2 -42 -25
-16 -50 0 -46 30 1 13 -5 22 -15 23 -10 2 -18 0 -18 -4 0 -5 -9 -18 -20 -31
-15 -17 -20 -19 -20 -7 0 8 -3 22 -6 31 -4 11 0 16 12 16 24 0 9 13 -19 15
-12 2 -21 7 -20 13 2 6 -6 9 -16 7 -10 -2 -24 0 -31 5 -7 4 -19 6 -25 3 -16
-6 -7 -43 11 -43 7 0 18 -9 24 -20 8 -14 8 -20 0 -20 -6 0 -9 -4 -6 -8 2 -4
-6 -9 -20 -10 -18 -1 -24 3 -24 18 0 11 -4 20 -8 20 -15 0 -30 -23 -25 -37 5
-12 1 -14 -15 -9 -30 10 -37 -12 -13 -38 12 -12 21 -26 21 -32 0 -5 -4 -2 -9
5 -8 12 -12 10 -22 -11 -13 -29 -25 -28 -71 6 -35 25 -35 34 -2 42 23 6 24 8
10 16 -30 17 -76 27 -76 17 0 -5 -7 -9 -15 -9 -8 0 -15 7 -15 15 0 8 6 15 14
15 8 0 17 11 20 25 7 28 1 45 -15 45 -6 0 -7 -4 -4 -10 4 -6 -5 -10 -19 -10
-30 0 -35 -17 -6 -22 14 -2 17 -7 10 -17 -7 -12 -13 -13 -34 -3 -14 6 -26 18
-26 27 0 11 -12 15 -50 15 -41 0 -50 -3 -50 -18 0 -17 48 -66 72 -74 20 -7 -2
-28 -29 -28 -26 0 -26 0 -7 -21 14 -16 15 -23 7 -26 -7 -3 -13 -11 -13 -19 0
-9 -6 -11 -17 -7 -16 6 -17 5 -2 -9 16 -16 64 -19 87 -5 17 11 15 37 -3 37
-21 0 -19 50 3 66 20 16 42 18 42 4 0 -5 -7 -10 -16 -10 -29 0 -11 -35 21 -38
17 -2 36 -8 43 -14 14 -12 17 -32 3 -23 -5 3 -12 1 -16 -5 -3 -5 -1 -10 5 -10
6 0 8 -5 4 -11 -4 -8 -13 -4 -24 11 l-18 23 -16 -31 c-17 -34 -22 -56 -6 -32
8 13 10 12 10 -3 0 -10 4 -15 10 -12 5 3 7 0 4 -9 -3 -8 -18 -16 -32 -18 -27
-3 -29 -23 -2 -23 14 0 43 -45 35 -54 -3 -2 -14 4 -24 14 -20 17 -20 17 -14
-21 3 -22 10 -43 14 -48 14 -16 10 -39 -5 -33 -18 7 -42 -18 -26 -28 5 -3 10
1 10 11 0 35 27 -6 28 -43 1 -20 6 -41 12 -47 5 -5 10 -14 10 -18 0 -12 -48
-10 -55 2 -10 17 -45 -8 -45 -33 0 -12 -5 -29 -11 -37 -8 -11 -9 -5 -4 23 4
23 2 37 -5 37 -9 0 -14 -14 -11 -33 1 -4 -6 -7 -16 -5 -10 2 -19 -4 -21 -16
-3 -13 0 -16 9 -11 9 6 11 3 6 -8 -7 -17 29 -50 45 -41 4 3 5 -2 2 -10 -3 -9
-11 -16 -18 -16 -6 0 -3 -5 7 -11 9 -5 17 -16 17 -24 0 -8 6 -12 14 -9 7 3 16
-2 20 -12 5 -12 10 -14 19 -5 10 8 21 7 40 -2 32 -15 43 -48 21 -64 -20 -15
-10 -48 11 -39 26 9 16 -8 -15 -29 -37 -25 -66 -26 -64 -2 1 10 -3 17 -10 16
-6 -1 -24 1 -39 6 -36 10 -56 -7 -37 -30 15 -18 50 -20 50 -3 0 9 3 9 11 1 12
-12 15 -86 4 -103 -3 -5 -12 -7 -20 -3 -9 3 -15 -1 -15 -11 0 -9 -4 -16 -10
-16 -5 0 -10 -7 -10 -15 0 -21 -12 -19 -39 6 -12 12 -24 19 -27 16 -9 -9 -13
-47 -4 -42 5 3 11 1 15 -5 3 -5 15 -10 26 -10 10 0 19 -6 19 -14 0 -9 8 -12
24 -9 17 4 25 0 28 -14 4 -16 0 -20 -23 -20 -16 0 -29 6 -29 13 0 6 -12 19
-26 29 -22 14 -28 15 -35 4 -15 -23 -10 -39 12 -39 16 0 19 -4 14 -22 -4 -15
-3 -19 3 -10 7 10 11 10 21 -2 17 -20 32 -86 20 -86 -5 0 -9 -13 -9 -29 0 -26
-3 -29 -26 -27 -28 3 -49 29 -38 47 3 6 0 15 -7 20 -17 11 -29 11 -28 2 3 -20
-2 -26 -11 -13 -8 12 -10 10 -10 -8 0 -19 -4 -22 -20 -17 -17 5 -20 2 -20 -24
0 -18 -8 -35 -20 -44 -11 -8 -17 -17 -13 -20 3 -4 1 -7 -6 -7 -9 0 -9 -5 -1
-20 10 -18 13 -19 25 -6 8 8 15 21 15 28 0 23 16 39 33 33 13 -6 13 -9 -5 -27
-13 -13 -18 -27 -13 -41 13 -45 11 -52 -20 -55 -38 -5 -51 -16 -58 -50 -4 -19
-15 -31 -37 -39 -17 -7 -34 -21 -37 -33 -7 -25 -25 -22 -29 5 -2 10 -10 22
-18 27 -9 5 -13 16 -9 26 4 13 0 11 -16 -5 -12 -13 -29 -23 -39 -24 -13 0 -11
-3 5 -9 13 -6 20 -15 17 -23 -3 -8 1 -19 9 -25 14 -12 12 -58 -3 -67 -5 -3
-20 -1 -34 5 -18 6 -26 6 -26 -1 0 -5 -12 -20 -27 -33 -46 -40 -4 -64 44 -26
15 12 34 18 44 15 12 -4 18 -1 18 12 2 39 8 73 14 80 4 3 7 -1 7 -10 0 -9 7
-17 16 -17 8 0 13 -4 9 -9 -3 -5 0 -13 6 -16 5 -4 8 -13 5 -21 -3 -8 0 -26 6
-40 10 -20 9 -27 -2 -34 -8 -5 -18 -6 -23 -3 -5 3 -7 -3 -5 -13 3 -16 13 -19
63 -19 55 0 60 -2 63 -22 2 -14 -2 -23 -9 -23 -7 0 -24 -11 -39 -25 -25 -24
-44 -27 -120 -22 -31 2 -35 -1 -38 -25 -3 -22 1 -27 30 -33 21 -5 33 -4 36 4
7 21 22 11 42 -28 17 -34 18 -41 5 -51 -12 -10 -15 -9 -15 3 0 18 -33 40 -44
30 -3 -3 -6 -1 -6 5 0 7 -5 12 -11 12 -5 0 -8 -4 -5 -8 2 -4 1 -14 -3 -21 -7
-10 -12 -10 -29 0 -13 8 -18 17 -12 24 6 8 -1 10 -25 7 -19 -2 -43 -1 -52 3
-10 5 -21 7 -25 7 -5 -1 -7 3 -5 10 1 6 -5 13 -15 15 -11 3 -18 -5 -23 -27 -6
-28 -10 -31 -36 -25 -26 6 -29 4 -27 -19 1 -15 9 -26 16 -26 12 0 12 -3 2 -15
-11 -13 -7 -15 29 -15 30 0 52 8 77 26 34 26 35 26 49 8 8 -10 15 -22 15 -26
0 -5 52 -8 116 -8 96 0 115 2 105 13 -6 8 -8 17 -4 20 9 10 57 -4 66 -20 11
-17 187 -19 205 -1 9 9 15 9 24 0 9 -9 246 -12 1005 -12 935 0 993 1 1001 18
5 9 8 23 6 30 -1 7 0 8 3 2 2 -5 9 -10 14 -10 6 0 7 5 4 11 -4 6 1 17 11 24
25 19 34 18 34 0 0 -8 -4 -15 -8 -15 -5 0 -14 -12 -20 -26 -7 -14 -17 -22 -22
-19 -6 3 -10 1 -10 -4 0 -7 42 -11 120 -11 l120 0 0 1926 c0 1823 -1 1928 -17
1940 -12 9 -14 13 -5 14 24 0 1 20 -23 20 -35 0 -39 16 -14 50 25 33 39 38 39
15 0 -8 5 -15 10 -15 6 0 10 11 10 23 0 23 -4 24 -70 25 -40 1 -70 -3 -70 -8
0 -6 -7 -10 -15 -10 -8 0 -15 5 -15 10 0 7 -69 10 -194 9 -156 -1 -196 -4
-200 -15 -7 -19 -35 -18 -42 1 -8 19 -87 21 -102 2 -6 -7 -25 -14 -42 -15 -17
-1 -40 -12 -51 -23 -15 -15 -24 -18 -32 -10 -6 6 -21 11 -33 11 -14 0 -25 8
-29 20 -8 24 -33 26 -42 5 -5 -13 -8 -13 -20 5 -16 23 -93 30 -93 8z m400 -23
c0 -8 -4 -15 -10 -15 -5 0 -7 7 -4 15 4 8 8 15 10 15 2 0 4 -7 4 -15z m360 0
c0 -8 6 -15 14 -15 11 0 12 -5 3 -25 -14 -30 -28 -31 -51 -6 -14 15 -15 24 -6
40 12 24 40 28 40 6z m-210 -4 c0 -12 -20 -25 -27 -18 -7 7 6 27 18 27 5 0 9
-4 9 -9z m320 -15 c0 -2 -7 -6 -15 -10 -8 -3 -15 -1 -15 4 0 6 7 10 15 10 8 0
15 -2 15 -4z m73 -33 c-3 -7 0 -13 7 -13 6 0 8 -4 5 -10 -12 -20 -35 -11 -31
13 3 12 5 29 5 37 1 13 3 13 10 1 5 -8 7 -20 4 -28z m-610 14 c3 -7 3 -25 2
-40 -2 -15 1 -25 6 -21 5 3 9 0 9 -7 0 -10 3 -10 12 -1 7 7 16 12 20 12 12 0
9 -35 -4 -48 -9 -9 -9 -12 0 -13 22 -3 27 -4 55 -23 15 -10 27 -24 27 -31 0
-6 10 -17 23 -23 12 -6 16 -11 10 -11 -7 -1 -13 -10 -13 -22 0 -28 -23 -19
-30 12 -3 13 -11 24 -18 23 -28 -2 -32 -5 -32 -19 0 -8 -4 -15 -9 -15 -24 0
-41 14 -41 35 0 28 -26 53 -41 38 -7 -7 -5 -14 6 -23 17 -14 20 -30 5 -30 -5
0 -10 7 -10 15 0 8 -4 15 -10 15 -5 0 -10 -7 -10 -17 0 -14 -2 -14 -20 2 -11
10 -20 15 -20 11 0 -4 -6 -1 -14 6 -13 11 -13 15 1 25 8 6 21 9 29 6 12 -4 14
0 8 23 -4 16 -11 37 -15 46 -18 34 -10 58 24 72 41 18 44 19 50 3z m167 -12
c0 -8 4 -15 10 -15 6 0 6 -9 1 -22 -11 -29 -72 -33 -79 -5 -2 9 -8 17 -13 17
-5 0 -9 5 -9 10 0 6 9 10 21 10 15 0 19 -5 15 -15 -4 -13 -2 -14 14 -5 11 6
20 17 20 25 0 8 5 15 10 15 6 0 10 -7 10 -15z m94 -10 c17 -13 17 -15 3 -21
-25 -9 -51 0 -55 19 -4 21 25 22 52 2z m41 5 c3 -5 1 -10 -4 -10 -6 0 -11 5
-11 10 0 6 2 10 4 10 3 0 8 -4 11 -10z m62 -71 c0 -16 -4 -26 -8 -23 -4 2 -10
0 -13 -5 -6 -10 -56 -12 -55 -2 1 15 18 45 18 34 1 -7 8 -13 17 -13 10 0 14 6
11 14 -7 16 -2 23 16 23 8 0 14 -12 14 -28z m-182 -19 c3 -5 1 -10 -4 -10 -6
0 -11 5 -11 10 0 6 2 10 4 10 3 0 8 -4 11 -10z m15 -104 c-14 -14 -22 -2 -14
18 5 14 9 15 15 4 4 -7 4 -17 -1 -22z m-272 -48 c-6 -18 -28 -21 -28 -4 0 9 7
16 16 16 9 0 14 -5 12 -12z m157 -13 c0 -10 -5 -20 -11 -22 -13 -4 -27 24 -18
38 9 15 29 4 29 -16z m270 15 c3 -5 1 -10 -4 -10 -6 0 -11 5 -11 10 0 6 2 10
4 10 3 0 8 -4 11 -10z m-315 -20 c0 -5 -4 -10 -10 -10 -5 0 -10 5 -10 10 0 6
5 10 10 10 6 0 10 -4 10 -10z m340 -10 c0 -5 -2 -10 -4 -10 -3 0 -8 5 -11 10
-3 6 -1 10 4 10 6 0 11 -4 11 -10z m-366 -18 c-6 -4 -14 -14 -17 -22 -4 -10
-6 -8 -6 8 -1 15 5 22 17 22 10 0 13 -3 6 -8z m366 -34 c0 -4 -7 -8 -15 -8
-10 0 -15 10 -15 28 1 26 1 26 15 8 8 -11 15 -23 15 -28z m-573 10 c-3 -8 -6
-5 -6 6 -1 11 2 17 5 13 3 -3 4 -12 1 -19z m253 -12 c0 -20 -6 -25 -34 -28
-32 -3 -33 -2 -23 19 9 19 21 27 50 32 4 0 7 -10 7 -23z m-330 -25 c0 -5 -9
-7 -20 -4 -11 3 -20 7 -20 9 0 2 9 4 20 4 11 0 20 -4 20 -9z m-7 -35 c22 8 31
-14 13 -32 -15 -14 -17 -14 -22 1 -6 14 -8 14 -19 -1 -9 -12 -14 -14 -19 -5
-4 6 -3 18 3 25 6 7 7 17 3 22 -4 4 0 3 9 -4 9 -7 23 -10 32 -6z m202 -84 c-3
-3 -5 0 -5 6 0 16 -42 15 -59 0 -11 -11 -13 -10 -7 5 3 10 6 21 6 23 0 2 11 2
25 -2 17 -4 25 -2 26 7 0 8 5 3 10 -10 5 -13 7 -26 4 -29z m-155 2 c0 -2 -9
-4 -21 -4 -11 0 -18 4 -14 10 5 8 35 3 35 -6z m207 -17 c0 -8 -6 -14 -14 -14
-17 0 -17 14 0 20 6 3 12 6 13 6 0 1 1 -5 1 -12z m129 -23 c-6 -21 -4 -25 8
-21 9 4 16 2 16 -3 0 -14 -22 -12 -42 4 -21 15 -23 32 -5 39 24 10 29 7 23
-19z m-546 -16 c0 -12 -3 -18 -7 -14 -10 10 -11 46 -1 40 4 -3 8 -15 8 -26z
m420 -9 c0 -5 -4 -9 -10 -9 -5 0 -10 7 -10 16 0 8 5 12 10 9 6 -3 10 -10 10
-16z m80 -19 c-6 -11 -8 -24 -6 -29 3 -5 0 -11 -7 -14 -19 -7 -16 41 3 53 21
14 22 13 10 -10z m-90 -46 c0 -8 -7 -14 -15 -14 -10 0 -15 10 -15 26 0 22 2
25 15 14 8 -7 15 -19 15 -26z m-94 1 c-2 -6 9 -19 24 -29 24 -14 28 -21 21
-39 -12 -33 -30 -27 -55 18 -11 22 -24 41 -28 43 -16 7 5 29 23 25 11 -3 18
-11 15 -18z m-369 -74 c2 -34 0 -40 -17 -38 -22 1 -21 1 -25 35 -2 19 16 41
35 42 3 0 6 -18 7 -39z m238 19 c3 -5 -1 -10 -9 -10 -9 0 -16 5 -16 10 0 6 4
10 9 10 6 0 13 -4 16 -10z m-41 -36 c7 -17 -8 -69 -19 -67 -14 2 -19 23 -6 23
6 0 11 9 11 20 0 14 -7 20 -24 20 -19 0 -23 4 -19 19 4 17 9 18 28 9 13 -6 26
-16 29 -24z m-254 22 c0 -3 -4 -8 -10 -11 -5 -3 -10 -1 -10 4 0 6 5 11 10 11
6 0 10 -2 10 -4z m110 -16 c0 -5 -4 -10 -10 -10 -5 0 -10 5 -10 10 0 6 5 10
10 10 6 0 10 -4 10 -10z m170 6 c0 -3 -4 -8 -10 -11 -5 -3 -10 -1 -10 4 0 6 5
11 10 11 6 0 10 -2 10 -4z m70 -6 c0 -5 -5 -10 -11 -10 -5 0 -7 5 -4 10 3 6 8
10 11 10 2 0 4 -4 4 -10z m-54 -27 c-10 -10 -19 5 -10 18 6 11 8 11 12 0 2 -7
1 -15 -2 -18z m-400 -25 c8 2 14 -2 14 -8 0 -5 7 -10 15 -10 20 0 18 -10 -6
-39 -17 -21 -21 -22 -37 -9 -9 9 -23 13 -29 11 -7 -3 -13 3 -13 12 0 11 7 16
23 15 35 -3 44 1 22 10 -11 5 -37 9 -58 9 -24 1 -36 5 -32 12 4 6 13 8 20 5 8
-3 19 2 26 10 12 14 14 14 27 -3 7 -10 20 -17 28 -15z m518 16 c9 -8 16 -17
16 -19 0 -10 -27 -63 -47 -94 l-23 -34 -11 32 c-6 18 -15 28 -22 24 -7 -4 -8
0 -4 11 4 10 7 21 7 26 0 4 10 11 23 14 l22 7 -22 9 c-13 5 -23 12 -23 15 0 7
39 23 57 24 6 1 19 -6 27 -15z m-374 -12 c0 -4 -6 -14 -12 -21 -8 -9 -8 -11
-2 -8 7 4 14 0 18 -8 4 -10 0 -14 -14 -12 -29 5 -33 13 -18 36 13 21 28 28 28
13z m-65 -32 c3 -5 1 -10 -4 -10 -6 0 -11 5 -11 10 0 6 2 10 4 10 3 0 8 -4 11
-10z m585 -29 c0 -15 10 -20 48 -26 145 -21 291 -91 397 -190 58 -54 92 -109
101 -165 3 -19 12 -53 20 -74 14 -37 28 -157 27 -236 -1 -63 -114 -395 -154
-452 -11 -14 -19 -33 -19 -42 0 -17 -58 -137 -71 -146 -3 -3 -14 -21 -24 -40
-10 -19 -30 -50 -44 -68 -14 -17 -38 -47 -52 -65 -14 -17 -34 -47 -43 -64 -9
-18 -20 -33 -24 -33 -4 0 -25 -23 -47 -51 -21 -28 -56 -62 -77 -75 -26 -17
-41 -34 -45 -55 -4 -23 -12 -31 -34 -36 -20 -4 -36 -18 -54 -49 -17 -29 -40
-51 -68 -65 -51 -26 -78 -49 -71 -60 8 -14 -23 -40 -43 -37 -10 2 -19 -4 -21
-15 -6 -30 -131 -155 -163 -162 -15 -4 -39 -19 -52 -34 -43 -52 -74 -65 -143
-63 -49 2 -77 -3 -126 -24 -56 -24 -67 -25 -106 -15 -62 16 -86 14 -158 -15
-77 -31 -104 -29 -123 10 -12 25 -11 35 12 95 14 36 28 76 32 89 4 12 10 20
14 18 4 -3 7 16 7 42 0 26 7 63 16 82 9 19 19 44 22 54 7 19 7 19 21 -1 15
-21 80 -39 70 -19 -3 6 -8 19 -11 28 -4 10 -10 18 -15 18 -5 0 -9 9 -9 20 0
11 4 20 10 20 10 0 44 59 38 66 -2 2 -14 1 -26 -3 -17 -4 -20 -9 -12 -23 14
-26 13 -28 -15 -26 -22 1 -25 4 -20 28 4 15 8 41 10 59 5 34 30 79 45 79 5 0
7 -7 4 -15 -4 -11 1 -15 17 -15 18 0 20 3 11 12 -19 19 -14 29 13 22 36 -9 54
1 48 25 -3 12 -11 21 -17 21 -20 0 -40 48 -39 93 2 68 4 77 14 77 5 0 9 6 7
13 -1 6 4 23 11 36 7 13 11 34 8 47 -2 13 0 21 4 18 5 -3 9 6 9 19 0 21 4 24
30 23 17 -1 35 -7 39 -15 7 -10 13 -11 30 -2 17 10 19 16 11 31 -6 11 -16 23
-23 27 -26 17 -38 42 -31 67 6 25 29 36 36 16 2 -6 9 -6 18 0 13 8 12 11 -5
24 -20 14 -20 15 3 45 12 17 22 35 22 42 0 8 12 10 36 6 l36 -6 -4 34 c-3 24
0 35 9 35 7 0 17 18 23 40 6 22 20 49 31 59 21 20 18 41 -5 41 -8 0 -16 -17
-20 -40 -7 -47 -16 -50 -33 -13 -11 22 -10 31 8 59 11 19 17 39 13 46 -5 8
-10 6 -15 -8 -5 -13 -8 -14 -8 -4 0 8 3 21 8 29 8 12 12 12 25 2 14 -12 16
-10 16 12 0 13 7 30 15 37 8 7 12 16 9 21 -3 5 0 9 5 9 6 0 11 8 11 17 0 13 3
14 11 6 6 -6 18 -9 25 -6 8 3 14 0 14 -6 0 -6 7 -11 15 -11 24 0 17 20 -10 30
-26 10 -32 24 -16 35 6 3 14 -2 19 -11 13 -23 32 -8 32 25 0 18 -5 28 -15 28
-8 0 -15 -6 -15 -14 0 -7 -4 -13 -10 -13 -5 0 -10 9 -10 19 0 11 5 23 10 26 6
3 10 15 10 26 0 10 7 19 15 19 8 0 15 -7 15 -15 0 -17 16 -20 25 -5 3 6 -1 13
-9 16 -24 9 -20 29 15 76 21 30 28 49 24 66 -4 15 -2 21 5 17 5 -3 10 1 10 9
0 24 14 19 39 -14 23 -31 46 -32 36 -1 -3 9 2 26 10 37 20 26 19 61 -2 73 -14
7 -15 12 -5 23 6 8 9 17 6 20 -3 3 6 28 20 55 23 46 27 49 55 45 45 -6 39 16
-9 36 -45 19 -49 27 -20 42 14 7 20 7 20 0 0 -5 5 -10 11 -10 5 0 8 3 6 8 -7
11 30 74 38 63 3 -6 1 -19 -5 -30 -8 -16 -6 -22 10 -31 11 -6 24 -9 28 -6 5 3
25 1 45 -4 35 -7 37 -7 37 17 0 13 10 33 23 43 12 11 36 30 52 44 36 31 45 32
45 7z m-597 -5 c4 -10 0 -12 -14 -9 -10 3 -16 9 -13 14 8 13 21 11 27 -5z
m210 7 c9 -9 -52 -45 -64 -38 -17 11 -9 34 14 38 37 7 43 7 50 0z m-459 -28
c-15 -23 -63 -38 -49 -15 4 6 10 8 15 5 4 -3 10 4 13 15 3 11 12 20 21 20 15
0 15 -2 0 -25z m154 -33 c2 -7 -6 -12 -22 -12 -13 0 -28 -4 -31 -10 -3 -5 -13
-10 -21 -10 -8 0 -12 5 -9 10 4 6 -12 10 -42 10 l-48 0 30 16 c16 8 40 13 53
11 12 -2 25 -1 27 3 7 11 58 -4 63 -18z m118 -38 c-10 -7 -14 -18 -10 -29 5
-13 2 -16 -12 -13 -11 2 -20 13 -22 26 -3 17 2 22 20 23 13 0 17 3 10 6 -6 2
-9 9 -6 14 3 6 12 5 21 -2 13 -12 13 -14 -1 -25z m-65 6 c5 0 9 -7 9 -16 0
-13 -3 -14 -13 -5 -8 6 -16 8 -19 5 -3 -2 -8 3 -12 12 -5 12 -2 15 10 10 8 -3
20 -6 25 -6z m99 -60 c0 -5 -2 -10 -4 -10 -3 0 -8 5 -11 10 -3 6 -1 10 4 10 6
0 11 -4 11 -10z m-125 -210 c3 -5 1 -10 -4 -10 -6 0 -11 5 -11 10 0 6 2 10 4
10 3 0 8 -4 11 -10z m93 -18 c2 -7 -2 -10 -12 -6 -9 3 -16 11 -16 16 0 13 23
5 28 -10z m-171 -14 c-3 -8 -6 -5 -6 6 -1 11 2 17 5 13 3 -3 4 -12 1 -19z
m-80 -4 c-3 -3 -12 -4 -19 -1 -8 3 -5 6 6 6 11 1 17 -2 13 -5z m18 -24 c7 -12
-2 -12 -30 0 -19 8 -19 9 2 9 12 1 25 -3 28 -9z m-15 -30 c0 -5 -4 -10 -10
-10 -5 0 -10 5 -10 10 0 6 5 10 10 10 6 0 10 -4 10 -10z m83 -93 c-22 -45 -34
-47 -31 -7 2 20 7 29 15 26 8 -4 13 3 13 16 0 16 3 19 11 11 7 -7 5 -21 -8
-46z m-126 -19 c-3 -8 -6 -5 -6 6 -1 11 2 17 5 13 3 -3 4 -12 1 -19z m-7 -40
c0 -5 -8 -8 -17 -6 -10 2 -28 -8 -41 -22 -16 -19 -20 -20 -16 -6 12 32 48 63
62 53 6 -5 12 -14 12 -19z m45 -9 c4 -6 13 -8 21 -5 8 3 14 2 14 -3 0 -15 -13
-21 -26 -10 -8 6 -21 9 -29 5 -15 -5 -21 5 -8 17 9 10 21 8 28 -4z m-50 -43
c16 -11 17 -17 7 -29 -10 -12 -10 -16 3 -21 13 -5 20 5 16 27 0 4 4 7 9 7 6 0
10 -4 10 -10 0 -5 8 -7 18 -3 14 5 15 3 5 -8 -20 -21 -16 -41 7 -34 29 9 25
-14 -5 -25 -14 -5 -25 -17 -26 -27 0 -16 -1 -15 -8 2 -5 11 -4 29 1 40 9 16 8
18 -3 8 -18 -18 -39 -16 -39 2 0 8 -6 15 -13 15 -9 0 -13 12 -13 35 1 39 4 41
31 21z m-67 -18 c-3 -7 -13 -15 -24 -17 -16 -3 -17 -1 -5 13 16 19 34 21 29 4z
m192 -7 c0 -6 -4 -13 -10 -16 -5 -3 -10 1 -10 9 0 9 5 16 10 16 6 0 10 -4 10
-9z m110 -1 c0 -5 -7 -10 -15 -10 -8 0 -15 5 -15 10 0 6 7 10 15 10 8 0 15 -4
15 -10z m-275 -60 c8 -13 -15 -13 -35 0 -12 8 -11 10 7 10 12 0 25 -4 28 -10z
m-68 -42 c-3 -8 -6 -5 -6 6 -1 11 2 17 5 13 3 -3 4 -12 1 -19z m106 -8 c4 -18
2 -20 -16 -14 -28 8 -30 11 -22 23 10 18 32 12 38 -9z m-33 -30 c0 -5 -4 -10
-10 -10 -5 0 -10 5 -10 10 0 6 5 10 10 10 6 0 10 -4 10 -10z m40 -10 c0 -5 -4
-10 -10 -10 -5 0 -10 5 -10 10 0 6 5 10 10 10 6 0 10 -4 10 -10z m-33 -35 c8
-9 12 -22 9 -30 -6 -17 -26 -20 -26 -4 0 6 -6 9 -14 6 -11 -4 -11 -1 -2 19 13
28 13 28 33 9z m113 0 c10 -12 10 -15 -3 -15 -8 0 -17 7 -21 15 -3 8 -2 15 3
15 5 0 14 -7 21 -15z m56 -46 c4 -8 9 -7 15 2 4 7 11 11 14 8 3 -4 0 -11 -7
-17 -9 -7 -19 -6 -32 4 -11 8 -15 14 -9 14 7 0 15 -5 19 -11z m-184 -25 c-23
-18 -52 -17 -52 1 0 10 10 14 35 13 31 -1 32 -3 17 -14z m-44 -69 c0 -27 -8
-31 -25 -14 -9 9 -8 15 0 25 18 20 25 17 25 -11z m69 -12 c-3 -3 -11 -2 -17 2
-9 6 -9 10 1 16 14 8 27 -7 16 -18z m197 -4 c-6 -11 -24 -2 -24 11 0 5 7 7 15
4 8 -4 12 -10 9 -15z m-449 -19 c3 -5 1 -10 -4 -10 -6 0 -11 5 -11 10 0 6 2
10 4 10 3 0 8 -4 11 -10z m295 0 c0 -5 -5 -10 -11 -10 -5 0 -8 -4 -5 -9 3 -5
-1 -12 -10 -15 -21 -8 -24 -8 -24 5 0 5 5 7 12 3 7 -5 9 -2 5 9 -3 9 -1 18 6
21 20 8 27 7 27 -4z m145 -20 c3 -5 3 -15 -1 -21 -6 -11 -23 6 -24 24 0 10 18
9 25 -3z m-108 -16 c-3 -3 -12 -4 -19 -1 -8 3 -5 6 6 6 11 1 17 -2 13 -5z
m-344 -72 c-5 -20 -33 -26 -33 -7 0 15 10 25 26 25 7 0 10 -8 7 -18z m146 -8
c6 4 11 2 11 -3 0 -6 -8 -11 -18 -11 -10 0 -23 -5 -30 -12 -15 -15 -15 -3 -1
24 8 15 13 17 19 8 4 -7 13 -9 19 -6z m-128 -27 c-8 -8 -11 -7 -11 4 0 9 3 19
7 23 4 4 9 2 11 -4 3 -7 -1 -17 -7 -23z m74 13 c-4 -6 0 -22 9 -35 15 -22 14
-24 -14 -34 -17 -5 -30 -15 -30 -22 0 -7 -8 -9 -22 -5 -44 13 -63 18 -75 18
-6 1 -9 7 -6 15 3 7 8 11 12 8 4 -2 20 -6 36 -9 32 -6 45 6 45 41 0 21 12 31
38 32 7 1 10 -4 7 -9z m-136 -36 c-13 -16 -50 -15 -56 2 -2 6 12 11 33 12 31
1 34 -1 23 -14z m-209 -38 c0 -18 -17 -29 -30 -21 -8 5 -7 11 1 21 15 18 29
18 29 0z m451 -18 c11 -21 11 -22 -4 -9 -10 7 -17 17 -17 22 0 15 9 10 21 -13z
m-249 2 c6 0 8 -7 4 -15 -3 -8 0 -15 7 -15 7 0 18 -4 26 -9 12 -8 12 -12 2
-24 -10 -13 -9 -17 5 -25 15 -9 16 -13 5 -26 -16 -19 -29 -21 -28 -3 1 32 -4
48 -15 45 -26 -4 -56 13 -53 30 2 9 4 25 4 36 1 12 6 16 17 12 9 -3 20 -6 26
-6z m-215 -70 c6 0 11 -10 11 -23 l0 -24 -31 29 c-18 15 -36 28 -42 28 -5 0
-3 5 5 10 10 6 20 4 31 -6 8 -7 20 -14 26 -14z m379 -27 c-10 -10 -19 5 -10
18 6 11 8 11 12 0 2 -7 1 -15 -2 -18z m-302 1 c5 -12 14 -15 36 -11 16 4 32 2
36 -4 9 -15 3 -18 -44 -23 -34 -5 -40 -3 -36 9 5 11 -1 15 -20 15 -14 0 -26 4
-26 10 0 5 7 7 15 4 8 -4 15 -1 15 5 0 17 17 13 24 -5z m266 -9 c7 -9 8 -15 2
-15 -5 0 -12 7 -16 15 -3 8 -4 15 -2 15 2 0 9 -7 16 -15z m-133 -27 c-3 -8 -6
-5 -6 6 -1 11 2 17 5 13 3 -3 4 -12 1 -19z m203 -8 c0 -11 -2 -20 -4 -20 -2 0
-6 9 -9 20 -3 11 -1 20 4 20 5 0 9 -9 9 -20z m-259 -16 c11 -14 10 -15 -11
-12 -13 1 -25 9 -28 16 -5 17 23 15 39 -4z m-101 -4 c0 -5 -5 -10 -11 -10 -5
0 -7 5 -4 10 3 6 8 10 11 10 2 0 4 -4 4 -10z m200 0 c0 -5 -5 -10 -11 -10 -5
0 -7 5 -4 10 3 6 8 10 11 10 2 0 4 -4 4 -10z m-114 -35 c-3 -8 -1 -15 4 -15 6
0 10 -5 10 -11 0 -8 -5 -8 -15 1 -17 15 -20 40 -4 40 6 0 9 -7 5 -15z m-109
-1 c-3 -3 -12 -4 -19 -1 -8 3 -5 6 6 6 11 1 17 -2 13 -5z m383 -25 c0 -6 -8
-18 -17 -27 -16 -16 -16 -16 -10 1 4 10 2 17 -6 17 -7 0 -21 8 -32 17 -16 12
-16 14 -3 10 10 -3 20 -2 23 3 8 12 45 -6 45 -21z m-320 -14 c0 -8 -5 -15 -11
-15 -6 0 -9 -9 -6 -20 3 -11 1 -20 -4 -20 -8 0 -7 47 0 68 4 9 21 -1 21 -13z
m85 5 c3 -5 1 -10 -4 -10 -6 0 -11 5 -11 10 0 6 2 10 4 10 3 0 8 -4 11 -10z
m145 -25 c0 -3 -9 -1 -20 5 -11 6 -18 15 -15 21 6 9 35 -12 35 -26z m134 10
c-6 -16 -24 -21 -24 -7 0 11 11 22 21 22 5 0 6 -7 3 -15z m-434 -25 c0 -5 -2
-10 -4 -10 -3 0 -8 5 -11 10 -3 6 -1 10 4 10 6 0 11 -4 11 -10z m310 -16 c0
-8 -4 -12 -10 -9 -5 3 -10 10 -10 16 0 5 5 9 10 9 6 0 10 -7 10 -16z m-25 -24
c4 -16 11 -30 16 -30 5 0 9 -7 9 -15 0 -8 5 -14 11 -12 6 1 13 -3 16 -9 5 -14
-29 -14 -43 0 -18 19 -34 53 -34 75 0 32 18 25 25 -9z m-310 1 c3 -5 1 -12 -5
-16 -5 -3 -10 1 -10 9 0 18 6 21 15 7z m-83 -71 c-25 -44 -45 -47 -25 -5 9 19
22 35 29 35 10 0 8 -8 -4 -30z m558 10 c0 -5 -4 -10 -10 -10 -5 0 -10 5 -10
10 0 6 5 10 10 10 6 0 10 -4 10 -10z m-30 -50 c0 -39 -15 -39 -16 0 -1 17 3
30 7 30 5 0 9 -13 9 -30z m-550 -20 c0 -5 -2 -10 -4 -10 -3 0 -8 5 -11 10 -3
6 -1 10 4 10 6 0 11 -4 11 -10z m393 -19 c3 -13 -1 -21 -14 -24 -20 -5 -23 1
-13 27 8 22 21 20 27 -3z m-71 -88 c-5 -24 -6 -25 -12 -8 -8 21 -4 35 9 35 5
0 6 -12 3 -27z m-171 5 c1 -7 1 -19 0 -26 -1 -8 7 -11 23 -8 15 3 26 0 26 -5
0 -14 -46 -11 -57 4 -19 24 -23 47 -8 47 8 0 16 -6 16 -12z m95 -124 c-3 -9
-6 -19 -6 -24 0 -4 -11 -7 -25 -7 -26 0 -33 11 -15 22 6 4 8 11 5 16 -4 5 6 9
20 9 21 0 26 -4 21 -16z m-146 -59 c0 -13 -5 -25 -12 -27 -6 -2 -12 -17 -13
-34 -1 -16 -6 -38 -12 -49 l-12 -20 -15 20 c-21 29 -27 73 -13 95 12 21 47 28
47 10 0 -5 5 -10 10 -10 6 0 8 11 4 26 -5 19 -4 25 5 20 6 -4 11 -18 11 -31z
m273 -16 c15 -10 0 -39 -19 -39 -12 0 -15 7 -12 24 4 19 1 22 -14 18 -10 -2
-18 0 -18 6 0 14 44 20 49 7 2 -5 8 -13 14 -16z m37 4 c0 -5 -5 -15 -10 -23
-8 -12 -10 -11 -10 8 0 12 5 22 10 22 6 0 10 -3 10 -7z m-397 -114 c-6 -6 -19
-9 -29 -7 -17 3 -17 4 1 21 12 13 21 15 28 8 8 -8 8 -14 0 -22z m61 -48 c3 -5
-1 -11 -9 -15 -8 -3 -17 0 -21 6 -4 7 -3 8 4 4 7 -4 12 -2 12 3 0 13 7 14 14
2z m134 -16 c16 -36 15 -45 -6 -45 -25 0 -49 50 -30 61 20 13 24 11 36 -16z
m-71 -17 c-3 -7 -5 -2 -5 12 0 14 2 19 5 13 2 -7 2 -19 0 -25z m-71 -32 c12
-13 11 -16 -7 -21 -11 -4 -23 -4 -26 -1 -4 3 -1 6 7 6 10 0 10 3 0 15 -17 20
6 21 26 1z m91 -42 c3 -8 1 -20 -6 -27 -15 -15 -14 -27 4 -27 8 0 15 -5 15
-10 0 -7 -8 -6 -22 1 -13 7 -25 11 -28 9 -3 -2 -6 4 -8 13 -2 9 1 17 7 17 6 0
11 9 11 20 0 24 18 27 27 4z m-83 -30 c7 -18 -1 -54 -12 -54 -4 0 -13 9 -20
21 -10 16 -10 24 -1 35 15 18 25 18 33 -2z m8 -109 c-8 -15 -10 -13 -14 14 -4
28 -3 30 10 18 10 -11 11 -20 4 -32z m-172 25 c0 -5 -4 -10 -10 -10 -5 0 -10
-7 -10 -15 0 -8 5 -15 12 -15 9 0 9 -3 1 -11 -6 -6 -9 -17 -7 -24 6 -14 -52
-39 -60 -26 -6 8 24 72 44 96 14 17 30 20 30 5z m280 -37 c0 -11 37 -29 53
-25 4 1 7 -3 7 -9 0 -13 -56 -3 -87 17 -26 16 -29 29 -11 48 11 11 15 11 25
-3 7 -9 13 -21 13 -28z m-86 -49 c14 -5 14 -8 -1 -30 -9 -15 -11 -24 -4 -24 6
0 11 -10 11 -21 0 -17 -3 -19 -14 -10 -11 9 -15 9 -20 -1 -3 -7 -3 -1 0 15 4
15 2 27 -4 27 -5 0 -9 11 -9 25 0 25 11 30 41 19z m102 -9 c26 -13 27 -15 7
-15 -12 0 -25 -4 -28 -10 -13 -20 -35 -10 -33 15 3 29 14 31 54 10z m-161 -5
c3 -5 -1 -10 -10 -10 -9 0 -13 5 -10 10 3 6 8 10 10 10 2 0 7 -4 10 -10z
m2031 -55 c-3 -8 -10 -15 -15 -15 -5 0 -4 11 2 25 12 25 23 16 13 -10z m-2326
-21 c0 -8 -7 -14 -15 -14 -17 0 -18 2 -9 24 7 18 24 12 24 -10z m302 -17 c-7
-8 -9 -17 -5 -20 3 -4 1 -13 -6 -20 -6 -8 -9 -22 -5 -31 8 -21 -5 -21 -21 1
-11 14 -11 23 1 44 7 15 10 30 6 33 -3 4 0 11 8 16 20 13 37 -5 22 -23z m-212
14 c0 -6 -4 -13 -10 -16 -5 -3 -10 1 -10 9 0 9 5 16 10 16 6 0 10 -4 10 -9z
m770 -56 c0 -8 -4 -15 -10 -15 -5 0 -10 4 -10 10 0 5 -7 7 -15 4 -8 -4 -15 -1
-15 5 0 6 11 11 25 11 16 0 25 -6 25 -15z m-942 -18 c2 -10 -3 -17 -11 -17
-16 0 -30 24 -19 34 10 10 27 1 30 -17z m52 5 c0 -5 -7 -9 -15 -9 -8 0 -15 4
-15 9 0 4 7 8 15 8 8 0 15 -4 15 -8z m276 -49 c4 -10 8 -31 9 -46 2 -21 -1
-27 -13 -25 -11 2 -16 16 -17 46 -2 44 7 55 21 25z m-281 -73 c-3 -5 -11 -10
-16 -10 -6 0 -7 5 -4 10 3 6 11 10 16 10 6 0 7 -4 4 -10z m432 -18 c-1 -21
-47 -29 -47 -9 0 18 10 27 31 27 11 0 17 -7 16 -18z m270 -8 c-3 -3 -12 -4
-19 -1 -8 3 -5 6 6 6 11 1 17 -2 13 -5z m-117 -12 c0 -10 -35 -52 -43 -52 -15
0 -15 34 0 46 20 15 43 18 43 6z m-413 -19 c-4 -3 -2 -12 5 -20 8 -11 7 -17
-8 -28 -24 -18 -48 -15 -52 7 -2 10 8 22 25 31 33 17 39 19 30 10z m262 -23
c17 12 35 19 40 15 13 -7 3 -35 -19 -57 -15 -14 -21 -15 -44 -3 -15 8 -26 10
-26 4 0 -23 -35 -2 -36 21 -2 34 16 43 37 18 l18 -20 30 22z m-99 -11 c0 -5
-7 -9 -15 -9 -8 0 -15 7 -15 15 0 9 6 12 15 9 8 -4 15 -10 15 -15z m-302 -1
c5 -7 7 -21 3 -31 -6 -16 -9 -14 -29 13 -21 28 -22 30 -4 30 11 0 24 -6 30
-12z m252 -43 c19 -38 25 -44 37 -33 23 19 53 17 53 -4 0 -10 5 -27 12 -38 7
-10 9 -22 6 -26 -12 -11 -28 6 -28 30 0 12 -3 25 -6 29 -8 7 -64 -13 -64 -23
0 -5 -9 -11 -20 -14 -11 -3 -29 -9 -40 -12 -17 -4 -20 -1 -20 24 0 25 5 30 29
35 24 5 28 10 24 27 -3 11 -9 20 -14 20 -5 0 -9 7 -9 15 0 29 18 15 40 -30z
m2024 -9 c-3 -8 -12 -12 -20 -9 -21 8 -17 23 6 23 13 0 18 -5 14 -14z m-2226
-18 c16 -16 15 -29 -2 -22 -16 6 -30 34 -18 34 5 0 13 -5 20 -12z m112 -8 c9
-16 8 -20 -5 -20 -8 0 -15 9 -15 20 0 11 2 20 5 20 2 0 9 -9 15 -20z m-150
-22 c11 -3 8 -9 -12 -22 -32 -21 -86 -13 -67 10 6 8 9 20 6 28 -5 12 -1 13 26
2 18 -8 39 -15 47 -18z m1880 -33 c7 -9 9 -22 5 -32 -8 -17 -8 -17 -12 -1 -4
14 -8 16 -24 8 -10 -6 -19 -18 -19 -26 0 -9 5 -12 11 -8 11 7 29 -12 29 -31 0
-5 -5 -3 -10 5 -8 12 -10 10 -10 -8 0 -13 -4 -20 -10 -17 -6 4 -8 11 -4 16 3
6 -1 18 -9 27 -9 9 -16 22 -15 27 0 16 19 35 29 29 5 -3 9 2 9 10 0 20 14 20
30 1z m50 5 c0 -5 -7 -10 -15 -10 -8 0 -15 5 -15 10 0 6 7 10 15 10 8 0 15 -4
15 -10z m-1638 -72 c-14 -14 -55 24 -47 43 5 15 10 13 31 -8 16 -16 22 -29 16
-35z m282 38 c-3 -9 -10 -16 -15 -16 -14 0 -11 28 4 33 16 6 19 3 11 -17z
m-574 -16 c29 -29 39 -63 21 -75 -5 -3 -12 4 -16 15 -4 11 -15 20 -26 20 -11
0 -17 4 -14 10 3 5 1 18 -4 28 -9 16 -6 32 5 32 2 0 17 -13 34 -30z m2420 0
c0 -13 -5 -18 -15 -14 -16 7 -19 17 -8 27 12 13 23 7 23 -13z m-1715 -20 c3
-5 -1 -10 -9 -10 -8 0 -18 5 -21 10 -3 6 1 10 9 10 8 0 18 -4 21 -10z m1501
-26 c-11 -7 -22 -11 -25 -8 -3 3 3 12 13 20 11 7 22 11 25 8 3 -3 -3 -12 -13
-20z m194 5 c0 -6 -4 -7 -10 -4 -5 3 -10 11 -10 16 0 6 5 7 10 4 6 -3 10 -11
10 -16z m-2813 -25 c-9 -9 -28 6 -21 18 4 6 10 6 17 -1 6 -6 8 -13 4 -17z"/>
<path d="M3260 3910 c0 -5 5 -10 11 -10 5 0 7 5 4 10 -3 6 -8 10 -11 10 -2 0
-4 -4 -4 -10z"/>
<path d="M3053 2963 c4 -3 0 -17 -8 -30 -9 -13 -29 -58 -45 -101 -16 -42 -49
-123 -73 -179 -43 -101 -44 -103 -62 -83 -14 15 -21 18 -29 9 -8 -8 -7 -13 3
-16 11 -5 11 -7 0 -14 -10 -6 -8 -9 9 -9 13 0 22 -6 22 -15 0 -11 -7 -14 -25
-9 -23 6 -25 3 -25 -24 0 -17 5 -32 11 -34 10 -3 -1 -65 -25 -133 -4 -11 7 7
25 40 17 33 42 72 54 87 l23 27 25 -19 c40 -31 56 -23 20 10 -18 16 -33 35
-33 42 0 18 58 138 66 138 4 0 4 -19 0 -42 -7 -42 -6 -42 9 -20 9 12 21 20 26
16 5 -3 17 0 25 7 14 12 14 14 -2 26 -16 12 -16 14 -1 31 9 10 17 26 17 35 0
19 39 87 50 87 8 0 22 41 25 75 1 11 5 31 9 45 6 22 2 27 -36 43 -45 18 -66
22 -55 10z"/>
<path d="M3176 2864 c-3 -9 -6 -23 -6 -32 0 -8 -10 -26 -22 -39 -21 -22 -21
-23 -3 -44 17 -17 17 -22 5 -30 -8 -5 -23 -7 -33 -5 -17 4 -17 3 -2 -21 11
-17 14 -33 9 -51 -4 -15 -8 -41 -9 -58 -2 -30 -49 -156 -68 -181 -6 -8 -5 -18
2 -27 8 -10 8 -16 -3 -25 -8 -7 -17 -24 -21 -39 -6 -26 -42 -125 -189 -524
-36 -98 -63 -185 -60 -193 4 -8 1 -15 -4 -15 -16 0 -25 -39 -13 -53 7 -9 7
-17 -1 -27 -8 -12 -9 -11 -4 5 6 18 5 19 -7 3 -8 -9 -35 -88 -60 -175 -26 -87
-61 -200 -78 -251 -17 -51 -29 -96 -26 -99 9 -9 95 69 107 97 6 14 21 32 34
40 64 40 238 228 340 368 151 209 243 389 310 608 20 65 43 139 51 164 32 103
-1 388 -55 475 -24 39 -75 86 -127 119 -49 30 -59 32 -67 10z m-361 -1294 c3
-5 1 -10 -4 -10 -6 0 -11 5 -11 10 0 6 2 10 4 10 3 0 8 -4 11 -10z"/>
<path d="M2850 2631 c0 -6 5 -13 10 -16 6 -3 10 1 10 9 0 9 -4 16 -10 16 -5 0
-10 -4 -10 -9z"/>
<path d="M2880 2414 c0 -8 5 -12 10 -9 6 3 10 10 10 16 0 5 -4 9 -10 9 -5 0
-10 -7 -10 -16z"/>
<path d="M2896 2325 c-2 -7 2 -16 10 -19 22 -8 24 -8 24 8 0 19 -27 28 -34 11z"/>
<path d="M2736 2306 c3 -8 12 -12 20 -9 8 3 14 1 14 -4 0 -5 9 -9 20 -9 26 0
26 2 -12 20 -39 20 -49 20 -42 2z"/>
<path d="M2705 2178 c12 -63 13 -73 14 -82 1 -5 10 -1 21 9 19 18 19 18 0 45
-11 16 -20 35 -20 44 0 9 -5 16 -10 16 -7 0 -9 -13 -5 -32z"/>
<path d="M2672 2124 c4 -21 22 -23 26 -1 2 10 -3 17 -13 17 -10 0 -15 -6 -13
-16z"/>
<path d="M2666 2024 c-9 -34 -3 -39 18 -15 14 15 14 20 2 30 -11 9 -15 6 -20
-15z"/>
<path d="M2630 2011 c0 -5 5 -13 10 -16 6 -3 10 -2 10 4 0 5 -4 13 -10 16 -5
3 -10 2 -10 -4z"/>
<path d="M2781 1983 c-6 -10 -11 -12 -11 -5 0 6 -5 12 -11 12 -8 0 -8 -4 1
-15 9 -11 16 -12 31 -2 20 13 25 27 9 27 -5 0 -14 -8 -19 -17z"/>
<path d="M2640 1950 c0 -5 5 -10 11 -10 5 0 7 5 4 10 -3 6 -8 10 -11 10 -2 0
-4 -4 -4 -10z"/>
<path d="M2540 1901 c0 -27 24 -60 36 -48 3 3 2 21 -1 41 -9 44 -35 49 -35 7z"/>
<path d="M2653 1913 c-7 -3 -13 -11 -13 -20 0 -17 28 -48 37 -39 11 10 -11 63
-24 59z"/>
<path d="M2410 1720 c0 -5 7 -10 15 -10 8 0 15 5 15 10 0 6 -7 10 -15 10 -8 0
-15 -4 -15 -10z"/>
<path d="M2512 1630 c15 -23 28 -26 28 -6 0 8 -7 17 -16 20 -24 9 -25 8 -12
-14z"/>
<path d="M2368 1371 c11 -6 10 -11 -3 -25 -9 -9 -23 -16 -31 -16 -8 0 -14 -7
-14 -16 0 -20 41 -15 58 9 7 9 20 17 29 17 11 0 8 6 -10 20 -14 11 -29 20 -34
20 -4 0 -2 -4 5 -9z"/>
<path d="M2598 1373 c7 -3 16 -2 19 1 4 3 -2 6 -13 5 -11 0 -14 -3 -6 -6z"/>
<path d="M2584 1325 c-9 -22 1 -29 15 -11 8 10 9 16 1 21 -5 3 -13 -1 -16 -10z"/>
<path d="M2380 1290 c-8 -5 -12 -11 -9 -14 2 -3 11 -1 19 4 8 5 12 11 9 14 -2
3 -11 1 -19 -4z"/>
<path d="M2281 1088 c-5 -14 -5 -24 1 -27 13 -4 49 30 42 40 -10 17 -35 9 -43
-13z"/>
<path d="M2196 1914 c-9 -23 -8 -24 14 -24 24 0 25 6 6 25 -12 12 -15 12 -20
-1z"/>
<path d="M3180 3990 c0 -5 6 -10 14 -10 8 0 18 5 21 10 3 6 -3 10 -14 10 -12
0 -21 -4 -21 -10z"/>
<path d="M2781 3960 c-1 -18 18 -40 34 -40 5 0 3 6 -6 13 -9 7 -18 19 -22 27
-5 13 -6 13 -6 0z"/>
<path d="M2446 3934 c-8 -22 -8 -26 3 -20 5 4 17 3 27 -1 16 -6 16 -7 -1 -19
-27 -20 -16 -137 15 -164 21 -18 40 -25 62 -21 4 0 5 -5 2 -13 -10 -25 21 -37
80 -30 46 6 56 10 56 25 0 12 -7 19 -20 19 -26 0 -48 39 -29 51 20 13 27 11
32 -8 3 -10 3 7 0 37 -6 75 -10 83 -32 77 -13 -3 -18 0 -15 8 3 7 1 16 -5 20
-14 8 -41 -18 -41 -39 0 -26 -78 -36 -87 -11 -2 6 7 15 19 20 12 6 25 22 29
37 6 25 5 26 -28 23 -23 -2 -36 2 -40 11 -7 19 -19 18 -27 -2z"/>
<path d="M2870 3901 c11 -40 28 -68 42 -74 10 -4 10 -8 -2 -16 -8 -5 -12 -13
-8 -16 4 -4 14 5 24 20 16 25 16 27 -5 46 -11 11 -21 31 -21 44 0 18 -5 25
-19 25 -17 0 -18 -4 -11 -29z"/>
<path d="M3980 3920 c0 -5 5 -10 10 -10 6 0 10 5 10 10 0 6 -4 10 -10 10 -5 0
-10 -4 -10 -10z"/>
<path d="M2295 3880 c-3 -5 1 -10 9 -10 9 0 16 5 16 10 0 6 -4 10 -9 10 -6 0
-13 -4 -16 -10z"/>
<path d="M2735 3861 c-4 -12 -17 -33 -31 -47 -17 -20 -21 -31 -14 -43 18 -34
35 -42 63 -28 36 16 34 30 -3 22 -31 -7 -36 0 -21 24 7 11 13 12 23 3 12 -9
14 -4 12 29 -2 49 -19 71 -29 40z"/>
<path d="M2040 3827 c0 -15 11 -29 33 -42 17 -10 37 -26 44 -34 16 -21 36 -2
36 34 0 38 -26 60 -73 62 -35 2 -40 -1 -40 -20z"/>
<path d="M2978 3833 c7 -3 16 -2 19 1 4 3 -2 6 -13 5 -11 0 -14 -3 -6 -6z"/>
<path d="M1880 3810 c0 -5 6 -10 14 -10 8 0 18 5 21 10 3 6 -3 10 -14 10 -12
0 -21 -4 -21 -10z"/>
<path d="M2201 3791 c-34 -32 -38 -46 -17 -54 16 -7 30 8 40 41 4 12 12 22 17
22 5 0 9 5 9 10 0 17 -17 11 -49 -19z"/>
<path d="M2010 3750 c28 -22 40 -25 40 -10 0 11 -33 30 -52 30 -7 0 -2 -9 12
-20z"/>
<path d="M2182 3713 c-9 -3 -11 -16 -7 -41 9 -53 15 -68 23 -57 4 6 16 15 27
21 11 6 21 21 23 33 3 17 -2 21 -22 21 -13 0 -26 6 -28 13 -2 8 -9 12 -16 10z"/>
<path d="M2371 3702 c-6 -11 -18 -27 -26 -35 -19 -19 -9 -47 16 -47 10 0 19 4
19 8 0 4 14 16 31 26 25 15 33 16 39 5 6 -8 -5 -26 -31 -52 -27 -28 -39 -48
-39 -68 0 -28 22 -41 34 -21 3 5 19 9 35 10 28 1 29 -1 18 -19 -6 -10 -17 -19
-24 -19 -20 0 -15 -17 10 -40 19 -18 19 -20 3 -14 -16 6 -18 4 -13 -10 6 -14
3 -16 -16 -10 -12 4 -30 7 -39 6 -9 0 -20 8 -23 19 -9 27 -61 58 -86 52 -29
-8 -23 -47 13 -84 l32 -32 106 6 c127 8 145 12 147 38 2 26 21 49 40 49 13 0
13 3 3 15 -7 8 -24 15 -37 15 -20 0 -24 4 -20 20 3 11 1 20 -5 20 -5 0 -7 15
-4 33 10 61 -3 96 -43 114 -20 9 -40 19 -45 21 -5 3 -6 -4 -2 -14 6 -15 5 -17
-5 -6 -7 6 -22 12 -34 12 -12 0 -26 5 -32 11 -8 8 -14 6 -22 -9z m139 -118 c0
-9 -32 -33 -44 -34 -5 0 -1 9 10 19 19 20 34 26 34 15z m40 -8 c0 -11 -19 -15
-25 -6 -3 5 1 10 9 10 9 0 16 -2 16 -4z m-17 -153 c-7 -2 -19 -2 -25 0 -7 3
-2 5 12 5 14 0 19 -2 13 -5z"/>
<path d="M2766 3712 c-3 -5 0 -9 7 -9 7 -1 27 -4 45 -8 19 -5 32 -4 32 3 0 18
-74 30 -84 14z"/>
<path d="M3076 3711 c-4 -7 -5 -15 -2 -18 9 -9 19 4 14 18 -4 11 -6 11 -12 0z"/>
<path d="M2280 3691 c0 -25 20 -38 31 -20 15 23 10 39 -11 39 -13 0 -20 -7
-20 -19z"/>
<path d="M2030 3690 c0 -5 5 -10 10 -10 6 0 10 5 10 10 0 6 -4 10 -10 10 -5 0
-10 -4 -10 -10z"/>
<path d="M2990 3685 c7 -9 15 -13 17 -11 7 7 -7 26 -19 26 -6 0 -6 -6 2 -15z"/>
<path d="M2740 3652 c0 -18 -3 -32 -8 -32 -4 0 -12 -15 -17 -33 -10 -30 -9
-33 9 -35 11 0 26 4 33 10 10 8 18 6 33 -7 19 -17 20 -17 20 3 0 11 8 22 18
25 15 3 15 5 -3 12 -24 11 -45 30 -45 43 0 5 -9 17 -20 27 -20 18 -20 17 -20
-13z"/>
<path d="M2860 3666 c0 -14 42 -47 55 -42 10 3 15 -1 15 -12 1 -15 2 -15 11 2
14 22 -8 41 -28 24 -9 -7 -14 -6 -19 5 -5 13 -34 33 -34 23z"/>
<path d="M2972 3658 c5 -15 28 -23 28 -10 0 5 -7 13 -16 16 -10 4 -14 1 -12
-6z"/>
<path d="M2090 3651 c0 -6 5 -13 10 -16 6 -3 10 1 10 9 0 9 -4 16 -10 16 -5 0
-10 -4 -10 -9z"/>
<path d="M1946 3634 c-8 -22 -9 -21 26 -33 29 -10 34 -9 50 11 16 22 16 23 0
30 -31 12 -70 8 -76 -8z"/>
<path d="M2680 3620 c0 -5 7 -10 15 -10 8 0 15 5 15 10 0 6 -7 10 -15 10 -8 0
-15 -4 -15 -10z"/>
<path d="M2615 3609 c-4 -6 -4 -13 -1 -16 3 -4 6 -1 6 5 0 6 8 13 18 15 15 4
15 5 0 6 -9 0 -20 -4 -23 -10z"/>
<path d="M2660 3591 c0 -6 -12 -14 -27 -18 l-28 -6 28 -8 c48 -13 73 6 42 31
-10 8 -15 9 -15 1z"/>
<path d="M2002 3559 c-14 -5 -22 -15 -20 -26 5 -26 23 -26 38 2 16 30 12 35
-18 24z"/>
<path d="M2055 3537 c0 -36 12 -60 26 -52 15 10 10 51 -8 68 -17 14 -18 13
-18 -16z"/>
<path d="M2605 3540 c-3 -5 -1 -10 4 -10 6 0 11 5 11 10 0 6 -2 10 -4 10 -3 0
-8 -4 -11 -10z"/>
<path d="M2246 3524 c-4 -10 2 -14 19 -14 30 0 33 16 6 23 -12 3 -22 -1 -25
-9z"/>
<path d="M1896 3501 c-15 -17 -14 -19 9 -29 14 -7 28 -12 30 -12 11 0 4 32 -9
45 -12 12 -16 11 -30 -4z"/>
<path d="M1960 3471 c0 -6 4 -12 10 -16 5 -3 7 -12 4 -19 -7 -17 14 -33 51
-39 17 -3 37 -8 46 -12 37 -15 36 50 -1 73 -16 9 -26 10 -42 1 -17 -9 -23 -8
-30 5 -10 17 -38 22 -38 7z"/>
<path d="M1929 3401 c13 -23 26 -27 36 -10 8 13 6 15 -23 24 -22 6 -23 5 -13
-14z"/>
<path d="M2260 3370 c0 -27 3 -29 35 -28 20 1 38 5 41 10 3 4 1 8 -4 8 -5 0
-19 9 -32 20 -31 27 -40 25 -40 -10z"/>
<path d="M1970 3360 c0 -5 5 -10 11 -10 5 0 7 5 4 10 -3 6 -8 10 -11 10 -2 0
-4 -4 -4 -10z"/>
<path d="M2225 3360 c3 -5 8 -10 11 -10 2 0 4 5 4 10 0 6 -5 10 -11 10 -5 0
-7 -4 -4 -10z"/>
<path d="M2428 3315 c-3 -3 -33 -7 -67 -9 -63 -4 -89 -15 -77 -35 10 -16 52
-13 70 4 8 8 25 15 38 15 26 0 56 16 47 24 -3 4 -8 4 -11 1z"/>
<path d="M1910 3281 c0 -18 4 -30 8 -27 11 7 52 -48 52 -69 0 -24 19 -17 26
10 7 27 32 33 52 13 16 -16 29 19 15 40 -13 21 -70 49 -115 57 -37 7 -38 7
-38 -24z"/>
<path d="M2186 3255 c-3 -9 1 -18 10 -22 19 -7 28 2 21 22 -8 19 -23 19 -31 0z"/>
<path d="M2240 3240 c0 -5 5 -10 10 -10 6 0 10 5 10 10 0 6 -4 10 -10 10 -5 0
-10 -4 -10 -10z"/>
<path d="M2080 3179 c0 -34 14 -59 31 -59 31 0 24 30 -13 59 -15 11 -18 11
-18 0z"/>
<path d="M1152 3112 c-16 -37 -38 -75 -48 -83 -16 -13 -17 -12 -12 16 6 30 6
30 -10 8 -68 -90 -89 -113 -102 -111 -24 5 -23 34 3 92 44 95 44 146 0 132
-25 -8 -177 -353 -167 -379 3 -10 -8 -39 -29 -74 -35 -58 -54 -108 -103 -275
-15 -50 -37 -99 -50 -113 -24 -27 -28 -36 -24 -68 1 -11 -8 -26 -19 -34 -27
-18 -27 -43 -1 -43 13 0 20 -7 20 -20 0 -11 -4 -20 -8 -20 -11 0 -52 -95 -52
-120 0 -11 -4 -20 -10 -20 -5 0 -10 8 -10 18 -1 14 -2 15 -9 2 -16 -29 -24
-63 -12 -56 20 13 11 -18 -19 -69 -16 -27 -30 -57 -30 -66 0 -9 -6 -22 -14
-28 -8 -7 -17 -35 -21 -64 -4 -29 -16 -72 -26 -97 -12 -26 -17 -55 -14 -70 4
-20 -1 -31 -21 -49 -19 -16 -25 -29 -21 -48 6 -32 -11 -98 -36 -143 -70 -121
-76 -135 -64 -142 9 -6 8 -12 -5 -21 -9 -7 -21 -38 -27 -70 -6 -31 -17 -71
-26 -88 -9 -17 -14 -37 -11 -45 3 -8 1 -25 -4 -38 -7 -18 -5 -26 6 -30 8 -3
14 -12 14 -19 0 -8 10 -18 22 -24 18 -8 32 -4 71 20 35 21 51 27 59 19 8 -8
15 -7 24 5 10 14 18 15 46 7 47 -15 104 -8 138 16 20 14 31 17 36 9 7 -12 -7
-25 -46 -40 -14 -5 -34 -23 -45 -39 -14 -21 -39 -36 -84 -52 -53 -19 -60 -24
-40 -28 17 -4 24 -13 23 -28 0 -15 5 -22 18 -22 17 0 22 10 18 39 -1 8 4 17
10 21 18 11 52 -1 46 -16 -6 -16 11 -10 74 25 82 45 92 49 106 44 19 -7 75 30
117 76 18 21 61 54 93 74 68 41 94 67 144 142 19 29 57 82 84 117 l48 63 -60
-65 c-34 -36 -61 -61 -62 -57 0 5 27 46 61 90 34 45 67 96 74 112 7 17 21 47
29 67 9 20 21 40 26 43 12 7 105 195 114 229 3 14 12 25 18 23 7 -1 14 9 16
22 2 14 10 34 17 45 8 12 28 57 45 100 57 145 72 157 34 26 -40 -134 -40 -138
-20 -121 14 12 19 12 26 2 4 -8 13 -10 20 -6 8 5 7 12 -6 26 -16 18 -14 25 50
154 63 126 86 162 86 135 0 -8 6 -8 20 0 10 6 23 10 27 9 20 -3 24 2 13 16
-10 12 -7 25 15 71 26 53 27 61 21 142 -9 105 -18 124 -52 116 -26 -7 -114 13
-114 26 0 4 45 52 100 106 55 55 126 133 158 174 31 41 59 77 62 80 39 38 106
162 96 179 -4 5 1 14 10 19 21 12 10 32 -14 25 -10 -2 -24 3 -31 11 -8 9 -18
16 -23 16 -5 0 -30 10 -56 23 -43 20 -60 22 -182 19 -106 -2 -157 -8 -245 -29
-60 -15 -114 -28 -120 -28 -10 0 -11 5 -14 50 -1 23 -4 25 -55 25 l-53 0 -31
-68z m358 -167 c10 -12 9 -16 -2 -20 -10 -4 -13 -16 -10 -36 8 -57 -47 -145
-160 -255 -188 -181 -259 -231 -245 -171 3 12 15 66 26 120 11 53 30 117 41
142 11 24 20 48 20 53 0 23 82 86 172 132 104 52 137 60 158 35z m174 -83
c-29 -44 -88 -112 -97 -112 -10 0 17 48 37 65 6 6 24 30 41 54 31 46 49 40 19
-7z m-682 -17 c9 -9 -50 -166 -78 -209 -29 -43 -44 -36 -44 19 0 74 32 151 75
177 32 19 39 21 47 13z m58 -15 c0 -5 -4 -10 -10 -10 -5 0 -10 5 -10 10 0 6 5
10 10 10 6 0 10 -4 10 -10z m-50 -87 c0 -23 -22 -83 -30 -83 -13 0 -12 17 2
57 11 29 28 45 28 26z m500 -169 c0 -19 -41 -61 -67 -69 -30 -8 -29 5 3 74
l27 55 18 -23 c11 -13 19 -29 19 -37z m-710 -294 c-12 -22 -30 -19 -30 5 0 16
33 38 38 25 2 -5 -2 -18 -8 -30z m493 -110 c23 -26 25 -36 20 -92 -6 -81 -21
-128 -46 -149 -19 -15 -19 -19 -7 -48 12 -29 11 -34 -11 -59 -13 -15 -28 -30
-33 -33 -5 -4 -6 -11 -2 -17 10 -16 -34 -104 -70 -138 -30 -27 -34 -38 -34
-80 0 -57 -17 -86 -58 -103 -30 -13 -46 -36 -56 -83 -3 -14 -26 -46 -52 -70
-43 -41 -122 -143 -154 -199 -22 -39 -51 -70 -97 -107 l-42 -33 -7 26 c-3 14
-2 43 4 65 5 21 8 53 6 70 -2 18 5 48 16 70 11 22 20 49 20 60 0 11 9 37 19
58 18 35 81 260 81 289 0 7 11 30 24 51 13 21 29 63 35 94 11 52 96 307 106
317 3 2 29 5 58 6 55 2 108 31 195 107 41 35 54 35 85 -2z m-598 -210 c-9 -28
-21 -50 -26 -50 -14 0 -11 24 14 87 16 43 23 52 25 35 2 -12 -4 -45 -13 -72z"/>
<path d="M1960 3120 c0 -5 7 -10 15 -10 8 0 15 5 15 10 0 6 -7 10 -15 10 -8 0
-15 -4 -15 -10z"/>
<path d="M2126 3022 c-4 -7 -18 -10 -34 -6 -15 3 -22 2 -16 -3 15 -11 37 -54
31 -60 -3 -3 -13 -1 -22 4 -12 7 -25 1 -53 -27 -20 -20 -44 -40 -52 -43 -12
-6 -12 -8 -2 -13 10 -5 8 -12 -9 -30 -22 -23 -22 -24 -3 -24 25 0 44 18 38 35
-3 8 7 15 28 18 106 19 116 24 100 54 -11 21 -5 46 9 37 11 -6 11 23 0 50 -5
14 -10 16 -15 8z"/>
<path d="M1990 2955 c0 -8 7 -15 15 -15 8 0 15 7 15 15 0 8 -7 15 -15 15 -8 0
-15 -7 -15 -15z"/>
<path d="M2191 2944 c0 -11 3 -14 6 -6 3 7 2 16 -1 19 -3 4 -6 -2 -5 -13z"/>
<path d="M2284 2915 c11 -8 22 -12 25 -9 6 6 -19 24 -34 24 -5 -1 -1 -7 9 -15z"/>
<path d="M2442 2910 c-10 -16 -10 -20 0 -20 15 1 48 24 48 34 0 15 -36 4 -48
-14z"/>
<path d="M2206 2906 c6 -15 34 -30 41 -22 5 5 -26 36 -37 36 -5 0 -7 -6 -4
-14z"/>
<path d="M2270 2864 c0 -14 4 -23 10 -19 6 3 10 0 10 -7 0 -7 6 -2 14 12 15
30 12 40 -15 40 -14 0 -19 -7 -19 -26z"/>
<path d="M2330 2840 c0 -5 9 -10 21 -10 11 0 17 5 14 10 -3 6 -13 10 -21 10
-8 0 -14 -4 -14 -10z"/>
<path d="M2043 2798 c-30 -15 -29 -28 2 -28 18 0 25 5 25 20 0 11 -1 20 -2 19
-2 0 -13 -5 -25 -11z"/>
<path d="M2355 2802 c-15 -11 -17 -64 -2 -59 7 2 12 18 12 35 1 18 1 32 0 32
0 0 -4 -4 -10 -8z"/>
<path d="M1900 2770 c-13 -8 -12 -10 3 -10 9 0 17 5 17 10 0 12 -1 12 -20 0z"/>
<path d="M2048 2754 c-53 -16 -56 -21 -31 -40 10 -7 14 -16 10 -20 -4 -5 -12
-2 -17 6 -10 17 -12 15 -32 -25 -13 -28 -13 -32 9 -55 16 -17 19 -26 11 -32
-7 -4 -9 -10 -6 -13 4 -4 12 2 19 12 8 13 19 18 35 15 14 -2 24 0 24 7 0 7 -4
9 -10 6 -18 -11 -11 12 17 54 15 23 33 41 40 41 16 0 16 2 1 35 -13 29 -8 28
-70 9z m2 -104 c0 -5 -4 -10 -10 -10 -5 0 -10 5 -10 10 0 6 5 10 10 10 6 0 10
-4 10 -10z"/>
<path d="M2098 2659 c8 -22 24 -27 30 -10 2 5 -6 15 -17 21 -18 9 -20 8 -13
-11z"/>
<path d="M2146 2645 c-9 -24 -8 -37 3 -31 5 4 22 1 37 -4 30 -12 33 -11 39 18
2 14 -2 21 -13 20 -9 0 -27 3 -38 7 -15 5 -23 2 -28 -10z"/>
<path d="M1923 2625 c-9 -20 -8 -25 3 -25 8 0 14 4 14 9 0 5 3 16 6 25 10 26
-10 18 -23 -9z"/>
<path d="M2084 2609 c-10 -17 13 -36 27 -22 12 12 4 33 -11 33 -5 0 -12 -5
-16 -11z"/>
<path d="M2150 2600 c-13 -8 -12 -10 3 -10 9 0 17 5 17 10 0 12 -1 12 -20 0z"/>
<path d="M1696 2571 c-4 -7 -5 -15 -2 -18 9 -9 19 4 14 18 -4 11 -6 11 -12 0z"/>
<path d="M2117 2548 c-15 -19 -15 -24 -3 -36 8 -8 22 -12 30 -9 18 7 22 27 5
27 -5 0 -7 -5 -3 -12 4 -6 3 -8 -3 -5 -6 4 -8 18 -5 32 5 31 2 31 -21 3z"/>
<path d="M1837 2541 c3 -11 -2 -30 -11 -43 -22 -31 -21 -51 3 -43 11 3 22 1
26 -5 3 -5 16 -10 29 -10 22 0 23 1 12 45 -7 25 -21 51 -31 60 -27 20 -34 19
-28 -4z"/>
<path d="M1787 2526 c-6 -16 2 -28 14 -20 12 7 11 34 0 34 -5 0 -11 -6 -14
-14z"/>
<path d="M1937 2526 c-8 -19 1 -46 15 -46 6 0 8 7 5 14 -4 10 -1 13 9 9 8 -3
13 -11 10 -18 -5 -13 12 -35 26 -35 4 0 8 13 8 29 0 23 -5 30 -27 36 -15 3
-31 11 -34 17 -4 5 -9 3 -12 -6z"/>
<path d="M1703 2508 c-1 -10 3 -18 9 -16 18 6 21 25 5 31 -8 3 -13 -3 -14 -15z"/>
<path d="M2058 2512 c-13 -14 -14 -21 -5 -37 7 -11 19 -21 27 -22 12 -2 15 6
12 37 -4 44 -9 47 -34 22z"/>
<path d="M2030 2433 c5 -20 7 -40 4 -44 -2 -4 7 -6 21 -5 14 0 25 2 25 4 0 10
-31 60 -43 71 -13 10 -14 7 -7 -26z"/>
<path d="M1965 2440 c-3 -5 1 -10 9 -10 9 0 16 5 16 10 0 6 -4 10 -9 10 -6 0
-13 -4 -16 -10z"/>
<path d="M2100 2440 c-20 -12 -10 -19 14 -10 11 3 15 9 10 13 -6 3 -16 2 -24
-3z"/>
<path d="M2120 2410 c-8 -5 -10 -10 -5 -11 49 -5 65 -4 62 4 -4 14 -39 18 -57
7z"/>
<path d="M1950 2372 c0 -12 19 -26 26 -19 2 2 -2 10 -11 17 -9 8 -15 8 -15 2z"/>
<path d="M2125 2360 c-3 -6 1 -7 9 -4 18 7 21 14 7 14 -6 0 -13 -4 -16 -10z"/>
<path d="M2150 2331 c0 -6 5 -13 10 -16 6 -3 10 1 10 9 0 9 -4 16 -10 16 -5 0
-10 -4 -10 -9z"/>
<path d="M1740 2218 c0 -4 -7 -8 -15 -8 -8 0 -15 -4 -15 -9 0 -11 46 -45 70
-53 18 -6 40 21 33 40 -4 10 -10 9 -24 -4 -15 -14 -22 -15 -31 -6 -9 9 -9 12
0 12 7 0 12 6 12 14 0 8 6 17 13 19 6 3 0 5 -15 4 -16 -1 -28 -5 -28 -9z"/>
<path d="M1960 2205 c0 -9 10 -15 26 -15 23 0 24 2 10 15 -8 8 -19 15 -25 15
-6 0 -11 -7 -11 -15z"/>
<path d="M1835 2171 c6 -32 25 -62 36 -56 14 9 11 33 -8 55 -22 25 -33 26 -28
1z"/>
<path d="M1930 2170 c0 -5 5 -10 11 -10 5 0 7 5 4 10 -3 6 -8 10 -11 10 -2 0
-4 -4 -4 -10z"/>
<path d="M2260 2051 c0 -5 5 -13 10 -16 6 -3 10 -2 10 4 0 5 -4 13 -10 16 -5
3 -10 2 -10 -4z"/>
<path d="M1950 2035 c0 -16 16 -20 24 -6 3 5 -1 11 -9 15 -9 3 -15 0 -15 -9z"/>
<path d="M1537 1889 c22 -22 43 -19 43 7 0 9 -11 14 -32 14 l-32 0 21 -21z"/>
<path d="M1690 1833 c0 -23 -51 -44 -58 -24 -2 6 -11 11 -20 11 -13 0 -12 -3
4 -15 15 -12 16 -16 5 -24 -10 -6 -10 -10 -1 -16 7 -4 16 -2 20 5 10 16 30 4
30 -18 0 -13 9 -17 33 -17 l33 0 -18 54 c-21 62 -28 73 -28 44z"/>
<path d="M1490 1780 c0 -5 5 -10 11 -10 5 0 7 5 4 10 -3 6 -8 10 -11 10 -2 0
-4 -4 -4 -10z"/>
<path d="M1520 1749 c0 -6 -7 -9 -15 -6 -18 8 -29 -8 -18 -27 9 -16 79 -66 92
-66 5 0 14 6 20 13 8 10 6 24 -7 55 -14 35 -22 42 -44 42 -16 0 -28 -5 -28
-11z"/>
<path d="M1403 1706 c2 -38 4 -43 19 -35 9 5 20 14 23 19 4 6 15 8 26 5 26 -9
15 19 -16 39 -42 28 -54 21 -52 -28z"/>
<path d="M1708 1712 c-10 -2 -18 -9 -18 -16 0 -24 13 -26 28 -5 16 23 14 27
-10 21z"/>
<path d="M1662 1653 c2 -9 9 -18 16 -21 18 -6 15 25 -4 32 -11 4 -14 1 -12
-11z"/>
<path d="M1426 1624 c-9 -35 -1 -41 24 -19 25 23 26 45 1 45 -12 0 -21 -9 -25
-26z"/>
<path d="M1514 1635 c-17 -13 -17 -14 -2 -15 9 0 20 5 23 11 11 17 0 20 -21 4z"/>
<path d="M1550 1610 c0 -8 -10 -24 -21 -37 -18 -19 -20 -25 -9 -38 11 -13 10
-19 -6 -37 -14 -16 -16 -22 -6 -25 9 -4 10 -8 2 -18 -8 -9 -8 -15 0 -20 5 -3
10 -15 10 -26 0 -14 7 -19 30 -19 25 0 32 6 45 37 18 43 14 63 -14 63 -23 0
-36 16 -22 25 11 6 9 90 -2 101 -4 4 -7 1 -7 -6z"/>
<path d="M1335 1600 c-3 -5 -1 -10 4 -10 6 0 11 5 11 10 0 6 -2 10 -4 10 -3 0
-8 -4 -11 -10z"/>
<path d="M1683 1595 c-10 -10 -9 -15 4 -19 21 -8 27 -1 16 17 -6 12 -10 13
-20 2z"/>
<path d="M1710 1600 c0 -5 5 -10 10 -10 6 0 10 5 10 10 0 6 -4 10 -10 10 -5 0
-10 -4 -10 -10z"/>
<path d="M1401 1566 c-8 -9 -9 -16 -3 -16 6 0 19 -3 29 -6 11 -4 14 -3 7 3 -6
4 -13 14 -15 22 -4 10 -7 10 -18 -3z"/>
<path d="M1625 1500 c-3 -5 1 -10 9 -10 8 0 18 5 21 10 3 6 -1 10 -9 10 -8 0
-18 -4 -21 -10z"/>
<path d="M1367 1396 c-5 -12 1 -16 24 -16 20 0 29 4 27 13 -7 18 -45 20 -51 3z"/>
<path d="M1580 1381 c-8 -6 -18 -7 -22 -5 -4 3 -8 0 -8 -5 0 -16 36 -13 50 4
14 17 3 20 -20 6z"/>
<path d="M1570 1325 c-7 -18 -7 -32 -1 -38 5 -5 12 3 16 23 9 41 -1 51 -15 15z"/>
<path d="M1159 1323 c-13 -16 -12 -17 4 -4 9 7 17 15 17 17 0 8 -8 3 -21 -13z"/>
<path d="M1502 1238 c-7 -7 -12 -18 -12 -25 0 -7 -4 -13 -10 -13 -5 0 -10 -4
-10 -9 0 -5 9 -7 20 -4 11 3 20 11 20 18 0 8 7 15 17 17 14 3 14 5 1 15 -11
10 -17 10 -26 1z"/>
<path d="M1357 1144 c4 -10 13 -14 27 -10 11 3 25 6 29 6 5 0 5 5 2 10 -3 6
-19 10 -35 10 -23 0 -28 -4 -23 -16z"/>
<path d="M1420 1106 c0 -9 7 -16 16 -16 17 0 14 22 -4 28 -7 2 -12 -3 -12 -12z"/>
<path d="M1496 1110 c-19 -6 -19 -7 -1 -13 20 -8 29 -4 24 11 -2 5 -13 6 -23
2z"/>
<path d="M1630 1096 c0 -2 7 -7 16 -10 8 -3 12 -2 9 4 -6 10 -25 14 -25 6z"/>
<path d="M1600 1069 c0 -5 5 -7 10 -4 6 3 10 8 10 11 0 2 -4 4 -10 4 -5 0 -10
-5 -10 -11z"/>
<path d="M1394 1052 c-5 -4 -10 -19 -11 -34 -1 -20 3 -28 15 -28 9 0 28 -3 41
-7 21 -5 23 -3 17 12 -4 11 0 25 10 36 14 15 14 19 3 20 -8 0 -26 2 -40 4 -14
2 -30 0 -35 -3z"/>
<path d="M1515 1050 c3 -5 11 -10 16 -10 6 0 7 5 4 10 -3 6 -11 10 -16 10 -6
0 -7 -4 -4 -10z"/>
<path d="M1295 1040 c-3 -5 3 -10 14 -10 12 0 21 5 21 10 0 6 -6 10 -14 10 -8
0 -18 -4 -21 -10z"/>
<path d="M1195 1010 c-3 -6 1 -7 9 -4 18 7 21 14 7 14 -6 0 -13 -4 -16 -10z"/>
<path d="M1464 964 c-4 -16 -12 -23 -20 -20 -8 3 -14 2 -14 -3 0 -5 12 -11 26
-14 20 -3 27 1 35 20 5 14 7 29 3 34 -10 17 -24 9 -30 -17z"/>
<path d="M1210 939 c0 -7 -9 -9 -23 -6 -12 4 -29 2 -37 -3 -12 -8 -12 -10 -1
-10 7 0 11 -6 8 -14 -4 -10 2 -16 16 -18 19 -3 21 -8 19 -38 -3 -27 -1 -32 8
-23 7 6 18 10 24 9 6 -2 8 -1 3 1 -4 3 -5 9 -1 14 3 5 -3 9 -12 9 -14 0 -15 3
-6 12 7 7 12 21 12 33 0 12 5 26 12 33 9 9 8 12 -5 12 -9 0 -17 -5 -17 -11z"/>
<path d="M1550 915 c-8 -14 -20 -23 -27 -21 -7 3 -15 0 -19 -6 -5 -8 2 -9 24
-5 17 4 34 2 37 -3 7 -12 75 -10 75 2 0 4 -4 8 -8 8 -5 0 -15 11 -22 25 -17
32 -43 32 -60 0z"/>
<path d="M1250 897 c0 -10 8 -17 18 -17 9 0 13 4 7 8 -5 4 -13 11 -17 16 -5 5
-8 2 -8 -7z"/>
<path d="M1325 860 c3 -5 8 -10 11 -10 2 0 4 5 4 10 0 6 -5 10 -11 10 -5 0 -7
-4 -4 -10z"/>
<path d="M1356 811 c-10 -15 3 -53 17 -48 17 5 18 21 4 41 -10 13 -16 16 -21
7z"/>
<path d="M1186 750 c-7 -8 -20 -27 -29 -42 -14 -23 -15 -27 -1 -32 8 -3 12
-10 9 -16 -4 -6 -10 -8 -15 -5 -16 10 -20 -12 -5 -25 12 -10 18 -8 35 11 10
13 19 20 20 14 0 -9 50 -18 50 -9 0 3 -11 17 -25 32 -30 32 -31 40 -5 67 19
21 19 21 -1 21 -11 0 -26 -7 -33 -16z"/>
<path d="M442 681 c-11 -6 -9 -9 6 -13 15 -4 19 -2 15 8 -6 16 -4 16 -21 5z"/>
<path d="M1303 650 c-7 -10 -9 -22 -4 -24 5 -3 11 1 15 9 3 9 12 12 23 8 16
-6 16 -5 4 10 -17 22 -23 21 -38 -3z"/>
<path d="M1276 617 c3 -10 9 -15 12 -12 3 3 0 11 -7 18 -10 9 -11 8 -5 -6z"/>
<path d="M1376 623 c-8 -8 -13 -9 -41 -12 -22 -2 -18 -31 4 -31 11 0 23 -9 26
-20 3 -11 11 -20 16 -20 13 0 11 9 -6 27 -14 14 -14 17 1 34 16 18 16 38 0 22z"/>
<path d="M417 582 c-31 -32 -34 -47 -12 -56 25 -9 42 4 49 37 9 44 -6 52 -37
19z"/>
<path d="M1163 558 c-13 -6 -23 -15 -23 -20 0 -5 11 -1 25 8 37 24 35 30 -2
12z"/>
<path d="M900 544 c0 -8 4 -13 9 -10 5 4 12 0 14 -6 3 -7 6 -3 6 10 1 13 -5
22 -14 22 -8 0 -15 -7 -15 -16z"/>
<path d="M912 470 c-11 -27 0 -50 24 -50 20 0 28 21 13 31 -12 8 -12 11 1 20
13 9 13 10 -2 6 -9 -3 -19 -1 -21 6 -3 7 -9 1 -15 -13z"/>
<path d="M972 476 c1 -10 8 -17 13 -17 15 1 12 24 -3 29 -9 3 -13 -2 -10 -12z"/>
<path d="M710 405 c0 -8 2 -15 4 -15 2 0 6 7 10 15 3 8 1 15 -4 15 -6 0 -10
-7 -10 -15z"/>
<path d="M872 399 c5 -15 55 -21 64 -8 3 5 -4 9 -15 9 -10 0 -27 3 -37 7 -12
4 -15 2 -12 -8z"/>
<path d="M760 375 c-10 -12 -9 -15 4 -15 10 0 14 -4 11 -10 -3 -5 1 -10 9 -10
17 0 20 9 10 34 -8 20 -18 20 -34 1z"/>
<path d="M970 367 c0 -20 29 -42 40 -31 5 5 -2 16 -16 27 -19 14 -24 15 -24 4z"/>
<path d="M365 330 c-3 -4 -16 -5 -30 -3 -17 4 -27 0 -31 -11 -3 -9 -10 -13
-15 -10 -5 3 -9 0 -9 -5 0 -6 4 -11 9 -11 5 0 18 -16 30 -36 13 -22 27 -34 39
-32 9 1 23 -1 30 -6 10 -6 11 -1 6 19 -6 24 -4 26 13 21 12 -4 27 1 39 13 11
10 31 22 44 26 20 6 22 5 16 -18 -6 -27 14 -43 32 -25 13 13 47 6 48 -10 1 -6
2 -16 3 -20 2 -13 41 -12 41 1 0 7 -12 23 -26 37 -14 13 -30 34 -35 47 -7 19
-13 21 -51 17 -23 -3 -45 -7 -49 -10 -4 -2 -13 1 -21 8 -14 14 -76 20 -83 8z"/>
<path d="M866 325 c-3 -8 -17 -15 -32 -15 -25 0 -30 -20 -8 -27 13 -4 64 34
64 48 0 15 -17 10 -24 -6z"/>
<path d="M983 294 c-7 -19 3 -31 43 -50 20 -10 37 -26 40 -41 4 -13 9 -21 12
-18 10 9 10 59 0 92 -8 29 -13 32 -49 31 -24 0 -43 -6 -46 -14z"/>
<path d="M1213 297 c4 -10 0 -18 -11 -21 -9 -2 -6 -4 8 -3 27 2 35 27 11 35
-10 3 -12 0 -8 -11z"/>
<path d="M1287 283 c-8 -12 30 -29 40 -19 4 3 -1 6 -9 6 -9 0 -18 5 -20 12 -3
9 -6 9 -11 1z"/>
<path d="M30 271 c0 -5 7 -15 17 -22 15 -13 15 -12 4 9 -12 23 -21 28 -21 13z"/>
<path d="M925 260 c-3 -5 -1 -19 5 -30 10 -18 8 -20 -20 -20 -24 0 -41 -10
-73 -45 -24 -25 -50 -45 -59 -45 -33 0 -31 -34 4 -63 18 -15 34 -23 36 -17 2
5 14 10 27 10 29 0 75 20 75 32 0 5 5 6 10 3 6 -4 10 -14 9 -23 -5 -58 -2 -62
54 -62 l52 1 -25 22 c-14 12 -24 30 -22 40 4 19 -14 24 -21 5 -3 -7 -6 -4 -6
6 -1 11 -4 17 -7 13 -4 -3 -13 0 -20 8 -23 23 -16 27 16 8 27 -16 32 -16 41
-3 5 8 7 25 4 38 -3 12 -1 22 5 22 5 0 10 7 10 15 0 17 -17 20 -22 4 -2 -6
-12 -1 -22 10 -19 21 -19 21 1 21 11 0 20 7 20 15 0 8 -4 12 -9 9 -4 -3 -8 0
-8 5 0 6 -7 11 -15 11 -8 0 -15 5 -15 10 0 13 -17 13 -25 0z"/>
<path d="M1125 224 c0 -13 3 -24 8 -24 4 0 7 9 7 19 0 11 -3 22 -7 24 -5 3 -8
-6 -8 -19z"/>
<path d="M703 222 c-7 -4 -9 -13 -5 -19 5 -8 13 -9 22 -3 10 6 11 13 5 19 -6
6 -16 7 -22 3z"/>
<path d="M11 144 c0 -11 3 -14 6 -6 3 7 2 16 -1 19 -3 4 -6 -2 -5 -13z"/>
<path d="M695 150 c-3 -5 -1 -10 4 -10 6 0 11 5 11 10 0 6 -2 10 -4 10 -3 0
-8 -4 -11 -10z"/>
<path d="M1 94 c0 -11 3 -14 6 -6 3 7 2 16 -1 19 -3 4 -6 -2 -5 -13z"/>
<path d="M268 38 c-3 -7 -31 -18 -64 -24 -57 -11 -55 -12 71 -13 l130 0 -50
24 c-56 28 -81 31 -87 13z"/>
<path d="M698 33 c-20 -5 -23 -18 -8 -28 6 -3 17 0 25 9 25 24 21 29 -17 19z"/>
<path d="M910 30 c0 -5 5 -10 10 -10 6 0 10 5 10 10 0 6 -4 10 -10 10 -5 0
-10 -4 -10 -10z"/>
<path d="M770 9 c0 -5 5 -7 10 -4 6 3 10 8 10 11 0 2 -4 4 -10 4 -5 0 -10 -5
-10 -11z"/>
</g>
</svg>
