<?xml version="1.0"?>
<svg width="400" height="400" xmlns="http://www.w3.org/2000/svg" xmlns:svg="http://www.w3.org/2000/svg">
 <g class="layer">
  <title>Layer 1</title>
  <g id="svgg">
   <path d="m188.8,0.213c-60.904,3.994 -114.212,33.075 -150.105,81.887c-21.58,29.346 -35.793,67.922 -37.803,102.6l-0.128,2.2l53.841,22.144l53.84,22.144l0.828,-0.561c7.357,-4.993 17.996,-8.217 28.24,-8.56l3.814,-0.128l14.186,-20.611c7.803,-11.336 18.8,-27.311 24.437,-35.502l10.25,-14.891l0,-2.038c0,-35.805 27.328,-67.831 63.051,-73.892c51.355,-8.712 96.158,35.936 87.638,87.337c-5.988,36.124 -35.957,62.156 -73.189,63.576l-3.6,0.137l-34.9,24.948l-34.9,24.948l-0.132,3.474c-1.401,36.913 -37.426,62.132 -72.505,50.758c-17.598,-5.706 -31.222,-20.069 -36.174,-38.138c-0.379,-1.381 -0.711,-2.531 -0.739,-2.556c-0.027,-0.025 -5.945,-2.476 -13.15,-5.446c-12.093,-4.984 -19.202,-7.918 -51,-21.042c-6.325,-2.611 -11.528,-4.675 -11.562,-4.589c-0.206,0.528 4.563,13.815 7.056,19.658c35.315,82.767 120.504,131.684 209.706,120.418c92.982,-11.744 165.355,-86.86 173.897,-180.488c0.433,-4.746 0.435,-31.231 0.002,-36c-9.324,-102.81 -94.673,-181.3 -197.799,-181.904c-5.72,-0.033 -11.615,0.019 -13.1,0.117m70.913,99.3c-20.688,2.761 -37.61,17.733 -42.71,37.787c-8.457,33.256 17.808,65.266 51.927,63.285c36.121,-2.097 58.52,-40.355 42.673,-72.885c-9.481,-19.461 -30.741,-31.01 -51.89,-28.187m9.916,12.492c31.975,3.168 45.958,42.034 23.277,64.699c-20.368,20.352 -55.201,11.312 -63.206,-16.404c-7.359,-25.478 13.657,-50.897 39.929,-48.295m-135.329,122.815c-3.431,0.415 -9.774,1.984 -10.36,2.562c-0.087,0.086 1.578,0.88 3.7,1.763c2.123,0.884 8.243,3.426 13.6,5.649c9.863,4.093 12.09,5.173 14.716,7.136c17.379,12.991 16.683,39.381 -1.356,51.418c-7.9,5.272 -18.357,6.689 -27.2,3.685c-1.379,-0.468 -14.234,-5.733 -24.787,-10.152c-2.506,-1.05 -2.427,-1.098 -1.438,0.869c14.289,28.42 55.703,30.339 73.442,3.403c19.823,-30.101 -4.812,-70.633 -40.317,-66.333" fill="#ffffff" fill-rule="evenodd" id="path0"/>
   <path fill="#ffffff" fill-rule="evenodd" id="path1"/>
   <path fill="#ffffff" fill-rule="evenodd" id="path2"/>
   <path fill="#ffffff" fill-rule="evenodd" id="path3"/>
   <path fill="#ffffff" fill-rule="evenodd" id="path4"/>
  </g>
 </g>
</svg>