<?xml version="1.0" standalone="no"?>
<!DOCTYPE svg PUBLIC "-//W3C//DTD SVG 20010904//EN"
 "http://www.w3.org/TR/2001/REC-SVG-20010904/DTD/svg10.dtd">
<svg version="1.0" xmlns="http://www.w3.org/2000/svg"
 width="380.000000pt" height="380.000000pt" viewBox="0 0 380.000000 380.000000"
 preserveAspectRatio="xMidYMid meet">
<metadata>
Created by potrace 1.11, written by Peter Selinger 2001-2013
</metadata>
<g transform="translate(0.000000,380.000000) scale(0.100000,-0.100000)"
fill="#000000" stroke="none">
<path d="M3325 3210 l-300 -300 -1475 0 -1475 0 255 -255 255 -255 257 0 258
0 0 -708 0 -707 -300 -300 -300 -300 0 -57 0 -58 58 0 57 0 300 300 300 300
962 0 963 0 0 963 0 962 300 300 300 300 0 57 0 58 -58 0 -57 0 -300 -300z
m-805 -802 c0 -2 -207 -210 -460 -463 l-460 -460 0 463 0 462 460 0 c253 0
460 -1 460 -2z m120 -578 l0 -460 -462 0 -463 0 460 460 c253 253 461 460 462
460 2 0 3 -207 3 -460z"/>
</g>
</svg>
