<svg version="1" xmlns="http://www.w3.org/2000/svg" width="445.333" height="445.333" viewBox="0 0 334.000000 334.000000"><path d="M40 86l25 25h26.4c20.2 0 26.5.3 26.8 1.2.2.7.4 35.4.3 77 0 41.7.2 75.8.6 75.8.3 0 5-4.6 10.3-10.3 5.4-5.6 16.3-16.8 24.2-25 7.9-8.1 14.5-15.1 14.5-15.5.1-.4.3-23.4.4-51.2.2-27.8.3-50.8.4-51.3.1-.4 23.2-.7 51.5-.7h51.4l25.1-25L322 61H15l25 25zM296.7 112l-24.9 24.8v38.6c.1 21.2-.2 38.6-.6 38.7-.4 0-17.9.1-38.9.2l-38.3.2-24.5 24.5c-13.4 13.4-24.2 24.6-23.9 24.9 1 1.1 175.6.6 176-.4.2-.6.3-40.4.2-88.6l-.3-87.7-24.8 24.8z"/></svg>