<?xml version="1.0" standalone="no"?>
<!DOCTYPE svg PUBLIC "-//W3C//DTD SVG 20010904//EN"
 "http://www.w3.org/TR/2001/REC-SVG-20010904/DTD/svg10.dtd">
<svg version="1.0" xmlns="http://www.w3.org/2000/svg"
 width="300.000000pt" height="300.000000pt" viewBox="0 0 300.000000 300.000000"
 preserveAspectRatio="xMidYMid meet">
<metadata>
Created by potrace 1.11, written by Peter Selinger 2001-2013
</metadata>
<g transform="translate(0.000000,300.000000) scale(0.100000,-0.100000)"
fill="#000000" stroke="none">
<path d="M0 1500 l0 -1500 1500 0 1500 0 0 1500 0 1500 -1500 0 -1500 0 0
-1500z m1040 1140 c33 -49 60 -93 60 -98 0 -5 -57 -93 -126 -196 -69 -103
-123 -194 -120 -201 2 -7 117 -182 255 -389 138 -207 251 -380 251 -386 0 -11
-377 -580 -385 -580 -7 0 -378 560 -374 565 3 2 59 5 124 7 l120 3 65 -97 c36
-54 67 -97 70 -97 3 0 33 43 68 95 l64 96 -262 390 c-144 214 -260 393 -258
397 4 11 382 580 385 581 1 0 30 -40 63 -90z m529 -4 l62 -93 -132 -198 -131
-197 262 -393 262 -393 -191 -284 c-106 -155 -195 -284 -200 -286 -9 -3 -124
167 -124 184 0 6 54 89 119 185 66 96 123 180 128 186 4 8 -92 160 -255 403
l-262 391 197 294 c108 162 198 295 200 295 2 0 31 -42 65 -94z m643 -191 c96
-148 177 -276 181 -282 6 -10 -19 -13 -116 -13 l-124 0 -64 95 c-35 52 -66 95
-69 95 -3 0 -33 -43 -67 -94 l-61 -93 260 -392 261 -391 -197 -296 -198 -297
-49 74 c-92 136 -98 101 51 314 72 102 130 189 130 194 0 5 -115 181 -255 392
-140 210 -255 387 -255 393 0 19 383 587 391 579 4 -5 85 -129 181 -278z
m-1912 -2045 c0 -30 -1 -30 -55 -30 -52 0 -55 -1 -55 -25 0 -24 3 -25 55 -25
l55 0 0 -80 0 -80 -80 0 c-78 0 -80 1 -80 24 0 23 4 25 53 28 48 3 52 5 52 28
0 23 -4 25 -52 28 l-53 3 0 80 0 79 80 0 80 0 0 -30z m108 -82 c3 -107 3 -108
27 -108 l25 0 0 110 0 110 25 0 25 0 0 -135 0 -135 -80 0 -80 0 0 128 c0 71 3
132 7 136 4 4 16 6 28 4 18 -3 20 -11 23 -110z m320 30 l3 -77 -53 -3 -53 -3
-3 -52 c-3 -49 -5 -53 -28 -53 l-24 0 0 135 0 136 78 -3 77 -3 3 -77z m212 52
c0 -30 -1 -30 -55 -30 -52 0 -55 -1 -55 -25 0 -24 3 -25 55 -25 52 0 55 -1 55
-24 0 -23 -4 -25 -52 -28 -49 -3 -53 -5 -53 -28 0 -23 4 -25 53 -28 48 -3 52
-5 52 -28 0 -23 -2 -24 -80 -24 l-80 0 0 135 0 135 80 0 80 0 0 -30z m210 -25
c0 -52 -1 -55 -25 -55 -20 0 -25 -5 -25 -25 0 -20 5 -25 25 -25 24 0 25 -3 25
-55 0 -52 -1 -55 -24 -55 -23 0 -25 4 -28 53 -3 44 -6 52 -23 52 -17 0 -20 -8
-23 -52 -3 -51 -4 -53 -33 -53 l-29 0 0 128 c0 71 3 132 7 135 3 4 39 7 80 7
l73 0 0 -55z m218 23 c3 -28 2 -28 -52 -28 -53 0 -56 -1 -56 -25 0 -24 3 -25
55 -25 l55 0 0 -80 0 -80 -80 0 c-79 0 -80 0 -80 25 0 23 3 25 51 25 49 0 50
1 47 28 -3 25 -7 27 -50 30 l-48 3 0 80 0 80 78 -3 c76 -3 77 -3 80 -30z m212
-103 l0 -135 -24 0 c-23 0 -25 4 -28 53 -3 48 -5 52 -28 52 -23 0 -25 -4 -28
-52 -3 -49 -5 -53 -28 -53 l-24 0 0 135 0 135 80 0 80 0 0 -135z m210 105 c0
-25 -4 -30 -25 -30 l-25 0 0 -105 0 -105 -25 0 -25 0 0 105 0 105 -30 0 c-27
0 -30 3 -30 30 l0 30 80 0 80 0 0 -30z m218 -107 l3 -133 -30 0 c-29 0 -30 2
-33 53 -3 44 -6 52 -23 52 -17 0 -20 -8 -23 -52 -3 -51 -4 -53 -33 -53 l-29 0
0 128 c0 71 3 132 7 136 4 4 41 5 83 4 l75 -3 3 -132z m212 2 l0 -135 -30 0
-30 0 0 105 0 105 -25 0 -25 0 0 -105 0 -105 -25 0 -25 0 0 135 0 135 80 0 80
0 0 -135z m210 105 c0 -30 -1 -30 -55 -30 -52 0 -55 -1 -55 -25 0 -24 3 -25
55 -25 l55 0 0 -80 0 -80 -80 0 c-78 0 -80 1 -80 24 0 23 4 25 53 28 48 3 52
5 52 28 0 23 -4 25 -52 28 l-53 3 0 80 0 79 80 0 80 0 0 -30z m218 -107 l3
-133 -86 0 -85 0 0 128 c0 71 3 132 7 136 4 4 41 5 83 4 l75 -3 3 -132z m212
2 l0 -135 -30 0 -30 0 0 105 0 105 -25 0 -25 0 0 -105 0 -105 -25 0 -25 0 0
135 0 135 80 0 80 0 0 -135z"/>
<path d="M620 345 c0 -20 5 -25 25 -25 20 0 25 5 25 25 0 20 -5 25 -25 25 -20
0 -25 -5 -25 -25z"/>
<path d="M1050 345 c0 -20 5 -25 25 -25 20 0 25 5 25 25 0 20 -5 25 -25 25
-20 0 -25 -5 -25 -25z"/>
<path d="M1470 345 c0 -21 5 -25 30 -25 25 0 30 4 30 25 0 21 -5 25 -30 25
-25 0 -30 -4 -30 -25z"/>
<path d="M1900 345 c0 -20 5 -25 25 -25 20 0 25 5 25 25 0 20 -5 25 -25 25
-20 0 -25 -5 -25 -25z"/>
<path d="M2540 290 c0 -79 0 -80 25 -80 25 0 25 1 25 80 0 79 0 80 -25 80 -25
0 -25 -1 -25 -80z"/>
</g>
</svg>
