<svg xmlns="http://www.w3.org/2000/svg" width="445.333" height="445.333" preserveAspectRatio="xMidYMid meet" version="1.0" viewBox="0 0 334 334"><metadata>Created by potrace 1.11, written by Peter Selinger 2001-2013</metadata><g fill="#000" stroke="none"><path d="M400 2475 l255 -255 262 0 263 0 0 -771 c0 -489 4 -769 10 -767 5 2 120 117 255 257 l245 254 0 513 0 514 513 0 512 0 255 255 255 255 -1540 0 -1540 0 255 -255z" transform="translate(0.000000,334.000000) scale(0.100000,-0.100000)"/><path d="M2962 2227 l-252 -252 0 -388 0 -387 -388 0 -387 0 -248 -248 c-136 -136 -247 -250 -247 -255 0 -4 400 -7 890 -7 l890 0 0 895 c0 492 -1 895 -3 895 -1 0 -116 -114 -255 -253z" transform="translate(0.000000,334.000000) scale(0.100000,-0.100000)"/></g></svg>