<svg id="svg" version="1.1" width="400" height="400" viewBox="0 0 400 400" xmlns="http://www.w3.org/2000/svg" xmlns:xlink="http://www.w3.org/1999/xlink" ><g id="svgg"><path id="path0" d="M191.091 0.109 C 190.541 0.144,188.659 0.262,186.909 0.371 C 94.708 6.107,17.737 75.752,2.639 167.103 C 1.625 173.239,0.117 186.541,0.403 186.827 C 0.491 186.915,107.804 231.091,107.931 231.091 C 107.981 231.091,108.916 230.561,110.008 229.912 C 118.478 224.885,127.283 222.350,137.315 222.052 L 140.902 221.945 165.315 186.484 L 189.727 151.022 189.848 147.465 C 191.572 96.780,241.369 61.899,289.405 77.729 C 333.136 92.141,354.090 142.257,333.656 183.564 C 321.025 209.095,296.272 224.893,267.273 225.930 L 263.727 226.057 228.818 251.006 L 193.909 275.956 193.792 279.296 C 192.489 316.625,155.687 342.010,120.406 329.916 C 103.216 324.024,89.647 309.448,85.045 291.934 C 84.706 290.644,84.314 289.533,84.170 289.453 C 84.026 289.373,67.014 282.338,46.364 273.818 C 25.714 265.298,8.757 258.290,8.682 258.244 C 8.608 258.199,8.618 258.350,8.706 258.581 C 8.794 258.811,8.870 259.041,8.876 259.091 C 8.888 259.205,8.829 259.023,10.297 263.455 C 10.976 265.505,11.545 267.243,11.561 267.318 C 11.577 267.393,11.611 267.495,11.636 267.545 C 11.661 267.595,11.699 267.698,11.720 267.773 C 11.741 267.848,11.861 268.155,11.988 268.455 C 12.114 268.755,12.238 269.082,12.263 269.182 C 12.288 269.282,12.410 269.609,12.536 269.909 C 12.661 270.209,12.784 270.536,12.808 270.636 C 12.833 270.736,12.956 271.064,13.081 271.364 C 13.206 271.664,13.329 271.991,13.354 272.091 C 13.471 272.557,13.955 273.738,14.305 274.409 C 14.449 274.684,14.519 274.909,14.461 274.909 C 14.403 274.909,14.489 275.114,14.653 275.364 C 14.817 275.614,14.899 275.818,14.835 275.818 C 14.771 275.818,14.840 276.002,14.987 276.227 C 15.134 276.452,15.257 276.699,15.260 276.775 C 15.263 276.851,15.391 277.157,15.545 277.455 C 15.700 277.752,15.822 278.039,15.818 278.091 C 15.814 278.143,15.937 278.429,16.091 278.727 C 16.245 279.025,16.368 279.312,16.364 279.364 C 16.360 279.416,16.482 279.702,16.636 280.000 C 16.790 280.298,16.906 280.588,16.893 280.645 C 16.870 280.745,17.146 281.335,18.224 283.496 C 18.510 284.068,18.736 284.581,18.727 284.636 C 18.705 284.767,23.229 293.844,23.456 294.126 C 23.552 294.245,23.816 294.736,24.043 295.217 C 24.269 295.697,24.552 296.194,24.671 296.320 C 24.790 296.446,24.990 296.835,25.116 297.184 C 25.243 297.533,25.406 297.818,25.479 297.818 C 25.553 297.818,25.716 298.105,25.843 298.455 C 25.969 298.805,26.133 299.091,26.207 299.091 C 26.280 299.091,26.444 299.377,26.570 299.727 C 26.697 300.077,26.856 300.364,26.924 300.364 C 26.991 300.364,27.156 300.630,27.288 300.955 C 27.421 301.280,27.636 301.654,27.765 301.786 C 27.894 301.918,28.000 302.143,28.000 302.286 C 28.000 302.429,28.076 302.545,28.170 302.545 C 28.263 302.545,28.396 302.726,28.466 302.946 C 28.536 303.166,28.705 303.459,28.842 303.595 C 28.979 303.732,29.091 303.961,29.091 304.104 C 29.091 304.247,29.160 304.364,29.244 304.364 C 29.328 304.364,29.553 304.668,29.744 305.040 C 29.935 305.413,30.237 305.882,30.416 306.082 C 30.595 306.283,30.788 306.633,30.845 306.860 C 30.902 307.087,31.021 307.273,31.111 307.273 C 31.200 307.273,31.273 307.389,31.273 307.530 C 31.273 307.672,31.344 307.815,31.432 307.848 C 31.644 307.929,33.273 310.464,33.273 310.714 C 33.273 310.821,33.355 310.909,33.455 310.909 C 33.555 310.909,33.636 311.025,33.636 311.167 C 33.636 311.308,33.706 311.452,33.790 311.485 C 34.019 311.575,35.273 313.375,35.273 313.613 C 35.273 313.726,35.355 313.818,35.455 313.818 C 35.555 313.818,35.636 313.904,35.636 314.008 C 35.636 314.112,35.841 314.418,36.091 314.688 C 36.341 314.958,36.545 315.244,36.545 315.324 C 36.545 315.405,36.750 315.691,37.000 315.961 C 37.250 316.230,37.455 316.517,37.455 316.597 C 37.455 316.677,37.659 316.964,37.909 317.233 C 38.159 317.503,38.364 317.818,38.364 317.933 C 38.364 318.049,38.486 318.190,38.636 318.248 C 38.786 318.305,38.909 318.469,38.909 318.611 C 38.909 318.754,39.032 318.917,39.182 318.975 C 39.332 319.032,39.455 319.205,39.455 319.358 C 39.455 319.511,39.539 319.636,39.642 319.636 C 39.745 319.636,39.880 319.767,39.941 319.926 C 40.002 320.086,40.286 320.472,40.572 320.785 C 40.857 321.098,41.091 321.413,41.091 321.485 C 41.091 321.557,41.377 321.927,41.726 322.308 C 42.076 322.689,42.362 323.102,42.363 323.227 C 42.363 323.352,42.428 323.455,42.507 323.455 C 42.585 323.455,42.912 323.802,43.233 324.227 C 43.554 324.652,43.961 325.189,44.136 325.420 C 44.311 325.651,44.639 326.014,44.864 326.226 C 45.089 326.438,45.273 326.674,45.273 326.752 C 45.273 326.829,45.457 327.091,45.682 327.333 C 46.094 327.777,46.748 328.532,47.696 329.661 C 47.979 329.997,48.486 330.585,48.821 330.966 C 49.157 331.347,49.728 332.001,50.091 332.420 C 52.831 335.583,60.777 343.750,63.922 346.636 C 64.903 347.536,65.878 348.436,66.090 348.636 C 68.170 350.599,75.127 356.373,78.727 359.124 C 120.738 391.231,174.192 405.349,226.908 398.262 C 265.089 393.129,300.694 377.135,330.255 351.838 C 331.846 350.477,333.406 349.118,333.723 348.818 C 334.040 348.518,335.100 347.536,336.079 346.636 C 338.084 344.792,344.293 338.567,346.364 336.323 C 348.526 333.981,349.204 333.234,349.909 332.420 C 350.272 332.001,350.841 331.347,351.175 330.966 C 352.144 329.858,352.844 329.045,353.395 328.386 C 353.678 328.049,354.093 327.575,354.318 327.333 C 354.543 327.091,354.727 326.819,354.727 326.729 C 354.727 326.640,354.877 326.459,355.059 326.328 C 355.242 326.198,355.467 325.957,355.559 325.792 C 355.734 325.483,356.763 324.207,357.318 323.613 C 357.493 323.426,357.637 323.211,357.637 323.136 C 357.638 323.061,357.912 322.702,358.247 322.337 C 358.582 321.973,358.906 321.543,358.968 321.383 C 359.029 321.222,359.164 321.091,359.267 321.091 C 359.370 321.091,359.455 320.966,359.455 320.812 C 359.455 320.659,359.577 320.487,359.727 320.429 C 359.877 320.372,360.000 320.229,360.000 320.112 C 360.000 319.995,360.234 319.643,360.519 319.331 C 360.805 319.018,361.089 318.631,361.150 318.472 C 361.211 318.312,361.346 318.182,361.449 318.182 C 361.552 318.182,361.636 318.079,361.636 317.953 C 361.636 317.827,361.841 317.503,362.091 317.233 C 362.341 316.964,362.545 316.662,362.545 316.562 C 362.545 316.463,362.648 316.316,362.773 316.236 C 362.898 316.156,363.111 315.877,363.245 315.616 C 363.380 315.354,363.686 314.928,363.927 314.669 C 364.167 314.410,364.364 314.143,364.364 314.075 C 364.364 313.897,365.665 312.102,365.846 312.030 C 365.931 311.997,366.000 311.854,366.000 311.712 C 366.000 311.570,366.082 311.455,366.182 311.455 C 366.282 311.455,366.364 311.332,366.364 311.182 C 366.364 311.032,366.445 310.909,366.545 310.909 C 366.645 310.909,366.727 310.786,366.727 310.636 C 366.727 310.486,366.809 310.364,366.909 310.364 C 367.009 310.364,367.091 310.278,367.091 310.173 C 367.091 309.926,368.362 307.928,368.569 307.848 C 368.656 307.815,368.727 307.672,368.727 307.530 C 368.727 307.389,368.800 307.273,368.889 307.273 C 368.979 307.273,369.098 307.087,369.155 306.860 C 369.212 306.633,369.405 306.283,369.584 306.082 C 369.763 305.882,370.065 305.413,370.256 305.040 C 370.447 304.668,370.672 304.364,370.756 304.364 C 370.840 304.364,370.909 304.247,370.909 304.104 C 370.909 303.961,371.021 303.732,371.158 303.595 C 371.295 303.459,371.464 303.166,371.534 302.946 C 371.604 302.726,371.737 302.545,371.830 302.545 C 371.924 302.545,372.000 302.429,372.000 302.286 C 372.000 302.143,372.106 301.918,372.235 301.786 C 372.364 301.654,372.579 301.280,372.712 300.955 C 372.844 300.630,373.016 300.364,373.093 300.364 C 373.170 300.364,373.285 300.159,373.347 299.909 C 373.410 299.659,373.547 299.455,373.651 299.455 C 373.755 299.455,373.789 299.373,373.727 299.273 C 373.665 299.173,373.685 299.091,373.771 299.091 C 373.857 299.091,374.031 298.805,374.157 298.455 C 374.284 298.105,374.447 297.818,374.521 297.818 C 374.594 297.818,374.757 297.533,374.884 297.184 C 375.010 296.835,375.210 296.446,375.329 296.320 C 375.448 296.194,375.731 295.697,375.957 295.217 C 376.184 294.736,376.449 294.245,376.546 294.126 C 376.785 293.832,381.332 284.696,381.383 284.406 C 381.405 284.279,381.676 283.727,381.986 283.179 C 382.295 282.630,382.505 282.182,382.452 282.182 C 382.400 282.182,382.534 281.834,382.750 281.409 C 382.967 280.984,383.131 280.615,383.114 280.589 C 383.097 280.563,383.210 280.298,383.364 280.000 C 383.518 279.702,383.648 279.396,383.654 279.320 C 383.660 279.244,383.812 278.895,383.992 278.545 C 384.341 277.867,384.760 276.877,384.762 276.727 C 384.763 276.677,384.853 276.473,384.964 276.273 C 385.074 276.073,385.182 275.827,385.204 275.727 C 385.238 275.570,385.447 275.050,386.412 272.727 C 386.516 272.477,386.623 272.191,386.650 272.091 C 386.721 271.830,387.745 269.101,388.015 268.455 C 388.140 268.155,388.259 267.848,388.280 267.773 C 388.301 267.698,388.339 267.595,388.364 267.545 C 388.389 267.495,388.423 267.393,388.439 267.318 C 388.554 266.800,389.172 265.141,389.319 264.955 C 389.418 264.830,389.438 264.727,389.364 264.727 C 389.289 264.727,389.330 264.605,389.455 264.455 C 389.579 264.305,389.620 264.182,389.545 264.182 C 389.471 264.182,389.512 264.059,389.636 263.909 C 389.761 263.759,389.802 263.636,389.727 263.636 C 389.653 263.636,389.694 263.514,389.818 263.364 C 389.943 263.214,389.984 263.091,389.909 263.091 C 389.835 263.091,389.859 262.989,389.962 262.864 C 390.066 262.739,390.158 262.575,390.166 262.500 C 390.175 262.425,390.188 262.343,390.196 262.318 C 390.203 262.293,390.238 262.121,390.273 261.936 C 390.308 261.750,390.517 261.055,390.738 260.390 C 391.190 259.028,391.302 258.657,391.282 258.590 C 391.275 258.565,391.389 258.256,391.535 257.905 C 391.682 257.554,391.806 257.227,391.810 257.179 C 391.815 257.130,391.824 257.070,391.832 257.045 C 391.853 256.976,391.994 256.392,392.051 256.136 C 392.078 256.011,392.165 255.807,392.243 255.682 C 392.321 255.557,392.341 255.455,392.288 255.455 C 392.235 255.455,392.278 255.230,392.384 254.955 C 392.581 254.445,392.678 254.083,392.833 253.273 C 392.881 253.023,392.971 252.695,393.033 252.545 C 393.186 252.177,393.235 252.002,393.364 251.364 C 393.425 251.064,393.760 249.714,394.109 248.364 C 394.457 247.014,394.785 245.664,394.837 245.364 C 394.890 245.064,395.021 244.491,395.130 244.091 C 395.239 243.691,395.350 243.200,395.377 243.000 C 395.404 242.800,395.517 242.268,395.628 241.818 C 395.740 241.368,395.869 240.795,395.916 240.545 C 395.963 240.295,396.037 239.927,396.082 239.727 C 396.233 239.050,396.341 238.457,396.448 237.727 C 396.507 237.327,396.601 236.853,396.656 236.674 C 396.711 236.495,396.793 236.045,396.838 235.674 C 396.882 235.303,396.964 234.854,397.019 234.677 C 397.074 234.499,397.157 234.090,397.205 233.768 C 397.252 233.445,397.321 233.018,397.357 232.818 C 397.393 232.618,397.473 232.045,397.535 231.545 C 397.596 231.045,397.698 230.391,397.761 230.091 C 397.825 229.791,397.894 229.382,397.917 229.182 C 398.106 227.463,398.199 226.748,398.287 226.324 C 398.344 226.053,398.419 225.562,398.455 225.233 C 398.491 224.905,398.569 224.227,398.627 223.727 C 398.997 220.556,399.160 218.901,399.377 216.091 C 399.431 215.391,399.507 214.409,399.546 213.909 C 399.831 210.267,399.902 207.314,399.905 199.091 C 399.909 189.602,399.840 188.022,399.078 180.191 C 390.141 88.313,318.493 14.053,226.909 1.743 C 217.507 0.479,212.578 0.159,201.545 0.098 C 196.345 0.069,191.641 0.074,191.091 0.109 M261.835 99.274 C 218.583 102.895,199.336 155.203,229.985 185.831 C 257.858 213.684,305.492 200.268,314.922 161.909 C 323.083 128.709,295.731 96.437,261.835 99.274 M269.481 112.008 C 301.231 115.202,315.097 154.134,292.525 176.706 C 270.784 198.447,233.570 186.491,228.360 156.091 C 224.166 131.619,244.778 109.522,269.481 112.008 M135.909 234.665 C 131.478 235.024,123.455 236.815,123.455 237.446 C 123.455 237.520,129.243 239.974,136.318 242.898 C 143.393 245.823,149.996 248.624,150.991 249.123 C 166.429 256.865,172.619 275.785,164.813 291.364 C 158.512 303.938,144.359 310.815,130.569 308.005 C 127.704 307.421,126.303 306.892,112.821 301.301 C 105.822 298.400,100.069 296.052,100.036 296.085 C 99.824 296.298,102.444 300.793,104.043 302.958 C 125.256 331.695,170.624 323.171,179.801 288.724 C 187.338 260.436,164.531 232.347,135.909 234.665 " stroke="none" fill="#ffffff" fill-rule="evenodd"></path><path id="path1" d="" stroke="none" fill="#ffffff" fill-rule="evenodd"></path></g></svg>