<svg id="svg" version="1.1" width="400" height="400" viewBox="0 0 400 400" xmlns="http://www.w3.org/2000/svg" xmlns:xlink="http://www.w3.org/1999/xlink" ><g id="svgg"><path id="path0" d="M179.542 0.297 C 176.788 0.419,176.462 0.519,176.256 1.309 C 176.074 2.004,175.924 2.084,175.533 1.693 C 174.930 1.090,168.800 1.005,168.800 1.600 C 168.800 1.826,167.667 2.000,166.200 2.000 C 164.733 2.000,163.600 2.174,163.600 2.400 C 163.600 2.620,162.700 2.800,161.600 2.800 C 160.500 2.800,159.600 2.980,159.600 3.200 C 159.600 3.420,159.060 3.600,158.400 3.600 C 157.707 3.600,157.242 3.794,157.300 4.058 C 157.368 4.371,156.607 4.488,154.900 4.430 C 153.336 4.376,152.400 4.504,152.400 4.772 C 152.400 5.007,151.680 5.200,150.800 5.200 C 149.920 5.200,149.200 5.380,149.200 5.600 C 149.200 5.820,148.491 6.000,147.624 6.000 C 146.757 6.000,145.936 6.180,145.800 6.400 C 145.664 6.620,145.023 6.800,144.376 6.800 C 143.597 6.800,143.200 7.003,143.200 7.400 C 143.200 7.833,142.756 8.000,141.600 8.000 C 140.720 8.000,140.000 8.180,140.000 8.400 C 140.000 8.620,139.640 8.800,139.200 8.800 C 138.760 8.800,138.400 8.980,138.400 9.200 C 138.400 9.420,137.860 9.600,137.200 9.600 C 136.540 9.600,136.000 9.780,136.000 10.000 C 136.000 10.220,135.460 10.400,134.800 10.400 C 134.140 10.400,133.600 10.580,133.600 10.800 C 133.600 11.020,133.060 11.200,132.400 11.200 C 131.740 11.200,131.200 11.380,131.200 11.600 C 131.200 11.820,130.660 12.000,130.000 12.000 C 129.340 12.000,128.800 12.180,128.800 12.400 C 128.800 12.620,128.170 12.800,127.400 12.800 C 126.630 12.800,126.000 12.980,126.000 13.200 C 126.000 13.420,125.640 13.600,125.200 13.600 C 124.760 13.600,124.400 13.780,124.400 14.000 C 124.400 14.220,123.860 14.400,123.200 14.400 C 122.540 14.400,122.000 14.580,122.000 14.800 C 122.000 15.020,121.640 15.200,121.200 15.200 C 120.760 15.200,120.400 15.380,120.400 15.600 C 120.400 15.820,120.040 16.000,119.600 16.000 C 119.160 16.000,118.800 16.180,118.800 16.400 C 118.800 16.620,118.440 16.800,118.000 16.800 C 117.560 16.800,117.200 16.980,117.200 17.200 C 117.200 17.420,116.660 17.600,116.000 17.600 C 115.340 17.600,114.800 17.780,114.800 18.000 C 114.800 18.220,114.440 18.400,114.000 18.400 C 113.560 18.400,113.200 18.580,113.200 18.800 C 113.200 19.020,112.840 19.200,112.400 19.200 C 111.960 19.200,111.600 19.380,111.600 19.600 C 111.600 19.820,111.280 20.000,110.888 20.000 C 110.497 20.000,109.917 20.360,109.600 20.800 C 109.283 21.240,108.613 21.600,108.112 21.600 C 107.610 21.600,107.200 21.780,107.200 22.000 C 107.200 22.220,106.840 22.400,106.400 22.400 C 105.960 22.400,105.600 22.580,105.600 22.800 C 105.600 23.020,105.240 23.200,104.800 23.200 C 104.360 23.200,103.978 23.380,103.950 23.600 C 103.922 23.820,103.855 24.180,103.800 24.400 C 103.745 24.620,103.678 24.986,103.650 25.214 C 103.616 25.496,103.344 25.491,102.800 25.200 C 102.122 24.837,102.000 24.896,102.000 25.586 C 102.000 26.513,101.851 26.562,100.783 25.991 C 100.148 25.651,100.062 25.695,100.275 26.251 C 100.489 26.808,100.353 26.875,99.466 26.652 C 98.834 26.494,98.400 26.551,98.400 26.792 C 98.400 27.017,98.040 27.200,97.600 27.200 C 97.156 27.200,96.800 27.467,96.800 27.800 C 96.800 28.130,96.480 28.400,96.088 28.400 C 95.697 28.400,95.117 28.760,94.800 29.200 C 94.483 29.640,93.943 30.000,93.600 30.000 C 93.257 30.000,92.717 30.360,92.400 30.800 C 92.083 31.240,91.503 31.600,91.112 31.600 C 90.720 31.600,90.400 31.780,90.400 32.000 C 90.400 32.220,90.080 32.400,89.688 32.400 C 89.297 32.400,88.717 32.760,88.400 33.200 C 88.083 33.640,87.593 34.000,87.312 34.000 C 87.030 34.000,86.800 34.180,86.800 34.400 C 86.800 34.620,86.480 34.800,86.088 34.800 C 85.697 34.800,85.117 35.160,84.800 35.600 C 84.483 36.040,83.943 36.400,83.600 36.400 C 83.257 36.400,82.717 36.760,82.400 37.200 C 82.083 37.640,81.579 38.000,81.280 38.000 C 80.982 38.000,80.046 38.720,79.200 39.600 C 78.354 40.480,77.451 41.200,77.192 41.200 C 76.933 41.200,76.217 41.740,75.600 42.400 C 74.983 43.060,74.277 43.600,74.029 43.600 C 73.570 43.600,70.000 46.983,70.000 47.418 C 70.000 47.897,68.841 48.800,68.226 48.800 C 67.409 48.800,49.600 66.599,49.600 67.416 C 49.600 68.002,47.903 70.000,47.405 70.000 C 46.982 70.000,44.400 72.765,44.400 73.218 C 44.400 73.463,43.680 74.354,42.800 75.200 C 41.920 76.046,41.200 76.949,41.200 77.208 C 41.200 77.467,40.660 78.183,40.000 78.800 C 39.340 79.417,38.800 80.169,38.800 80.472 C 38.800 80.775,38.440 81.283,38.000 81.600 C 37.560 81.917,37.200 82.425,37.200 82.728 C 37.200 83.031,36.660 83.783,36.000 84.400 C 35.340 85.017,34.800 85.809,34.800 86.160 C 34.800 86.512,34.620 86.800,34.400 86.800 C 34.180 86.800,34.000 87.070,34.000 87.400 C 34.000 87.730,33.820 88.000,33.600 88.000 C 33.380 88.000,33.200 88.320,33.200 88.712 C 33.200 89.103,32.840 89.683,32.400 90.000 C 31.960 90.317,31.600 90.857,31.600 91.200 C 31.600 91.543,31.240 92.083,30.800 92.400 C 30.360 92.717,30.000 93.297,30.000 93.688 C 30.000 94.080,29.820 94.400,29.600 94.400 C 29.380 94.400,29.200 94.683,29.200 95.029 C 29.200 95.747,28.266 96.800,27.629 96.800 C 27.393 96.800,27.200 97.160,27.200 97.600 C 27.200 98.040,27.020 98.400,26.800 98.400 C 26.580 98.400,26.400 98.760,26.400 99.200 C 26.400 99.640,26.220 100.000,26.000 100.000 C 25.780 100.000,25.600 100.345,25.600 100.767 C 25.600 101.188,25.394 101.602,25.143 101.686 C 24.802 101.799,24.805 102.063,25.157 102.719 C 25.554 103.462,25.524 103.600,24.967 103.600 C 24.497 103.600,24.369 103.838,24.522 104.424 C 24.657 104.939,24.515 105.334,24.146 105.476 C 23.820 105.601,23.651 105.957,23.770 106.267 C 23.889 106.577,23.709 106.937,23.370 107.067 C 23.031 107.197,22.853 107.560,22.973 107.874 C 23.117 108.248,22.781 108.588,21.996 108.861 C 21.233 109.127,20.800 109.554,20.800 110.039 C 20.800 110.458,20.620 110.800,20.400 110.800 C 20.180 110.800,20.000 111.160,20.000 111.600 C 20.000 112.040,19.820 112.400,19.600 112.400 C 19.380 112.400,19.200 112.760,19.200 113.200 C 19.200 113.640,19.020 114.000,18.800 114.000 C 18.580 114.000,18.400 114.360,18.400 114.800 C 18.400 115.240,18.220 115.600,18.000 115.600 C 17.780 115.600,17.600 115.960,17.600 116.400 C 17.600 116.840,17.420 117.200,17.200 117.200 C 16.980 117.200,16.800 117.740,16.800 118.400 C 16.800 119.060,16.620 119.600,16.400 119.600 C 16.180 119.600,16.000 119.960,16.000 120.400 C 16.000 120.840,15.820 121.200,15.600 121.200 C 15.380 121.200,15.200 121.560,15.200 122.000 C 15.200 122.440,15.020 122.800,14.800 122.800 C 14.580 122.800,14.400 123.340,14.400 124.000 C 14.400 124.660,14.220 125.200,14.000 125.200 C 13.780 125.200,13.600 125.560,13.600 126.000 C 13.600 126.440,13.420 126.800,13.200 126.800 C 12.980 126.800,12.800 127.430,12.800 128.200 C 12.800 128.970,12.620 129.600,12.400 129.600 C 12.180 129.600,12.000 130.320,12.000 131.200 C 12.000 132.080,11.820 132.800,11.600 132.800 C 11.380 132.800,11.200 133.160,11.200 133.600 C 11.200 134.040,11.020 134.400,10.800 134.400 C 10.580 134.400,10.400 134.940,10.400 135.600 C 10.400 136.260,10.220 136.800,10.000 136.800 C 9.780 136.800,9.600 137.160,9.600 137.600 C 9.600 138.040,9.420 138.400,9.200 138.400 C 8.980 138.400,8.800 139.120,8.800 140.000 C 8.800 140.880,8.620 141.600,8.400 141.600 C 8.180 141.600,8.000 142.140,8.000 142.800 C 8.000 143.600,7.800 144.000,7.400 144.000 C 6.968 144.000,6.800 144.442,6.800 145.576 C 6.800 146.443,6.620 147.264,6.400 147.400 C 6.180 147.536,6.000 148.357,6.000 149.224 C 6.000 150.091,5.820 150.800,5.600 150.800 C 5.027 150.800,5.105 153.745,5.693 154.333 C 6.084 154.724,6.001 154.875,5.293 155.060 C 4.389 155.296,3.951 157.200,4.800 157.200 C 5.547 157.200,5.204 158.474,4.400 158.684 C 3.833 158.832,3.600 159.230,3.600 160.047 C 3.600 160.681,3.420 161.200,3.200 161.200 C 2.978 161.200,2.800 162.267,2.800 163.600 C 2.800 164.933,2.622 166.000,2.400 166.000 C 2.174 166.000,2.000 167.133,2.000 168.600 C 2.000 170.067,1.826 171.200,1.600 171.200 C 1.003 171.200,1.090 177.330,1.697 177.937 C 2.180 178.420,1.821 178.897,0.669 179.304 C 0.157 179.485,-0.215 208.800,0.294 208.800 C 0.899 208.800,1.322 210.838,0.822 211.338 C 0.268 211.892,0.247 222.400,0.800 222.400 C 1.033 222.400,1.200 223.733,1.200 225.600 C 1.200 227.467,1.367 228.800,1.600 228.800 C 1.826 228.800,2.000 229.933,2.000 231.400 C 2.000 232.867,2.174 234.000,2.400 234.000 C 2.620 234.000,2.800 234.720,2.800 235.600 C 2.800 236.726,2.971 237.200,3.376 237.200 C 4.181 237.200,4.579 237.981,4.045 238.515 C 3.492 239.068,3.453 242.800,4.000 242.800 C 4.220 242.800,4.400 243.520,4.400 244.400 C 4.400 245.280,4.580 246.000,4.800 246.000 C 5.020 246.000,5.200 246.720,5.200 247.600 C 5.200 248.480,5.380 249.200,5.600 249.200 C 5.820 249.200,6.000 249.650,6.000 250.200 C 6.000 250.804,6.228 251.200,6.576 251.200 C 7.381 251.200,7.779 251.981,7.245 252.515 C 6.551 253.209,6.675 256.000,7.400 256.000 C 7.800 256.000,8.000 256.400,8.000 257.200 C 8.000 257.860,8.180 258.400,8.400 258.400 C 8.620 258.400,8.800 259.120,8.800 260.000 C 8.800 260.880,8.980 261.600,9.200 261.600 C 9.420 261.600,9.600 261.960,9.600 262.400 C 9.600 262.840,9.780 263.200,10.000 263.200 C 10.220 263.200,10.400 263.740,10.400 264.400 C 10.400 265.060,10.580 265.600,10.800 265.600 C 11.020 265.600,11.200 266.140,11.200 266.800 C 11.200 267.460,11.380 268.000,11.600 268.000 C 11.820 268.000,12.000 268.630,12.000 269.400 C 12.000 270.170,12.180 270.800,12.400 270.800 C 12.620 270.800,12.800 271.340,12.800 272.000 C 12.800 272.660,12.980 273.200,13.200 273.200 C 13.420 273.200,13.600 273.483,13.600 273.829 C 13.600 274.570,14.541 275.600,15.218 275.600 C 15.509 275.600,15.619 275.987,15.502 276.600 C 15.378 277.251,15.492 277.600,15.830 277.600 C 16.201 277.600,16.284 278.002,16.123 279.000 C 15.975 279.909,16.054 280.400,16.348 280.400 C 16.596 280.400,16.800 280.940,16.800 281.600 C 16.800 282.260,16.980 282.800,17.200 282.800 C 17.420 282.800,17.600 283.160,17.600 283.600 C 17.600 284.040,17.780 284.400,18.000 284.400 C 18.220 284.400,18.400 284.720,18.400 285.112 C 18.400 285.503,18.760 286.083,19.200 286.400 C 19.640 286.717,20.000 287.207,20.000 287.488 C 20.000 287.770,20.272 288.000,20.605 288.000 C 21.086 288.000,21.157 288.326,20.954 289.600 C 20.782 290.672,20.847 291.200,21.149 291.200 C 21.397 291.200,21.600 291.560,21.600 292.000 C 21.600 292.440,21.780 292.800,22.000 292.800 C 22.220 292.800,22.400 293.160,22.400 293.600 C 22.400 294.040,22.580 294.400,22.800 294.400 C 23.020 294.400,23.200 294.760,23.200 295.200 C 23.200 295.640,23.380 296.000,23.600 296.000 C 23.820 296.000,24.000 296.283,24.000 296.629 C 24.000 297.347,24.934 298.400,25.571 298.400 C 25.807 298.400,26.000 298.591,26.000 298.824 C 26.000 299.057,26.169 299.143,26.376 299.015 C 26.600 298.877,26.660 299.355,26.524 300.191 C 26.375 301.107,26.454 301.600,26.748 301.600 C 26.996 301.600,27.200 301.960,27.200 302.400 C 27.200 302.840,27.393 303.200,27.629 303.200 C 28.266 303.200,29.200 304.253,29.200 304.971 C 29.200 305.317,29.380 305.600,29.600 305.600 C 29.820 305.600,30.000 305.894,30.000 306.253 C 30.000 307.021,31.473 308.400,32.293 308.400 C 32.719 308.400,32.797 308.704,32.600 309.600 C 32.434 310.355,32.497 310.800,32.768 310.800 C 33.006 310.800,33.200 311.120,33.200 311.512 C 33.200 311.903,33.560 312.483,34.000 312.800 C 34.440 313.117,34.800 313.625,34.800 313.928 C 34.800 314.231,35.340 314.983,36.000 315.600 C 36.660 316.217,37.200 316.943,37.200 317.214 C 37.200 317.857,38.758 319.200,39.505 319.200 C 39.912 319.200,40.018 319.476,39.856 320.121 C 39.695 320.762,39.864 321.213,40.412 321.609 C 40.846 321.921,41.200 322.421,41.200 322.720 C 41.200 323.437,44.301 326.400,45.052 326.400 C 46.016 326.400,47.608 328.507,47.104 329.115 C 46.783 329.503,47.039 329.962,48.138 330.969 C 48.942 331.705,49.600 332.515,49.600 332.767 C 49.600 333.560,52.404 336.084,53.021 335.847 C 53.404 335.700,53.600 335.888,53.600 336.402 C 53.600 337.233,67.585 351.600,68.394 351.600 C 68.646 351.600,69.729 352.500,70.800 353.600 C 71.871 354.700,72.954 355.600,73.205 355.600 C 73.457 355.600,74.354 356.320,75.200 357.200 C 76.046 358.080,76.982 358.800,77.280 358.800 C 77.579 358.800,78.079 359.154,78.391 359.588 C 78.787 360.136,79.238 360.305,79.879 360.144 C 80.534 359.980,80.800 360.087,80.800 360.514 C 80.800 361.288,82.952 363.600,83.672 363.600 C 83.975 363.600,84.483 363.960,84.800 364.400 C 85.117 364.840,85.697 365.200,86.088 365.200 C 86.480 365.200,86.800 365.400,86.800 365.643 C 86.800 365.915,87.182 365.991,87.784 365.840 C 88.542 365.650,88.878 365.799,89.247 366.488 C 89.874 367.659,90.631 368.400,91.200 368.400 C 91.777 368.400,92.800 369.405,92.800 369.971 C 92.800 370.207,93.120 370.400,93.512 370.400 C 93.903 370.400,94.483 370.760,94.800 371.200 C 95.117 371.640,95.697 372.000,96.088 372.000 C 96.480 372.000,96.800 372.180,96.800 372.400 C 96.800 372.620,97.160 372.800,97.600 372.800 C 98.040 372.800,98.400 372.980,98.400 373.200 C 98.400 373.420,98.720 373.600,99.112 373.600 C 99.503 373.600,100.083 373.960,100.400 374.400 C 100.717 374.840,101.297 375.200,101.688 375.200 C 102.080 375.200,102.400 375.380,102.400 375.600 C 102.400 375.820,102.760 376.000,103.200 376.000 C 103.640 376.000,104.000 376.180,104.000 376.400 C 104.000 376.620,104.320 376.800,104.712 376.800 C 105.103 376.800,105.683 377.160,106.000 377.600 C 106.375 378.120,107.035 378.400,107.888 378.400 C 108.610 378.400,109.200 378.580,109.200 378.800 C 109.200 379.020,109.520 379.200,109.912 379.200 C 110.303 379.200,110.883 379.560,111.200 380.000 C 111.517 380.440,112.097 380.800,112.488 380.800 C 112.880 380.800,113.200 380.980,113.200 381.200 C 113.200 381.420,113.740 381.600,114.400 381.600 C 115.060 381.600,115.600 381.780,115.600 382.000 C 115.600 382.220,115.960 382.400,116.400 382.400 C 116.840 382.400,117.200 382.588,117.200 382.817 C 117.200 383.054,117.850 383.184,118.700 383.117 C 119.778 383.033,120.169 383.149,120.090 383.530 C 120.016 383.885,120.232 383.980,120.744 383.818 C 121.326 383.633,121.568 383.816,121.761 384.588 C 121.962 385.388,122.266 385.600,123.208 385.600 C 123.863 385.600,124.400 385.780,124.400 386.000 C 124.400 386.220,124.940 386.400,125.600 386.400 C 126.260 386.400,126.800 386.580,126.800 386.800 C 126.800 387.020,127.250 387.200,127.800 387.200 C 128.350 387.200,128.800 387.380,128.800 387.600 C 128.800 387.820,129.610 388.000,130.600 388.000 C 131.590 388.000,132.400 388.180,132.400 388.400 C 132.400 388.620,132.670 388.800,133.000 388.800 C 133.330 388.800,133.600 388.980,133.600 389.200 C 133.600 389.420,134.140 389.600,134.800 389.600 C 135.600 389.600,136.000 389.800,136.000 390.200 C 136.000 390.533,136.356 390.800,136.800 390.800 C 137.240 390.800,137.600 390.980,137.600 391.200 C 137.600 391.420,138.140 391.600,138.800 391.600 C 139.460 391.600,140.000 391.780,140.000 392.000 C 140.000 392.534,142.643 392.512,143.656 391.970 C 144.327 391.611,144.495 391.677,144.676 392.370 C 144.799 392.839,145.221 393.200,145.647 393.200 C 146.061 393.200,146.400 393.380,146.400 393.600 C 146.400 393.820,147.030 394.000,147.800 394.000 C 148.570 394.000,149.200 394.180,149.200 394.400 C 149.200 394.620,149.920 394.800,150.800 394.800 C 151.728 394.800,152.400 394.991,152.400 395.255 C 152.400 395.569,153.197 395.646,154.976 395.503 C 156.942 395.345,157.601 395.427,157.763 395.848 C 157.880 396.152,158.341 396.400,158.787 396.400 C 159.234 396.400,159.600 396.580,159.600 396.800 C 159.600 397.020,160.500 397.200,161.600 397.200 C 162.700 397.200,163.600 397.380,163.600 397.600 C 163.600 397.826,164.733 398.000,166.200 398.000 C 167.667 398.000,168.800 398.174,168.800 398.400 C 168.800 398.633,170.122 398.800,171.967 398.800 C 174.058 398.800,175.187 398.962,175.292 399.276 C 175.602 400.206,216.306 400.280,216.991 399.351 C 217.436 398.749,217.647 398.699,218.053 399.100 C 218.675 399.713,225.600 399.805,225.600 399.200 C 225.600 398.965,227.000 398.800,229.000 398.800 C 231.000 398.800,232.400 398.635,232.400 398.400 C 232.400 398.180,233.300 398.000,234.400 398.000 C 235.500 398.000,236.400 397.820,236.400 397.600 C 236.400 397.380,237.210 397.200,238.200 397.200 C 239.467 397.200,240.000 397.036,240.000 396.646 C 240.000 396.210,240.551 396.136,242.600 396.301 C 244.398 396.445,245.200 396.369,245.200 396.055 C 245.200 395.791,245.872 395.600,246.800 395.600 C 247.680 395.600,248.400 395.420,248.400 395.200 C 248.400 394.980,249.210 394.800,250.200 394.800 C 251.190 394.800,252.000 394.620,252.000 394.400 C 252.000 394.180,252.720 394.000,253.600 394.000 C 254.480 394.000,255.200 393.820,255.200 393.600 C 255.200 393.380,255.740 393.200,256.400 393.200 C 257.060 393.200,257.600 393.020,257.600 392.800 C 257.600 392.580,258.140 392.400,258.800 392.400 C 259.460 392.400,260.000 392.220,260.000 392.000 C 260.000 391.780,260.540 391.600,261.200 391.600 C 261.860 391.600,262.400 391.420,262.400 391.200 C 262.400 390.980,263.120 390.800,264.000 390.800 C 265.156 390.800,265.600 390.633,265.600 390.200 C 265.600 389.800,266.000 389.600,266.800 389.600 C 267.460 389.600,268.000 389.420,268.000 389.200 C 268.000 388.980,268.360 388.800,268.800 388.800 C 269.240 388.800,269.600 388.620,269.600 388.400 C 269.600 388.180,270.230 388.000,271.000 388.000 C 271.770 388.000,272.400 387.820,272.400 387.600 C 272.400 387.380,272.760 387.200,273.200 387.200 C 273.640 387.200,274.000 387.020,274.000 386.800 C 274.000 386.580,274.540 386.400,275.200 386.400 C 275.860 386.400,276.400 386.220,276.400 386.000 C 276.400 385.780,276.940 385.600,277.600 385.600 C 278.260 385.600,278.800 385.420,278.800 385.200 C 278.800 384.980,279.160 384.800,279.600 384.800 C 280.040 384.800,280.400 384.620,280.400 384.400 C 280.400 384.180,280.760 384.000,281.200 384.000 C 281.640 384.000,282.000 383.820,282.000 383.600 C 282.000 383.380,282.360 383.200,282.800 383.200 C 283.240 383.200,283.600 383.020,283.600 382.800 C 283.600 382.580,283.960 382.400,284.400 382.400 C 284.840 382.400,285.200 382.220,285.200 382.000 C 285.200 381.780,285.470 381.600,285.800 381.600 C 286.130 381.600,286.400 381.309,286.400 380.953 C 286.400 380.504,286.644 380.370,287.200 380.516 C 287.741 380.657,288.000 380.528,288.000 380.116 C 288.000 379.713,288.259 379.574,288.765 379.707 C 289.299 379.846,289.596 379.659,289.745 379.088 C 289.934 378.364,290.040 378.335,290.645 378.834 C 291.175 379.272,291.368 379.287,291.498 378.900 C 291.591 378.625,292.282 378.400,293.033 378.400 C 293.785 378.400,294.400 378.220,294.400 378.000 C 294.400 377.780,294.720 377.600,295.112 377.600 C 295.503 377.600,296.083 377.240,296.400 376.800 C 296.717 376.360,297.297 376.000,297.688 376.000 C 298.080 376.000,298.400 375.820,298.400 375.600 C 298.400 375.380,298.760 375.200,299.200 375.200 C 299.640 375.200,300.000 375.020,300.000 374.800 C 300.000 374.580,300.320 374.400,300.712 374.400 C 301.103 374.400,301.683 374.040,302.000 373.600 C 302.317 373.160,302.897 372.800,303.288 372.800 C 303.680 372.800,304.000 372.620,304.000 372.400 C 304.000 372.180,304.320 372.000,304.712 372.000 C 305.103 372.000,305.683 371.640,306.000 371.200 C 306.317 370.760,306.897 370.400,307.288 370.400 C 307.680 370.400,308.000 370.207,308.000 369.971 C 308.000 369.266,309.086 368.400,309.971 368.400 C 310.427 368.400,310.800 368.220,310.800 368.000 C 310.800 367.780,311.120 367.600,311.512 367.600 C 311.903 367.600,312.483 367.240,312.800 366.800 C 313.117 366.360,313.625 366.000,313.928 366.000 C 314.231 366.000,314.983 365.460,315.600 364.800 C 316.217 364.140,316.969 363.600,317.272 363.600 C 317.575 363.600,318.083 363.240,318.400 362.800 C 318.717 362.360,319.221 362.000,319.520 362.000 C 319.818 362.000,320.754 361.280,321.600 360.400 C 322.446 359.520,323.346 358.800,323.600 358.800 C 324.240 358.800,327.200 355.661,327.200 354.981 C 327.200 354.263,328.568 353.536,329.353 353.837 C 330.104 354.125,333.238 350.965,332.949 350.211 C 332.704 349.574,334.636 348.000,335.663 348.000 C 336.105 348.000,338.910 345.501,342.410 341.990 C 347.963 336.419,348.612 335.627,348.428 334.642 C 348.323 334.077,350.482 332.000,351.175 332.000 C 351.914 331.999,354.000 330.291,354.000 329.687 C 354.000 329.456,354.225 329.191,354.500 329.098 C 354.893 328.966,354.896 328.804,354.514 328.342 C 354.029 327.753,355.039 326.400,355.962 326.400 C 356.504 326.400,358.800 324.141,358.800 323.608 C 358.800 323.349,359.520 322.446,360.400 321.600 C 361.280 320.754,362.000 319.851,362.000 319.592 C 362.000 319.333,362.540 318.617,363.200 318.000 C 363.860 317.383,364.400 316.631,364.400 316.328 C 364.400 316.025,364.760 315.517,365.200 315.200 C 365.640 314.883,366.000 314.343,366.000 314.000 C 366.000 313.657,366.360 313.117,366.800 312.800 C 367.240 312.483,367.600 311.903,367.600 311.512 C 367.600 311.120,367.780 310.800,368.000 310.800 C 368.220 310.800,368.400 310.530,368.400 310.200 C 368.400 309.870,368.580 309.600,368.800 309.600 C 369.020 309.600,369.200 309.240,369.200 308.800 C 369.200 308.360,369.393 308.000,369.629 308.000 C 370.231 308.000,371.200 306.962,371.200 306.317 C 371.200 306.020,371.560 305.517,372.000 305.200 C 372.440 304.883,372.800 304.303,372.800 303.912 C 372.800 303.520,372.980 303.200,373.200 303.200 C 373.420 303.200,373.600 302.840,373.600 302.400 C 373.600 301.960,373.780 301.600,374.000 301.600 C 374.220 301.600,374.400 301.280,374.400 300.888 C 374.400 300.497,374.760 299.917,375.200 299.600 C 375.640 299.283,376.000 298.703,376.000 298.312 C 376.000 297.920,376.180 297.600,376.400 297.600 C 376.620 297.600,376.800 297.240,376.800 296.800 C 376.800 296.360,376.980 296.000,377.200 296.000 C 377.420 296.000,377.600 295.640,377.600 295.200 C 377.600 294.760,377.780 294.400,378.000 294.400 C 378.220 294.400,378.400 294.040,378.400 293.600 C 378.400 293.160,378.580 292.800,378.800 292.800 C 379.020 292.800,379.200 292.170,379.200 291.400 C 379.200 290.630,379.401 290.000,379.647 290.000 C 379.896 290.000,380.001 289.647,379.884 289.200 C 379.769 288.760,379.851 288.400,380.066 288.400 C 380.983 288.400,381.659 287.181,381.399 285.997 C 381.199 285.087,381.279 284.800,381.731 284.800 C 382.114 284.800,382.256 284.535,382.129 284.052 C 381.985 283.501,382.206 283.235,382.967 283.044 C 383.643 282.874,384.000 282.511,384.000 281.992 C 384.000 281.557,384.180 281.200,384.400 281.200 C 384.620 281.200,384.800 280.660,384.800 280.000 C 384.800 279.340,384.980 278.800,385.200 278.800 C 385.420 278.800,385.600 278.440,385.600 278.000 C 385.600 277.560,385.780 277.200,386.000 277.200 C 386.220 277.200,386.400 276.660,386.400 276.000 C 386.400 275.340,386.580 274.800,386.800 274.800 C 387.020 274.800,387.200 274.440,387.200 274.000 C 387.200 273.560,387.380 273.200,387.600 273.200 C 387.820 273.200,388.000 272.660,388.000 272.000 C 388.000 271.340,388.180 270.800,388.400 270.800 C 388.620 270.800,388.800 270.350,388.800 269.800 C 388.800 269.250,388.980 268.800,389.200 268.800 C 389.420 268.800,389.600 268.260,389.600 267.600 C 389.600 266.757,389.794 266.400,390.253 266.400 C 390.783 266.400,390.865 266.101,390.691 264.800 C 390.529 263.591,390.613 263.200,391.038 263.200 C 391.707 263.200,391.786 261.946,391.157 261.317 C 390.833 260.993,390.953 260.746,391.603 260.398 C 392.343 260.002,392.454 259.689,392.265 258.526 C 392.085 257.412,392.156 257.174,392.619 257.352 C 393.006 257.500,393.200 257.311,393.200 256.787 C 393.200 256.354,393.380 256.000,393.600 256.000 C 393.820 256.000,394.000 255.280,394.000 254.400 C 394.000 253.520,394.180 252.800,394.400 252.800 C 394.620 252.800,394.800 252.260,394.800 251.600 C 394.800 250.940,394.980 250.400,395.200 250.400 C 395.420 250.400,395.600 249.410,395.600 248.200 C 395.600 246.990,395.780 246.000,396.000 246.000 C 396.220 246.000,396.400 245.280,396.400 244.400 C 396.400 243.472,396.591 242.800,396.855 242.800 C 397.169 242.800,397.245 241.998,397.101 240.200 C 396.936 238.151,397.010 237.600,397.446 237.600 C 397.812 237.600,398.000 237.126,398.000 236.200 C 398.000 235.430,398.180 234.800,398.400 234.800 C 398.631 234.800,398.800 233.544,398.800 231.833 C 398.800 229.816,398.960 228.813,399.300 228.700 C 400.120 228.427,400.021 173.308,399.200 172.800 C 398.720 172.503,398.628 171.704,398.740 168.814 C 398.835 166.367,398.738 165.200,398.440 165.200 C 398.179 165.200,398.000 164.388,398.000 163.200 C 398.000 162.100,397.820 161.200,397.600 161.200 C 397.380 161.200,397.200 160.570,397.200 159.800 C 397.200 158.854,397.015 158.400,396.629 158.400 C 396.176 158.400,396.105 157.945,396.285 156.200 C 396.441 154.687,396.369 154.000,396.056 154.000 C 395.775 154.000,395.600 153.230,395.600 152.000 C 395.600 150.900,395.420 150.000,395.200 150.000 C 394.980 150.000,394.800 149.370,394.800 148.600 C 394.800 147.830,394.620 147.200,394.400 147.200 C 394.180 147.200,394.000 146.840,394.000 146.400 C 394.000 145.948,393.733 145.600,393.386 145.600 C 392.881 145.600,392.819 145.246,393.038 143.600 C 393.220 142.224,393.162 141.600,392.852 141.600 C 392.591 141.600,392.400 140.922,392.400 140.000 C 392.400 139.120,392.220 138.400,392.000 138.400 C 391.780 138.400,391.600 137.860,391.600 137.200 C 391.600 136.540,391.420 136.000,391.200 136.000 C 390.980 136.000,390.800 135.460,390.800 134.800 C 390.800 134.000,390.600 133.600,390.200 133.600 C 389.867 133.600,389.600 133.244,389.600 132.800 C 389.600 132.360,389.420 132.000,389.200 132.000 C 388.980 132.000,388.800 131.460,388.800 130.800 C 388.800 130.140,388.620 129.600,388.400 129.600 C 388.180 129.600,388.000 128.970,388.000 128.200 C 388.000 127.430,387.820 126.800,387.600 126.800 C 387.380 126.800,387.200 126.440,387.200 126.000 C 387.200 125.560,387.020 125.200,386.800 125.200 C 386.580 125.200,386.400 124.660,386.400 124.000 C 386.400 123.340,386.220 122.800,386.000 122.800 C 385.780 122.800,385.600 122.440,385.600 122.000 C 385.600 121.560,385.420 121.200,385.200 121.200 C 384.980 121.200,384.800 120.840,384.800 120.400 C 384.800 119.960,384.620 119.600,384.400 119.600 C 384.180 119.600,384.000 119.060,384.000 118.400 C 384.000 117.740,383.820 117.200,383.600 117.200 C 383.380 117.200,383.200 116.840,383.200 116.400 C 383.200 115.960,383.020 115.600,382.800 115.600 C 382.580 115.600,382.400 115.240,382.400 114.800 C 382.400 114.360,382.220 114.000,382.000 114.000 C 381.780 114.000,381.600 113.640,381.600 113.200 C 381.600 112.760,381.420 112.400,381.200 112.400 C 380.980 112.400,380.800 112.117,380.800 111.771 C 380.800 111.072,379.872 110.000,379.266 110.000 C 379.051 110.000,378.969 109.640,379.084 109.200 C 379.201 108.753,379.096 108.400,378.847 108.400 C 378.601 108.400,378.400 107.770,378.400 107.000 C 378.400 106.230,378.220 105.600,378.000 105.600 C 377.780 105.600,377.600 105.240,377.600 104.800 C 377.600 104.360,377.420 104.000,377.200 104.000 C 376.980 104.000,376.800 103.640,376.800 103.200 C 376.800 102.760,376.620 102.400,376.400 102.400 C 376.180 102.400,376.000 102.106,376.000 101.747 C 376.000 100.910,374.498 99.600,373.539 99.600 C 372.710 99.600,372.554 98.999,373.268 98.558 C 373.575 98.368,373.413 98.148,372.801 97.922 C 372.086 97.658,371.975 97.465,372.332 97.108 C 373.035 96.405,372.897 95.446,372.000 94.800 C 371.560 94.483,371.200 93.980,371.200 93.683 C 371.200 93.038,370.231 92.000,369.629 92.000 C 369.393 92.000,369.200 91.717,369.200 91.371 C 369.200 90.642,368.554 89.925,367.288 89.247 C 366.599 88.878,366.450 88.542,366.640 87.784 C 366.791 87.182,366.715 86.800,366.443 86.800 C 366.200 86.800,366.000 86.480,366.000 86.088 C 366.000 85.697,365.640 85.117,365.200 84.800 C 364.760 84.483,364.400 83.975,364.400 83.672 C 364.400 83.369,363.860 82.617,363.200 82.000 C 362.540 81.383,362.000 80.570,362.000 80.193 C 362.000 79.704,361.770 79.567,361.200 79.716 C 360.564 79.882,360.400 79.728,360.400 78.963 C 360.400 78.433,360.220 78.000,360.000 78.000 C 359.780 78.000,359.600 77.716,359.600 77.369 C 359.600 77.021,358.880 76.046,358.000 75.200 C 357.120 74.354,356.400 73.457,356.400 73.205 C 356.400 72.954,355.500 71.871,354.400 70.800 C 353.300 69.729,352.400 68.643,352.400 68.387 C 352.400 67.807,333.329 48.800,332.747 48.800 C 332.513 48.800,331.728 48.133,331.002 47.317 C 329.903 46.082,329.582 45.917,329.082 46.332 C 328.490 46.823,326.800 45.342,326.800 44.333 C 326.800 43.813,324.110 41.200,323.574 41.200 C 323.325 41.200,322.617 40.660,322.000 40.000 C 321.383 39.340,320.663 38.800,320.400 38.800 C 320.137 38.800,319.417 38.260,318.800 37.600 C 318.183 36.940,317.463 36.400,317.200 36.400 C 316.937 36.400,316.217 35.860,315.600 35.200 C 314.983 34.540,314.257 34.000,313.986 34.000 C 313.716 34.000,313.163 33.619,312.759 33.153 C 312.164 32.467,311.757 32.357,310.612 32.571 C 309.545 32.771,309.200 32.700,309.200 32.279 C 309.200 31.515,307.832 30.000,307.141 30.000 C 306.831 30.000,306.317 29.640,306.000 29.200 C 305.683 28.760,305.103 28.400,304.712 28.400 C 304.320 28.400,304.000 28.130,304.000 27.800 C 304.000 27.470,303.722 27.200,303.383 27.200 C 303.044 27.200,302.380 26.840,301.908 26.400 C 300.969 25.526,300.185 25.377,299.800 26.000 C 299.350 26.729,298.903 26.416,298.660 25.200 C 298.500 24.399,298.180 24.000,297.698 24.000 C 297.301 24.000,296.717 23.640,296.400 23.200 C 296.083 22.760,295.503 22.400,295.112 22.400 C 294.720 22.400,294.400 22.220,294.400 22.000 C 294.400 21.780,294.040 21.600,293.600 21.600 C 293.160 21.600,292.800 21.420,292.800 21.200 C 292.800 20.980,292.440 20.800,292.000 20.800 C 291.560 20.800,291.200 20.597,291.200 20.349 C 291.200 20.049,290.679 19.981,289.643 20.147 C 288.223 20.374,288.064 20.307,287.835 19.398 C 287.674 18.754,287.304 18.400,286.792 18.400 C 286.357 18.400,286.000 18.220,286.000 18.000 C 286.000 17.780,285.460 17.600,284.800 17.600 C 284.140 17.600,283.600 17.420,283.600 17.200 C 283.600 16.980,283.240 16.800,282.800 16.800 C 282.360 16.800,282.000 16.620,282.000 16.400 C 282.000 16.180,281.640 16.000,281.200 16.000 C 280.760 16.000,280.400 15.820,280.400 15.600 C 280.400 15.380,279.860 15.200,279.200 15.200 C 278.540 15.200,278.000 15.020,278.000 14.800 C 278.000 14.580,277.640 14.400,277.200 14.400 C 276.760 14.400,276.400 14.220,276.400 14.000 C 276.400 13.780,276.040 13.600,275.600 13.600 C 275.160 13.600,274.800 13.420,274.800 13.200 C 274.800 12.980,274.260 12.800,273.600 12.800 C 272.940 12.800,272.400 12.620,272.400 12.400 C 272.400 12.180,272.040 12.000,271.600 12.000 C 271.160 12.000,270.800 11.820,270.800 11.600 C 270.800 11.380,269.990 11.200,269.000 11.200 C 268.010 11.200,267.200 11.020,267.200 10.800 C 267.200 10.580,266.660 10.400,266.000 10.400 C 265.340 10.400,264.800 10.220,264.800 10.000 C 264.800 9.780,264.440 9.600,264.000 9.600 C 263.560 9.600,263.200 9.420,263.200 9.200 C 263.200 8.980,262.660 8.800,262.000 8.800 C 261.340 8.800,260.800 8.620,260.800 8.400 C 260.800 8.180,260.080 8.000,259.200 8.000 C 258.044 8.000,257.600 7.833,257.600 7.400 C 257.600 6.967,257.156 6.800,256.000 6.800 C 255.120 6.800,254.400 6.620,254.400 6.400 C 254.400 6.180,253.871 6.000,253.224 6.000 C 252.577 6.000,251.936 5.820,251.800 5.600 C 251.664 5.380,250.843 5.200,249.976 5.200 C 249.109 5.200,248.400 5.020,248.400 4.800 C 248.400 4.580,247.680 4.400,246.800 4.400 C 245.920 4.400,245.200 4.220,245.200 4.000 C 245.200 3.425,241.454 3.506,240.867 4.093 C 240.476 4.484,240.325 4.401,240.140 3.693 C 239.957 2.991,239.617 2.800,238.553 2.800 C 237.809 2.800,237.200 2.620,237.200 2.400 C 237.200 2.178,236.133 2.000,234.800 2.000 C 233.467 2.000,232.400 1.822,232.400 1.600 C 232.400 1.003,225.872 1.088,225.267 1.693 C 224.876 2.084,224.729 2.013,224.556 1.352 C 224.236 0.130,197.458 -0.498,179.542 0.297 M247.400 111.200 C 247.545 111.435,249.871 111.600,253.024 111.600 C 256.341 111.600,258.400 111.753,258.400 112.000 C 258.400 112.222,259.467 112.400,260.800 112.400 C 262.133 112.400,263.200 112.578,263.200 112.800 C 263.200 113.020,263.920 113.200,264.800 113.200 C 265.680 113.200,266.400 113.380,266.400 113.600 C 266.400 113.820,267.210 114.000,268.200 114.000 C 269.190 114.000,270.000 114.180,270.000 114.400 C 270.000 114.620,270.360 114.800,270.800 114.800 C 271.240 114.800,271.600 114.980,271.600 115.200 C 271.600 115.420,272.129 115.600,272.776 115.600 C 273.423 115.600,274.064 115.420,274.200 115.200 C 274.653 114.467,275.134 114.787,275.400 116.000 C 275.581 116.825,275.903 117.200,276.432 117.200 C 276.854 117.200,277.200 117.380,277.200 117.600 C 277.200 117.820,277.560 118.000,278.000 118.000 C 278.440 118.000,278.800 118.180,278.800 118.400 C 278.800 118.620,279.120 118.800,279.512 118.800 C 279.903 118.800,280.483 119.160,280.800 119.600 C 281.117 120.040,281.697 120.400,282.088 120.400 C 282.480 120.400,282.800 120.587,282.800 120.815 C 282.800 121.043,283.289 121.178,283.886 121.115 C 284.685 121.030,285.012 121.200,285.126 121.759 C 285.291 122.563,286.937 124.400,287.494 124.400 C 287.675 124.400,288.083 124.760,288.400 125.200 C 288.717 125.640,289.297 126.000,289.688 126.000 C 290.080 126.000,290.400 126.180,290.400 126.400 C 290.400 126.620,291.120 126.800,292.000 126.800 C 292.880 126.800,293.600 126.620,293.600 126.400 C 293.600 126.180,293.941 126.000,294.357 126.000 C 294.774 126.000,295.224 125.716,295.357 125.368 C 295.538 124.897,295.904 124.803,296.800 125.000 C 297.757 125.210,298.000 125.129,298.000 124.600 C 298.000 124.071,298.243 123.990,299.200 124.200 C 300.133 124.405,300.400 124.325,300.400 123.839 C 300.400 123.330,300.730 123.261,302.200 123.462 C 303.422 123.629,304.000 123.563,304.000 123.254 C 304.000 123.004,304.540 122.800,305.200 122.800 C 305.860 122.800,306.400 122.620,306.400 122.400 C 306.400 122.180,306.760 122.000,307.200 122.000 C 307.640 122.000,308.000 121.820,308.000 121.600 C 308.000 121.380,308.360 121.200,308.800 121.200 C 309.240 121.200,309.600 121.020,309.600 120.800 C 309.600 120.580,310.230 120.400,311.000 120.400 C 311.770 120.400,312.400 120.220,312.400 120.000 C 312.400 119.780,312.760 119.600,313.200 119.600 C 313.640 119.600,314.000 119.420,314.000 119.200 C 314.000 118.980,314.360 118.800,314.800 118.800 C 315.240 118.800,315.600 118.620,315.600 118.400 C 315.600 118.180,315.920 118.000,316.312 118.000 C 316.703 118.000,317.283 117.640,317.600 117.200 C 317.917 116.760,318.497 116.400,318.888 116.400 C 319.280 116.400,319.600 116.220,319.600 116.000 C 319.600 115.780,320.421 115.600,321.424 115.600 C 322.427 115.600,323.156 115.747,323.045 115.927 C 322.934 116.107,323.193 116.507,323.621 116.815 C 324.427 117.396,324.727 119.600,324.000 119.600 C 323.780 119.600,323.600 120.140,323.600 120.800 C 323.600 121.460,323.420 122.000,323.200 122.000 C 322.980 122.000,322.800 122.360,322.800 122.800 C 322.800 123.240,322.620 123.600,322.400 123.600 C 322.180 123.600,322.000 124.140,322.000 124.800 C 322.000 125.460,321.820 126.000,321.600 126.000 C 321.380 126.000,321.200 126.410,321.200 126.912 C 321.200 127.413,320.840 128.083,320.400 128.400 C 319.960 128.717,319.600 129.297,319.600 129.688 C 319.600 130.080,319.420 130.400,319.200 130.400 C 318.980 130.400,318.800 130.720,318.800 131.112 C 318.800 131.503,318.440 132.083,318.000 132.400 C 317.560 132.717,317.200 133.221,317.200 133.520 C 317.200 133.818,316.480 134.754,315.600 135.600 C 313.450 137.666,313.365 139.200,315.400 139.200 C 316.409 139.200,316.800 139.024,316.800 138.568 C 316.800 138.074,317.062 137.994,318.000 138.200 C 318.933 138.405,319.200 138.325,319.200 137.839 C 319.200 137.330,319.530 137.261,321.000 137.462 C 322.222 137.629,322.800 137.563,322.800 137.254 C 322.800 137.004,323.160 136.800,323.600 136.800 C 324.040 136.800,324.400 136.620,324.400 136.400 C 324.400 136.180,324.760 136.000,325.200 136.000 C 325.640 136.000,326.000 135.820,326.000 135.600 C 326.000 134.731,329.210 135.173,330.218 136.182 C 331.211 137.175,331.573 139.200,330.757 139.200 C 330.489 139.200,330.408 139.579,330.554 140.157 C 330.751 140.942,330.612 141.161,329.784 141.368 C 328.971 141.572,328.795 141.835,328.887 142.711 C 328.979 143.597,328.820 143.825,328.035 143.936 C 326.592 144.140,325.793 145.069,326.415 145.819 C 326.961 146.476,325.958 148.000,324.980 148.000 C 324.020 148.000,321.872 150.364,322.331 150.917 C 322.920 151.626,313.557 160.912,312.617 160.551 C 311.974 160.304,310.400 161.709,310.400 162.530 C 310.400 163.494,309.135 164.366,308.400 163.907 C 306.785 162.899,306.400 164.220,306.400 170.771 C 306.400 174.524,306.249 176.800,306.000 176.800 C 305.758 176.800,305.600 178.533,305.600 181.200 C 305.600 183.867,305.442 185.600,305.200 185.600 C 304.965 185.600,304.800 187.000,304.800 189.000 C 304.800 191.000,304.635 192.400,304.400 192.400 C 304.180 192.400,304.000 193.300,304.000 194.400 C 304.000 195.627,303.824 196.400,303.545 196.400 C 303.231 196.400,303.155 197.202,303.299 199.000 C 303.464 201.049,303.390 201.600,302.954 201.600 C 302.603 201.600,302.400 202.048,302.400 202.824 C 302.400 203.537,302.233 203.944,302.000 203.800 C 301.758 203.651,301.600 204.196,301.600 205.176 C 301.600 206.069,301.420 206.800,301.200 206.800 C 300.980 206.800,300.800 207.610,300.800 208.600 C 300.800 209.590,300.620 210.400,300.400 210.400 C 300.180 210.400,300.000 210.940,300.000 211.600 C 300.000 212.260,299.820 212.800,299.600 212.800 C 299.380 212.800,299.200 213.340,299.200 214.000 C 299.200 214.660,299.020 215.200,298.800 215.200 C 298.580 215.200,298.400 215.740,298.400 216.400 C 298.400 217.060,298.220 217.600,298.000 217.600 C 297.780 217.600,297.600 218.140,297.600 218.800 C 297.600 219.460,297.420 220.000,297.200 220.000 C 296.980 220.000,296.800 220.540,296.800 221.200 C 296.800 221.860,296.597 222.400,296.349 222.400 C 296.047 222.400,295.982 222.928,296.154 224.000 C 296.320 225.039,296.258 225.600,295.976 225.600 C 295.266 225.600,294.400 226.683,294.400 227.571 C 294.400 228.027,294.220 228.400,294.000 228.400 C 293.780 228.400,293.600 228.760,293.600 229.200 C 293.600 229.640,293.420 230.000,293.200 230.000 C 292.980 230.000,292.800 230.360,292.800 230.800 C 292.800 231.240,292.620 231.600,292.400 231.600 C 292.180 231.600,292.000 231.960,292.000 232.400 C 292.000 232.840,291.820 233.200,291.600 233.200 C 291.380 233.200,291.200 233.560,291.200 234.000 C 291.200 234.440,291.020 234.800,290.800 234.800 C 290.580 234.800,290.400 235.160,290.400 235.600 C 290.400 236.040,290.220 236.400,290.000 236.400 C 289.780 236.400,289.600 236.760,289.600 237.200 C 289.600 237.640,289.420 238.000,289.200 238.000 C 288.980 238.000,288.800 238.360,288.800 238.800 C 288.800 239.240,288.620 239.600,288.400 239.600 C 288.180 239.600,288.000 239.960,288.000 240.400 C 288.000 240.844,287.733 241.200,287.400 241.200 C 287.070 241.200,286.800 241.520,286.800 241.912 C 286.800 242.303,286.440 242.883,286.000 243.200 C 285.560 243.517,285.200 244.097,285.200 244.488 C 285.200 244.880,285.020 245.200,284.800 245.200 C 284.580 245.200,284.400 245.560,284.400 246.000 C 284.400 246.440,284.220 246.800,284.000 246.800 C 283.780 246.800,283.600 247.070,283.600 247.400 C 283.600 247.730,283.420 248.000,283.200 248.000 C 282.980 248.000,282.800 248.320,282.800 248.712 C 282.800 249.103,282.440 249.683,282.000 250.000 C 281.560 250.317,281.200 250.857,281.200 251.200 C 281.200 251.543,280.840 252.083,280.400 252.400 C 279.960 252.717,279.600 253.257,279.600 253.600 C 279.600 253.943,279.240 254.483,278.800 254.800 C 278.360 255.117,278.000 255.697,278.000 256.088 C 278.000 256.480,277.817 256.800,277.592 256.800 C 277.357 256.800,277.291 257.223,277.436 257.800 C 277.617 258.524,277.526 258.800,277.105 258.800 C 275.988 258.800,274.865 260.161,275.076 261.261 C 275.243 262.136,275.081 262.363,274.025 262.731 C 272.379 263.305,271.554 264.174,271.410 265.488 C 271.345 266.086,270.784 266.974,270.146 267.491 C 269.516 268.002,268.783 268.595,268.517 268.810 C 268.251 269.024,267.935 269.200,267.813 269.200 C 267.212 269.200,256.786 280.108,256.193 281.357 C 255.540 282.735,254.618 283.252,254.333 282.401 C 254.138 281.817,252.222 283.606,251.551 285.000 C 251.130 285.872,250.707 286.189,249.999 286.159 C 248.958 286.115,247.854 286.920,248.318 287.385 C 248.735 287.802,247.186 288.800,246.124 288.800 C 245.616 288.800,245.200 288.980,245.200 289.200 C 245.200 289.420,244.880 289.600,244.488 289.600 C 244.097 289.600,243.517 289.960,243.200 290.400 C 242.883 290.840,242.343 291.200,242.000 291.200 C 241.657 291.200,241.117 291.560,240.800 292.000 C 240.483 292.440,239.943 292.800,239.600 292.800 C 239.257 292.800,238.717 293.160,238.400 293.600 C 238.083 294.040,237.503 294.400,237.112 294.400 C 236.720 294.400,236.400 294.580,236.400 294.800 C 236.400 295.020,236.080 295.200,235.688 295.200 C 235.297 295.200,234.717 295.560,234.400 296.000 C 234.083 296.440,233.503 296.800,233.112 296.800 C 232.720 296.800,232.400 296.980,232.400 297.200 C 232.400 297.420,232.040 297.600,231.600 297.600 C 231.160 297.600,230.800 297.780,230.800 298.000 C 230.800 298.220,230.440 298.400,230.000 298.400 C 229.560 298.400,229.200 298.580,229.200 298.800 C 229.200 299.020,228.750 299.200,228.200 299.200 C 227.650 299.200,227.200 299.380,227.200 299.600 C 227.200 299.820,226.840 300.000,226.400 300.000 C 225.960 300.000,225.600 300.180,225.600 300.400 C 225.600 300.620,225.240 300.800,224.800 300.800 C 224.360 300.800,224.000 300.980,224.000 301.200 C 224.000 301.420,223.640 301.600,223.200 301.600 C 222.760 301.600,222.400 301.780,222.400 302.000 C 222.400 302.220,222.040 302.400,221.600 302.400 C 221.160 302.400,220.800 302.580,220.800 302.800 C 220.800 303.020,220.278 303.200,219.639 303.200 C 218.694 303.200,218.396 303.437,218.034 304.475 C 217.691 305.458,217.481 305.641,217.115 305.275 C 216.420 304.580,215.468 304.678,215.750 305.415 C 215.891 305.782,215.716 306.134,215.317 306.287 C 214.947 306.429,214.578 306.333,214.491 306.072 C 214.300 305.500,212.800 305.436,212.800 306.000 C 212.800 306.220,212.260 306.400,211.600 306.400 C 210.940 306.400,210.400 306.580,210.400 306.800 C 210.400 307.020,209.860 307.200,209.200 307.200 C 208.400 307.200,208.000 307.400,208.000 307.800 C 208.000 308.244,207.533 308.400,206.200 308.400 C 205.210 308.400,204.400 308.580,204.400 308.800 C 204.400 309.020,203.860 309.200,203.200 309.200 C 202.540 309.200,202.000 309.380,202.000 309.600 C 202.000 309.820,201.280 310.000,200.400 310.000 C 199.520 310.000,198.800 310.180,198.800 310.400 C 198.800 310.620,198.080 310.800,197.200 310.800 C 196.320 310.800,195.600 310.980,195.600 311.200 C 195.600 311.420,195.060 311.600,194.400 311.600 C 193.740 311.600,193.200 311.780,193.200 312.000 C 193.200 312.231,191.933 312.400,190.200 312.400 C 188.467 312.400,187.200 312.569,187.200 312.800 C 187.200 313.029,186.000 313.200,184.400 313.200 C 182.800 313.200,181.600 313.371,181.600 313.600 C 181.600 313.831,180.333 314.000,178.600 314.000 C 176.467 314.000,175.600 314.144,175.600 314.500 C 175.601 315.148,151.155 314.974,150.753 314.324 C 150.592 314.064,148.774 313.965,145.849 314.058 C 142.304 314.171,141.200 314.086,141.200 313.703 C 141.200 313.374,140.579 313.200,139.400 313.200 C 138.410 313.200,137.600 313.020,137.600 312.800 C 137.600 312.580,136.700 312.400,135.600 312.400 C 134.422 312.400,133.600 312.221,133.600 311.964 C 133.600 311.678,132.676 311.574,130.933 311.664 C 129.054 311.760,128.218 311.652,128.100 311.300 C 128.008 311.025,127.498 310.800,126.967 310.800 C 126.435 310.800,126.000 310.620,126.000 310.400 C 126.000 310.180,125.280 310.000,124.400 310.000 C 123.520 310.000,122.800 309.820,122.800 309.600 C 122.800 309.380,122.260 309.200,121.600 309.200 C 120.940 309.200,120.400 309.020,120.400 308.800 C 120.400 308.580,119.596 308.400,118.613 308.400 C 117.325 308.400,116.880 308.257,117.022 307.888 C 117.148 307.559,116.822 307.343,116.109 307.285 C 115.499 307.234,114.940 307.015,114.867 306.797 C 114.793 306.578,114.388 306.400,113.967 306.400 C 113.545 306.400,113.200 306.220,113.200 306.000 C 113.200 305.780,112.660 305.600,112.000 305.600 C 111.340 305.600,110.800 305.420,110.800 305.200 C 110.800 304.980,110.350 304.800,109.800 304.800 C 109.250 304.800,108.800 304.620,108.800 304.400 C 108.800 304.180,108.260 304.000,107.600 304.000 C 106.940 304.000,106.400 303.820,106.400 303.600 C 106.400 303.380,106.051 303.200,105.624 303.200 C 105.197 303.200,104.736 303.380,104.600 303.600 C 104.182 304.276,103.600 304.044,103.600 303.200 C 103.600 302.756,103.333 302.400,103.000 302.400 C 102.670 302.400,102.400 302.220,102.400 302.000 C 102.400 301.780,102.040 301.600,101.600 301.600 C 101.160 301.600,100.800 301.420,100.800 301.200 C 100.800 300.980,100.440 300.800,100.000 300.800 C 99.560 300.800,99.200 300.620,99.200 300.400 C 99.200 300.180,98.840 300.000,98.400 300.000 C 97.960 300.000,97.600 299.820,97.600 299.600 C 97.600 299.380,97.240 299.200,96.800 299.200 C 96.360 299.200,96.000 299.020,96.000 298.800 C 96.000 298.580,95.640 298.400,95.200 298.400 C 94.760 298.400,94.400 298.220,94.400 298.000 C 94.400 297.780,94.040 297.600,93.600 297.600 C 93.160 297.600,92.800 297.420,92.800 297.200 C 92.800 296.980,92.362 296.800,91.827 296.800 C 91.205 296.800,90.762 296.511,90.600 296.000 C 90.447 295.518,89.995 295.200,89.461 295.200 C 88.975 295.200,88.317 294.840,88.000 294.400 C 87.683 293.960,87.103 293.600,86.712 293.600 C 86.320 293.600,86.000 293.420,86.000 293.200 C 86.000 292.980,85.640 292.800,85.200 292.800 C 84.760 292.800,84.400 292.617,84.400 292.392 C 84.400 292.151,83.968 292.093,83.342 292.250 C 82.358 292.497,82.303 292.442,82.550 291.458 C 82.707 290.832,82.649 290.400,82.408 290.400 C 82.183 290.400,82.000 289.950,82.000 289.400 C 82.000 288.850,82.180 288.400,82.400 288.400 C 82.620 288.400,82.800 288.117,82.800 287.771 C 82.800 286.349,83.820 286.000,87.971 286.000 C 90.390 286.000,92.000 286.160,92.000 286.400 C 92.000 286.644,93.867 286.800,96.800 286.800 C 99.733 286.800,101.600 286.644,101.600 286.400 C 101.600 286.155,103.533 286.000,106.600 286.000 C 109.667 286.000,111.600 285.845,111.600 285.600 C 111.600 285.378,112.667 285.200,114.000 285.200 C 115.333 285.200,116.400 285.022,116.400 284.800 C 116.400 284.580,117.300 284.400,118.400 284.400 C 119.500 284.400,120.400 284.220,120.400 284.000 C 120.400 283.780,120.850 283.600,121.400 283.600 C 122.045 283.600,122.400 283.375,122.400 282.968 C 122.400 282.474,122.662 282.394,123.600 282.600 C 124.533 282.805,124.800 282.725,124.800 282.239 C 124.800 281.730,125.130 281.661,126.600 281.862 C 127.822 282.029,128.400 281.963,128.400 281.654 C 128.400 281.402,129.022 281.200,129.800 281.200 C 130.570 281.200,131.200 281.020,131.200 280.800 C 131.200 280.580,131.740 280.400,132.400 280.400 C 133.060 280.400,133.600 280.220,133.600 280.000 C 133.600 279.780,133.960 279.600,134.400 279.600 C 134.840 279.600,135.200 279.420,135.200 279.200 C 135.200 278.980,135.740 278.800,136.400 278.800 C 137.060 278.800,137.600 278.620,137.600 278.400 C 137.600 278.180,137.960 278.000,138.400 278.000 C 138.840 278.000,139.200 277.820,139.200 277.600 C 139.200 277.380,139.560 277.200,140.000 277.200 C 140.440 277.200,140.800 277.020,140.800 276.800 C 140.800 276.580,141.160 276.400,141.600 276.400 C 142.040 276.400,142.400 276.220,142.400 276.000 C 142.400 275.780,142.760 275.600,143.200 275.600 C 143.640 275.600,144.000 275.420,144.000 275.200 C 144.000 274.980,144.320 274.800,144.712 274.800 C 145.103 274.800,145.683 274.440,146.000 274.000 C 146.317 273.560,146.820 273.200,147.117 273.200 C 147.849 273.200,148.800 272.200,148.800 271.429 C 148.800 271.067,148.461 270.800,148.000 270.800 C 147.560 270.800,147.200 270.620,147.200 270.400 C 147.200 270.180,146.660 270.000,146.000 270.000 C 145.340 270.000,144.800 269.820,144.800 269.600 C 144.800 269.380,144.260 269.200,143.600 269.200 C 142.940 269.200,142.400 268.997,142.400 268.748 C 142.400 268.449,141.791 268.365,140.600 268.499 C 139.204 268.656,138.800 268.572,138.800 268.124 C 138.800 267.742,138.547 267.626,138.052 267.783 C 137.462 267.971,137.253 267.766,137.062 266.810 C 136.888 265.941,136.592 265.600,136.010 265.600 C 135.565 265.600,135.200 265.420,135.200 265.200 C 135.200 264.980,134.840 264.800,134.400 264.800 C 133.960 264.800,133.600 264.620,133.600 264.400 C 133.600 264.180,133.280 264.000,132.888 264.000 C 132.497 264.000,131.917 263.640,131.600 263.200 C 131.283 262.760,130.613 262.400,130.112 262.400 C 129.610 262.400,129.200 262.222,129.200 262.005 C 129.200 261.787,128.795 261.652,128.300 261.705 C 127.634 261.775,127.431 261.616,127.520 261.091 C 127.647 260.337,126.747 259.200,126.023 259.200 C 125.406 259.200,118.800 252.518,118.800 251.894 C 118.800 251.609,118.440 251.117,118.000 250.800 C 117.560 250.483,117.200 249.943,117.200 249.600 C 117.200 249.257,116.840 248.717,116.400 248.400 C 115.960 248.083,115.600 247.490,115.600 247.083 C 115.600 246.110,114.659 245.200,113.652 245.200 C 112.652 245.200,112.161 244.479,112.755 243.885 C 113.309 243.331,113.341 242.000,112.800 242.000 C 112.580 242.000,112.400 241.640,112.400 241.200 C 112.400 240.760,112.220 240.400,112.000 240.400 C 111.780 240.400,111.600 240.040,111.600 239.600 C 111.600 239.160,111.420 238.800,111.200 238.800 C 110.980 238.800,110.800 238.260,110.800 237.600 C 110.800 236.800,110.600 236.400,110.200 236.400 C 109.827 236.400,109.600 236.022,109.600 235.400 C 109.600 234.778,109.373 234.400,109.000 234.400 C 108.070 234.400,108.287 233.807,109.578 232.817 C 110.226 232.321,110.811 231.543,110.878 231.089 C 111.047 229.945,111.680 229.843,112.701 230.794 C 113.820 231.836,118.000 231.984,118.000 230.982 C 118.000 230.182,116.218 228.400,115.418 228.400 C 115.078 228.400,114.800 228.130,114.800 227.800 C 114.800 227.080,114.334 227.026,113.689 227.671 C 113.083 228.277,111.600 227.027,111.600 225.909 C 111.600 225.173,110.738 224.000,110.197 224.000 C 110.054 224.000,109.246 223.280,108.400 222.400 C 107.340 221.297,106.655 220.881,106.191 221.059 C 105.429 221.351,104.815 220.611,104.806 219.388 C 104.803 218.942,104.440 218.317,104.000 218.000 C 103.560 217.683,103.200 217.143,103.200 216.800 C 103.200 216.457,102.840 215.917,102.400 215.600 C 101.960 215.283,101.600 214.743,101.600 214.400 C 101.600 214.057,101.240 213.517,100.800 213.200 C 100.360 212.883,100.000 212.343,100.000 212.000 C 100.000 211.657,99.640 211.117,99.200 210.800 C 98.760 210.483,98.400 209.903,98.400 209.512 C 98.400 209.120,98.220 208.800,98.000 208.800 C 97.780 208.800,97.600 208.350,97.600 207.800 C 97.600 207.250,97.420 206.800,97.200 206.800 C 96.980 206.800,96.800 206.260,96.800 205.600 C 96.800 204.940,96.620 204.400,96.400 204.400 C 96.180 204.400,96.000 204.040,96.000 203.600 C 96.000 203.160,95.820 202.800,95.600 202.800 C 95.380 202.800,95.200 202.260,95.200 201.600 C 95.200 200.940,95.020 200.400,94.800 200.400 C 94.580 200.400,94.400 200.130,94.400 199.800 C 94.400 199.467,94.044 199.200,93.600 199.200 C 92.756 199.200,92.524 198.618,93.200 198.200 C 93.722 197.878,93.722 194.800,93.200 194.800 C 92.967 194.800,92.800 193.467,92.800 191.600 C 92.800 189.733,92.633 188.400,92.400 188.400 C 92.176 188.400,92.000 187.293,92.000 185.880 C 92.000 184.416,91.793 183.153,91.507 182.867 C 91.116 182.476,91.191 182.327,91.870 182.150 C 92.341 182.027,92.812 181.597,92.917 181.195 C 93.168 180.234,96.290 180.571,97.247 181.662 C 97.603 182.068,98.368 182.400,98.947 182.400 C 99.526 182.400,100.000 182.580,100.000 182.800 C 100.000 183.020,100.360 183.200,100.800 183.200 C 101.240 183.200,101.600 183.380,101.600 183.600 C 101.600 183.820,102.320 184.000,103.200 184.000 C 104.653 184.000,104.800 183.905,104.800 182.969 C 104.800 182.288,104.255 181.414,103.200 180.400 C 102.320 179.554,101.600 178.618,101.600 178.320 C 101.600 178.021,101.240 177.517,100.800 177.200 C 100.360 176.883,100.000 176.303,100.000 175.912 C 100.000 175.520,99.820 175.200,99.600 175.200 C 99.380 175.200,99.200 174.840,99.200 174.400 C 99.200 173.960,99.020 173.600,98.800 173.600 C 98.580 173.600,98.400 173.240,98.400 172.800 C 98.400 172.360,98.220 172.000,98.000 172.000 C 97.780 172.000,97.600 171.640,97.600 171.200 C 97.600 170.760,97.420 170.400,97.200 170.400 C 96.980 170.400,96.800 169.860,96.800 169.200 C 96.800 168.540,96.620 168.000,96.400 168.000 C 96.180 168.000,96.000 167.627,96.000 167.171 C 96.000 166.260,95.378 165.498,94.300 165.090 C 93.526 164.797,93.382 164.182,94.000 163.800 C 94.220 163.664,94.400 162.843,94.400 161.976 C 94.400 161.109,94.220 160.400,94.000 160.400 C 93.780 160.400,93.600 159.500,93.600 158.400 C 93.600 157.300,93.420 156.400,93.200 156.400 C 92.948 156.400,92.800 153.667,92.800 149.000 C 92.800 144.333,92.948 141.600,93.200 141.600 C 93.420 141.600,93.600 140.700,93.600 139.600 C 93.600 138.411,93.779 137.600,94.040 137.600 C 94.452 137.600,94.409 135.139,93.971 133.600 C 93.862 133.218,94.055 133.020,94.500 133.056 C 95.314 133.120,95.444 132.004,94.707 131.267 C 94.316 130.876,94.399 130.725,95.107 130.540 C 95.598 130.412,96.000 130.058,96.000 129.753 C 96.000 129.449,96.180 129.200,96.400 129.200 C 96.620 129.200,96.800 128.840,96.800 128.400 C 96.800 127.960,96.980 127.600,97.200 127.600 C 97.420 127.600,97.600 127.240,97.600 126.800 C 97.600 126.360,97.780 126.000,98.000 126.000 C 98.220 126.000,98.400 125.640,98.400 125.200 C 98.400 124.760,98.580 124.400,98.800 124.400 C 99.020 124.400,99.200 124.124,99.200 123.787 C 99.200 122.991,101.791 120.400,102.587 120.400 C 102.924 120.400,103.200 120.583,103.200 120.808 C 103.200 121.045,103.627 121.108,104.220 120.959 C 105.430 120.656,106.620 121.853,105.932 122.682 C 105.559 123.131,107.102 125.200,107.810 125.200 C 108.225 125.200,109.200 126.315,109.200 126.790 C 109.200 127.514,111.190 129.290,111.758 129.072 C 112.639 128.733,114.508 130.629,114.212 131.561 C 113.950 132.386,118.615 137.600,119.615 137.600 C 119.851 137.600,121.104 138.680,122.400 140.000 C 123.696 141.320,124.996 142.400,125.290 142.400 C 125.583 142.400,126.083 142.760,126.400 143.200 C 126.717 143.640,127.207 144.000,127.488 144.000 C 127.770 144.000,128.000 144.180,128.000 144.400 C 128.000 144.620,128.360 144.800,128.800 144.800 C 129.240 144.800,129.600 144.980,129.600 145.200 C 129.600 145.420,129.960 145.600,130.400 145.600 C 130.933 145.600,131.200 145.867,131.200 146.400 C 131.200 146.900,131.467 147.200,131.912 147.200 C 132.303 147.200,132.883 147.560,133.200 148.000 C 133.517 148.440,134.020 148.800,134.317 148.800 C 134.962 148.800,136.000 149.769,136.000 150.371 C 136.000 150.607,136.360 150.800,136.800 150.800 C 137.240 150.800,137.600 150.983,137.600 151.208 C 137.600 151.449,138.034 151.506,138.666 151.348 C 139.562 151.123,139.690 151.190,139.468 151.766 C 139.260 152.310,139.368 152.401,139.987 152.204 C 140.910 151.911,142.451 152.635,142.365 153.321 C 142.228 154.418,142.444 154.800,143.200 154.800 C 143.640 154.800,144.000 154.980,144.000 155.200 C 144.000 155.420,144.360 155.600,144.800 155.600 C 145.240 155.600,145.600 155.780,145.600 156.000 C 145.600 156.220,145.960 156.400,146.400 156.400 C 146.840 156.400,147.200 156.580,147.200 156.800 C 147.200 157.020,147.650 157.200,148.200 157.200 C 148.750 157.200,149.200 157.380,149.200 157.600 C 149.200 157.820,149.560 158.000,150.000 158.000 C 150.440 158.000,150.800 158.180,150.800 158.400 C 150.800 158.620,151.160 158.800,151.600 158.800 C 152.040 158.800,152.400 158.980,152.400 159.200 C 152.400 159.420,152.760 159.600,153.200 159.600 C 153.640 159.600,154.000 159.780,154.000 160.000 C 154.000 160.220,154.360 160.400,154.800 160.400 C 155.240 160.400,155.600 160.580,155.600 160.800 C 155.600 161.020,155.960 161.200,156.400 161.200 C 156.840 161.200,157.200 161.380,157.200 161.600 C 157.200 161.820,157.740 162.000,158.400 162.000 C 159.060 162.000,159.600 162.194,159.600 162.431 C 159.600 162.686,160.213 162.809,161.100 162.731 C 162.140 162.640,162.569 162.753,162.500 163.100 C 162.445 163.375,162.670 163.600,163.000 163.600 C 163.330 163.600,163.600 163.780,163.600 164.000 C 163.600 164.220,163.960 164.400,164.400 164.400 C 164.840 164.400,165.200 164.580,165.200 164.800 C 165.200 165.020,165.830 165.200,166.600 165.200 C 167.370 165.200,168.000 165.380,168.000 165.600 C 168.000 165.820,168.720 166.000,169.600 166.000 C 170.528 166.000,171.200 166.191,171.200 166.454 C 171.200 166.763,171.778 166.829,173.000 166.662 C 174.434 166.465,174.800 166.536,174.800 167.008 C 174.800 167.373,175.184 167.600,175.800 167.600 C 176.350 167.600,176.800 167.780,176.800 168.000 C 176.800 168.220,177.340 168.400,178.000 168.400 C 178.660 168.400,179.200 168.580,179.200 168.800 C 179.200 169.020,180.100 169.200,181.200 169.200 C 182.711 169.200,183.200 169.347,183.200 169.800 C 183.200 170.550,186.789 170.651,187.518 169.922 C 187.888 169.552,188.179 169.642,188.813 170.322 C 189.351 170.899,190.105 171.200,191.016 171.200 C 191.777 171.200,192.400 171.380,192.400 171.600 C 192.400 171.840,194.011 172.000,196.433 172.000 L 200.467 172.000 200.356 164.126 C 200.274 158.297,200.369 156.210,200.723 156.092 C 200.985 156.005,201.200 155.498,201.200 154.967 C 201.200 154.435,201.380 154.000,201.600 154.000 C 201.820 154.000,202.000 153.280,202.000 152.400 C 202.000 151.520,202.180 150.800,202.400 150.800 C 202.620 150.800,202.800 149.990,202.800 149.000 C 202.800 148.010,202.980 147.200,203.200 147.200 C 203.420 147.200,203.600 146.840,203.600 146.400 C 203.600 145.960,203.780 145.600,204.000 145.600 C 204.220 145.600,204.400 145.060,204.400 144.400 C 204.400 143.740,204.580 143.200,204.800 143.200 C 205.020 143.200,205.200 142.840,205.200 142.400 C 205.200 141.960,205.380 141.600,205.600 141.600 C 205.820 141.600,206.000 141.240,206.000 140.800 C 206.000 140.360,206.180 140.000,206.400 140.000 C 206.620 140.000,206.800 139.680,206.800 139.288 C 206.800 138.897,207.160 138.317,207.600 138.000 C 208.040 137.683,208.400 137.180,208.400 136.883 C 208.400 136.226,209.373 135.200,209.995 135.200 C 210.244 135.200,210.345 135.035,210.220 134.832 C 210.095 134.630,210.282 134.175,210.636 133.821 C 211.155 133.302,211.183 133.062,210.785 132.581 C 210.129 131.791,211.326 130.400,212.662 130.400 C 213.178 130.400,213.600 130.211,213.600 129.981 C 213.600 129.750,214.833 128.345,216.341 126.858 C 217.849 125.371,219.341 123.625,219.658 122.977 C 220.105 122.065,220.479 121.817,221.317 121.875 C 221.913 121.917,222.400 121.782,222.400 121.575 C 222.400 121.369,222.720 121.200,223.112 121.200 C 223.503 121.200,224.083 120.840,224.400 120.400 C 224.717 119.960,225.297 119.600,225.688 119.600 C 226.080 119.600,226.400 119.420,226.400 119.200 C 226.400 118.980,226.720 118.800,227.112 118.800 C 227.503 118.800,228.083 118.440,228.400 118.000 C 228.717 117.560,229.387 117.200,229.888 117.200 C 230.390 117.200,230.800 117.020,230.800 116.800 C 230.800 116.580,231.340 116.400,232.000 116.400 C 232.660 116.400,233.200 116.220,233.200 116.000 C 233.200 115.780,233.560 115.600,234.000 115.600 C 234.440 115.600,234.800 115.420,234.800 115.200 C 234.800 114.980,235.340 114.800,236.000 114.800 C 236.660 114.800,237.200 114.620,237.200 114.400 C 237.200 114.180,237.740 114.000,238.400 114.000 C 239.060 114.000,239.600 113.820,239.600 113.600 C 239.600 113.380,240.320 113.200,241.200 113.200 C 242.080 113.200,242.800 113.020,242.800 112.800 C 242.800 112.580,243.537 112.400,244.437 112.400 C 245.738 112.400,246.118 112.236,246.284 111.600 C 246.510 110.736,247.004 110.559,247.400 111.200 " stroke="none" fill="#ffffff" fill-rule="evenodd"></path><path id="path1" d="M175.271 1.021 C 175.452 1.890,176.161 1.943,176.324 1.100 C 176.408 0.662,176.212 0.400,175.800 0.400 C 175.416 0.400,175.195 0.659,175.271 1.021 M224.471 1.021 C 224.652 1.890,225.361 1.943,225.524 1.100 C 225.608 0.662,225.412 0.400,225.000 0.400 C 224.616 0.400,224.395 0.659,224.471 1.021 M240.071 3.421 C 240.252 4.290,240.961 4.343,241.124 3.500 C 241.208 3.062,241.012 2.800,240.600 2.800 C 240.216 2.800,239.995 3.059,240.071 3.421 M288.000 19.800 C 288.000 20.130,288.270 20.400,288.600 20.400 C 288.930 20.400,289.200 20.130,289.200 19.800 C 289.200 19.470,288.930 19.200,288.600 19.200 C 288.270 19.200,288.000 19.470,288.000 19.800 M102.400 24.557 C 102.400 25.313,103.483 25.682,103.739 25.014 C 103.981 24.383,103.677 24.000,102.933 24.000 C 102.640 24.000,102.400 24.251,102.400 24.557 M100.200 25.812 C 99.288 26.560,99.168 26.797,99.700 26.798 C 100.085 26.799,100.400 26.608,100.400 26.373 C 100.400 26.128,100.741 26.054,101.200 26.200 C 101.824 26.398,102.000 26.272,102.000 25.627 C 102.000 24.568,101.677 24.601,100.200 25.812 M298.800 25.633 C 298.800 26.608,299.735 26.470,299.929 25.467 C 300.006 25.072,299.802 24.800,299.429 24.800 C 299.058 24.800,298.800 25.142,298.800 25.633 M309.200 32.229 C 309.200 32.602,309.472 32.806,309.867 32.729 C 310.870 32.535,311.008 31.600,310.033 31.600 C 309.542 31.600,309.200 31.858,309.200 32.229 M326.800 44.378 C 326.800 45.354,328.734 47.019,329.018 46.288 C 329.205 45.807,329.000 45.321,328.386 44.788 C 327.402 43.935,326.800 43.779,326.800 44.378 M366.492 88.475 C 366.739 89.217,367.600 89.340,367.600 88.633 C 367.600 88.285,367.315 88.000,366.967 88.000 C 366.618 88.000,366.405 88.214,366.492 88.475 M372.198 97.203 C 372.061 97.424,372.238 97.717,372.592 97.852 C 373.358 98.146,373.785 97.822,373.416 97.227 C 373.084 96.689,372.522 96.678,372.198 97.203 M373.067 98.667 C 372.560 99.174,372.803 99.600,373.600 99.600 C 374.044 99.600,374.400 99.333,374.400 99.000 C 374.400 98.391,373.554 98.179,373.067 98.667 M22.981 105.413 C 22.162 107.070,21.599 108.532,21.729 108.662 C 22.163 109.096,23.190 108.439,22.970 107.867 C 22.851 107.557,23.031 107.197,23.370 107.067 C 23.709 106.937,23.889 106.577,23.770 106.267 C 23.651 105.957,23.820 105.601,24.146 105.476 C 24.515 105.334,24.657 104.939,24.522 104.424 C 24.372 103.848,24.497 103.600,24.941 103.600 C 25.340 103.600,25.490 103.378,25.345 103.000 C 24.928 101.914,24.487 102.364,22.981 105.413 M378.400 107.800 C 378.400 108.130,378.580 108.400,378.800 108.400 C 379.020 108.400,379.200 108.130,379.200 107.800 C 379.200 107.470,379.020 107.200,378.800 107.200 C 378.580 107.200,378.400 107.470,378.400 107.800 M246.288 111.584 C 246.127 112.202,246.267 112.400,246.867 112.400 C 247.391 112.400,247.615 112.175,247.529 111.733 C 247.337 110.743,246.533 110.646,246.288 111.584 M274.267 115.067 C 273.727 115.606,274.022 116.400,274.763 116.400 C 275.328 116.400,275.471 116.193,275.316 115.600 C 275.101 114.780,274.738 114.595,274.267 115.067 M104.000 121.304 C 104.000 121.938,105.505 122.906,106.008 122.595 C 106.574 122.245,105.524 120.800,104.704 120.800 C 104.317 120.800,104.000 121.027,104.000 121.304 M283.875 121.058 C 283.353 121.580,283.602 122.000,284.433 122.000 C 284.899 122.000,285.197 121.790,285.108 121.525 C 284.913 120.940,284.246 120.688,283.875 121.058 M220.080 122.080 C 219.484 122.676,219.453 123.600,220.029 123.600 C 220.582 123.600,221.600 122.582,221.600 122.029 C 221.600 121.453,220.676 121.484,220.080 122.080 M300.400 123.800 C 300.400 124.130,300.670 124.400,301.000 124.400 C 301.330 124.400,301.600 124.130,301.600 123.800 C 301.600 123.470,301.330 123.200,301.000 123.200 C 300.670 123.200,300.400 123.470,300.400 123.800 M298.000 124.600 C 298.000 124.930,298.270 125.200,298.600 125.200 C 298.930 125.200,299.200 124.930,299.200 124.600 C 299.200 124.270,298.930 124.000,298.600 124.000 C 298.270 124.000,298.000 124.270,298.000 124.600 M295.467 125.067 C 294.960 125.574,295.203 126.000,296.000 126.000 C 296.444 126.000,296.800 125.733,296.800 125.400 C 296.800 124.791,295.954 124.579,295.467 125.067 M111.786 129.223 C 111.623 129.486,112.032 130.217,112.734 130.918 C 113.783 131.967,114.005 132.052,114.222 131.486 C 114.468 130.847,114.171 130.406,112.734 129.281 C 112.242 128.895,111.998 128.880,111.786 129.223 M94.628 130.755 C 94.356 131.195,95.375 132.092,95.737 131.730 C 95.882 131.585,96.000 131.227,96.000 130.933 C 96.000 130.337,94.969 130.203,94.628 130.755 M210.991 131.209 C 210.438 131.821,210.372 132.132,210.720 132.480 C 211.252 133.012,212.800 131.865,212.800 130.938 C 212.800 130.140,211.827 130.286,210.991 131.209 M93.850 133.119 C 93.465 133.742,94.327 134.633,94.828 134.132 C 95.082 133.878,95.169 133.474,95.022 133.235 C 94.706 132.724,94.130 132.667,93.850 133.119 M319.200 137.800 C 319.200 138.130,319.470 138.400,319.800 138.400 C 320.130 138.400,320.400 138.130,320.400 137.800 C 320.400 137.470,320.130 137.200,319.800 137.200 C 319.470 137.200,319.200 137.470,319.200 137.800 M316.800 138.600 C 316.800 138.930,317.070 139.200,317.400 139.200 C 317.730 139.200,318.000 138.930,318.000 138.600 C 318.000 138.270,317.730 138.000,317.400 138.000 C 317.070 138.000,316.800 138.270,316.800 138.600 M329.600 140.567 C 329.600 140.915,329.885 141.200,330.233 141.200 C 330.940 141.200,330.817 140.339,330.075 140.092 C 329.814 140.005,329.600 140.218,329.600 140.567 M328.000 143.200 C 328.000 143.716,328.203 143.999,328.500 143.900 C 328.775 143.808,329.000 143.493,329.000 143.200 C 329.000 142.907,328.775 142.592,328.500 142.500 C 328.203 142.401,328.000 142.684,328.000 143.200 M392.800 144.767 C 392.800 145.258,393.058 145.600,393.429 145.600 C 393.802 145.600,394.006 145.328,393.929 144.933 C 393.735 143.930,392.800 143.792,392.800 144.767 M325.089 146.405 C 324.263 147.369,324.203 148.000,324.938 148.000 C 325.692 148.000,326.933 146.539,326.616 146.025 C 326.233 145.407,325.865 145.498,325.089 146.405 M316.858 155.470 C 313.718 158.654,312.444 160.204,312.731 160.491 C 313.192 160.952,322.899 151.684,322.549 151.117 C 322.097 150.387,321.173 151.094,316.858 155.470 M138.400 151.600 C 138.400 151.820,138.670 152.000,139.000 152.000 C 139.330 152.000,139.600 151.820,139.600 151.600 C 139.600 151.380,139.330 151.200,139.000 151.200 C 138.670 151.200,138.400 151.380,138.400 151.600 M140.000 152.429 C 140.000 153.156,141.188 154.090,141.810 153.851 C 142.628 153.538,142.547 152.907,141.626 152.414 C 140.631 151.881,140.000 151.887,140.000 152.429 M4.400 154.600 C 4.400 155.012,4.662 155.208,5.100 155.124 C 5.943 154.961,5.890 154.252,5.021 154.071 C 4.659 153.995,4.400 154.216,4.400 154.600 M200.267 156.267 C 199.763 156.770,200.000 158.000,200.600 158.000 C 200.973 158.000,201.200 157.622,201.200 157.000 C 201.200 156.029,200.811 155.723,200.267 156.267 M3.600 158.029 C 3.600 159.054,4.924 158.938,5.125 157.895 C 5.217 157.415,5.002 157.200,4.429 157.200 C 3.857 157.200,3.600 157.457,3.600 158.029 M396.000 157.800 C 396.000 158.130,396.270 158.400,396.600 158.400 C 396.930 158.400,397.200 158.130,397.200 157.800 C 397.200 157.470,396.930 157.200,396.600 157.200 C 396.270 157.200,396.000 157.470,396.000 157.800 M308.865 162.636 C 308.571 162.969,308.440 163.526,308.573 163.875 C 308.863 164.631,310.400 163.506,310.400 162.538 C 310.400 161.824,309.534 161.879,308.865 162.636 M161.384 162.827 C 161.015 163.422,161.442 163.746,162.208 163.452 C 162.562 163.317,162.739 163.024,162.602 162.803 C 162.278 162.278,161.716 162.289,161.384 162.827 M93.800 164.000 C 93.465 164.542,93.917 165.200,94.624 165.200 C 94.941 165.200,95.200 164.840,95.200 164.400 C 95.200 163.572,94.235 163.296,93.800 164.000 M173.600 167.000 C 173.600 167.330,173.870 167.600,174.200 167.600 C 174.530 167.600,174.800 167.330,174.800 167.000 C 174.800 166.670,174.530 166.400,174.200 166.400 C 173.870 166.400,173.600 166.670,173.600 167.000 M187.400 170.000 C 187.003 170.642,187.570 171.200,188.620 171.200 C 189.554 171.200,189.565 171.168,188.907 170.400 C 188.143 169.508,187.766 169.408,187.400 170.000 M398.471 171.867 C 398.665 172.870,399.600 173.008,399.600 172.033 C 399.600 171.542,399.342 171.200,398.971 171.200 C 398.598 171.200,398.394 171.472,398.471 171.867 M0.400 178.400 C 0.400 179.268,0.695 179.381,1.551 178.839 C 2.197 178.430,1.811 177.600,0.976 177.600 C 0.659 177.600,0.400 177.960,0.400 178.400 M93.075 180.658 C 92.553 181.180,92.802 181.600,93.633 181.600 C 94.099 181.600,94.397 181.390,94.308 181.125 C 94.113 180.540,93.446 180.288,93.075 180.658 M91.478 182.256 C 91.104 182.629,91.555 183.200,92.224 183.200 C 92.541 183.200,92.800 182.930,92.800 182.600 C 92.800 181.998,91.956 181.778,91.478 182.256 M93.067 198.267 C 92.560 198.774,92.803 199.200,93.600 199.200 C 94.044 199.200,94.400 198.933,94.400 198.600 C 94.400 197.991,93.554 197.779,93.067 198.267 M302.667 200.667 C 302.206 201.127,302.375 201.600,303.000 201.600 C 303.330 201.600,303.600 201.330,303.600 201.000 C 303.600 200.375,303.127 200.206,302.667 200.667 M-0.000 210.486 C -0.000 212.012,0.059 212.113,0.623 211.548 C 1.045 211.127,1.160 210.581,0.980 209.862 C 0.572 208.235,0.000 208.599,-0.000 210.486 M104.800 219.567 C 104.800 220.388,105.319 221.200,105.843 221.200 C 106.563 221.200,106.556 220.499,105.829 219.771 C 105.171 219.114,104.800 219.040,104.800 219.567 M295.200 224.767 C 295.200 225.258,295.458 225.600,295.829 225.600 C 296.202 225.600,296.406 225.328,296.329 224.933 C 296.135 223.930,295.200 223.792,295.200 224.767 M111.600 226.138 C 111.600 227.065,113.148 228.212,113.680 227.680 C 114.028 227.332,113.962 227.021,113.409 226.409 C 112.573 225.486,111.600 225.340,111.600 226.138 M111.075 230.258 C 110.525 230.808,110.811 231.657,111.500 231.524 C 111.885 231.450,112.200 231.137,112.200 230.828 C 112.200 230.196,111.494 229.839,111.075 230.258 M108.667 233.467 C 108.206 233.927,108.375 234.400,109.000 234.400 C 109.330 234.400,109.600 234.130,109.600 233.800 C 109.600 233.175,109.127 233.006,108.667 233.467 M2.800 238.000 C 2.800 238.602,3.009 238.818,3.500 238.724 C 3.885 238.650,4.200 238.324,4.200 238.000 C 4.200 237.676,3.885 237.350,3.500 237.276 C 3.009 237.182,2.800 237.398,2.800 238.000 M396.800 238.200 C 396.800 238.530,397.070 238.800,397.400 238.800 C 397.730 238.800,398.000 238.530,398.000 238.200 C 398.000 237.870,397.730 237.600,397.400 237.600 C 397.070 237.600,396.800 237.870,396.800 238.200 M112.613 243.979 C 112.261 244.548,112.710 245.200,113.453 245.200 C 113.803 245.200,114.004 244.919,113.929 244.533 C 113.774 243.730,112.975 243.393,112.613 243.979 M6.069 251.864 C 6.238 252.739,7.400 252.863,7.400 252.005 C 7.400 251.678,7.069 251.347,6.664 251.269 C 6.129 251.166,5.966 251.329,6.069 251.864 M392.075 257.625 C 392.171 257.914,392.486 258.229,392.775 258.325 C 393.075 258.425,393.225 258.275,393.125 257.975 C 393.029 257.686,392.714 257.371,392.425 257.275 C 392.125 257.175,391.975 257.325,392.075 257.625 M276.400 258.200 C 276.400 258.530,276.670 258.800,277.000 258.800 C 277.330 258.800,277.600 258.530,277.600 258.200 C 277.600 257.870,277.330 257.600,277.000 257.600 C 276.670 257.600,276.400 257.870,276.400 258.200 M391.435 260.525 C 390.873 260.936,390.806 261.157,391.174 261.384 C 391.752 261.741,392.559 261.076,392.340 260.421 C 392.236 260.109,391.961 260.141,391.435 260.525 M127.478 261.056 C 127.158 261.375,127.519 262.000,128.024 262.000 C 128.231 262.000,128.400 261.730,128.400 261.400 C 128.400 260.781,127.928 260.605,127.478 261.056 M273.700 261.398 C 273.113 262.065,273.044 262.800,273.567 262.800 C 274.479 262.800,275.200 262.251,275.200 261.557 C 275.200 260.670,274.414 260.587,273.700 261.398 M270.105 265.923 C 269.140 267.086,268.906 268.165,269.676 267.908 C 269.937 267.821,270.513 267.265,270.955 266.674 C 272.070 265.179,271.294 264.493,270.105 265.923 M137.200 267.227 C 137.200 267.872,137.376 267.998,138.000 267.800 C 138.579 267.616,138.800 267.728,138.800 268.206 C 138.800 269.045,139.757 268.757,139.929 267.867 C 140.016 267.422,139.790 267.200,139.253 267.200 C 138.810 267.200,138.336 267.020,138.200 266.800 C 137.777 266.115,137.200 266.361,137.200 267.227 M14.400 276.400 C 14.400 276.844,14.667 277.200,15.000 277.200 C 15.333 277.200,15.600 276.844,15.600 276.400 C 15.600 275.956,15.333 275.600,15.000 275.600 C 14.667 275.600,14.400 275.956,14.400 276.400 M15.200 278.233 C 15.200 278.582,15.414 278.795,15.675 278.708 C 16.417 278.461,16.540 277.600,15.833 277.600 C 15.485 277.600,15.200 277.885,15.200 278.233 M254.900 280.998 C 254.275 281.708,254.248 282.800,254.856 282.800 C 255.403 282.800,256.369 281.600,256.387 280.900 C 256.404 280.232,255.523 280.291,254.900 280.998 M124.800 282.200 C 124.800 282.530,125.070 282.800,125.400 282.800 C 125.730 282.800,126.000 282.530,126.000 282.200 C 126.000 281.870,125.730 281.600,125.400 281.600 C 125.070 281.600,124.800 281.870,124.800 282.200 M122.400 283.000 C 122.400 283.330,122.670 283.600,123.000 283.600 C 123.330 283.600,123.600 283.330,123.600 283.000 C 123.600 282.670,123.330 282.400,123.000 282.400 C 122.670 282.400,122.400 282.670,122.400 283.000 M382.000 283.800 C 382.000 284.130,382.270 284.400,382.600 284.400 C 382.930 284.400,383.200 284.130,383.200 283.800 C 383.200 283.470,382.930 283.200,382.600 283.200 C 382.270 283.200,382.000 283.470,382.000 283.800 M250.100 284.998 C 249.074 286.164,250.020 287.020,251.120 285.920 C 251.748 285.292,251.736 284.396,251.100 284.415 C 250.825 284.424,250.375 284.686,250.100 284.998 M381.200 285.400 C 381.200 285.730,381.470 286.000,381.800 286.000 C 382.130 286.000,382.400 285.730,382.400 285.400 C 382.400 285.070,382.130 284.800,381.800 284.800 C 381.470 284.800,381.200 285.070,381.200 285.400 M246.900 287.593 C 245.879 288.427,245.762 288.800,246.524 288.800 C 247.439 288.800,248.640 287.694,248.200 287.255 C 247.934 286.990,247.498 287.103,246.900 287.593 M20.000 288.600 C 20.000 288.930,20.270 289.200,20.600 289.200 C 20.930 289.200,21.200 288.930,21.200 288.600 C 21.200 288.270,20.930 288.000,20.600 288.000 C 20.270 288.000,20.000 288.270,20.000 288.600 M379.200 290.600 C 379.200 290.930,379.380 291.200,379.600 291.200 C 379.820 291.200,380.000 290.930,380.000 290.600 C 380.000 290.270,379.820 290.000,379.600 290.000 C 379.380 290.000,379.200 290.270,379.200 290.600 M82.400 291.800 C 82.400 292.130,82.670 292.400,83.000 292.400 C 83.330 292.400,83.600 292.130,83.600 291.800 C 83.600 291.470,83.330 291.200,83.000 291.200 C 82.670 291.200,82.400 291.470,82.400 291.800 M25.632 299.133 C 25.599 300.110,26.409 300.174,26.727 299.219 C 26.825 298.924,26.718 298.803,26.486 298.947 C 26.256 299.089,25.977 298.979,25.866 298.702 C 25.754 298.426,25.649 298.620,25.632 299.133 M103.600 303.233 C 103.600 304.208,104.535 304.070,104.729 303.067 C 104.806 302.672,104.602 302.400,104.229 302.400 C 103.858 302.400,103.600 302.742,103.600 303.233 M216.871 304.621 C 217.052 305.490,217.761 305.543,217.924 304.700 C 218.008 304.262,217.812 304.000,217.400 304.000 C 217.016 304.000,216.795 304.259,216.871 304.621 M214.400 305.600 C 214.400 306.040,214.640 306.400,214.933 306.400 C 215.686 306.400,215.981 306.015,215.730 305.361 C 215.403 304.510,214.400 304.690,214.400 305.600 M31.600 309.000 C 31.600 309.330,31.870 309.600,32.200 309.600 C 32.530 309.600,32.800 309.330,32.800 309.000 C 32.800 308.670,32.530 308.400,32.200 308.400 C 31.870 308.400,31.600 308.670,31.600 309.000 M128.092 311.275 C 128.339 312.017,129.200 312.140,129.200 311.433 C 129.200 311.085,128.915 310.800,128.567 310.800 C 128.218 310.800,128.005 311.014,128.092 311.275 M141.200 313.800 C 141.200 314.130,141.470 314.400,141.800 314.400 C 142.130 314.400,142.400 314.130,142.400 313.800 C 142.400 313.470,142.130 313.200,141.800 313.200 C 141.470 313.200,141.200 313.470,141.200 313.800 M173.600 314.600 C 173.600 314.973,173.978 315.200,174.600 315.200 C 175.222 315.200,175.600 314.973,175.600 314.600 C 175.600 314.227,175.222 314.000,174.600 314.000 C 173.978 314.000,173.600 314.227,173.600 314.600 M38.800 319.800 C 38.800 320.130,39.070 320.400,39.400 320.400 C 39.730 320.400,40.000 320.130,40.000 319.800 C 40.000 319.470,39.730 319.200,39.400 319.200 C 39.070 319.200,38.800 319.470,38.800 319.800 M44.400 326.818 C 44.400 327.590,46.417 329.279,47.049 329.037 C 47.566 328.838,47.516 328.616,46.731 327.623 C 45.823 326.473,44.400 325.982,44.400 326.818 M354.641 327.214 C 353.960 327.900,353.949 328.006,354.530 328.229 C 355.200 328.486,356.400 327.587,356.400 326.829 C 356.400 326.165,355.481 326.366,354.641 327.214 M349.543 333.100 C 347.742 335.068,348.144 336.211,350.028 334.479 C 351.613 333.021,352.044 332.000,351.075 332.000 C 350.786 332.000,350.097 332.495,349.543 333.100 M333.722 348.972 C 332.834 349.742,332.702 350.048,333.090 350.442 C 333.531 350.890,336.000 348.990,336.000 348.204 C 336.000 347.671,334.729 348.100,333.722 348.972 M327.900 354.032 C 327.135 354.478,326.941 355.600,327.629 355.600 C 327.864 355.600,328.314 355.343,328.629 355.029 C 329.743 353.914,329.253 353.244,327.900 354.032 M79.600 360.600 C 79.600 360.930,79.870 361.200,80.200 361.200 C 80.530 361.200,80.800 360.930,80.800 360.600 C 80.800 360.270,80.530 360.000,80.200 360.000 C 79.870 360.000,79.600 360.270,79.600 360.600 M88.000 366.167 C 88.000 366.515,88.285 366.800,88.633 366.800 C 89.340 366.800,89.217 365.939,88.475 365.692 C 88.214 365.605,88.000 365.818,88.000 366.167 M289.863 378.670 C 289.316 379.218,289.631 380.000,290.400 380.000 C 290.840 380.000,291.200 379.842,291.200 379.649 C 291.200 379.124,290.166 378.367,289.863 378.670 M288.000 380.200 C 288.000 380.530,288.270 380.800,288.600 380.800 C 288.930 380.800,289.200 380.530,289.200 380.200 C 289.200 379.870,288.930 379.600,288.600 379.600 C 288.270 379.600,288.000 379.870,288.000 380.200 M286.400 381.000 C 286.400 381.330,286.670 381.600,287.000 381.600 C 287.330 381.600,287.600 381.330,287.600 381.000 C 287.600 380.670,287.330 380.400,287.000 380.400 C 286.670 380.400,286.400 380.670,286.400 381.000 M118.800 383.400 C 118.800 383.812,119.062 384.008,119.500 383.924 C 120.343 383.761,120.290 383.052,119.421 382.871 C 119.059 382.795,118.800 383.016,118.800 383.400 M120.667 383.867 C 120.206 384.327,120.375 384.800,121.000 384.800 C 121.330 384.800,121.600 384.530,121.600 384.200 C 121.600 383.575,121.127 383.406,120.667 383.867 M131.200 388.400 C 131.200 388.620,131.470 388.800,131.800 388.800 C 132.130 388.800,132.400 388.620,132.400 388.400 C 132.400 388.180,132.130 388.000,131.800 388.000 C 131.470 388.000,131.200 388.180,131.200 388.400 M143.630 391.982 C 142.998 392.372,143.402 393.200,144.224 393.200 C 144.832 393.200,145.025 392.186,144.481 391.850 C 144.305 391.742,143.922 391.801,143.630 391.982 M156.400 395.800 C 156.400 396.130,156.754 396.400,157.187 396.400 C 157.723 396.400,157.901 396.208,157.745 395.800 C 157.618 395.470,157.264 395.200,156.957 395.200 C 156.651 395.200,156.400 395.470,156.400 395.800 M240.000 396.600 C 240.000 396.930,240.270 397.200,240.600 397.200 C 240.930 397.200,241.200 396.930,241.200 396.600 C 241.200 396.270,240.930 396.000,240.600 396.000 C 240.270 396.000,240.000 396.270,240.000 396.600 M217.075 399.058 C 216.553 399.580,216.802 400.000,217.633 400.000 C 218.099 400.000,218.397 399.790,218.308 399.525 C 218.113 398.940,217.446 398.688,217.075 399.058 " stroke="none" fill="#ffffff" fill-rule="evenodd"></path></g></svg>