<?xml version="1.0" standalone="no"?>
<!DOCTYPE svg PUBLIC "-//W3C//DTD SVG 20010904//EN"
 "http://www.w3.org/TR/2001/REC-SVG-20010904/DTD/svg10.dtd">
<svg version="1.0" xmlns="http://www.w3.org/2000/svg"
 width="334.000000pt" height="334.000000pt" viewBox="0 0 334.000000 334.000000"
 preserveAspectRatio="xMidYMid meet">
<metadata>
Created by potrace 1.11, written by Peter Selinger 2001-2013
</metadata>
<g transform="translate(0.000000,334.000000) scale(0.100000,-0.100000)"
fill="#000000" stroke="none">
<path d="M400 2475 l255 -255 262 0 263 0 0 -771 c0 -489 4 -769 10 -767 5 2
120 117 255 257 l245 254 0 513 0 514 513 0 512 0 255 255 255 255 -1540 0
-1540 0 255 -255z"/>
<path d="M2962 2227 l-252 -252 0 -388 0 -387 -388 0 -387 0 -248 -248 c-136
-136 -247 -250 -247 -255 0 -4 400 -7 890 -7 l890 0 0 895 c0 492 -1 895 -3
895 -1 0 -116 -114 -255 -253z"/>
</g>
</svg>
