<svg xmlns="http://www.w3.org/2000/svg" xmlns:xlink="http://www.w3.org/1999/xlink" id="svg" width="400" height="400" version="1.1" viewBox="0 0 400 400"><g id="svgg"><path id="path0" fill="#fff" fill-rule="evenodd" stroke="none" d="M178.700 0.273 C 176.555 0.359,174.800 0.602,174.800 0.814 C 174.800 1.030,173.387 1.200,171.600 1.200 C 169.733 1.200,168.400 1.367,168.400 1.600 C 168.400 1.820,167.500 2.000,166.400 2.000 C 165.300 2.000,164.400 2.180,164.400 2.400 C 164.400 2.620,163.410 2.800,162.200 2.800 C 160.990 2.800,160.000 2.980,160.000 3.200 C 160.000 3.420,159.280 3.600,158.400 3.600 C 157.520 3.600,156.800 3.780,156.800 4.000 C 156.800 4.220,155.900 4.400,154.800 4.400 C 153.700 4.400,152.800 4.580,152.800 4.800 C 152.800 5.020,152.080 5.200,151.200 5.200 C 150.320 5.200,149.600 5.380,149.600 5.600 C 149.600 5.820,148.880 6.000,148.000 6.000 C 147.120 6.000,146.400 6.180,146.400 6.400 C 146.400 6.620,145.860 6.800,145.200 6.800 C 144.540 6.800,144.000 6.980,144.000 7.200 C 144.000 7.420,143.370 7.600,142.600 7.600 C 141.830 7.600,141.200 7.780,141.200 8.000 C 141.200 8.220,140.660 8.400,140.000 8.400 C 139.340 8.400,138.800 8.580,138.800 8.800 C 138.800 9.020,138.260 9.200,137.600 9.200 C 136.940 9.200,136.400 9.362,136.400 9.561 C 136.400 9.759,135.320 10.047,134.000 10.200 C 132.680 10.353,131.600 10.641,131.600 10.839 C 131.600 11.038,131.060 11.200,130.400 11.200 C 129.740 11.200,129.199 11.335,129.197 11.500 C 129.193 11.906,127.214 12.800,126.320 12.800 C 125.924 12.800,125.600 12.980,125.600 13.200 C 125.600 13.420,125.240 13.600,124.800 13.600 C 124.360 13.600,124.000 13.780,124.000 14.000 C 124.000 14.220,123.460 14.400,122.800 14.400 C 122.140 14.400,121.600 14.580,121.600 14.800 C 121.600 15.020,121.240 15.200,120.800 15.200 C 120.360 15.200,120.000 15.380,120.000 15.600 C 120.000 15.820,119.640 16.000,119.200 16.000 C 118.760 16.000,118.400 16.180,118.400 16.400 C 118.400 16.620,118.040 16.800,117.600 16.800 C 117.160 16.800,116.800 16.980,116.800 17.200 C 116.800 17.420,116.260 17.600,115.600 17.600 C 114.940 17.600,114.400 17.780,114.400 18.000 C 114.400 18.220,114.040 18.400,113.600 18.400 C 113.160 18.400,112.800 18.580,112.800 18.800 C 112.800 19.020,112.440 19.200,112.000 19.200 C 111.560 19.200,111.200 19.380,111.200 19.600 C 111.200 19.820,110.930 20.000,110.600 20.000 C 110.270 20.000,110.000 20.180,110.000 20.400 C 110.000 20.620,109.640 20.800,109.200 20.800 C 108.760 20.800,108.400 20.980,108.400 21.200 C 108.400 21.420,108.040 21.600,107.600 21.600 C 107.160 21.600,106.800 21.780,106.800 22.000 C 106.800 22.220,106.440 22.400,106.000 22.400 C 105.560 22.400,105.200 22.580,105.200 22.800 C 105.200 23.020,104.880 23.200,104.488 23.200 C 104.097 23.200,103.517 23.560,103.200 24.000 C 102.883 24.440,102.303 24.800,101.912 24.800 C 101.520 24.800,101.200 24.980,101.200 25.200 C 101.200 25.420,100.840 25.600,100.400 25.600 C 99.960 25.600,99.600 25.780,99.600 26.000 C 99.600 26.220,99.240 26.400,98.800 26.400 C 98.360 26.400,98.000 26.546,98.000 26.725 C 98.000 26.904,97.094 27.446,95.986 27.930 C 94.878 28.413,93.869 29.077,93.743 29.405 C 93.617 29.732,93.213 30.000,92.846 30.000 C 92.478 30.000,91.917 30.360,91.600 30.800 C 91.283 31.240,90.743 31.600,90.400 31.600 C 90.057 31.600,89.517 31.960,89.200 32.400 C 88.883 32.840,88.343 33.200,88.000 33.200 C 87.657 33.200,87.117 33.560,86.800 34.000 C 86.483 34.440,85.943 34.800,85.600 34.800 C 85.257 34.800,84.717 35.160,84.400 35.600 C 84.083 36.040,83.575 36.400,83.272 36.400 C 82.969 36.400,82.217 36.940,81.600 37.600 C 80.983 38.260,80.263 38.800,80.000 38.800 C 79.737 38.800,79.017 39.340,78.400 40.000 C 77.783 40.660,77.165 41.200,77.026 41.200 C 76.887 41.200,76.143 41.830,75.373 42.600 C 74.603 43.370,73.699 44.000,73.365 44.000 C 73.030 44.000,71.696 45.080,70.400 46.400 C 69.104 47.720,67.847 48.800,67.607 48.800 C 67.366 48.800,65.558 50.465,63.588 52.500 C 59.094 57.142,57.142 59.094,52.500 63.588 C 50.465 65.558,48.800 67.366,48.800 67.607 C 48.800 67.847,47.720 69.104,46.400 70.400 C 45.080 71.696,44.000 73.030,44.000 73.365 C 44.000 73.699,43.370 74.603,42.600 75.373 C 41.830 76.143,41.200 76.887,41.200 77.026 C 41.200 77.165,40.660 77.783,40.000 78.400 C 39.340 79.017,38.800 79.737,38.800 80.000 C 38.800 80.263,38.260 80.983,37.600 81.600 C 36.940 82.217,36.400 82.969,36.400 83.272 C 36.400 83.575,36.040 84.083,35.600 84.400 C 35.160 84.717,34.800 85.257,34.800 85.600 C 34.800 85.943,34.440 86.483,34.000 86.800 C 33.560 87.117,33.200 87.657,33.200 88.000 C 33.200 88.343,32.840 88.883,32.400 89.200 C 31.960 89.517,31.600 90.057,31.600 90.400 C 31.600 90.743,31.240 91.283,30.800 91.600 C 30.360 91.917,30.000 92.478,30.000 92.846 C 30.000 93.213,29.732 93.617,29.405 93.743 C 29.077 93.869,28.413 94.878,27.930 95.986 C 27.446 97.094,26.904 98.000,26.725 98.000 C 26.546 98.000,26.400 98.360,26.400 98.800 C 26.400 99.240,26.220 99.600,26.000 99.600 C 25.780 99.600,25.600 99.960,25.600 100.400 C 25.600 100.840,25.420 101.200,25.200 101.200 C 24.980 101.200,24.800 101.520,24.800 101.912 C 24.800 102.303,24.440 102.883,24.000 103.200 C 23.560 103.517,23.200 104.097,23.200 104.488 C 23.200 104.880,23.020 105.200,22.800 105.200 C 22.580 105.200,22.400 105.560,22.400 106.000 C 22.400 106.440,22.220 106.800,22.000 106.800 C 21.780 106.800,21.600 107.160,21.600 107.600 C 21.600 108.040,21.420 108.400,21.200 108.400 C 20.980 108.400,20.800 108.760,20.800 109.200 C 20.800 109.640,20.620 110.000,20.400 110.000 C 20.180 110.000,20.000 110.270,20.000 110.600 C 20.000 110.930,19.820 111.200,19.600 111.200 C 19.380 111.200,19.200 111.560,19.200 112.000 C 19.200 112.440,19.020 112.800,18.800 112.800 C 18.580 112.800,18.400 113.160,18.400 113.600 C 18.400 114.040,18.220 114.400,18.000 114.400 C 17.780 114.400,17.600 114.940,17.600 115.600 C 17.600 116.260,17.420 116.800,17.200 116.800 C 16.980 116.800,16.800 117.160,16.800 117.600 C 16.800 118.040,16.620 118.400,16.400 118.400 C 16.180 118.400,16.000 118.760,16.000 119.200 C 16.000 119.640,15.820 120.000,15.600 120.000 C 15.380 120.000,15.200 120.360,15.200 120.800 C 15.200 121.240,15.020 121.600,14.800 121.600 C 14.580 121.600,14.400 122.140,14.400 122.800 C 14.400 123.460,14.220 124.000,14.000 124.000 C 13.780 124.000,13.600 124.360,13.600 124.800 C 13.600 125.240,13.420 125.600,13.200 125.600 C 12.980 125.600,12.800 125.924,12.800 126.320 C 12.800 127.214,11.906 129.193,11.500 129.197 C 11.335 129.199,11.200 129.740,11.200 130.400 C 11.200 131.060,11.038 131.600,10.839 131.600 C 10.641 131.600,10.353 132.680,10.200 134.000 C 10.047 135.320,9.759 136.400,9.561 136.400 C 9.362 136.400,9.200 136.940,9.200 137.600 C 9.200 138.260,9.020 138.800,8.800 138.800 C 8.580 138.800,8.400 139.340,8.400 140.000 C 8.400 140.660,8.220 141.200,8.000 141.200 C 7.780 141.200,7.600 141.830,7.600 142.600 C 7.600 143.370,7.420 144.000,7.200 144.000 C 6.980 144.000,6.800 144.540,6.800 145.200 C 6.800 145.860,6.620 146.400,6.400 146.400 C 6.180 146.400,6.000 147.120,6.000 148.000 C 6.000 148.880,5.820 149.600,5.600 149.600 C 5.380 149.600,5.200 150.320,5.200 151.200 C 5.200 152.080,5.020 152.800,4.800 152.800 C 4.580 152.800,4.400 153.700,4.400 154.800 C 4.400 155.900,4.220 156.800,4.000 156.800 C 3.780 156.800,3.600 157.520,3.600 158.400 C 3.600 159.280,3.420 160.000,3.200 160.000 C 2.980 160.000,2.800 160.990,2.800 162.200 C 2.800 163.410,2.620 164.400,2.400 164.400 C 2.180 164.400,2.000 165.300,2.000 166.400 C 2.000 167.500,1.820 168.400,1.600 168.400 C 1.367 168.400,1.200 169.722,1.200 171.567 C 1.200 173.744,1.044 174.785,0.700 174.900 C -0.032 175.144,-0.032 224.856,0.700 225.100 C 1.044 225.215,1.200 226.256,1.200 228.433 C 1.200 230.278,1.367 231.600,1.600 231.600 C 1.820 231.600,2.000 232.500,2.000 233.600 C 2.000 234.700,2.180 235.600,2.400 235.600 C 2.622 235.600,2.800 236.667,2.800 238.000 C 2.800 239.333,2.978 240.400,3.200 240.400 C 3.420 240.400,3.600 241.030,3.600 241.800 C 3.600 242.570,3.780 243.200,4.000 243.200 C 4.220 243.200,4.400 244.100,4.400 245.200 C 4.400 246.300,4.580 247.200,4.800 247.200 C 5.020 247.200,5.200 247.920,5.200 248.800 C 5.200 249.680,5.380 250.400,5.600 250.400 C 5.820 250.400,6.000 251.120,6.000 252.000 C 6.000 252.880,6.180 253.600,6.400 253.600 C 6.620 253.600,6.800 254.140,6.800 254.800 C 6.800 255.460,6.980 256.000,7.200 256.000 C 7.420 256.000,7.600 256.630,7.600 257.400 C 7.600 258.170,7.780 258.800,8.000 258.800 C 8.220 258.800,8.400 259.340,8.400 260.000 C 8.400 260.660,8.580 261.200,8.800 261.200 C 9.020 261.200,9.200 261.740,9.200 262.400 C 9.200 263.060,9.362 263.600,9.561 263.600 C 9.759 263.600,10.047 264.680,10.200 266.000 C 10.353 267.320,10.641 268.400,10.839 268.400 C 11.038 268.400,11.200 268.940,11.200 269.600 C 11.200 270.260,11.380 270.800,11.600 270.800 C 11.820 270.800,12.000 271.160,12.000 271.600 C 12.000 272.040,12.180 272.400,12.400 272.400 C 12.620 272.400,12.800 272.940,12.800 273.600 C 12.800 274.260,12.980 274.800,13.200 274.800 C 13.420 274.800,13.600 275.070,13.600 275.400 C 13.600 275.730,13.780 276.000,14.000 276.000 C 14.220 276.000,14.400 276.540,14.400 277.200 C 14.400 277.860,14.580 278.400,14.800 278.400 C 15.020 278.400,15.200 278.760,15.200 279.200 C 15.200 279.640,15.380 280.000,15.600 280.000 C 15.820 280.000,16.000 280.360,16.000 280.800 C 16.000 281.240,16.180 281.600,16.400 281.600 C 16.620 281.600,16.800 281.960,16.800 282.400 C 16.800 282.840,16.980 283.200,17.200 283.200 C 17.420 283.200,17.600 283.740,17.600 284.400 C 17.600 285.060,17.780 285.600,18.000 285.600 C 18.220 285.600,18.400 285.960,18.400 286.400 C 18.400 286.840,18.580 287.200,18.800 287.200 C 19.020 287.200,19.200 287.560,19.200 288.000 C 19.200 288.440,19.380 288.800,19.600 288.800 C 19.820 288.800,20.000 289.160,20.000 289.600 C 20.000 290.040,20.180 290.400,20.400 290.400 C 20.620 290.400,20.800 290.670,20.800 291.000 C 20.800 291.330,20.980 291.600,21.200 291.600 C 21.420 291.600,21.600 291.960,21.600 292.400 C 21.600 292.840,21.780 293.200,22.000 293.200 C 22.220 293.200,22.400 293.560,22.400 294.000 C 22.400 294.440,22.580 294.800,22.800 294.800 C 23.020 294.800,23.200 295.120,23.200 295.512 C 23.200 295.903,23.560 296.483,24.000 296.800 C 24.440 297.117,24.800 297.697,24.800 298.088 C 24.800 298.480,24.980 298.800,25.200 298.800 C 25.420 298.800,25.600 299.160,25.600 299.600 C 25.600 300.040,25.780 300.400,26.000 300.400 C 26.220 300.400,26.400 300.683,26.400 301.029 C 26.400 301.374,26.670 301.927,27.000 302.257 C 27.330 302.587,27.600 303.204,27.600 303.629 C 27.600 304.053,27.780 304.400,28.000 304.400 C 28.220 304.400,28.400 304.720,28.400 305.112 C 28.400 305.503,28.760 306.083,29.200 306.400 C 29.640 306.717,30.000 307.285,30.000 307.661 C 30.000 308.038,30.360 308.460,30.800 308.600 C 31.240 308.740,31.600 309.162,31.600 309.539 C 31.600 309.915,31.960 310.483,32.400 310.800 C 32.840 311.117,33.200 311.657,33.200 312.000 C 33.200 312.343,33.560 312.883,34.000 313.200 C 34.440 313.517,34.800 314.057,34.800 314.400 C 34.800 314.743,35.160 315.283,35.600 315.600 C 36.040 315.917,36.400 316.425,36.400 316.728 C 36.400 317.031,36.940 317.783,37.600 318.400 C 38.260 319.017,38.800 319.737,38.800 320.000 C 38.800 320.263,39.340 320.983,40.000 321.600 C 40.660 322.217,41.200 322.943,41.200 323.214 C 41.200 323.743,42.707 325.200,43.254 325.200 C 43.436 325.200,43.707 325.689,43.857 326.286 C 44.007 326.883,45.181 328.403,46.465 329.664 C 47.749 330.924,48.800 332.151,48.800 332.391 C 48.800 332.630,50.825 334.800,53.300 337.214 C 58.926 342.700,59.218 342.992,63.585 347.500 C 65.556 349.535,67.366 351.200,67.607 351.200 C 67.847 351.200,69.104 352.280,70.400 353.600 C 71.696 354.920,72.952 356.000,73.191 356.000 C 73.431 356.000,74.257 356.630,75.027 357.400 C 75.797 358.170,76.618 358.800,76.853 358.800 C 77.087 358.800,77.783 359.340,78.400 360.000 C 79.017 360.660,79.737 361.200,80.000 361.200 C 80.263 361.200,80.983 361.740,81.600 362.400 C 82.217 363.060,82.969 363.600,83.272 363.600 C 83.575 363.600,84.083 363.960,84.400 364.400 C 84.717 364.840,85.257 365.200,85.600 365.200 C 85.943 365.200,86.483 365.560,86.800 366.000 C 87.117 366.440,87.657 366.800,88.000 366.800 C 88.343 366.800,88.883 367.160,89.200 367.600 C 89.517 368.040,90.057 368.400,90.400 368.400 C 90.743 368.400,91.283 368.760,91.600 369.200 C 91.917 369.640,92.485 370.000,92.861 370.000 C 93.238 370.000,93.660 370.360,93.800 370.800 C 93.940 371.240,94.402 371.600,94.827 371.600 C 95.252 371.600,95.600 371.780,95.600 372.000 C 95.600 372.220,95.920 372.400,96.312 372.400 C 96.703 372.400,97.283 372.760,97.600 373.200 C 97.917 373.640,98.497 374.000,98.888 374.000 C 99.280 374.000,99.600 374.164,99.600 374.365 C 99.600 374.566,100.288 374.846,101.128 374.988 C 101.969 375.130,102.909 375.596,103.217 376.023 C 103.525 376.450,104.097 376.800,104.488 376.800 C 104.880 376.800,105.200 376.980,105.200 377.200 C 105.200 377.420,105.560 377.600,106.000 377.600 C 106.440 377.600,106.800 377.780,106.800 378.000 C 106.800 378.220,107.160 378.400,107.600 378.400 C 108.040 378.400,108.400 378.580,108.400 378.800 C 108.400 379.020,108.760 379.200,109.200 379.200 C 109.640 379.200,110.000 379.380,110.000 379.600 C 110.000 379.820,110.270 380.000,110.600 380.000 C 110.930 380.000,111.200 380.180,111.200 380.400 C 111.200 380.620,111.560 380.800,112.000 380.800 C 112.440 380.800,112.800 380.980,112.800 381.200 C 112.800 381.420,113.160 381.600,113.600 381.600 C 114.040 381.600,114.400 381.780,114.400 382.000 C 114.400 382.220,114.940 382.400,115.600 382.400 C 116.260 382.400,116.800 382.580,116.800 382.800 C 116.800 383.020,117.160 383.200,117.600 383.200 C 118.040 383.200,118.400 383.380,118.400 383.600 C 118.400 383.820,118.760 384.000,119.200 384.000 C 119.640 384.000,120.000 384.180,120.000 384.400 C 120.000 384.620,120.360 384.800,120.800 384.800 C 121.240 384.800,121.600 384.980,121.600 385.200 C 121.600 385.420,122.140 385.600,122.800 385.600 C 123.460 385.600,124.000 385.780,124.000 386.000 C 124.000 386.220,124.360 386.400,124.800 386.400 C 125.240 386.400,125.600 386.580,125.600 386.800 C 125.600 387.020,126.050 387.200,126.600 387.200 C 127.150 387.200,127.600 387.380,127.600 387.600 C 127.600 387.820,127.960 388.000,128.400 388.000 C 128.840 388.000,129.200 388.180,129.200 388.400 C 129.200 388.620,129.740 388.800,130.400 388.800 C 131.060 388.800,131.600 388.980,131.600 389.200 C 131.600 389.420,132.140 389.600,132.800 389.600 C 133.460 389.600,134.000 389.780,134.000 390.000 C 134.000 390.220,134.540 390.400,135.200 390.400 C 135.860 390.400,136.400 390.562,136.400 390.761 C 136.400 390.959,137.480 391.247,138.800 391.400 C 140.120 391.553,141.200 391.841,141.200 392.039 C 141.200 392.238,141.830 392.400,142.600 392.400 C 143.370 392.400,144.000 392.580,144.000 392.800 C 144.000 393.020,144.540 393.200,145.200 393.200 C 145.860 393.200,146.400 393.380,146.400 393.600 C 146.400 393.820,147.120 394.000,148.000 394.000 C 148.880 394.000,149.600 394.180,149.600 394.400 C 149.600 394.620,150.320 394.800,151.200 394.800 C 152.080 394.800,152.800 394.980,152.800 395.200 C 152.800 395.420,153.700 395.600,154.800 395.600 C 155.900 395.600,156.800 395.780,156.800 396.000 C 156.800 396.220,157.520 396.400,158.400 396.400 C 159.280 396.400,160.000 396.580,160.000 396.800 C 160.000 397.020,160.990 397.200,162.200 397.200 C 163.410 397.200,164.400 397.380,164.400 397.600 C 164.400 397.820,165.300 398.000,166.400 398.000 C 167.500 398.000,168.400 398.180,168.400 398.400 C 168.400 398.633,169.722 398.800,171.567 398.800 C 173.744 398.800,174.785 398.956,174.900 399.300 C 175.144 400.032,224.856 400.032,225.100 399.300 C 225.215 398.956,226.256 398.800,228.433 398.800 C 230.278 398.800,231.600 398.633,231.600 398.400 C 231.600 398.180,232.500 398.000,233.600 398.000 C 234.700 398.000,235.600 397.820,235.600 397.600 C 235.600 397.378,236.667 397.200,238.000 397.200 C 239.333 397.200,240.400 397.022,240.400 396.800 C 240.400 396.580,241.030 396.400,241.800 396.400 C 242.570 396.400,243.200 396.220,243.200 396.000 C 243.200 395.780,244.100 395.600,245.200 395.600 C 246.300 395.600,247.200 395.420,247.200 395.200 C 247.200 394.980,247.920 394.800,248.800 394.800 C 249.680 394.800,250.400 394.620,250.400 394.400 C 250.400 394.180,251.120 394.000,252.000 394.000 C 252.880 394.000,253.600 393.820,253.600 393.600 C 253.600 393.380,254.140 393.200,254.800 393.200 C 255.460 393.200,256.000 393.020,256.000 392.800 C 256.000 392.580,256.630 392.400,257.400 392.400 C 258.170 392.400,258.800 392.238,258.800 392.039 C 258.800 391.841,259.880 391.553,261.200 391.400 C 262.520 391.247,263.600 390.959,263.600 390.761 C 263.600 390.562,264.140 390.400,264.800 390.400 C 265.460 390.400,266.000 390.220,266.000 390.000 C 266.000 389.780,266.540 389.600,267.200 389.600 C 267.860 389.600,268.400 389.420,268.400 389.200 C 268.400 388.980,268.940 388.800,269.600 388.800 C 270.260 388.800,270.800 388.620,270.800 388.400 C 270.800 388.180,271.160 388.000,271.600 388.000 C 272.040 388.000,272.400 387.820,272.400 387.600 C 272.400 387.380,272.940 387.200,273.600 387.200 C 274.260 387.200,274.800 387.020,274.800 386.800 C 274.800 386.580,275.070 386.400,275.400 386.400 C 275.730 386.400,276.000 386.220,276.000 386.000 C 276.000 385.780,276.540 385.600,277.200 385.600 C 277.860 385.600,278.400 385.420,278.400 385.200 C 278.400 384.980,278.760 384.800,279.200 384.800 C 279.640 384.800,280.000 384.620,280.000 384.400 C 280.000 384.180,280.360 384.000,280.800 384.000 C 281.240 384.000,281.600 383.820,281.600 383.600 C 281.600 383.380,281.960 383.200,282.400 383.200 C 282.840 383.200,283.200 383.020,283.200 382.800 C 283.200 382.580,283.740 382.400,284.400 382.400 C 285.060 382.400,285.600 382.220,285.600 382.000 C 285.600 381.780,285.960 381.600,286.400 381.600 C 286.840 381.600,287.200 381.420,287.200 381.200 C 287.200 380.980,287.560 380.800,288.000 380.800 C 288.440 380.800,288.800 380.620,288.800 380.400 C 288.800 380.180,289.160 380.000,289.600 380.000 C 290.040 380.000,290.400 379.820,290.400 379.600 C 290.400 379.380,290.670 379.200,291.000 379.200 C 291.330 379.200,291.600 379.020,291.600 378.800 C 291.600 378.580,291.960 378.400,292.400 378.400 C 292.840 378.400,293.200 378.220,293.200 378.000 C 293.200 377.780,293.560 377.600,294.000 377.600 C 294.440 377.600,294.800 377.420,294.800 377.200 C 294.800 376.980,295.120 376.800,295.512 376.800 C 295.903 376.800,296.475 376.450,296.783 376.023 C 297.091 375.596,298.031 375.130,298.872 374.988 C 299.712 374.846,300.400 374.566,300.400 374.365 C 300.400 374.164,300.720 374.000,301.112 374.000 C 301.503 374.000,302.083 373.640,302.400 373.200 C 302.717 372.760,303.297 372.400,303.688 372.400 C 304.080 372.400,304.400 372.220,304.400 372.000 C 304.400 371.780,304.720 371.600,305.112 371.600 C 305.503 371.600,306.083 371.240,306.400 370.800 C 306.717 370.360,307.285 370.000,307.661 370.000 C 308.038 370.000,308.460 369.640,308.600 369.200 C 308.740 368.760,309.162 368.400,309.539 368.400 C 309.915 368.400,310.483 368.040,310.800 367.600 C 311.117 367.160,311.657 366.800,312.000 366.800 C 312.343 366.800,312.883 366.440,313.200 366.000 C 313.517 365.560,314.057 365.200,314.400 365.200 C 314.743 365.200,315.283 364.840,315.600 364.400 C 315.917 363.960,316.425 363.600,316.728 363.600 C 317.031 363.600,317.783 363.060,318.400 362.400 C 319.017 361.740,319.737 361.200,320.000 361.200 C 320.263 361.200,320.983 360.660,321.600 360.000 C 322.217 359.340,322.986 358.800,323.310 358.800 C 323.633 358.800,324.436 358.170,325.094 357.400 C 325.752 356.630,326.505 356.000,326.767 356.000 C 327.030 356.000,328.304 354.920,329.600 353.600 C 330.896 352.280,332.151 351.200,332.391 351.200 C 332.630 351.200,334.806 349.175,337.226 346.700 C 342.510 341.297,341.297 342.510,346.700 337.226 C 349.175 334.806,351.200 332.630,351.200 332.391 C 351.200 332.151,352.280 330.896,353.600 329.600 C 354.920 328.304,356.000 327.030,356.000 326.767 C 356.000 326.505,356.630 325.752,357.400 325.094 C 358.170 324.436,358.800 323.633,358.800 323.310 C 358.800 322.986,359.340 322.217,360.000 321.600 C 360.660 320.983,361.200 320.263,361.200 320.000 C 361.200 319.737,361.740 319.017,362.400 318.400 C 363.060 317.783,363.600 317.031,363.600 316.728 C 363.600 316.425,363.960 315.917,364.400 315.600 C 364.840 315.283,365.200 314.743,365.200 314.400 C 365.200 314.057,365.560 313.517,366.000 313.200 C 366.440 312.883,366.800 312.343,366.800 312.000 C 366.800 311.657,367.160 311.117,367.600 310.800 C 368.040 310.483,368.400 309.915,368.400 309.539 C 368.400 309.162,368.760 308.740,369.200 308.600 C 369.640 308.460,370.000 308.038,370.000 307.661 C 370.000 307.285,370.360 306.717,370.800 306.400 C 371.240 306.083,371.600 305.503,371.600 305.112 C 371.600 304.720,371.780 304.400,372.000 304.400 C 372.220 304.400,372.400 304.080,372.400 303.688 C 372.400 303.297,372.760 302.717,373.200 302.400 C 373.640 302.083,374.000 301.503,374.000 301.112 C 374.000 300.720,374.164 300.400,374.365 300.400 C 374.566 300.400,374.846 299.712,374.988 298.872 C 375.130 298.031,375.596 297.091,376.023 296.783 C 376.450 296.475,376.800 295.903,376.800 295.512 C 376.800 295.120,376.980 294.800,377.200 294.800 C 377.420 294.800,377.600 294.440,377.600 294.000 C 377.600 293.560,377.780 293.200,378.000 293.200 C 378.220 293.200,378.400 292.840,378.400 292.400 C 378.400 291.960,378.580 291.600,378.800 291.600 C 379.020 291.600,379.200 291.330,379.200 291.000 C 379.200 290.670,379.380 290.400,379.600 290.400 C 379.820 290.400,380.000 290.040,380.000 289.600 C 380.000 289.160,380.180 288.800,380.400 288.800 C 380.620 288.800,380.800 288.440,380.800 288.000 C 380.800 287.560,380.980 287.200,381.200 287.200 C 381.420 287.200,381.600 286.840,381.600 286.400 C 381.600 285.960,381.780 285.600,382.000 285.600 C 382.220 285.600,382.400 285.060,382.400 284.400 C 382.400 283.740,382.580 283.200,382.800 283.200 C 383.020 283.200,383.200 282.840,383.200 282.400 C 383.200 281.960,383.380 281.600,383.600 281.600 C 383.820 281.600,384.000 281.240,384.000 280.800 C 384.000 280.360,384.180 280.000,384.400 280.000 C 384.620 280.000,384.800 279.640,384.800 279.200 C 384.800 278.760,384.980 278.400,385.200 278.400 C 385.420 278.400,385.600 277.860,385.600 277.200 C 385.600 276.540,385.780 276.000,386.000 276.000 C 386.220 276.000,386.400 275.730,386.400 275.400 C 386.400 275.070,386.580 274.800,386.800 274.800 C 387.020 274.800,387.200 274.260,387.200 273.600 C 387.200 272.940,387.380 272.400,387.600 272.400 C 387.820 272.400,388.000 272.040,388.000 271.600 C 388.000 271.160,388.180 270.800,388.400 270.800 C 388.620 270.800,388.800 270.260,388.800 269.600 C 388.800 268.940,388.980 268.400,389.200 268.400 C 389.420 268.400,389.600 267.860,389.600 267.200 C 389.600 266.540,389.780 266.000,390.000 266.000 C 390.220 266.000,390.400 265.460,390.400 264.800 C 390.400 264.140,390.562 263.600,390.761 263.600 C 390.959 263.600,391.247 262.520,391.400 261.200 C 391.553 259.880,391.841 258.800,392.039 258.800 C 392.238 258.800,392.400 258.170,392.400 257.400 C 392.400 256.630,392.580 256.000,392.800 256.000 C 393.020 256.000,393.200 255.460,393.200 254.800 C 393.200 254.140,393.380 253.600,393.600 253.600 C 393.820 253.600,394.000 252.880,394.000 252.000 C 394.000 251.120,394.180 250.400,394.400 250.400 C 394.620 250.400,394.800 249.680,394.800 248.800 C 394.800 247.920,394.980 247.200,395.200 247.200 C 395.420 247.200,395.600 246.300,395.600 245.200 C 395.600 244.100,395.780 243.200,396.000 243.200 C 396.220 243.200,396.400 242.570,396.400 241.800 C 396.400 241.030,396.580 240.400,396.800 240.400 C 397.022 240.400,397.200 239.333,397.200 238.000 C 397.200 236.667,397.378 235.600,397.600 235.600 C 397.820 235.600,398.000 234.700,398.000 233.600 C 398.000 232.500,398.180 231.600,398.400 231.600 C 398.633 231.600,398.800 230.278,398.800 228.433 C 398.800 226.256,398.956 225.215,399.300 225.100 C 399.693 224.969,399.800 219.591,399.800 200.000 C 399.800 180.409,399.693 175.031,399.300 174.900 C 398.956 174.785,398.800 173.744,398.800 171.567 C 398.800 169.722,398.633 168.400,398.400 168.400 C 398.180 168.400,398.000 167.500,398.000 166.400 C 398.000 165.300,397.820 164.400,397.600 164.400 C 397.380 164.400,397.200 163.410,397.200 162.200 C 397.200 160.990,397.020 160.000,396.800 160.000 C 396.580 160.000,396.400 159.280,396.400 158.400 C 396.400 157.520,396.220 156.800,396.000 156.800 C 395.780 156.800,395.600 155.900,395.600 154.800 C 395.600 153.700,395.420 152.800,395.200 152.800 C 394.980 152.800,394.800 152.080,394.800 151.200 C 394.800 150.320,394.620 149.600,394.400 149.600 C 394.180 149.600,394.000 148.880,394.000 148.000 C 394.000 147.120,393.820 146.400,393.600 146.400 C 393.380 146.400,393.200 145.860,393.200 145.200 C 393.200 144.540,393.020 144.000,392.800 144.000 C 392.580 144.000,392.400 143.370,392.400 142.600 C 392.400 141.830,392.238 141.200,392.039 141.200 C 391.841 141.200,391.553 140.120,391.400 138.800 C 391.247 137.480,390.959 136.400,390.761 136.400 C 390.562 136.400,390.400 135.860,390.400 135.200 C 390.400 134.540,390.220 134.000,390.000 134.000 C 389.780 134.000,389.600 133.460,389.600 132.800 C 389.600 132.140,389.420 131.600,389.200 131.600 C 388.980 131.600,388.800 131.060,388.800 130.400 C 388.800 129.740,388.620 129.200,388.400 129.200 C 388.180 129.200,388.000 128.840,388.000 128.400 C 388.000 127.960,387.820 127.600,387.600 127.600 C 387.380 127.600,387.200 127.150,387.200 126.600 C 387.200 126.050,387.020 125.600,386.800 125.600 C 386.580 125.600,386.400 125.240,386.400 124.800 C 386.400 124.360,386.220 124.000,386.000 124.000 C 385.780 124.000,385.600 123.460,385.600 122.800 C 385.600 122.140,385.420 121.600,385.200 121.600 C 384.980 121.600,384.800 121.240,384.800 120.800 C 384.800 120.360,384.620 120.000,384.400 120.000 C 384.180 120.000,384.000 119.640,384.000 119.200 C 384.000 118.760,383.820 118.400,383.600 118.400 C 383.380 118.400,383.200 118.040,383.200 117.600 C 383.200 117.160,383.020 116.800,382.800 116.800 C 382.580 116.800,382.400 116.260,382.400 115.600 C 382.400 114.940,382.220 114.400,382.000 114.400 C 381.780 114.400,381.600 114.040,381.600 113.600 C 381.600 113.160,381.420 112.800,381.200 112.800 C 380.980 112.800,380.800 112.440,380.800 112.000 C 380.800 111.560,380.620 111.200,380.400 111.200 C 380.180 111.200,380.000 110.930,380.000 110.600 C 380.000 110.270,379.820 110.000,379.600 110.000 C 379.380 110.000,379.200 109.640,379.200 109.200 C 379.200 108.760,379.020 108.400,378.800 108.400 C 378.580 108.400,378.400 108.040,378.400 107.600 C 378.400 107.160,378.220 106.800,378.000 106.800 C 377.780 106.800,377.600 106.440,377.600 106.000 C 377.600 105.560,377.420 105.200,377.200 105.200 C 376.980 105.200,376.800 104.880,376.800 104.488 C 376.800 104.097,376.450 103.525,376.023 103.217 C 375.596 102.909,375.130 101.969,374.988 101.128 C 374.846 100.288,374.566 99.600,374.365 99.600 C 374.164 99.600,374.000 99.280,374.000 98.888 C 374.000 98.497,373.640 97.917,373.200 97.600 C 372.760 97.283,372.400 96.703,372.400 96.312 C 372.400 95.920,372.220 95.600,372.000 95.600 C 371.780 95.600,371.600 95.252,371.600 94.827 C 371.600 94.402,371.240 93.940,370.800 93.800 C 370.360 93.660,370.000 93.238,370.000 92.861 C 370.000 92.485,369.640 91.917,369.200 91.600 C 368.760 91.283,368.400 90.743,368.400 90.400 C 368.400 90.057,368.040 89.517,367.600 89.200 C 367.160 88.883,366.800 88.343,366.800 88.000 C 366.800 87.657,366.440 87.117,366.000 86.800 C 365.560 86.483,365.200 85.943,365.200 85.600 C 365.200 85.257,364.840 84.717,364.400 84.400 C 363.960 84.083,363.600 83.575,363.600 83.272 C 363.600 82.969,363.060 82.217,362.400 81.600 C 361.740 80.983,361.200 80.263,361.200 80.000 C 361.200 79.737,360.660 79.017,360.000 78.400 C 359.340 77.783,358.800 77.087,358.800 76.853 C 358.800 76.618,358.170 75.797,357.400 75.027 C 356.630 74.257,356.000 73.431,356.000 73.191 C 356.000 72.952,354.920 71.696,353.600 70.400 C 352.280 69.104,351.200 67.847,351.200 67.607 C 351.200 67.366,349.535 65.556,347.500 63.585 C 342.992 59.218,342.700 58.926,337.214 53.300 C 334.800 50.825,332.630 48.800,332.391 48.800 C 332.151 48.800,330.924 47.749,329.664 46.465 C 328.403 45.181,326.883 44.007,326.286 43.857 C 325.689 43.707,325.200 43.436,325.200 43.254 C 325.200 42.707,323.743 41.200,323.214 41.200 C 322.943 41.200,322.217 40.660,321.600 40.000 C 320.983 39.340,320.263 38.800,320.000 38.800 C 319.737 38.800,319.017 38.260,318.400 37.600 C 317.783 36.940,317.031 36.400,316.728 36.400 C 316.425 36.400,315.917 36.040,315.600 35.600 C 315.283 35.160,314.743 34.800,314.400 34.800 C 314.057 34.800,313.517 34.440,313.200 34.000 C 312.883 33.560,312.343 33.200,312.000 33.200 C 311.657 33.200,311.117 32.840,310.800 32.400 C 310.483 31.960,309.915 31.600,309.539 31.600 C 309.162 31.600,308.740 31.240,308.600 30.800 C 308.460 30.360,308.038 30.000,307.661 30.000 C 307.285 30.000,306.717 29.640,306.400 29.200 C 306.083 28.760,305.503 28.400,305.112 28.400 C 304.720 28.400,304.400 28.220,304.400 28.000 C 304.400 27.780,304.053 27.600,303.629 27.600 C 303.204 27.600,302.587 27.330,302.257 27.000 C 301.927 26.670,301.374 26.400,301.029 26.400 C 300.683 26.400,300.400 26.220,300.400 26.000 C 300.400 25.780,300.040 25.600,299.600 25.600 C 299.160 25.600,298.800 25.420,298.800 25.200 C 298.800 24.980,298.480 24.800,298.088 24.800 C 297.697 24.800,297.117 24.440,296.800 24.000 C 296.483 23.560,295.903 23.200,295.512 23.200 C 295.120 23.200,294.800 23.020,294.800 22.800 C 294.800 22.580,294.440 22.400,294.000 22.400 C 293.560 22.400,293.200 22.220,293.200 22.000 C 293.200 21.780,292.840 21.600,292.400 21.600 C 291.960 21.600,291.600 21.420,291.600 21.200 C 291.600 20.980,291.330 20.800,291.000 20.800 C 290.670 20.800,290.400 20.620,290.400 20.400 C 290.400 20.180,290.040 20.000,289.600 20.000 C 289.160 20.000,288.800 19.820,288.800 19.600 C 288.800 19.380,288.440 19.200,288.000 19.200 C 287.560 19.200,287.200 19.020,287.200 18.800 C 287.200 18.580,286.840 18.400,286.400 18.400 C 285.960 18.400,285.600 18.220,285.600 18.000 C 285.600 17.780,285.060 17.600,284.400 17.600 C 283.740 17.600,283.200 17.420,283.200 17.200 C 283.200 16.980,282.840 16.800,282.400 16.800 C 281.960 16.800,281.600 16.620,281.600 16.400 C 281.600 16.180,281.240 16.000,280.800 16.000 C 280.360 16.000,280.000 15.820,280.000 15.600 C 280.000 15.380,279.640 15.200,279.200 15.200 C 278.760 15.200,278.400 15.020,278.400 14.800 C 278.400 14.580,277.860 14.400,277.200 14.400 C 276.540 14.400,276.000 14.220,276.000 14.000 C 276.000 13.780,275.730 13.600,275.400 13.600 C 275.070 13.600,274.800 13.420,274.800 13.200 C 274.800 12.980,274.260 12.800,273.600 12.800 C 272.940 12.800,272.400 12.620,272.400 12.400 C 272.400 12.180,272.040 12.000,271.600 12.000 C 271.160 12.000,270.800 11.820,270.800 11.600 C 270.800 11.380,270.260 11.200,269.600 11.200 C 268.940 11.200,268.400 11.038,268.400 10.839 C 268.400 10.641,267.320 10.353,266.000 10.200 C 264.680 10.047,263.600 9.759,263.600 9.561 C 263.600 9.362,263.060 9.200,262.400 9.200 C 261.740 9.200,261.200 9.020,261.200 8.800 C 261.200 8.580,260.660 8.400,260.000 8.400 C 259.340 8.400,258.800 8.220,258.800 8.000 C 258.800 7.780,258.170 7.600,257.400 7.600 C 256.630 7.600,256.000 7.420,256.000 7.200 C 256.000 6.980,255.460 6.800,254.800 6.800 C 254.140 6.800,253.600 6.620,253.600 6.400 C 253.600 6.180,252.880 6.000,252.000 6.000 C 251.120 6.000,250.400 5.820,250.400 5.600 C 250.400 5.380,249.680 5.200,248.800 5.200 C 247.920 5.200,247.200 5.020,247.200 4.800 C 247.200 4.580,246.300 4.400,245.200 4.400 C 244.100 4.400,243.200 4.220,243.200 4.000 C 243.200 3.780,242.570 3.600,241.800 3.600 C 241.030 3.600,240.400 3.420,240.400 3.200 C 240.400 2.978,239.333 2.800,238.000 2.800 C 236.667 2.800,235.600 2.622,235.600 2.400 C 235.600 2.180,234.700 2.000,233.600 2.000 C 232.500 2.000,231.600 1.820,231.600 1.600 C 231.600 1.367,230.278 1.200,228.433 1.200 C 226.327 1.200,225.213 1.039,225.107 0.720 C 224.948 0.244,188.291 -0.109,178.700 0.273 M166.000 110.400 C 166.000 110.840,166.180 111.200,166.400 111.200 C 166.620 111.200,166.800 111.560,166.800 112.000 C 166.800 112.440,166.980 112.800,167.200 112.800 C 167.420 112.800,167.600 113.160,167.600 113.600 C 167.600 114.222,167.333 114.400,166.400 114.400 C 165.740 114.400,165.200 114.580,165.200 114.800 C 165.200 115.020,164.480 115.200,163.600 115.200 C 162.720 115.200,162.000 115.380,162.000 115.600 C 162.000 115.820,161.370 116.000,160.600 116.000 C 159.830 116.000,159.200 116.180,159.200 116.400 C 159.200 116.620,158.660 116.800,158.000 116.800 C 157.340 116.800,156.800 116.980,156.800 117.200 C 156.800 117.420,156.260 117.600,155.600 117.600 C 154.940 117.600,154.400 117.780,154.400 118.000 C 154.400 118.220,153.860 118.400,153.200 118.400 C 152.540 118.400,152.000 118.580,152.000 118.800 C 152.000 119.020,151.640 119.200,151.200 119.200 C 150.760 119.200,150.400 119.380,150.400 119.600 C 150.400 119.820,149.860 120.000,149.200 120.000 C 148.540 120.000,148.000 120.180,148.000 120.400 C 148.000 120.620,147.640 120.800,147.200 120.800 C 146.760 120.800,146.400 120.980,146.400 121.200 C 146.400 121.420,146.040 121.600,145.600 121.600 C 145.160 121.600,144.800 121.780,144.800 122.000 C 144.800 122.220,144.530 122.400,144.200 122.400 C 143.870 122.400,143.600 122.580,143.600 122.800 C 143.600 123.020,143.240 123.200,142.800 123.200 C 142.360 123.200,142.000 123.380,142.000 123.600 C 142.000 123.820,141.640 124.000,141.200 124.000 C 140.760 124.000,140.400 124.180,140.400 124.400 C 140.400 124.620,140.040 124.800,139.600 124.800 C 139.160 124.800,138.800 124.980,138.800 125.200 C 138.800 125.420,138.440 125.600,138.000 125.600 C 137.560 125.600,137.200 125.780,137.200 126.000 C 137.200 126.220,136.917 126.400,136.571 126.400 C 136.226 126.400,135.673 126.670,135.343 127.000 C 135.013 127.330,134.396 127.600,133.971 127.600 C 133.547 127.600,133.200 127.780,133.200 128.000 C 133.200 128.220,132.880 128.400,132.488 128.400 C 132.097 128.400,131.517 128.760,131.200 129.200 C 130.883 129.640,130.343 130.000,130.000 130.000 C 129.657 130.000,129.117 130.360,128.800 130.800 C 128.483 131.240,128.065 131.600,127.872 131.600 C 127.679 131.600,127.017 132.140,126.400 132.800 C 125.783 133.460,125.067 134.000,124.808 134.000 C 124.549 134.000,123.646 134.720,122.800 135.600 C 121.954 136.480,121.057 137.200,120.805 137.200 C 120.554 137.200,119.471 138.100,118.400 139.200 C 117.329 140.300,116.247 141.200,115.997 141.200 C 115.422 141.200,114.400 142.206,114.400 142.771 C 114.400 143.007,114.940 143.200,115.600 143.200 C 116.260 143.200,116.800 143.020,116.800 142.800 C 116.800 142.580,117.160 142.400,117.600 142.400 C 118.040 142.400,118.400 142.236,118.400 142.035 C 118.400 141.834,119.120 141.549,120.000 141.400 C 120.880 141.251,121.601 141.011,121.603 140.865 C 121.607 140.533,123.581 139.600,124.280 139.600 C 124.566 139.600,124.800 139.420,124.800 139.200 C 124.800 138.980,125.070 138.800,125.400 138.800 C 125.730 138.800,126.000 138.620,126.000 138.400 C 126.000 138.180,126.360 138.000,126.800 138.000 C 127.240 138.000,127.600 137.820,127.600 137.600 C 127.600 137.380,128.140 137.200,128.800 137.200 C 129.460 137.200,130.000 137.020,130.000 136.800 C 130.000 136.580,130.360 136.400,130.800 136.400 C 131.240 136.400,131.600 136.220,131.600 136.000 C 131.600 135.780,131.960 135.600,132.400 135.600 C 132.840 135.600,133.200 135.420,133.200 135.200 C 133.200 134.980,133.560 134.800,134.000 134.800 C 134.440 134.800,134.800 134.620,134.800 134.400 C 134.800 134.180,135.340 134.000,136.000 134.000 C 136.660 134.000,137.200 133.820,137.200 133.600 C 137.200 133.380,137.560 133.200,138.000 133.200 C 138.440 133.200,138.800 133.020,138.800 132.800 C 138.800 132.580,139.160 132.400,139.600 132.400 C 140.040 132.400,140.400 132.220,140.400 132.000 C 140.400 131.780,140.850 131.600,141.400 131.600 C 141.950 131.600,142.400 131.420,142.400 131.200 C 142.400 130.980,142.940 130.800,143.600 130.800 C 144.260 130.800,144.800 130.620,144.800 130.400 C 144.800 130.180,145.340 130.000,146.000 130.000 C 146.660 130.000,147.200 129.820,147.200 129.600 C 147.200 129.380,147.560 129.200,148.000 129.200 C 148.440 129.200,148.800 129.020,148.800 128.800 C 148.800 128.580,149.340 128.400,150.000 128.400 C 150.660 128.400,151.200 128.220,151.200 128.000 C 151.200 127.780,151.920 127.600,152.800 127.600 C 153.680 127.600,154.400 127.420,154.400 127.200 C 154.400 126.980,154.940 126.800,155.600 126.800 C 156.260 126.800,156.800 126.620,156.800 126.400 C 156.800 126.180,157.430 126.000,158.200 126.000 C 158.970 126.000,159.600 125.834,159.600 125.630 C 159.600 125.427,161.220 125.133,163.200 124.978 C 165.180 124.824,166.800 124.540,166.800 124.348 C 166.800 124.157,167.700 124.000,168.800 124.000 C 169.900 124.000,170.800 123.820,170.800 123.600 C 170.800 123.374,171.933 123.200,173.400 123.200 C 174.867 123.200,176.000 123.026,176.000 122.800 C 176.000 122.563,177.467 122.400,179.600 122.400 C 181.733 122.400,183.200 122.237,183.200 122.000 C 183.200 121.747,186.067 121.600,191.000 121.600 C 195.933 121.600,198.800 121.453,198.800 121.200 C 198.800 120.980,199.520 120.800,200.400 120.800 C 201.280 120.800,202.000 120.980,202.000 121.200 C 202.000 121.453,204.867 121.600,209.800 121.600 C 214.733 121.600,217.600 121.747,217.600 122.000 C 217.600 122.233,218.933 122.400,220.800 122.400 C 222.667 122.400,224.000 122.567,224.000 122.800 C 224.000 123.026,225.133 123.200,226.600 123.200 C 228.067 123.200,229.200 123.374,229.200 123.600 C 229.200 123.820,230.100 124.000,231.200 124.000 C 232.300 124.000,233.200 124.157,233.200 124.348 C 233.200 124.540,234.820 124.824,236.800 124.978 C 238.780 125.133,240.400 125.427,240.400 125.630 C 240.400 125.834,241.120 126.000,242.000 126.000 C 242.880 126.000,243.600 126.180,243.600 126.400 C 243.600 126.620,244.230 126.800,245.000 126.800 C 245.770 126.800,246.400 126.980,246.400 127.200 C 246.400 127.420,246.940 127.600,247.600 127.600 C 248.260 127.600,248.800 127.780,248.800 128.000 C 248.800 128.220,249.340 128.400,250.000 128.400 C 250.660 128.400,251.200 128.580,251.200 128.800 C 251.200 129.020,251.740 129.200,252.400 129.200 C 253.060 129.200,253.600 129.380,253.600 129.600 C 253.600 129.820,253.960 130.000,254.400 130.000 C 254.840 130.000,255.200 130.180,255.200 130.400 C 255.200 130.620,255.740 130.800,256.400 130.800 C 257.060 130.800,257.600 130.980,257.600 131.200 C 257.600 131.420,258.140 131.600,258.800 131.600 C 259.460 131.600,260.000 131.780,260.000 132.000 C 260.000 132.220,260.270 132.400,260.600 132.400 C 260.930 132.400,261.200 132.580,261.200 132.800 C 261.200 133.020,261.740 133.200,262.400 133.200 C 263.060 133.200,263.600 133.380,263.600 133.600 C 263.600 133.820,263.960 134.000,264.400 134.000 C 264.840 134.000,265.200 134.180,265.200 134.400 C 265.200 134.620,265.560 134.800,266.000 134.800 C 266.440 134.800,266.800 134.980,266.800 135.200 C 266.800 135.420,267.340 135.600,268.000 135.600 C 268.660 135.600,269.200 135.780,269.200 136.000 C 269.200 136.220,269.560 136.400,270.000 136.400 C 270.440 136.400,270.800 136.580,270.800 136.800 C 270.800 137.020,271.160 137.200,271.600 137.200 C 272.040 137.200,272.400 137.380,272.400 137.600 C 272.400 137.820,272.760 138.000,273.200 138.000 C 273.640 138.000,274.000 138.180,274.000 138.400 C 274.000 138.620,274.360 138.800,274.800 138.800 C 275.240 138.800,275.600 138.980,275.600 139.200 C 275.600 139.420,275.960 139.600,276.400 139.600 C 276.840 139.600,277.200 139.738,277.200 139.906 C 277.200 140.277,280.169 141.600,281.003 141.600 C 281.331 141.600,281.600 141.780,281.600 142.000 C 281.600 142.220,281.960 142.400,282.400 142.400 C 282.840 142.400,283.200 142.580,283.200 142.800 C 283.200 143.020,283.740 143.200,284.400 143.200 C 285.060 143.200,285.600 143.012,285.600 142.782 C 285.600 142.227,283.756 140.400,283.196 140.400 C 282.954 140.400,281.696 139.320,280.400 138.000 C 279.104 136.680,277.837 135.600,277.583 135.600 C 277.329 135.600,276.617 135.060,276.000 134.400 C 275.383 133.740,274.753 133.200,274.600 133.200 C 274.447 133.200,273.817 132.660,273.200 132.000 C 272.583 131.340,271.831 130.800,271.528 130.800 C 271.225 130.800,270.717 130.440,270.400 130.000 C 270.083 129.560,269.569 129.200,269.259 129.200 C 268.948 129.200,268.403 128.864,268.047 128.454 C 267.691 128.043,266.770 127.569,266.000 127.400 C 265.230 127.231,264.309 126.757,263.953 126.346 C 263.597 125.936,263.012 125.600,262.653 125.600 C 262.294 125.600,262.000 125.420,262.000 125.200 C 262.000 124.980,261.640 124.800,261.200 124.800 C 260.760 124.800,260.400 124.620,260.400 124.400 C 260.400 124.180,260.040 124.000,259.600 124.000 C 259.160 124.000,258.800 123.820,258.800 123.600 C 258.800 123.380,258.530 123.200,258.200 123.200 C 257.870 123.200,257.600 123.020,257.600 122.800 C 257.600 122.580,257.060 122.400,256.400 122.400 C 255.740 122.400,255.200 122.220,255.200 122.000 C 255.200 121.780,254.840 121.600,254.400 121.600 C 253.960 121.600,253.600 121.420,253.600 121.200 C 253.600 120.980,253.240 120.800,252.800 120.800 C 252.360 120.800,252.000 120.620,252.000 120.400 C 252.000 120.180,251.460 120.000,250.800 120.000 C 250.140 120.000,249.600 119.820,249.600 119.600 C 249.600 119.380,249.240 119.200,248.800 119.200 C 248.360 119.200,248.000 119.020,248.000 118.800 C 248.000 118.580,247.460 118.400,246.800 118.400 C 246.140 118.400,245.600 118.220,245.600 118.000 C 245.600 117.780,245.060 117.600,244.400 117.600 C 243.740 117.600,243.200 117.420,243.200 117.200 C 243.200 116.980,242.750 116.800,242.200 116.800 C 241.650 116.800,241.200 116.620,241.200 116.400 C 241.200 116.180,240.480 116.000,239.600 116.000 C 238.720 116.000,238.000 115.820,238.000 115.600 C 238.000 115.380,237.280 115.200,236.400 115.200 C 235.520 115.200,234.800 115.020,234.800 114.800 C 234.800 114.580,234.260 114.400,233.600 114.400 C 232.940 114.400,232.400 114.220,232.400 114.000 C 232.400 113.780,232.580 113.600,232.800 113.600 C 233.020 113.600,233.200 113.240,233.200 112.800 C 233.200 112.360,233.380 112.000,233.600 112.000 C 233.820 112.000,234.000 111.717,234.000 111.371 C 234.000 111.026,234.257 110.486,234.571 110.171 C 235.218 109.525,238.000 109.386,238.000 110.000 C 238.000 110.222,239.067 110.400,240.400 110.400 C 241.733 110.400,242.800 110.578,242.800 110.800 C 242.800 111.020,243.610 111.200,244.600 111.200 C 245.590 111.200,246.400 111.380,246.400 111.600 C 246.400 111.820,247.120 112.000,248.000 112.000 C 248.880 112.000,249.600 112.180,249.600 112.400 C 249.600 112.620,250.140 112.800,250.800 112.800 C 251.460 112.800,252.000 112.980,252.000 113.200 C 252.000 113.420,252.720 113.600,253.600 113.600 C 254.480 113.600,255.200 113.780,255.200 114.000 C 255.200 114.220,255.740 114.400,256.400 114.400 C 257.060 114.400,257.600 114.580,257.600 114.800 C 257.600 115.020,258.140 115.200,258.800 115.200 C 259.460 115.200,260.000 115.380,260.000 115.600 C 260.000 115.820,260.270 116.000,260.600 116.000 C 260.930 116.000,261.200 116.180,261.200 116.400 C 261.200 116.620,261.740 116.800,262.400 116.800 C 263.060 116.800,263.600 116.980,263.600 117.200 C 263.600 117.420,263.960 117.600,264.400 117.600 C 264.840 117.600,265.200 117.780,265.200 118.000 C 265.200 118.220,265.560 118.400,266.000 118.400 C 266.440 118.400,266.800 118.580,266.800 118.800 C 266.800 119.020,267.160 119.200,267.600 119.200 C 268.040 119.200,268.400 119.380,268.400 119.600 C 268.400 119.820,268.760 120.000,269.200 120.000 C 269.640 120.000,270.000 120.180,270.000 120.400 C 270.000 120.620,270.360 120.800,270.800 120.800 C 271.240 120.800,271.600 120.980,271.600 121.200 C 271.600 121.420,271.960 121.600,272.400 121.600 C 272.840 121.600,273.200 121.780,273.200 122.000 C 273.200 122.220,273.560 122.400,274.000 122.400 C 274.440 122.400,274.800 122.580,274.800 122.800 C 274.800 123.020,275.160 123.200,275.600 123.200 C 276.040 123.200,276.400 123.343,276.400 123.518 C 276.400 123.693,277.210 124.170,278.200 124.578 C 279.190 124.987,280.000 125.473,280.000 125.660 C 280.000 125.847,280.360 126.000,280.800 126.000 C 281.240 126.000,281.600 126.180,281.600 126.400 C 281.600 126.620,281.920 126.800,282.312 126.800 C 282.703 126.800,283.283 127.160,283.600 127.600 C 283.917 128.040,284.457 128.400,284.800 128.400 C 285.143 128.400,285.683 128.760,286.000 129.200 C 286.317 129.640,286.857 130.000,287.200 130.000 C 287.543 130.000,288.083 130.360,288.400 130.800 C 288.717 131.240,289.297 131.600,289.688 131.600 C 290.104 131.600,290.400 131.896,290.400 132.312 C 290.400 132.703,290.760 133.283,291.200 133.600 C 291.640 133.917,292.000 134.497,292.000 134.888 C 292.000 135.280,292.180 135.600,292.400 135.600 C 292.620 135.600,292.800 135.883,292.800 136.229 C 292.800 136.574,293.070 137.127,293.400 137.457 C 293.730 137.787,294.000 138.404,294.000 138.829 C 294.000 139.253,294.146 139.600,294.325 139.600 C 294.504 139.600,294.898 140.230,295.200 141.000 C 295.502 141.770,295.896 142.400,296.075 142.400 C 296.254 142.400,296.400 142.760,296.400 143.200 C 296.400 143.640,296.580 144.000,296.800 144.000 C 297.020 144.000,297.200 144.360,297.200 144.800 C 297.200 145.240,297.380 145.600,297.600 145.600 C 297.820 145.600,298.000 145.960,298.000 146.400 C 298.000 146.840,298.180 147.200,298.400 147.200 C 298.620 147.200,298.800 147.560,298.800 148.000 C 298.800 148.440,298.980 148.800,299.200 148.800 C 299.420 148.800,299.600 149.160,299.600 149.600 C 299.600 150.040,299.780 150.400,300.000 150.400 C 300.220 150.400,300.400 150.760,300.400 151.200 C 300.400 151.640,300.580 152.000,300.800 152.000 C 301.020 152.000,301.200 152.540,301.200 153.200 C 301.200 153.860,301.380 154.400,301.600 154.400 C 301.820 154.400,302.000 154.760,302.000 155.200 C 302.000 155.640,302.180 156.000,302.400 156.000 C 302.620 156.000,302.800 156.540,302.800 157.200 C 302.800 157.860,302.980 158.400,303.200 158.400 C 303.420 158.400,303.600 158.670,303.600 159.000 C 303.600 159.330,303.780 159.600,304.000 159.600 C 304.220 159.600,304.400 160.140,304.400 160.800 C 304.400 161.460,304.580 162.000,304.800 162.000 C 305.020 162.000,305.200 162.360,305.200 162.800 C 305.200 163.240,305.380 163.600,305.600 163.600 C 305.820 163.600,306.000 164.140,306.000 164.800 C 306.000 165.460,306.180 166.000,306.400 166.000 C 306.620 166.000,306.800 166.540,306.800 167.200 C 306.800 167.860,306.980 168.400,307.200 168.400 C 307.420 168.400,307.600 168.760,307.600 169.200 C 307.600 169.640,307.780 170.000,308.000 170.000 C 308.220 170.000,308.400 170.540,308.400 171.200 C 308.400 171.860,308.580 172.400,308.800 172.400 C 309.020 172.400,309.200 172.940,309.200 173.600 C 309.200 174.260,309.359 174.800,309.553 174.800 C 309.748 174.800,310.032 175.970,310.185 177.400 C 310.338 178.830,310.629 180.000,310.832 180.000 C 311.034 180.000,311.200 180.540,311.200 181.200 C 311.200 181.860,311.380 182.400,311.600 182.400 C 311.820 182.400,312.000 183.120,312.000 184.000 C 312.000 184.880,312.180 185.600,312.400 185.600 C 312.620 185.600,312.800 186.140,312.800 186.800 C 312.800 187.460,312.980 188.000,313.200 188.000 C 313.420 188.000,313.600 188.720,313.600 189.600 C 313.600 190.480,313.780 191.200,314.000 191.200 C 314.220 191.200,314.400 191.830,314.400 192.600 C 314.400 193.370,314.580 194.000,314.800 194.000 C 315.020 194.000,315.200 194.720,315.200 195.600 C 315.200 196.480,315.380 197.200,315.600 197.200 C 315.820 197.200,316.000 197.920,316.000 198.800 C 316.000 199.680,316.180 200.400,316.400 200.400 C 316.620 200.400,316.800 201.120,316.800 202.000 C 316.800 202.880,316.980 203.600,317.200 203.600 C 317.420 203.600,317.600 204.500,317.600 205.600 C 317.600 206.700,317.780 207.600,318.000 207.600 C 318.220 207.600,318.400 208.410,318.400 209.400 C 318.400 210.390,318.580 211.200,318.800 211.200 C 319.022 211.200,319.200 212.267,319.200 213.600 C 319.200 214.933,319.378 216.000,319.600 216.000 C 319.822 216.000,320.000 217.067,320.000 218.400 C 320.000 219.733,320.178 220.800,320.400 220.800 C 320.620 220.800,320.800 221.790,320.800 223.000 C 320.800 224.210,320.980 225.200,321.200 225.200 C 321.429 225.200,321.600 226.400,321.600 228.000 C 321.600 229.600,321.771 230.800,322.000 230.800 C 322.233 230.800,322.400 232.133,322.400 234.000 C 322.400 235.867,322.567 237.200,322.800 237.200 C 323.035 237.200,323.200 238.600,323.200 240.600 C 323.200 242.600,323.365 244.000,323.600 244.000 C 323.846 244.000,324.000 246.000,324.000 249.200 C 324.000 252.400,324.154 254.400,324.400 254.400 C 325.588 254.400,324.648 256.698,322.763 258.400 C 321.667 259.390,319.249 261.685,317.391 263.500 C 315.532 265.315,313.811 266.800,313.566 266.800 C 313.321 266.800,312.617 267.340,312.000 268.000 C 311.383 268.660,310.753 269.200,310.600 269.200 C 310.447 269.200,309.817 269.740,309.200 270.400 C 308.583 271.060,307.831 271.600,307.528 271.600 C 307.225 271.600,306.717 271.960,306.400 272.400 C 306.083 272.840,305.543 273.200,305.200 273.200 C 304.857 273.200,304.317 273.560,304.000 274.000 C 303.683 274.440,303.103 274.800,302.712 274.800 C 302.320 274.800,302.000 274.980,302.000 275.200 C 302.000 275.420,301.680 275.600,301.288 275.600 C 300.897 275.600,300.325 275.950,300.017 276.377 C 299.709 276.804,298.769 277.270,297.928 277.412 C 297.088 277.554,296.400 277.801,296.400 277.961 C 296.400 278.120,295.770 278.498,295.000 278.800 C 294.230 279.102,293.600 279.496,293.600 279.675 C 293.600 279.854,293.060 280.000,292.400 280.000 C 291.740 280.000,291.200 280.180,291.200 280.400 C 291.200 280.620,290.840 280.800,290.400 280.800 C 289.960 280.800,289.600 280.980,289.600 281.200 C 289.600 281.420,289.240 281.600,288.800 281.600 C 288.360 281.600,288.000 281.780,288.000 282.000 C 288.000 282.220,287.460 282.400,286.800 282.400 C 286.140 282.400,285.600 282.580,285.600 282.800 C 285.600 283.020,285.240 283.200,284.800 283.200 C 284.360 283.200,284.000 283.380,284.000 283.600 C 284.000 283.820,283.460 284.000,282.800 284.000 C 282.140 284.000,281.600 284.180,281.600 284.400 C 281.600 284.620,281.060 284.800,280.400 284.800 C 279.740 284.800,279.200 284.980,279.200 285.200 C 279.200 285.420,278.570 285.600,277.800 285.600 C 277.030 285.600,276.400 285.780,276.400 286.000 C 276.400 286.220,275.860 286.400,275.200 286.400 C 274.540 286.400,274.000 286.580,274.000 286.800 C 274.000 287.020,273.280 287.200,272.400 287.200 C 271.520 287.200,270.800 287.380,270.800 287.600 C 270.800 287.820,269.900 288.000,268.800 288.000 C 267.700 288.000,266.800 288.180,266.800 288.400 C 266.800 288.622,265.733 288.800,264.400 288.800 C 263.067 288.800,262.000 288.978,262.000 289.200 C 262.000 289.435,260.600 289.600,258.600 289.600 C 256.600 289.600,255.200 289.765,255.200 290.000 C 255.200 290.220,254.564 290.400,253.787 290.400 C 252.364 290.400,249.600 288.270,249.600 287.174 C 249.600 286.925,249.060 286.217,248.400 285.600 C 247.740 284.983,247.200 284.263,247.200 284.000 C 247.200 283.737,246.660 283.017,246.000 282.400 C 245.340 281.783,244.800 281.031,244.800 280.728 C 244.800 280.425,244.440 279.917,244.000 279.600 C 243.560 279.283,243.200 278.883,243.200 278.712 C 243.200 278.540,243.560 278.400,244.000 278.400 C 244.440 278.400,244.800 278.220,244.800 278.000 C 244.800 277.780,245.340 277.600,246.000 277.600 C 246.660 277.600,247.200 277.420,247.200 277.200 C 247.200 276.980,247.560 276.800,248.000 276.800 C 248.440 276.800,248.800 276.620,248.800 276.400 C 248.800 276.180,249.340 276.000,250.000 276.000 C 250.660 276.000,251.200 275.836,251.200 275.635 C 251.200 275.434,251.920 275.149,252.800 275.000 C 253.680 274.851,254.400 274.566,254.400 274.365 C 254.400 274.164,254.760 274.000,255.200 274.000 C 255.640 274.000,256.000 273.854,256.000 273.675 C 256.000 273.496,256.630 273.102,257.400 272.800 C 258.170 272.498,258.800 272.104,258.800 271.925 C 258.800 271.746,259.160 271.600,259.600 271.600 C 260.040 271.600,260.400 271.420,260.400 271.200 C 260.400 270.980,260.720 270.800,261.112 270.800 C 261.503 270.800,262.083 270.440,262.400 270.000 C 262.717 269.560,263.297 269.200,263.688 269.200 C 264.080 269.200,264.400 269.020,264.400 268.800 C 264.400 268.580,264.720 268.400,265.112 268.400 C 265.503 268.400,266.083 268.040,266.400 267.600 C 266.717 267.160,267.257 266.800,267.600 266.800 C 267.943 266.800,268.483 266.440,268.800 266.000 C 269.117 265.560,269.657 265.200,270.000 265.200 C 270.343 265.200,270.883 264.840,271.200 264.400 C 271.517 263.960,272.025 263.600,272.328 263.600 C 272.631 263.600,273.383 263.060,274.000 262.400 C 274.617 261.740,275.235 261.200,275.374 261.200 C 275.513 261.200,276.257 260.570,277.027 259.800 C 277.797 259.030,278.692 258.400,279.017 258.400 C 279.937 258.400,291.303 246.844,291.044 246.172 C 290.722 245.332,289.066 245.475,288.400 246.400 C 288.083 246.840,287.543 247.200,287.200 247.200 C 286.857 247.200,286.317 247.560,286.000 248.000 C 285.683 248.440,285.143 248.800,284.800 248.800 C 284.457 248.800,283.917 249.160,283.600 249.600 C 283.283 250.040,282.743 250.400,282.400 250.400 C 282.057 250.400,281.517 250.760,281.200 251.200 C 280.883 251.640,280.303 252.000,279.912 252.000 C 279.520 252.000,279.200 252.180,279.200 252.400 C 279.200 252.620,278.852 252.800,278.427 252.800 C 278.002 252.800,277.540 253.160,277.400 253.600 C 277.260 254.040,276.838 254.400,276.461 254.400 C 276.085 254.400,275.517 254.760,275.200 255.200 C 274.883 255.640,274.303 256.000,273.912 256.000 C 273.520 256.000,273.200 256.180,273.200 256.400 C 273.200 256.620,272.840 256.800,272.400 256.800 C 271.960 256.800,271.600 256.980,271.600 257.200 C 271.600 257.420,271.240 257.600,270.800 257.600 C 270.360 257.600,270.000 257.780,270.000 258.000 C 270.000 258.220,269.640 258.400,269.200 258.400 C 268.760 258.400,268.400 258.580,268.400 258.800 C 268.400 259.020,268.040 259.200,267.600 259.200 C 267.160 259.200,266.800 259.374,266.800 259.586 C 266.800 259.799,265.900 260.092,264.800 260.238 C 263.700 260.384,262.800 260.626,262.800 260.777 C 262.800 260.927,262.170 261.298,261.400 261.600 C 260.630 261.902,260.000 262.296,260.000 262.475 C 260.000 262.654,259.460 262.800,258.800 262.800 C 258.140 262.800,257.600 262.980,257.600 263.200 C 257.600 263.420,257.060 263.600,256.400 263.600 C 255.740 263.600,255.200 263.780,255.200 264.000 C 255.200 264.220,254.660 264.400,254.000 264.400 C 253.340 264.400,252.800 264.580,252.800 264.800 C 252.800 265.020,252.440 265.200,252.000 265.200 C 251.560 265.200,251.200 265.380,251.200 265.600 C 251.200 265.820,250.480 266.000,249.600 266.000 C 248.720 266.000,248.000 266.180,248.000 266.400 C 248.000 266.620,247.460 266.800,246.800 266.800 C 246.140 266.800,245.600 266.980,245.600 267.200 C 245.600 267.420,244.970 267.600,244.200 267.600 C 243.430 267.600,242.800 267.780,242.800 268.000 C 242.800 268.220,242.080 268.400,241.200 268.400 C 240.320 268.400,239.600 268.580,239.600 268.800 C 239.600 269.020,238.880 269.200,238.000 269.200 C 237.120 269.200,236.400 269.380,236.400 269.600 C 236.400 269.820,235.500 270.000,234.400 270.000 C 233.300 270.000,232.400 270.180,232.400 270.400 C 232.400 270.622,231.333 270.800,230.000 270.800 C 228.667 270.800,227.600 270.978,227.600 271.200 C 227.600 271.431,226.333 271.600,224.600 271.600 C 222.867 271.600,221.600 271.769,221.600 272.000 C 221.600 272.240,220.000 272.400,217.600 272.400 C 215.200 272.400,213.600 272.560,213.600 272.800 C 213.600 273.059,208.933 273.200,200.400 273.200 C 191.867 273.200,187.200 273.059,187.200 272.800 C 187.200 272.558,185.467 272.400,182.800 272.400 C 180.133 272.400,178.400 272.242,178.400 272.000 C 178.400 271.774,177.267 271.600,175.800 271.600 C 174.333 271.600,173.200 271.426,173.200 271.200 C 173.200 270.978,172.133 270.800,170.800 270.800 C 169.467 270.800,168.400 270.622,168.400 270.400 C 168.400 270.180,167.500 270.000,166.400 270.000 C 165.300 270.000,164.400 269.820,164.400 269.600 C 164.400 269.380,163.500 269.200,162.400 269.200 C 161.300 269.200,160.400 269.020,160.400 268.800 C 160.400 268.580,159.770 268.400,159.000 268.400 C 158.230 268.400,157.600 268.220,157.600 268.000 C 157.600 267.780,157.060 267.600,156.400 267.600 C 155.740 267.600,155.200 267.420,155.200 267.200 C 155.200 266.980,154.480 266.800,153.600 266.800 C 152.720 266.800,152.000 266.620,152.000 266.400 C 152.000 266.180,151.460 266.000,150.800 266.000 C 150.140 266.000,149.600 265.820,149.600 265.600 C 149.600 265.380,149.060 265.200,148.400 265.200 C 147.740 265.200,147.200 265.020,147.200 264.800 C 147.200 264.580,146.660 264.400,146.000 264.400 C 145.340 264.400,144.800 264.220,144.800 264.000 C 144.800 263.780,144.260 263.600,143.600 263.600 C 142.940 263.600,142.399 263.465,142.397 263.300 C 142.393 262.894,140.414 262.000,139.520 262.000 C 139.124 262.000,138.800 261.820,138.800 261.600 C 138.800 261.380,138.440 261.200,138.000 261.200 C 137.560 261.200,137.200 261.036,137.200 260.835 C 137.200 260.634,136.480 260.349,135.600 260.200 C 134.720 260.051,134.000 259.766,134.000 259.565 C 134.000 259.364,133.640 259.200,133.200 259.200 C 132.760 259.200,132.400 259.020,132.400 258.800 C 132.400 258.580,132.040 258.400,131.600 258.400 C 131.160 258.400,130.800 258.220,130.800 258.000 C 130.800 257.780,130.440 257.600,130.000 257.600 C 129.560 257.600,129.200 257.420,129.200 257.200 C 129.200 256.980,128.840 256.800,128.400 256.800 C 127.960 256.800,127.600 256.620,127.600 256.400 C 127.600 256.180,127.240 256.000,126.800 256.000 C 126.360 256.000,126.000 255.820,126.000 255.600 C 126.000 255.380,125.770 255.200,125.488 255.200 C 125.207 255.200,124.717 254.840,124.400 254.400 C 124.083 253.960,123.503 253.600,123.112 253.600 C 122.720 253.600,122.400 253.420,122.400 253.200 C 122.400 252.980,122.080 252.800,121.688 252.800 C 121.297 252.800,120.717 252.440,120.400 252.000 C 120.083 251.560,119.503 251.200,119.112 251.200 C 118.720 251.200,118.400 251.020,118.400 250.800 C 118.400 250.580,118.112 250.400,117.760 250.400 C 117.409 250.400,116.617 249.860,116.000 249.200 C 115.383 248.540,114.631 248.000,114.328 248.000 C 114.025 248.000,113.517 247.640,113.200 247.200 C 112.883 246.760,112.343 246.400,112.000 246.400 C 111.657 246.400,111.117 246.040,110.800 245.600 C 110.116 244.651,109.200 244.546,109.200 245.417 C 109.200 245.994,109.456 246.398,110.700 247.785 C 110.975 248.092,111.200 248.539,111.200 248.778 C 111.200 249.334,117.049 255.200,117.604 255.200 C 117.833 255.200,118.816 255.965,119.787 256.900 C 122.163 259.187,122.688 259.600,123.214 259.600 C 123.461 259.600,124.354 260.320,125.200 261.200 C 126.046 262.080,126.892 262.800,127.080 262.800 C 127.269 262.800,127.683 263.160,128.000 263.600 C 128.317 264.040,128.825 264.400,129.128 264.400 C 129.431 264.400,130.183 264.940,130.800 265.600 C 131.417 266.260,132.209 266.800,132.560 266.800 C 132.912 266.800,133.200 266.980,133.200 267.200 C 133.200 267.420,133.520 267.600,133.912 267.600 C 134.303 267.600,134.883 267.960,135.200 268.400 C 135.517 268.840,136.097 269.200,136.488 269.200 C 136.880 269.200,137.200 269.380,137.200 269.600 C 137.200 269.820,137.520 270.000,137.912 270.000 C 138.303 270.000,138.883 270.360,139.200 270.800 C 139.517 271.240,140.097 271.600,140.488 271.600 C 140.880 271.600,141.200 271.780,141.200 272.000 C 141.200 272.220,141.545 272.400,141.967 272.400 C 142.388 272.400,142.793 272.535,142.867 272.700 C 143.101 273.227,146.547 274.760,148.100 275.029 C 148.925 275.172,149.600 275.449,149.600 275.645 C 149.600 275.840,149.960 276.000,150.400 276.000 C 150.840 276.000,151.200 276.180,151.200 276.400 C 151.200 276.620,151.740 276.800,152.400 276.800 C 153.060 276.800,153.600 276.980,153.600 277.200 C 153.600 277.420,153.960 277.600,154.400 277.600 C 154.840 277.600,155.200 277.780,155.200 278.000 C 155.200 278.220,155.560 278.400,156.000 278.400 C 157.172 278.400,156.988 279.504,155.600 280.800 C 154.940 281.417,154.400 282.137,154.400 282.400 C 154.400 282.663,153.860 283.383,153.200 284.000 C 152.540 284.617,152.000 285.337,152.000 285.600 C 152.000 285.863,151.460 286.583,150.800 287.200 C 150.140 287.817,149.600 288.532,149.600 288.789 C 149.600 289.759,148.418 290.400,146.629 290.400 C 145.623 290.400,144.800 290.220,144.800 290.000 C 144.800 289.769,143.533 289.600,141.800 289.600 C 140.067 289.600,138.800 289.431,138.800 289.200 C 138.800 288.971,137.600 288.800,136.000 288.800 C 134.400 288.800,133.200 288.629,133.200 288.400 C 133.200 288.180,132.480 288.000,131.600 288.000 C 130.720 288.000,130.000 287.820,130.000 287.600 C 130.000 287.380,129.280 287.200,128.400 287.200 C 127.520 287.200,126.800 287.020,126.800 286.800 C 126.800 286.580,126.170 286.400,125.400 286.400 C 124.630 286.400,124.000 286.220,124.000 286.000 C 124.000 285.780,123.460 285.600,122.800 285.600 C 122.140 285.600,121.600 285.420,121.600 285.200 C 121.600 284.980,121.060 284.800,120.400 284.800 C 119.740 284.800,119.200 284.620,119.200 284.400 C 119.200 284.180,118.660 284.000,118.000 284.000 C 117.340 284.000,116.800 283.820,116.800 283.600 C 116.800 283.380,116.260 283.200,115.600 283.200 C 114.940 283.200,114.400 283.020,114.400 282.800 C 114.400 282.580,113.860 282.400,113.200 282.400 C 112.540 282.400,112.000 282.220,112.000 282.000 C 112.000 281.780,111.640 281.600,111.200 281.600 C 110.760 281.600,110.400 281.420,110.400 281.200 C 110.400 280.980,110.040 280.800,109.600 280.800 C 109.160 280.800,108.800 280.620,108.800 280.400 C 108.800 280.180,108.530 280.000,108.200 280.000 C 107.870 280.000,107.600 279.820,107.600 279.600 C 107.600 279.380,107.240 279.200,106.800 279.200 C 106.360 279.200,106.000 279.020,106.000 278.800 C 106.000 278.580,105.640 278.400,105.200 278.400 C 104.760 278.400,104.400 278.236,104.400 278.035 C 104.400 277.834,103.680 277.549,102.800 277.400 C 101.920 277.251,101.200 276.966,101.200 276.765 C 101.200 276.564,100.840 276.400,100.400 276.400 C 99.960 276.400,99.600 276.220,99.600 276.000 C 99.600 275.780,99.280 275.600,98.888 275.600 C 98.497 275.600,97.917 275.240,97.600 274.800 C 97.283 274.360,96.743 274.000,96.400 274.000 C 96.057 274.000,95.517 273.640,95.200 273.200 C 94.883 272.760,94.343 272.400,94.000 272.400 C 93.657 272.400,93.117 272.040,92.800 271.600 C 92.483 271.160,92.065 270.800,91.872 270.800 C 91.679 270.800,91.017 270.260,90.400 269.600 C 89.783 268.940,89.070 268.400,88.814 268.400 C 88.558 268.400,87.471 267.500,86.400 266.400 C 85.329 265.300,84.256 264.400,84.017 264.400 C 83.778 264.400,82.605 263.455,81.410 262.300 C 80.216 261.145,78.518 259.570,77.638 258.800 L 76.037 257.400 76.018 252.700 C 76.007 249.821,76.155 248.000,76.400 248.000 C 76.641 248.000,76.800 246.333,76.800 243.800 C 76.800 241.267,76.959 239.600,77.200 239.600 C 77.433 239.600,77.600 238.267,77.600 236.400 C 77.600 234.533,77.767 233.200,78.000 233.200 C 78.233 233.200,78.400 231.867,78.400 230.000 C 78.400 228.133,78.567 226.800,78.800 226.800 C 79.020 226.800,79.200 225.810,79.200 224.600 C 79.200 223.390,79.380 222.400,79.600 222.400 C 79.829 222.400,80.000 221.200,80.000 219.600 C 80.000 218.000,80.171 216.800,80.400 216.800 C 80.620 216.800,80.800 215.900,80.800 214.800 C 80.800 213.700,80.980 212.800,81.200 212.800 C 81.420 212.800,81.600 211.900,81.600 210.800 C 81.600 209.700,81.780 208.800,82.000 208.800 C 82.220 208.800,82.400 207.990,82.400 207.000 C 82.400 206.010,82.580 205.200,82.800 205.200 C 83.020 205.200,83.200 204.300,83.200 203.200 C 83.200 202.100,83.380 201.200,83.600 201.200 C 83.820 201.200,84.000 200.480,84.000 199.600 C 84.000 198.720,84.180 198.000,84.400 198.000 C 84.620 198.000,84.800 197.280,84.800 196.400 C 84.800 195.520,84.980 194.800,85.200 194.800 C 85.420 194.800,85.600 194.080,85.600 193.200 C 85.600 192.320,85.780 191.600,86.000 191.600 C 86.220 191.600,86.400 190.970,86.400 190.200 C 86.400 189.430,86.580 188.800,86.800 188.800 C 87.020 188.800,87.200 188.080,87.200 187.200 C 87.200 186.320,87.380 185.600,87.600 185.600 C 87.820 185.600,88.000 185.060,88.000 184.400 C 88.000 183.740,88.180 183.200,88.400 183.200 C 88.620 183.200,88.800 182.480,88.800 181.600 C 88.800 180.720,88.980 180.000,89.200 180.000 C 89.420 180.000,89.600 179.460,89.600 178.800 C 89.600 178.140,89.780 177.600,90.000 177.600 C 90.220 177.600,90.400 177.060,90.400 176.400 C 90.400 175.740,90.567 175.200,90.771 175.200 C 90.975 175.200,91.266 174.210,91.417 173.000 C 91.568 171.790,91.851 170.800,92.046 170.800 C 92.241 170.800,92.400 170.260,92.400 169.600 C 92.400 168.940,92.580 168.400,92.800 168.400 C 93.020 168.400,93.200 168.040,93.200 167.600 C 93.200 167.160,93.380 166.800,93.600 166.800 C 93.820 166.800,94.000 166.260,94.000 165.600 C 94.000 164.940,94.180 164.400,94.400 164.400 C 94.620 164.400,94.800 163.860,94.800 163.200 C 94.800 162.540,94.980 162.000,95.200 162.000 C 95.420 162.000,95.600 161.640,95.600 161.200 C 95.600 160.760,95.780 160.400,96.000 160.400 C 96.220 160.400,96.400 159.950,96.400 159.400 C 96.400 158.850,96.580 158.400,96.800 158.400 C 97.020 158.400,97.200 158.040,97.200 157.600 C 97.200 157.160,97.380 156.800,97.600 156.800 C 97.820 156.800,98.000 156.260,98.000 155.600 C 98.000 154.940,98.180 154.400,98.400 154.400 C 98.620 154.400,98.800 154.040,98.800 153.600 C 98.800 153.160,98.980 152.800,99.200 152.800 C 99.420 152.800,99.600 152.440,99.600 152.000 C 99.600 151.560,99.780 151.200,100.000 151.200 C 100.220 151.200,100.400 150.660,100.400 150.000 C 100.400 149.340,100.580 148.800,100.800 148.800 C 101.020 148.800,101.200 148.440,101.200 148.000 C 101.200 147.560,101.380 147.200,101.600 147.200 C 101.820 147.200,102.000 146.840,102.000 146.400 C 102.000 145.960,102.180 145.600,102.400 145.600 C 102.620 145.600,102.800 145.240,102.800 144.800 C 102.800 144.360,102.980 144.000,103.200 144.000 C 103.420 144.000,103.600 143.640,103.600 143.200 C 103.600 142.760,103.780 142.400,104.000 142.400 C 104.220 142.400,104.400 142.130,104.400 141.800 C 104.400 141.470,104.580 141.200,104.800 141.200 C 105.020 141.200,105.200 140.880,105.200 140.488 C 105.200 140.097,105.560 139.517,106.000 139.200 C 106.440 138.883,106.800 138.303,106.800 137.912 C 106.800 137.520,106.980 137.200,107.200 137.200 C 107.420 137.200,107.600 136.840,107.600 136.400 C 107.600 135.960,107.777 135.600,107.992 135.600 C 108.208 135.600,108.506 135.118,108.654 134.528 C 108.953 133.337,112.083 130.000,112.901 130.000 C 113.188 130.000,113.683 129.640,114.000 129.200 C 114.317 128.760,114.857 128.400,115.200 128.400 C 115.543 128.400,116.083 128.040,116.400 127.600 C 116.717 127.160,117.297 126.800,117.688 126.800 C 118.080 126.800,118.400 126.620,118.400 126.400 C 118.400 126.180,118.683 126.000,119.029 126.000 C 119.374 126.000,119.927 125.730,120.257 125.400 C 120.587 125.070,121.204 124.800,121.629 124.800 C 122.053 124.800,122.400 124.654,122.400 124.475 C 122.400 124.296,123.030 123.902,123.800 123.600 C 124.570 123.298,125.200 122.904,125.200 122.725 C 125.200 122.546,125.560 122.400,126.000 122.400 C 126.440 122.400,126.800 122.220,126.800 122.000 C 126.800 121.780,127.160 121.600,127.600 121.600 C 128.040 121.600,128.400 121.420,128.400 121.200 C 128.400 120.980,128.760 120.800,129.200 120.800 C 129.640 120.800,130.000 120.620,130.000 120.400 C 130.000 120.180,130.360 120.000,130.800 120.000 C 131.240 120.000,131.600 119.820,131.600 119.600 C 131.600 119.380,131.960 119.200,132.400 119.200 C 132.840 119.200,133.200 119.020,133.200 118.800 C 133.200 118.580,133.560 118.400,134.000 118.400 C 134.440 118.400,134.800 118.220,134.800 118.000 C 134.800 117.780,135.340 117.600,136.000 117.600 C 136.660 117.600,137.200 117.420,137.200 117.200 C 137.200 116.980,137.560 116.800,138.000 116.800 C 138.440 116.800,138.800 116.620,138.800 116.400 C 138.800 116.180,139.340 116.000,140.000 116.000 C 140.660 116.000,141.200 115.820,141.200 115.600 C 141.200 115.380,141.650 115.200,142.200 115.200 C 142.750 115.200,143.200 115.020,143.200 114.800 C 143.200 114.580,143.740 114.400,144.400 114.400 C 145.060 114.400,145.600 114.220,145.600 114.000 C 145.600 113.780,146.140 113.600,146.800 113.600 C 147.460 113.600,148.000 113.420,148.000 113.200 C 148.000 112.980,148.720 112.800,149.600 112.800 C 150.480 112.800,151.200 112.620,151.200 112.400 C 151.200 112.180,151.920 112.000,152.800 112.000 C 153.680 112.000,154.400 111.820,154.400 111.600 C 154.400 111.380,155.300 111.200,156.400 111.200 C 157.500 111.200,158.400 111.020,158.400 110.800 C 158.400 110.580,159.390 110.400,160.600 110.400 C 161.810 110.400,162.800 110.220,162.800 110.000 C 162.800 109.780,163.520 109.600,164.400 109.600 C 165.733 109.600,166.000 109.733,166.000 110.400 M159.200 188.400 C 159.200 188.620,158.660 188.800,158.000 188.800 C 157.340 188.800,156.800 188.980,156.800 189.200 C 156.800 189.420,156.300 189.600,155.688 189.600 C 155.035 189.600,154.339 189.930,154.000 190.400 C 153.683 190.840,153.187 191.200,152.898 191.200 C 152.610 191.200,151.757 191.785,151.003 192.500 C 150.250 193.215,148.914 194.430,148.035 195.200 C 147.156 195.970,146.429 196.915,146.418 197.300 C 146.408 197.685,146.220 198.000,146.000 198.000 C 145.780 198.000,145.600 198.360,145.600 198.800 C 145.600 199.240,145.420 199.600,145.200 199.600 C 144.980 199.600,144.800 199.945,144.800 200.367 C 144.800 200.788,144.611 201.196,144.381 201.273 C 144.150 201.350,143.855 202.445,143.725 203.706 C 143.595 204.968,143.333 206.000,143.144 206.000 C 142.955 206.000,142.800 208.430,142.800 211.400 C 142.800 214.370,142.955 216.800,143.144 216.800 C 143.333 216.800,143.593 217.818,143.722 219.063 C 143.850 220.307,144.103 221.432,144.283 221.563 C 144.463 221.693,145.058 222.698,145.605 223.796 C 146.639 225.871,151.998 231.600,152.905 231.600 C 153.190 231.600,153.683 231.960,154.000 232.400 C 154.339 232.870,155.035 233.200,155.688 233.200 C 156.300 233.200,156.800 233.380,156.800 233.600 C 156.800 233.820,157.340 234.000,158.000 234.000 C 158.660 234.000,159.200 234.180,159.200 234.400 C 159.200 234.639,160.733 234.800,163.000 234.800 C 165.267 234.800,166.800 234.639,166.800 234.400 C 166.800 234.180,167.520 234.000,168.400 234.000 C 169.280 234.000,170.000 233.820,170.000 233.600 C 170.000 233.380,170.360 233.200,170.800 233.200 C 171.240 233.200,171.600 233.020,171.600 232.800 C 171.600 232.580,171.920 232.400,172.312 232.400 C 172.703 232.400,173.283 232.040,173.600 231.600 C 173.917 231.160,174.322 230.800,174.499 230.800 C 175.033 230.800,178.400 227.261,178.400 226.699 C 178.400 226.412,178.760 225.917,179.200 225.600 C 179.640 225.283,180.000 224.793,180.000 224.512 C 180.000 224.230,180.180 224.000,180.400 224.000 C 180.620 224.000,180.800 223.640,180.800 223.200 C 180.800 222.760,180.980 222.400,181.200 222.400 C 181.420 222.400,181.600 222.040,181.600 221.600 C 181.600 221.160,181.780 220.800,182.000 220.800 C 182.220 220.800,182.400 220.260,182.400 219.600 C 182.400 218.940,182.580 218.400,182.800 218.400 C 183.029 218.400,183.200 217.200,183.200 215.600 C 183.200 214.000,183.371 212.800,183.600 212.800 C 183.820 212.800,184.000 212.170,184.000 211.400 C 184.000 210.630,183.820 210.000,183.600 210.000 C 183.371 210.000,183.200 208.800,183.200 207.200 C 183.200 205.600,183.029 204.400,182.800 204.400 C 182.580 204.400,182.400 203.860,182.400 203.200 C 182.400 202.540,182.220 202.000,182.000 202.000 C 181.780 202.000,181.600 201.640,181.600 201.200 C 181.600 200.760,181.420 200.400,181.200 200.400 C 180.980 200.400,180.800 200.040,180.800 199.600 C 180.800 199.160,180.620 198.800,180.400 198.800 C 180.180 198.800,180.000 198.480,180.000 198.088 C 180.000 197.697,179.640 197.117,179.200 196.800 C 178.760 196.483,178.400 195.943,178.400 195.600 C 178.400 195.257,178.015 194.712,177.545 194.388 C 177.074 194.065,176.273 193.395,175.763 192.900 C 175.253 192.405,174.688 192.000,174.506 192.000 C 174.325 192.000,173.917 191.640,173.600 191.200 C 173.283 190.760,172.703 190.400,172.312 190.400 C 171.920 190.400,171.600 190.220,171.600 190.000 C 171.600 189.780,171.240 189.600,170.800 189.600 C 170.360 189.600,170.000 189.420,170.000 189.200 C 170.000 188.980,169.280 188.800,168.400 188.800 C 167.520 188.800,166.800 188.620,166.800 188.400 C 166.800 188.161,165.267 188.000,163.000 188.000 C 160.733 188.000,159.200 188.161,159.200 188.400 M233.200 188.400 C 233.200 188.620,232.480 188.800,231.600 188.800 C 230.720 188.800,230.000 188.980,230.000 189.200 C 230.000 189.420,229.640 189.600,229.200 189.600 C 228.760 189.600,228.400 189.780,228.400 190.000 C 228.400 190.220,228.170 190.400,227.888 190.400 C 227.607 190.400,227.117 190.760,226.800 191.200 C 226.483 191.640,225.985 192.000,225.694 192.000 C 225.402 192.000,224.747 192.405,224.237 192.900 C 223.727 193.395,222.926 194.065,222.455 194.388 C 221.985 194.712,221.600 195.257,221.600 195.600 C 221.600 195.943,221.240 196.483,220.800 196.800 C 220.360 197.117,220.000 197.697,220.000 198.088 C 220.000 198.480,219.820 198.800,219.600 198.800 C 219.380 198.800,219.200 199.160,219.200 199.600 C 219.200 200.040,219.020 200.400,218.800 200.400 C 218.580 200.400,218.400 200.760,218.400 201.200 C 218.400 201.640,218.220 202.000,218.000 202.000 C 217.780 202.000,217.600 202.540,217.600 203.200 C 217.600 203.860,217.420 204.400,217.200 204.400 C 216.971 204.400,216.800 205.600,216.800 207.200 C 216.800 208.800,216.629 210.000,216.400 210.000 C 216.180 210.000,216.000 210.630,216.000 211.400 C 216.000 212.170,216.180 212.800,216.400 212.800 C 216.629 212.800,216.800 214.000,216.800 215.600 C 216.800 217.200,216.971 218.400,217.200 218.400 C 217.420 218.400,217.600 218.940,217.600 219.600 C 217.600 220.260,217.780 220.800,218.000 220.800 C 218.220 220.800,218.400 221.160,218.400 221.600 C 218.400 222.040,218.580 222.400,218.800 222.400 C 219.020 222.400,219.200 222.760,219.200 223.200 C 219.200 223.640,219.380 224.000,219.600 224.000 C 219.820 224.000,220.000 224.230,220.000 224.512 C 220.000 224.793,220.360 225.283,220.800 225.600 C 221.240 225.917,221.600 226.412,221.600 226.699 C 221.600 227.378,225.022 230.800,225.701 230.800 C 225.988 230.800,226.483 231.160,226.800 231.600 C 227.117 232.040,227.607 232.400,227.888 232.400 C 228.170 232.400,228.400 232.580,228.400 232.800 C 228.400 233.020,228.760 233.200,229.200 233.200 C 229.640 233.200,230.000 233.380,230.000 233.600 C 230.000 233.820,230.720 234.000,231.600 234.000 C 232.480 234.000,233.200 234.180,233.200 234.400 C 233.200 234.640,234.800 234.800,237.200 234.800 C 239.600 234.800,241.200 234.640,241.200 234.400 C 241.200 234.180,241.650 234.000,242.200 234.000 C 242.750 234.000,243.200 233.820,243.200 233.600 C 243.200 233.380,243.700 233.200,244.312 233.200 C 244.965 233.200,245.661 232.870,246.000 232.400 C 246.317 231.960,246.810 231.600,247.095 231.600 C 247.703 231.600,253.600 225.804,253.600 225.206 C 253.600 224.983,253.780 224.800,254.000 224.800 C 254.220 224.800,254.400 224.440,254.400 224.000 C 254.400 223.560,254.580 223.200,254.800 223.200 C 255.020 223.200,255.200 222.840,255.200 222.400 C 255.200 221.960,255.380 221.600,255.600 221.600 C 255.820 221.600,256.000 221.240,256.000 220.800 C 256.000 220.360,256.180 220.000,256.400 220.000 C 256.620 220.000,256.800 219.280,256.800 218.400 C 256.800 217.520,256.980 216.800,257.200 216.800 C 257.447 216.800,257.600 214.733,257.600 211.400 C 257.600 208.067,257.447 206.000,257.200 206.000 C 256.980 206.000,256.800 205.280,256.800 204.400 C 256.800 203.520,256.620 202.800,256.400 202.800 C 256.180 202.800,256.000 202.440,256.000 202.000 C 256.000 201.560,255.820 201.200,255.600 201.200 C 255.380 201.200,255.200 200.840,255.200 200.400 C 255.200 199.960,255.020 199.600,254.800 199.600 C 254.580 199.600,254.400 199.240,254.400 198.800 C 254.400 198.360,254.220 198.000,254.000 198.000 C 253.780 198.000,253.592 197.685,253.582 197.300 C 253.571 196.915,252.844 195.970,251.965 195.200 C 251.086 194.430,249.750 193.215,248.997 192.500 C 248.243 191.785,247.390 191.200,247.102 191.200 C 246.813 191.200,246.317 190.840,246.000 190.400 C 245.661 189.930,244.965 189.600,244.312 189.600 C 243.700 189.600,243.200 189.420,243.200 189.200 C 243.200 188.980,242.750 188.800,242.200 188.800 C 241.650 188.800,241.200 188.620,241.200 188.400 C 241.200 188.160,239.600 188.000,237.200 188.000 C 234.800 188.000,233.200 188.160,233.200 188.400"/><path id="path1" fill="#fff" fill-rule="evenodd" stroke="none"/></g></svg>