<svg id="svg" version="1.1" width="400" height="400" viewBox="0 0 400 400" xmlns="http://www.w3.org/2000/svg" xmlns:xlink="http://www.w3.org/1999/xlink" ><g id="svgg"><path id="path0" d="M184.800 4.800 C 184.800 5.039,183.267 5.200,181.000 5.200 C 178.733 5.200,177.200 5.361,177.200 5.600 C 177.200 5.833,175.867 6.000,174.000 6.000 C 172.133 6.000,170.800 6.167,170.800 6.400 C 170.800 6.629,169.600 6.800,168.000 6.800 C 166.400 6.800,165.200 6.971,165.200 7.200 C 165.200 7.422,164.133 7.600,162.800 7.600 C 161.467 7.600,160.400 7.778,160.400 8.000 C 160.400 8.220,159.770 8.400,159.000 8.400 C 158.230 8.400,157.600 8.580,157.600 8.800 C 157.600 9.020,156.700 9.200,155.600 9.200 C 154.500 9.200,153.600 9.361,153.600 9.558 C 153.600 9.755,152.160 10.044,150.400 10.200 C 148.640 10.356,147.200 10.645,147.200 10.842 C 147.200 11.039,146.581 11.200,145.824 11.200 C 145.067 11.200,144.336 11.380,144.200 11.600 C 144.064 11.820,143.513 12.000,142.976 12.000 C 142.439 12.000,142.000 12.180,142.000 12.400 C 142.000 12.620,141.460 12.800,140.800 12.800 C 140.140 12.800,139.600 12.980,139.600 13.200 C 139.600 13.420,139.060 13.600,138.400 13.600 C 137.740 13.600,137.200 13.780,137.200 14.000 C 137.200 14.220,136.480 14.400,135.600 14.400 C 134.720 14.400,134.000 14.580,134.000 14.800 C 134.000 15.020,133.640 15.200,133.200 15.200 C 132.760 15.200,132.400 15.380,132.400 15.600 C 132.400 15.820,131.860 16.000,131.200 16.000 C 130.540 16.000,130.000 16.180,130.000 16.400 C 130.000 16.620,129.460 16.800,128.800 16.800 C 128.140 16.800,127.600 16.980,127.600 17.200 C 127.600 17.420,127.330 17.600,127.000 17.600 C 126.670 17.600,126.400 17.780,126.400 18.000 C 126.400 18.220,125.860 18.400,125.200 18.400 C 124.540 18.400,124.000 18.580,124.000 18.800 C 124.000 19.020,123.640 19.200,123.200 19.200 C 122.760 19.200,122.400 19.380,122.400 19.600 C 122.400 19.820,121.860 20.000,121.200 20.000 C 120.540 20.000,120.000 20.180,120.000 20.400 C 120.000 20.620,119.640 20.800,119.200 20.800 C 118.760 20.800,118.400 20.980,118.400 21.200 C 118.400 21.420,118.040 21.600,117.600 21.600 C 117.160 21.600,116.800 21.780,116.800 22.000 C 116.800 22.220,116.440 22.400,116.000 22.400 C 115.560 22.400,115.200 22.580,115.200 22.800 C 115.200 23.020,114.840 23.200,114.400 23.200 C 113.960 23.200,113.600 23.380,113.600 23.600 C 113.600 23.820,113.240 24.000,112.800 24.000 C 112.360 24.000,112.000 24.180,112.000 24.400 C 112.000 24.620,111.640 24.800,111.200 24.800 C 110.760 24.800,110.400 24.980,110.400 25.200 C 110.400 25.420,110.130 25.600,109.800 25.600 C 109.470 25.600,109.200 25.780,109.200 26.000 C 109.200 26.220,108.840 26.400,108.400 26.400 C 107.960 26.400,107.600 26.564,107.600 26.765 C 107.600 26.966,106.880 27.251,106.000 27.400 C 105.120 27.549,104.400 27.834,104.400 28.035 C 104.400 28.236,104.040 28.400,103.600 28.400 C 103.160 28.400,102.800 28.580,102.800 28.800 C 102.800 29.020,102.480 29.200,102.088 29.200 C 101.697 29.200,101.117 29.560,100.800 30.000 C 100.483 30.440,99.903 30.800,99.512 30.800 C 99.120 30.800,98.800 30.980,98.800 31.200 C 98.800 31.420,98.480 31.600,98.088 31.600 C 97.697 31.600,97.117 31.960,96.800 32.400 C 96.483 32.840,95.903 33.200,95.512 33.200 C 95.120 33.200,94.800 33.380,94.800 33.600 C 94.800 33.820,94.570 34.000,94.288 34.000 C 94.007 34.000,93.517 34.360,93.200 34.800 C 92.883 35.240,92.343 35.600,92.000 35.600 C 91.657 35.600,91.117 35.960,90.800 36.400 C 90.483 36.840,89.903 37.200,89.512 37.200 C 89.120 37.200,88.800 37.380,88.800 37.600 C 88.800 37.820,88.512 38.000,88.160 38.000 C 87.809 38.000,87.017 38.540,86.400 39.200 C 85.783 39.860,85.063 40.400,84.800 40.400 C 84.537 40.400,83.817 40.940,83.200 41.600 C 82.583 42.260,81.791 42.800,81.440 42.800 C 81.088 42.800,80.800 42.977,80.800 43.192 C 80.800 43.408,80.349 43.698,79.799 43.836 C 79.248 43.974,78.360 44.608,77.825 45.244 C 77.289 45.880,76.648 46.400,76.400 46.400 C 76.151 46.400,75.071 47.300,74.000 48.400 C 72.929 49.500,71.846 50.400,71.595 50.400 C 71.343 50.400,70.446 51.120,69.600 52.000 C 68.754 52.880,67.866 53.600,67.625 53.600 C 67.060 53.600,48.800 71.858,48.800 72.423 C 48.800 72.659,47.900 73.729,46.800 74.800 C 45.700 75.871,44.800 76.902,44.800 77.091 C 44.800 77.279,44.170 78.101,43.400 78.918 C 42.630 79.734,42.000 80.599,42.000 80.840 C 42.000 81.082,41.460 81.783,40.800 82.400 C 40.140 83.017,39.600 83.737,39.600 84.000 C 39.600 84.263,39.060 84.983,38.400 85.600 C 37.740 86.217,37.200 86.969,37.200 87.272 C 37.200 87.575,36.840 88.083,36.400 88.400 C 35.960 88.717,35.600 89.225,35.600 89.528 C 35.600 89.831,35.060 90.583,34.400 91.200 C 33.740 91.817,33.200 92.597,33.200 92.934 C 33.200 93.270,32.840 93.660,32.400 93.800 C 31.960 93.940,31.600 94.402,31.600 94.827 C 31.600 95.252,31.420 95.600,31.200 95.600 C 30.980 95.600,30.800 95.920,30.800 96.312 C 30.800 96.703,30.440 97.283,30.000 97.600 C 29.560 97.917,29.200 98.431,29.200 98.741 C 29.200 99.052,28.864 99.597,28.454 99.953 C 28.043 100.309,27.569 101.230,27.400 102.000 C 27.231 102.770,26.757 103.691,26.346 104.047 C 25.936 104.403,25.600 104.988,25.600 105.347 C 25.600 105.706,25.420 106.000,25.200 106.000 C 24.980 106.000,24.800 106.360,24.800 106.800 C 24.800 107.240,24.620 107.600,24.400 107.600 C 24.180 107.600,24.000 107.960,24.000 108.400 C 24.000 108.840,23.820 109.200,23.600 109.200 C 23.380 109.200,23.200 109.470,23.200 109.800 C 23.200 110.130,23.020 110.400,22.800 110.400 C 22.580 110.400,22.400 110.720,22.400 111.112 C 22.400 111.503,22.040 112.083,21.600 112.400 C 21.160 112.717,20.800 113.297,20.800 113.688 C 20.800 114.080,20.620 114.400,20.400 114.400 C 20.180 114.400,20.000 114.760,20.000 115.200 C 20.000 115.640,19.820 116.000,19.600 116.000 C 19.380 116.000,19.200 116.360,19.200 116.800 C 19.200 117.240,19.020 117.600,18.800 117.600 C 18.580 117.600,18.400 118.140,18.400 118.800 C 18.400 119.460,18.220 120.000,18.000 120.000 C 17.780 120.000,17.600 120.360,17.600 120.800 C 17.600 121.240,17.420 121.600,17.200 121.600 C 16.980 121.600,16.800 121.960,16.800 122.400 C 16.800 122.840,16.620 123.200,16.400 123.200 C 16.180 123.200,16.000 123.560,16.000 124.000 C 16.000 124.440,15.820 124.800,15.600 124.800 C 15.380 124.800,15.200 125.160,15.200 125.600 C 15.200 126.040,15.020 126.400,14.800 126.400 C 14.580 126.400,14.400 126.850,14.400 127.400 C 14.400 127.950,14.220 128.400,14.000 128.400 C 13.780 128.400,13.600 128.760,13.600 129.200 C 13.600 129.640,13.420 130.000,13.200 130.000 C 12.980 130.000,12.800 130.540,12.800 131.200 C 12.800 131.860,12.620 132.400,12.400 132.400 C 12.180 132.400,12.000 132.940,12.000 133.600 C 12.000 134.260,11.820 134.800,11.600 134.800 C 11.380 134.800,11.200 135.160,11.200 135.600 C 11.200 136.040,11.038 136.400,10.839 136.400 C 10.641 136.400,10.353 137.480,10.200 138.800 C 10.047 140.120,9.759 141.200,9.561 141.200 C 9.362 141.200,9.200 141.740,9.200 142.400 C 9.200 143.060,9.020 143.600,8.800 143.600 C 8.580 143.600,8.400 144.230,8.400 145.000 C 8.400 145.770,8.220 146.400,8.000 146.400 C 7.780 146.400,7.600 146.940,7.600 147.600 C 7.600 148.260,7.420 148.800,7.200 148.800 C 6.980 148.800,6.800 149.340,6.800 150.000 C 6.800 150.660,6.620 151.200,6.400 151.200 C 6.180 151.200,6.000 151.920,6.000 152.800 C 6.000 153.680,5.820 154.400,5.600 154.400 C 5.380 154.400,5.200 155.120,5.200 156.000 C 5.200 156.880,5.020 157.600,4.800 157.600 C 4.580 157.600,4.400 158.410,4.400 159.400 C 4.400 160.390,4.220 161.200,4.000 161.200 C 3.780 161.200,3.600 161.920,3.600 162.800 C 3.600 163.680,3.420 164.400,3.200 164.400 C 2.978 164.400,2.800 165.467,2.800 166.800 C 2.800 168.133,2.622 169.200,2.400 169.200 C 2.178 169.200,2.000 170.267,2.000 171.600 C 2.000 172.933,1.822 174.000,1.600 174.000 C 1.375 174.000,1.200 175.122,1.200 176.567 C 1.200 178.264,1.031 179.190,0.700 179.300 C -0.032 179.544,-0.032 228.856,0.700 229.100 C 1.050 229.217,1.200 230.336,1.200 232.833 C 1.200 234.944,1.363 236.400,1.600 236.400 C 1.822 236.400,2.000 237.467,2.000 238.800 C 2.000 240.133,2.178 241.200,2.400 241.200 C 2.620 241.200,2.800 242.010,2.800 243.000 C 2.800 243.990,2.980 244.800,3.200 244.800 C 3.420 244.800,3.600 245.700,3.600 246.800 C 3.600 247.900,3.780 248.800,4.000 248.800 C 4.220 248.800,4.400 249.700,4.400 250.800 C 4.400 251.900,4.580 252.800,4.800 252.800 C 5.020 252.800,5.200 253.340,5.200 254.000 C 5.200 254.660,5.380 255.200,5.600 255.200 C 5.820 255.200,6.000 255.920,6.000 256.800 C 6.000 257.680,6.180 258.400,6.400 258.400 C 6.620 258.400,6.800 259.030,6.800 259.800 C 6.800 260.570,6.980 261.200,7.200 261.200 C 7.420 261.200,7.600 261.740,7.600 262.400 C 7.600 263.060,7.780 263.600,8.000 263.600 C 8.220 263.600,8.400 264.320,8.400 265.200 C 8.400 266.080,8.580 266.800,8.800 266.800 C 9.020 266.800,9.200 267.340,9.200 268.000 C 9.200 268.660,9.369 269.200,9.575 269.200 C 9.782 269.200,10.073 270.012,10.222 271.005 C 10.371 271.998,10.652 272.908,10.846 273.029 C 11.041 273.149,11.200 273.687,11.200 274.224 C 11.200 274.761,11.380 275.200,11.600 275.200 C 11.820 275.200,12.000 275.740,12.000 276.400 C 12.000 277.060,12.180 277.600,12.400 277.600 C 12.620 277.600,12.800 277.960,12.800 278.400 C 12.800 278.840,12.980 279.200,13.200 279.200 C 13.420 279.200,13.600 279.740,13.600 280.400 C 13.600 281.060,13.780 281.600,14.000 281.600 C 14.220 281.600,14.400 281.960,14.400 282.400 C 14.400 282.840,14.580 283.200,14.800 283.200 C 15.020 283.200,15.200 283.560,15.200 284.000 C 15.200 284.440,15.380 284.800,15.600 284.800 C 15.820 284.800,16.000 285.340,16.000 286.000 C 16.000 286.660,16.180 287.200,16.400 287.200 C 16.620 287.200,16.800 287.560,16.800 288.000 C 16.800 288.440,16.980 288.800,17.200 288.800 C 17.420 288.800,17.600 289.160,17.600 289.600 C 17.600 290.040,17.780 290.400,18.000 290.400 C 18.220 290.400,18.400 290.670,18.400 291.000 C 18.400 291.330,18.580 291.600,18.800 291.600 C 19.020 291.600,19.200 291.960,19.200 292.400 C 19.200 292.840,19.380 293.200,19.600 293.200 C 19.820 293.200,20.000 293.560,20.000 294.000 C 20.000 294.440,20.180 294.800,20.400 294.800 C 20.620 294.800,20.800 295.160,20.800 295.600 C 20.800 296.040,20.980 296.400,21.200 296.400 C 21.420 296.400,21.600 296.760,21.600 297.200 C 21.600 297.640,21.780 298.000,22.000 298.000 C 22.220 298.000,22.400 298.360,22.400 298.800 C 22.400 299.240,22.580 299.600,22.800 299.600 C 23.020 299.600,23.200 299.920,23.200 300.312 C 23.200 300.703,23.560 301.283,24.000 301.600 C 24.440 301.917,24.800 302.497,24.800 302.888 C 24.800 303.280,24.980 303.600,25.200 303.600 C 25.420 303.600,25.600 303.960,25.600 304.400 C 25.600 304.840,25.780 305.200,26.000 305.200 C 26.220 305.200,26.400 305.560,26.400 306.000 C 26.400 306.440,26.577 306.800,26.792 306.800 C 27.008 306.800,27.298 307.250,27.436 307.800 C 27.574 308.350,27.847 308.800,28.043 308.800 C 28.240 308.800,28.400 309.120,28.400 309.512 C 28.400 309.903,28.760 310.483,29.200 310.800 C 29.640 311.117,30.000 311.657,30.000 312.000 C 30.000 312.343,30.360 312.883,30.800 313.200 C 31.240 313.517,31.600 314.057,31.600 314.400 C 31.600 314.743,31.960 315.283,32.400 315.600 C 32.840 315.917,33.200 316.457,33.200 316.800 C 33.200 317.143,33.560 317.683,34.000 318.000 C 34.440 318.317,34.800 318.857,34.800 319.200 C 34.800 319.543,35.160 320.083,35.600 320.400 C 36.040 320.717,36.400 321.225,36.400 321.528 C 36.400 321.831,36.940 322.583,37.600 323.200 C 38.260 323.817,38.800 324.443,38.800 324.592 C 38.800 324.741,39.520 325.554,40.400 326.400 C 41.280 327.246,42.000 328.140,42.000 328.387 C 42.000 328.634,42.405 329.270,42.900 329.799 C 44.418 331.423,44.800 331.948,44.800 332.414 C 44.800 332.661,45.520 333.554,46.400 334.400 C 47.280 335.246,48.000 336.141,48.000 336.391 C 48.000 336.824,50.978 339.821,54.369 342.800 C 55.246 343.570,55.971 344.429,55.982 344.709 C 55.999 345.201,60.157 349.600,60.604 349.600 C 60.726 349.600,62.794 351.580,65.200 354.000 C 67.606 356.420,69.844 358.400,70.174 358.400 C 70.504 358.400,71.403 359.030,72.173 359.800 C 72.943 360.570,73.773 361.200,74.018 361.200 C 74.263 361.200,75.154 361.920,76.000 362.800 C 76.846 363.680,77.656 364.400,77.800 364.400 C 77.944 364.400,78.754 365.120,79.600 366.000 C 80.446 366.880,81.382 367.600,81.680 367.600 C 81.979 367.600,82.483 367.960,82.800 368.400 C 83.117 368.840,83.657 369.200,84.000 369.200 C 84.343 369.200,84.883 369.560,85.200 370.000 C 85.517 370.440,86.057 370.800,86.400 370.800 C 86.743 370.800,87.283 371.160,87.600 371.600 C 87.917 372.040,88.457 372.400,88.800 372.400 C 89.143 372.400,89.683 372.760,90.000 373.200 C 90.317 373.640,90.897 374.000,91.288 374.000 C 91.680 374.000,92.000 374.168,92.000 374.373 C 92.000 374.578,92.405 374.874,92.900 375.030 C 93.395 375.187,94.091 375.649,94.447 376.057 C 94.803 376.466,95.388 376.800,95.747 376.800 C 96.106 376.800,96.400 376.980,96.400 377.200 C 96.400 377.420,96.760 377.600,97.200 377.600 C 97.640 377.600,98.000 377.780,98.000 378.000 C 98.000 378.220,98.320 378.400,98.712 378.400 C 99.103 378.400,99.683 378.760,100.000 379.200 C 100.317 379.640,100.897 380.000,101.288 380.000 C 101.680 380.000,102.000 380.180,102.000 380.400 C 102.000 380.620,102.360 380.800,102.800 380.800 C 103.240 380.800,103.600 380.980,103.600 381.200 C 103.600 381.420,103.960 381.600,104.400 381.600 C 104.840 381.600,105.200 381.780,105.200 382.000 C 105.200 382.220,105.520 382.400,105.912 382.400 C 106.303 382.400,106.883 382.760,107.200 383.200 C 107.539 383.670,108.235 384.000,108.888 384.000 C 109.500 384.000,110.000 384.180,110.000 384.400 C 110.000 384.620,110.270 384.800,110.600 384.800 C 110.930 384.800,111.200 384.980,111.200 385.200 C 111.200 385.420,111.560 385.600,112.000 385.600 C 112.440 385.600,112.800 385.780,112.800 386.000 C 112.800 386.220,113.160 386.400,113.600 386.400 C 114.040 386.400,114.400 386.580,114.400 386.800 C 114.400 387.020,114.760 387.200,115.200 387.200 C 115.640 387.200,116.000 387.380,116.000 387.600 C 116.000 387.820,116.360 388.000,116.800 388.000 C 117.240 388.000,117.600 388.180,117.600 388.400 C 117.600 388.620,118.140 388.800,118.800 388.800 C 119.460 388.800,120.000 388.980,120.000 389.200 C 120.000 389.420,120.360 389.600,120.800 389.600 C 121.240 389.600,121.600 389.780,121.600 390.000 C 121.600 390.220,121.960 390.400,122.400 390.400 C 122.840 390.400,123.200 390.559,123.200 390.754 C 123.200 390.949,124.190 391.232,125.400 391.383 C 126.610 391.534,127.600 391.825,127.600 392.029 C 127.600 392.233,127.960 392.400,128.400 392.400 C 128.840 392.400,129.200 392.580,129.200 392.800 C 129.200 393.020,129.740 393.200,130.400 393.200 C 131.060 393.200,131.600 393.380,131.600 393.600 C 131.600 393.820,132.140 394.000,132.800 394.000 C 133.460 394.000,134.000 394.180,134.000 394.400 C 134.000 394.620,134.360 394.800,134.800 394.800 C 135.240 394.800,135.600 394.980,135.600 395.200 C 135.600 395.441,137.267 395.600,139.800 395.600 C 142.333 395.600,144.000 395.441,144.000 395.200 C 144.000 394.980,144.455 394.800,145.011 394.800 C 146.020 394.800,149.600 391.688,149.600 390.811 C 149.600 390.585,149.780 390.400,150.000 390.400 C 150.220 390.400,150.400 390.040,150.400 389.600 C 150.400 389.160,150.580 388.800,150.800 388.800 C 151.062 388.800,151.200 381.600,151.200 368.000 L 151.200 347.200 148.800 347.200 C 147.467 347.200,146.400 347.378,146.400 347.600 C 146.400 347.820,145.410 348.000,144.200 348.000 C 142.990 348.000,142.000 348.180,142.000 348.400 C 142.000 348.657,138.200 348.800,131.400 348.800 C 124.600 348.800,120.800 348.657,120.800 348.400 C 120.800 348.171,119.600 348.000,118.000 348.000 C 116.400 348.000,115.200 347.829,115.200 347.600 C 115.200 347.378,114.133 347.200,112.800 347.200 C 111.467 347.200,110.400 347.022,110.400 346.800 C 110.400 346.580,109.781 346.400,109.024 346.400 C 108.267 346.400,107.536 346.220,107.400 346.000 C 107.264 345.780,106.713 345.600,106.176 345.600 C 105.639 345.600,105.200 345.420,105.200 345.200 C 105.200 344.980,104.840 344.800,104.400 344.800 C 103.960 344.800,103.600 344.636,103.600 344.435 C 103.600 344.234,102.880 343.949,102.000 343.800 C 101.120 343.651,100.400 343.366,100.400 343.165 C 100.400 342.964,100.080 342.800,99.688 342.800 C 99.297 342.800,98.717 342.440,98.400 342.000 C 98.083 341.560,97.543 341.200,97.200 341.200 C 96.857 341.200,96.317 340.840,96.000 340.400 C 95.683 339.960,95.148 339.592,94.812 339.582 C 94.475 339.571,93.570 338.844,92.800 337.965 C 92.030 337.086,90.815 335.750,90.100 334.997 C 89.385 334.243,88.800 333.390,88.800 333.102 C 88.800 332.813,88.440 332.317,88.000 332.000 C 87.560 331.683,87.200 331.143,87.200 330.800 C 87.200 330.457,86.840 329.917,86.400 329.600 C 85.960 329.283,85.600 328.703,85.600 328.312 C 85.600 327.920,85.420 327.600,85.200 327.600 C 84.980 327.600,84.800 327.150,84.800 326.600 C 84.800 326.050,84.620 325.600,84.400 325.600 C 84.180 325.600,84.000 325.240,84.000 324.800 C 84.000 324.360,83.820 324.000,83.600 324.000 C 83.380 324.000,83.200 323.640,83.200 323.200 C 83.200 322.760,83.020 322.400,82.800 322.400 C 82.580 322.400,82.400 321.860,82.400 321.200 C 82.400 320.540,82.220 320.000,82.000 320.000 C 81.780 320.000,81.600 319.640,81.600 319.200 C 81.600 318.760,81.420 318.400,81.200 318.400 C 80.980 318.400,80.800 318.040,80.800 317.600 C 80.800 317.160,80.620 316.800,80.400 316.800 C 80.180 316.800,80.000 316.440,80.000 316.000 C 80.000 315.560,79.820 315.200,79.600 315.200 C 79.380 315.200,79.200 314.840,79.200 314.400 C 79.200 313.960,79.020 313.600,78.800 313.600 C 78.580 313.600,78.400 313.280,78.400 312.888 C 78.400 312.497,78.040 311.917,77.600 311.600 C 77.160 311.283,76.800 310.859,76.800 310.659 C 76.800 310.458,76.469 310.003,76.064 309.647 C 75.659 309.291,75.206 308.505,75.056 307.900 C 74.907 307.295,74.608 306.800,74.392 306.800 C 74.177 306.800,74.000 306.516,74.000 306.169 C 74.000 305.821,73.280 304.846,72.400 304.000 C 71.520 303.154,70.800 302.264,70.800 302.021 C 70.800 301.441,67.352 298.000,66.771 298.000 C 66.523 298.000,65.817 297.460,65.200 296.800 C 64.583 296.140,63.791 295.600,63.440 295.600 C 63.088 295.600,62.800 295.420,62.800 295.200 C 62.800 294.980,62.517 294.800,62.171 294.800 C 61.826 294.800,61.292 294.575,60.985 294.300 C 59.790 293.228,59.225 292.800,59.004 292.800 C 58.540 292.800,56.000 290.011,56.000 289.502 C 56.000 289.213,55.640 288.717,55.200 288.400 C 54.760 288.083,54.400 287.518,54.400 287.145 C 54.400 286.772,54.177 286.392,53.904 286.301 C 53.243 286.081,54.495 284.800,55.371 284.800 C 55.717 284.800,56.000 284.620,56.000 284.400 C 56.000 284.180,56.990 284.000,58.200 284.000 C 59.410 284.000,60.400 283.820,60.400 283.600 C 60.400 283.380,60.760 283.200,61.200 283.200 C 61.640 283.200,62.000 283.380,62.000 283.600 C 62.000 283.822,63.067 284.000,64.400 284.000 C 65.733 284.000,66.800 284.178,66.800 284.400 C 66.800 284.620,67.340 284.800,68.000 284.800 C 68.660 284.800,69.200 284.980,69.200 285.200 C 69.200 285.420,69.740 285.600,70.400 285.600 C 71.060 285.600,71.600 285.780,71.600 286.000 C 71.600 286.220,71.960 286.400,72.400 286.400 C 72.840 286.400,73.200 286.580,73.200 286.800 C 73.200 287.020,73.560 287.200,74.000 287.200 C 74.440 287.200,74.800 287.380,74.800 287.600 C 74.800 287.820,75.094 288.000,75.453 288.000 C 75.812 288.000,76.397 288.316,76.753 288.703 C 77.109 289.089,77.940 289.674,78.600 290.003 C 79.955 290.677,80.430 291.018,81.801 292.300 C 82.330 292.795,82.957 293.200,83.192 293.200 C 83.758 293.200,87.200 296.653,87.200 297.221 C 87.200 297.464,87.920 298.354,88.800 299.200 C 89.680 300.046,90.400 300.982,90.400 301.280 C 90.400 301.579,90.760 302.083,91.200 302.400 C 91.640 302.717,92.000 303.231,92.000 303.541 C 92.000 303.852,92.336 304.397,92.746 304.753 C 93.157 305.109,93.619 305.975,93.773 306.676 C 93.927 307.378,94.579 308.368,95.223 308.876 C 95.866 309.384,96.394 310.027,96.396 310.305 C 96.401 310.973,104.643 319.200,105.307 319.200 C 105.591 319.200,106.083 319.560,106.400 320.000 C 106.717 320.440,107.231 320.800,107.541 320.800 C 107.852 320.800,108.399 321.115,108.757 321.500 C 109.667 322.477,111.043 323.200,111.995 323.200 C 112.438 323.200,112.800 323.380,112.800 323.600 C 112.800 323.820,113.145 324.000,113.567 324.000 C 113.988 324.000,114.397 324.192,114.476 324.427 C 114.556 324.667,116.313 324.954,118.509 325.085 C 120.649 325.213,122.400 325.471,122.400 325.659 C 122.400 325.846,123.750 326.000,125.400 326.000 C 127.050 326.000,128.400 325.847,128.400 325.661 C 128.400 325.474,131.123 325.217,134.452 325.089 C 137.896 324.957,140.688 324.672,140.932 324.428 C 141.167 324.193,141.954 324.000,142.680 324.000 C 143.406 324.000,144.000 323.820,144.000 323.600 C 144.000 323.380,144.540 323.200,145.200 323.200 C 145.860 323.200,146.400 323.020,146.400 322.800 C 146.400 322.580,146.760 322.400,147.200 322.400 C 147.640 322.400,148.000 322.220,148.000 322.000 C 148.000 321.780,148.458 321.600,149.018 321.600 C 150.693 321.600,152.000 319.943,152.000 317.818 C 152.000 316.818,152.180 316.000,152.400 316.000 C 152.620 316.000,152.800 315.100,152.800 314.000 C 152.800 312.900,152.980 312.000,153.200 312.000 C 153.420 312.000,153.600 311.640,153.600 311.200 C 153.600 310.760,153.780 310.400,154.000 310.400 C 154.220 310.400,154.400 309.950,154.400 309.400 C 154.400 308.850,154.580 308.400,154.800 308.400 C 155.020 308.400,155.200 307.860,155.200 307.200 C 155.200 306.540,155.380 306.000,155.600 306.000 C 155.820 306.000,156.000 305.640,156.000 305.200 C 156.000 304.760,156.180 304.400,156.400 304.400 C 156.620 304.400,156.800 304.106,156.800 303.747 C 156.800 303.388,157.136 302.803,157.546 302.447 C 157.957 302.091,158.428 301.184,158.593 300.432 C 158.793 299.523,159.683 298.289,161.247 296.754 C 163.684 294.362,164.297 292.800,162.800 292.800 C 162.360 292.800,162.000 292.620,162.000 292.400 C 162.000 292.174,160.867 292.000,159.400 292.000 C 157.933 292.000,156.800 291.826,156.800 291.600 C 156.800 291.371,155.600 291.200,154.000 291.200 C 152.400 291.200,151.200 291.029,151.200 290.800 C 151.200 290.580,150.300 290.400,149.200 290.400 C 148.100 290.400,147.200 290.220,147.200 290.000 C 147.200 289.780,146.300 289.600,145.200 289.600 C 144.100 289.600,143.200 289.420,143.200 289.200 C 143.200 288.980,142.390 288.800,141.400 288.800 C 140.410 288.800,139.600 288.620,139.600 288.400 C 139.600 288.180,138.880 288.000,138.000 288.000 C 137.120 288.000,136.400 287.820,136.400 287.600 C 136.400 287.380,135.860 287.200,135.200 287.200 C 134.540 287.200,134.000 287.020,134.000 286.800 C 134.000 286.580,133.460 286.400,132.800 286.400 C 132.140 286.400,131.600 286.220,131.600 286.000 C 131.600 285.780,131.060 285.600,130.400 285.600 C 129.740 285.600,129.200 285.420,129.200 285.200 C 129.200 284.980,128.660 284.800,128.000 284.800 C 127.340 284.800,126.800 284.620,126.800 284.400 C 126.800 284.180,126.440 284.000,126.000 284.000 C 125.560 284.000,125.200 283.820,125.200 283.600 C 125.200 283.380,124.930 283.200,124.600 283.200 C 124.270 283.200,124.000 283.020,124.000 282.800 C 124.000 282.580,123.460 282.400,122.800 282.400 C 122.140 282.400,121.600 282.220,121.600 282.000 C 121.600 281.780,121.240 281.600,120.800 281.600 C 120.360 281.600,120.000 281.420,120.000 281.200 C 120.000 280.980,119.640 280.800,119.200 280.800 C 118.760 280.800,118.400 280.620,118.400 280.400 C 118.400 280.180,118.040 280.000,117.600 280.000 C 117.160 280.000,116.800 279.820,116.800 279.600 C 116.800 279.380,116.440 279.200,116.000 279.200 C 115.560 279.200,115.200 279.020,115.200 278.800 C 115.200 278.580,114.840 278.400,114.400 278.400 C 113.960 278.400,113.600 278.220,113.600 278.000 C 113.600 277.780,113.253 277.600,112.829 277.600 C 112.404 277.600,111.787 277.330,111.457 277.000 C 111.127 276.670,110.614 276.400,110.317 276.400 C 110.020 276.400,109.517 276.040,109.200 275.600 C 108.883 275.160,108.433 274.800,108.200 274.800 C 107.967 274.800,107.517 274.440,107.200 274.000 C 106.883 273.560,106.375 273.200,106.072 273.200 C 105.769 273.200,105.017 272.660,104.400 272.000 C 103.783 271.340,103.080 270.800,102.836 270.800 C 102.293 270.800,91.600 260.161,91.600 259.622 C 91.600 259.410,91.150 258.786,90.600 258.236 C 90.050 257.686,89.600 256.998,89.600 256.706 C 89.600 256.415,89.240 255.917,88.800 255.600 C 88.360 255.283,88.000 254.703,88.000 254.312 C 88.000 253.920,87.820 253.600,87.600 253.600 C 87.380 253.600,87.200 253.280,87.200 252.888 C 87.200 252.497,86.840 251.917,86.400 251.600 C 85.960 251.283,85.600 250.703,85.600 250.312 C 85.600 249.920,85.420 249.600,85.200 249.600 C 84.980 249.600,84.800 249.240,84.800 248.800 C 84.800 248.360,84.620 248.000,84.400 248.000 C 84.180 248.000,84.000 247.640,84.000 247.200 C 84.000 246.760,83.820 246.400,83.600 246.400 C 83.380 246.400,83.200 245.860,83.200 245.200 C 83.200 244.540,83.020 244.000,82.800 244.000 C 82.580 244.000,82.400 243.730,82.400 243.400 C 82.400 243.070,82.220 242.800,82.000 242.800 C 81.780 242.800,81.600 242.440,81.600 242.000 C 81.600 241.560,81.420 241.200,81.200 241.200 C 80.980 241.200,80.800 240.660,80.800 240.000 C 80.800 239.340,80.620 238.800,80.400 238.800 C 80.180 238.800,80.000 238.260,80.000 237.600 C 80.000 236.940,79.820 236.400,79.600 236.400 C 79.380 236.400,79.200 235.860,79.200 235.200 C 79.200 234.540,79.020 234.000,78.800 234.000 C 78.580 234.000,78.400 233.460,78.400 232.800 C 78.400 232.140,78.220 231.600,78.000 231.600 C 77.780 231.600,77.600 230.880,77.600 230.000 C 77.600 229.120,77.420 228.400,77.200 228.400 C 76.980 228.400,76.800 227.950,76.800 227.400 C 76.800 226.850,76.620 226.400,76.400 226.400 C 76.180 226.400,76.000 225.500,76.000 224.400 C 76.000 223.300,75.838 222.400,75.640 222.400 C 75.442 222.400,75.151 220.147,74.992 217.394 C 74.833 214.640,74.545 212.290,74.352 212.170 C 74.158 212.051,74.000 210.253,74.000 208.176 C 74.000 205.925,73.838 204.400,73.600 204.400 C 73.346 204.400,73.200 201.267,73.200 195.800 C 73.200 190.333,73.346 187.200,73.600 187.200 C 73.833 187.200,74.000 185.867,74.000 184.000 C 74.000 182.240,74.154 180.800,74.342 180.800 C 74.531 180.800,74.808 179.315,74.959 177.500 C 75.109 175.685,75.405 174.140,75.616 174.067 C 75.827 173.993,76.000 173.228,76.000 172.367 C 76.000 171.505,76.180 170.800,76.400 170.800 C 76.620 170.800,76.800 170.260,76.800 169.600 C 76.800 168.940,76.980 168.400,77.200 168.400 C 77.420 168.400,77.600 167.860,77.600 167.200 C 77.600 166.540,77.780 166.000,78.000 166.000 C 78.220 166.000,78.400 165.640,78.400 165.200 C 78.400 164.760,78.580 164.400,78.800 164.400 C 79.020 164.400,79.200 164.040,79.200 163.600 C 79.200 163.160,79.380 162.800,79.600 162.800 C 79.820 162.800,80.000 162.260,80.000 161.600 C 80.000 160.940,80.180 160.400,80.400 160.400 C 80.620 160.400,80.800 160.040,80.800 159.600 C 80.800 159.160,80.980 158.800,81.200 158.800 C 81.420 158.800,81.600 158.570,81.600 158.288 C 81.600 158.007,81.960 157.517,82.400 157.200 C 82.840 156.883,83.200 156.303,83.200 155.912 C 83.200 155.520,83.380 155.200,83.600 155.200 C 83.820 155.200,84.000 154.840,84.000 154.400 C 84.000 153.960,84.180 153.600,84.400 153.600 C 84.620 153.600,84.800 153.312,84.800 152.960 C 84.800 152.609,85.340 151.817,86.000 151.200 C 86.660 150.583,87.200 149.831,87.200 149.528 C 87.200 149.225,87.560 148.717,88.000 148.400 C 88.440 148.083,88.800 147.587,88.800 147.298 C 88.800 147.010,89.385 146.152,90.100 145.394 C 93.214 142.089,93.200 142.112,93.200 140.014 C 93.200 138.906,93.020 138.000,92.800 138.000 C 92.580 138.000,92.400 137.640,92.400 137.200 C 92.400 136.760,92.239 136.400,92.042 136.400 C 91.845 136.400,91.556 134.960,91.400 133.200 C 91.244 131.440,90.955 130.000,90.758 130.000 C 90.561 130.000,90.400 129.010,90.400 127.800 C 90.400 126.590,90.220 125.600,90.000 125.600 C 89.747 125.600,89.600 122.667,89.600 117.600 C 89.600 112.533,89.747 109.600,90.000 109.600 C 90.220 109.600,90.400 108.610,90.400 107.400 C 90.400 106.190,90.557 105.200,90.748 105.200 C 90.940 105.200,91.224 103.580,91.378 101.600 C 91.533 99.620,91.827 98.000,92.030 98.000 C 92.234 98.000,92.400 97.460,92.400 96.800 C 92.400 96.140,92.580 95.600,92.800 95.600 C 93.020 95.600,93.200 95.060,93.200 94.400 C 93.200 93.740,93.380 93.200,93.600 93.200 C 93.820 93.200,94.000 92.750,94.000 92.200 C 94.000 91.650,94.180 91.200,94.400 91.200 C 94.620 91.200,94.800 90.660,94.800 90.000 C 94.800 89.067,94.978 88.800,95.600 88.800 C 96.040 88.800,96.400 88.620,96.400 88.400 C 96.400 88.160,98.000 88.000,100.400 88.000 C 102.800 88.000,104.400 88.160,104.400 88.400 C 104.400 88.620,105.120 88.800,106.000 88.800 C 106.880 88.800,107.600 88.980,107.600 89.200 C 107.600 89.420,108.219 89.600,108.976 89.600 C 109.733 89.600,110.464 89.780,110.600 90.000 C 110.736 90.220,111.287 90.400,111.824 90.400 C 112.361 90.400,112.800 90.562,112.800 90.761 C 112.800 90.959,113.880 91.247,115.200 91.400 C 116.520 91.553,117.600 91.841,117.600 92.039 C 117.600 92.238,117.960 92.400,118.400 92.400 C 118.840 92.400,119.200 92.580,119.200 92.800 C 119.200 93.020,119.560 93.200,120.000 93.200 C 120.440 93.200,120.800 93.380,120.800 93.600 C 120.800 93.820,121.340 94.000,122.000 94.000 C 122.660 94.000,123.200 94.180,123.200 94.400 C 123.200 94.620,123.560 94.800,124.000 94.800 C 124.440 94.800,124.800 94.980,124.800 95.200 C 124.800 95.420,125.160 95.600,125.600 95.600 C 126.040 95.600,126.400 95.780,126.400 96.000 C 126.400 96.220,126.850 96.400,127.400 96.400 C 127.950 96.400,128.400 96.580,128.400 96.800 C 128.400 97.020,128.760 97.200,129.200 97.200 C 129.640 97.200,130.000 97.380,130.000 97.600 C 130.000 97.820,130.360 98.000,130.800 98.000 C 131.240 98.000,131.600 98.180,131.600 98.400 C 131.600 98.620,131.960 98.800,132.400 98.800 C 132.840 98.800,133.200 98.980,133.200 99.200 C 133.200 99.420,133.560 99.600,134.000 99.600 C 134.440 99.600,134.800 99.780,134.800 100.000 C 134.800 100.220,135.160 100.400,135.600 100.400 C 136.040 100.400,136.400 100.580,136.400 100.800 C 136.400 101.020,136.720 101.200,137.112 101.200 C 137.503 101.200,138.083 101.560,138.400 102.000 C 138.717 102.440,139.297 102.800,139.688 102.800 C 140.080 102.800,140.400 102.980,140.400 103.200 C 140.400 103.420,140.720 103.600,141.112 103.600 C 141.503 103.600,142.083 103.960,142.400 104.400 C 142.717 104.840,143.207 105.200,143.488 105.200 C 143.770 105.200,144.000 105.350,144.000 105.532 C 144.000 105.715,144.495 106.119,145.100 106.430 C 145.705 106.740,146.531 107.356,146.935 107.797 C 147.769 108.708,154.829 108.912,155.122 108.034 C 155.202 107.795,155.871 107.600,156.610 107.600 C 157.348 107.600,158.064 107.420,158.200 107.200 C 158.336 106.980,159.247 106.800,160.224 106.800 C 161.201 106.800,162.000 106.620,162.000 106.400 C 162.000 106.180,162.900 106.000,164.000 106.000 C 165.100 106.000,166.000 105.820,166.000 105.600 C 166.000 105.378,167.067 105.200,168.400 105.200 C 169.733 105.200,170.800 105.022,170.800 104.800 C 170.800 104.580,171.790 104.400,173.000 104.400 C 174.210 104.400,175.200 104.220,175.200 104.000 C 175.200 103.760,176.800 103.600,179.200 103.600 C 181.600 103.600,183.200 103.440,183.200 103.200 C 183.200 102.949,185.667 102.800,189.800 102.800 C 193.933 102.800,196.400 102.651,196.400 102.400 C 196.400 102.163,197.867 102.000,200.000 102.000 C 202.133 102.000,203.600 102.163,203.600 102.400 C 203.600 102.651,206.067 102.800,210.200 102.800 C 214.333 102.800,216.800 102.949,216.800 103.200 C 216.800 103.440,218.400 103.600,220.800 103.600 C 223.200 103.600,224.800 103.760,224.800 104.000 C 224.800 104.220,225.790 104.400,227.000 104.400 C 228.210 104.400,229.200 104.580,229.200 104.800 C 229.200 105.022,230.267 105.200,231.600 105.200 C 232.933 105.200,234.000 105.378,234.000 105.600 C 234.000 105.820,234.900 106.000,236.000 106.000 C 237.100 106.000,238.000 106.180,238.000 106.400 C 238.000 106.620,238.900 106.800,240.000 106.800 C 241.100 106.800,242.000 106.980,242.000 107.200 C 242.000 107.420,242.594 107.600,243.320 107.600 C 244.046 107.600,244.842 107.802,245.089 108.049 C 246.018 108.978,252.237 108.708,253.112 107.700 C 253.542 107.205,254.148 106.800,254.459 106.800 C 254.769 106.800,255.283 106.440,255.600 106.000 C 255.917 105.560,256.457 105.200,256.800 105.200 C 257.143 105.200,257.683 104.840,258.000 104.400 C 258.317 103.960,258.807 103.600,259.088 103.600 C 259.370 103.600,259.600 103.420,259.600 103.200 C 259.600 102.980,259.960 102.800,260.400 102.800 C 260.840 102.800,261.200 102.620,261.200 102.400 C 261.200 102.180,261.520 102.000,261.912 102.000 C 262.303 102.000,262.883 101.640,263.200 101.200 C 263.517 100.760,264.097 100.400,264.488 100.400 C 264.880 100.400,265.200 100.220,265.200 100.000 C 265.200 99.780,265.560 99.600,266.000 99.600 C 266.440 99.600,266.800 99.420,266.800 99.200 C 266.800 98.980,267.160 98.800,267.600 98.800 C 268.040 98.800,268.400 98.620,268.400 98.400 C 268.400 98.180,268.760 98.000,269.200 98.000 C 269.640 98.000,270.000 97.820,270.000 97.600 C 270.000 97.380,270.360 97.200,270.800 97.200 C 271.240 97.200,271.600 97.020,271.600 96.800 C 271.600 96.580,271.960 96.400,272.400 96.400 C 272.840 96.400,273.200 96.220,273.200 96.000 C 273.200 95.780,273.560 95.600,274.000 95.600 C 274.440 95.600,274.800 95.420,274.800 95.200 C 274.800 94.980,275.250 94.800,275.800 94.800 C 276.350 94.800,276.800 94.620,276.800 94.400 C 276.800 94.180,277.160 94.000,277.600 94.000 C 278.040 94.000,278.400 93.820,278.400 93.600 C 278.400 93.380,278.760 93.200,279.200 93.200 C 279.640 93.200,280.000 93.020,280.000 92.800 C 280.000 92.580,280.540 92.400,281.200 92.400 C 281.860 92.400,282.400 92.226,282.400 92.014 C 282.400 91.801,283.300 91.508,284.400 91.362 C 285.500 91.216,286.400 90.940,286.400 90.748 C 286.400 90.557,286.940 90.400,287.600 90.400 C 288.260 90.400,288.800 90.220,288.800 90.000 C 288.800 89.780,289.340 89.600,290.000 89.600 C 290.660 89.600,291.200 89.420,291.200 89.200 C 291.200 88.980,292.010 88.800,293.000 88.800 C 293.990 88.800,294.800 88.620,294.800 88.400 C 294.800 88.159,296.473 88.000,299.018 88.000 C 303.578 88.000,305.200 88.730,305.200 90.782 C 305.200 91.232,305.380 91.600,305.600 91.600 C 305.820 91.600,306.000 92.140,306.000 92.800 C 306.000 93.460,306.180 94.000,306.400 94.000 C 306.620 94.000,306.800 94.540,306.800 95.200 C 306.800 95.860,306.980 96.400,307.200 96.400 C 307.420 96.400,307.600 96.940,307.600 97.600 C 307.600 98.260,307.780 98.800,308.000 98.800 C 308.220 98.800,308.400 99.520,308.400 100.400 C 308.400 101.280,308.580 102.000,308.800 102.000 C 309.020 102.000,309.200 102.885,309.200 103.967 C 309.200 105.184,309.390 105.997,309.700 106.100 C 310.085 106.228,310.200 108.969,310.200 118.000 C 310.200 127.031,310.085 129.772,309.700 129.900 C 309.413 129.995,309.200 130.736,309.200 131.633 C 309.200 132.495,309.020 133.200,308.800 133.200 C 308.580 133.200,308.400 133.920,308.400 134.800 C 308.400 135.680,308.220 136.400,308.000 136.400 C 307.780 136.400,307.600 136.760,307.600 137.200 C 307.600 137.640,307.420 138.000,307.200 138.000 C 305.914 138.000,306.822 142.044,308.500 143.787 C 310.841 146.219,311.200 146.686,311.200 147.295 C 311.200 147.586,311.560 148.083,312.000 148.400 C 312.440 148.717,312.800 149.257,312.800 149.600 C 312.800 149.943,313.160 150.483,313.600 150.800 C 314.040 151.117,314.400 151.657,314.400 152.000 C 314.400 152.343,314.760 152.883,315.200 153.200 C 315.640 153.517,316.000 154.097,316.000 154.488 C 316.000 154.880,316.180 155.200,316.400 155.200 C 316.620 155.200,316.800 155.520,316.800 155.912 C 316.800 156.303,317.160 156.883,317.600 157.200 C 318.040 157.517,318.400 158.007,318.400 158.288 C 318.400 158.570,318.580 158.800,318.800 158.800 C 319.020 158.800,319.200 159.160,319.200 159.600 C 319.200 160.040,319.380 160.400,319.600 160.400 C 319.820 160.400,320.000 160.940,320.000 161.600 C 320.000 162.260,320.180 162.800,320.400 162.800 C 320.620 162.800,320.800 163.160,320.800 163.600 C 320.800 164.040,320.980 164.400,321.200 164.400 C 321.420 164.400,321.600 164.760,321.600 165.200 C 321.600 165.640,321.780 166.000,322.000 166.000 C 322.220 166.000,322.400 166.540,322.400 167.200 C 322.400 167.860,322.580 168.400,322.800 168.400 C 323.020 168.400,323.200 168.940,323.200 169.600 C 323.200 170.260,323.380 170.800,323.600 170.800 C 323.820 170.800,324.000 171.520,324.000 172.400 C 324.000 173.280,324.180 174.000,324.400 174.000 C 324.620 174.000,324.800 174.630,324.800 175.400 C 324.800 176.170,324.980 176.800,325.200 176.800 C 325.420 176.800,325.600 177.700,325.600 178.800 C 325.600 179.900,325.780 180.800,326.000 180.800 C 326.237 180.800,326.400 182.267,326.400 184.400 C 326.400 186.533,326.563 188.000,326.800 188.000 C 327.054 188.000,327.200 191.000,327.200 196.200 C 327.200 201.400,327.054 204.400,326.800 204.400 C 326.561 204.400,326.400 205.933,326.400 208.200 C 326.400 210.467,326.239 212.000,326.000 212.000 C 325.767 212.000,325.600 213.333,325.600 215.200 C 325.600 217.067,325.433 218.400,325.200 218.400 C 324.980 218.400,324.800 219.300,324.800 220.400 C 324.800 221.500,324.620 222.400,324.400 222.400 C 324.180 222.400,324.000 223.300,324.000 224.400 C 324.000 225.500,323.820 226.400,323.600 226.400 C 323.380 226.400,323.200 227.030,323.200 227.800 C 323.200 228.570,323.020 229.200,322.800 229.200 C 322.580 229.200,322.400 229.740,322.400 230.400 C 322.400 231.060,322.220 231.600,322.000 231.600 C 321.780 231.600,321.600 232.320,321.600 233.200 C 321.600 234.080,321.420 234.800,321.200 234.800 C 320.980 234.800,320.800 235.160,320.800 235.600 C 320.800 236.040,320.620 236.400,320.400 236.400 C 320.180 236.400,320.000 236.940,320.000 237.600 C 320.000 238.260,319.820 238.800,319.600 238.800 C 319.380 238.800,319.200 239.340,319.200 240.000 C 319.200 240.660,319.020 241.200,318.800 241.200 C 318.580 241.200,318.400 241.560,318.400 242.000 C 318.400 242.440,318.220 242.800,318.000 242.800 C 317.780 242.800,317.600 243.250,317.600 243.800 C 317.600 244.350,317.420 244.800,317.200 244.800 C 316.980 244.800,316.800 245.160,316.800 245.600 C 316.800 246.040,316.620 246.400,316.400 246.400 C 316.180 246.400,316.000 246.760,316.000 247.200 C 316.000 247.640,315.820 248.000,315.600 248.000 C 315.380 248.000,315.200 248.360,315.200 248.800 C 315.200 249.240,315.020 249.600,314.800 249.600 C 314.580 249.600,314.400 249.920,314.400 250.312 C 314.400 250.703,314.040 251.283,313.600 251.600 C 313.160 251.917,312.800 252.497,312.800 252.888 C 312.800 253.280,312.620 253.600,312.400 253.600 C 312.180 253.600,312.000 253.920,312.000 254.312 C 312.000 254.703,311.640 255.283,311.200 255.600 C 310.760 255.917,310.400 256.489,310.400 256.870 C 310.400 257.252,309.950 258.014,309.400 258.564 C 308.850 259.114,308.400 259.663,308.400 259.785 C 308.400 260.215,297.602 270.800,297.164 270.800 C 296.920 270.800,296.217 271.340,295.600 272.000 C 294.983 272.660,294.321 273.200,294.128 273.200 C 293.935 273.200,293.517 273.560,293.200 274.000 C 292.883 274.440,292.303 274.800,291.912 274.800 C 291.520 274.800,291.200 274.980,291.200 275.200 C 291.200 275.420,290.880 275.600,290.488 275.600 C 290.097 275.600,289.525 275.950,289.217 276.377 C 288.909 276.804,287.969 277.270,287.128 277.412 C 286.288 277.554,285.600 277.834,285.600 278.035 C 285.600 278.236,285.280 278.400,284.888 278.400 C 284.497 278.400,283.917 278.760,283.600 279.200 C 283.283 279.640,282.703 280.000,282.312 280.000 C 281.920 280.000,281.600 280.180,281.600 280.400 C 281.600 280.620,281.240 280.800,280.800 280.800 C 280.360 280.800,280.000 280.980,280.000 281.200 C 280.000 281.420,279.460 281.600,278.800 281.600 C 278.140 281.600,277.600 281.780,277.600 282.000 C 277.600 282.220,277.330 282.400,277.000 282.400 C 276.670 282.400,276.400 282.580,276.400 282.800 C 276.400 283.020,276.040 283.200,275.600 283.200 C 275.160 283.200,274.800 283.380,274.800 283.600 C 274.800 283.820,274.260 284.000,273.600 284.000 C 272.940 284.000,272.400 284.180,272.400 284.400 C 272.400 284.620,272.040 284.800,271.600 284.800 C 271.160 284.800,270.800 284.980,270.800 285.200 C 270.800 285.420,270.260 285.600,269.600 285.600 C 268.940 285.600,268.400 285.780,268.400 286.000 C 268.400 286.220,267.860 286.400,267.200 286.400 C 266.540 286.400,266.000 286.580,266.000 286.800 C 266.000 287.020,265.280 287.200,264.400 287.200 C 263.520 287.200,262.800 287.380,262.800 287.600 C 262.800 287.820,262.170 288.000,261.400 288.000 C 260.630 288.000,260.000 288.180,260.000 288.400 C 260.000 288.620,259.280 288.800,258.400 288.800 C 257.520 288.800,256.800 288.980,256.800 289.200 C 256.800 289.420,255.900 289.600,254.800 289.600 C 253.700 289.600,252.800 289.780,252.800 290.000 C 252.800 290.220,251.900 290.400,250.800 290.400 C 249.700 290.400,248.800 290.580,248.800 290.800 C 248.800 291.026,247.667 291.200,246.200 291.200 C 244.733 291.200,243.600 291.374,243.600 291.600 C 243.600 291.829,242.400 292.000,240.800 292.000 C 239.200 292.000,238.000 292.171,238.000 292.400 C 238.000 292.620,237.460 292.800,236.800 292.800 C 235.086 292.800,235.288 293.338,238.000 296.000 C 239.320 297.296,240.400 298.596,240.400 298.890 C 240.400 299.183,240.760 299.683,241.200 300.000 C 241.640 300.317,242.000 300.857,242.000 301.200 C 242.000 301.543,242.350 302.075,242.777 302.383 C 243.204 302.691,243.670 303.631,243.812 304.472 C 243.954 305.312,244.234 306.000,244.435 306.000 C 244.636 306.000,244.800 306.439,244.800 306.976 C 244.800 307.513,244.980 308.064,245.200 308.200 C 245.420 308.336,245.600 308.887,245.600 309.424 C 245.600 309.961,245.780 310.400,246.000 310.400 C 246.220 310.400,246.400 310.940,246.400 311.600 C 246.400 312.260,246.580 312.800,246.800 312.800 C 247.020 312.800,247.200 313.520,247.200 314.400 C 247.200 315.280,247.380 316.000,247.600 316.000 C 247.829 316.000,248.000 317.200,248.000 318.800 C 248.000 320.400,248.171 321.600,248.400 321.600 C 248.663 321.600,248.800 332.933,248.800 354.800 C 248.800 376.667,248.937 388.000,249.200 388.000 C 249.420 388.000,249.600 388.540,249.600 389.200 C 249.600 389.860,249.780 390.400,250.000 390.400 C 250.220 390.400,250.400 390.585,250.400 390.811 C 250.400 391.688,253.980 394.800,254.989 394.800 C 255.545 394.800,256.000 394.980,256.000 395.200 C 256.000 395.441,257.667 395.600,260.200 395.600 C 262.733 395.600,264.400 395.441,264.400 395.200 C 264.400 394.980,264.760 394.800,265.200 394.800 C 265.640 394.800,266.000 394.620,266.000 394.400 C 266.000 394.180,266.540 394.000,267.200 394.000 C 267.860 394.000,268.400 393.820,268.400 393.600 C 268.400 393.380,268.940 393.200,269.600 393.200 C 270.260 393.200,270.800 393.020,270.800 392.800 C 270.800 392.580,271.160 392.400,271.600 392.400 C 272.040 392.400,272.400 392.241,272.400 392.046 C 272.400 391.851,273.390 391.568,274.600 391.417 C 275.810 391.266,276.800 390.975,276.800 390.771 C 276.800 390.567,277.160 390.400,277.600 390.400 C 278.040 390.400,278.400 390.220,278.400 390.000 C 278.400 389.780,278.760 389.600,279.200 389.600 C 279.640 389.600,280.000 389.420,280.000 389.200 C 280.000 388.980,280.540 388.800,281.200 388.800 C 281.860 388.800,282.400 388.620,282.400 388.400 C 282.400 388.180,282.760 388.000,283.200 388.000 C 283.640 388.000,284.000 387.820,284.000 387.600 C 284.000 387.380,284.360 387.200,284.800 387.200 C 285.240 387.200,285.600 387.020,285.600 386.800 C 285.600 386.580,285.960 386.400,286.400 386.400 C 286.840 386.400,287.200 386.220,287.200 386.000 C 287.200 385.780,287.560 385.600,288.000 385.600 C 288.440 385.600,288.800 385.420,288.800 385.200 C 288.800 384.980,289.160 384.800,289.600 384.800 C 290.040 384.800,290.400 384.620,290.400 384.400 C 290.400 384.180,290.810 384.000,291.312 384.000 C 291.813 384.000,292.483 383.640,292.800 383.200 C 293.117 382.760,293.697 382.400,294.088 382.400 C 294.480 382.400,294.800 382.220,294.800 382.000 C 294.800 381.780,295.160 381.600,295.600 381.600 C 296.040 381.600,296.400 381.420,296.400 381.200 C 296.400 380.980,296.720 380.800,297.112 380.800 C 297.503 380.800,298.083 380.440,298.400 380.000 C 298.717 379.560,299.297 379.200,299.688 379.200 C 300.080 379.200,300.400 379.020,300.400 378.800 C 300.400 378.580,300.760 378.400,301.200 378.400 C 301.640 378.400,302.000 378.220,302.000 378.000 C 302.000 377.780,302.360 377.600,302.800 377.600 C 303.240 377.600,303.600 377.420,303.600 377.200 C 303.600 376.980,303.920 376.800,304.312 376.800 C 304.703 376.800,305.283 376.440,305.600 376.000 C 305.917 375.560,306.475 375.200,306.839 375.200 C 307.204 375.200,307.726 374.930,308.000 374.600 C 308.274 374.270,308.706 374.000,308.961 374.000 C 309.215 374.000,309.683 373.640,310.000 373.200 C 310.317 372.760,310.857 372.400,311.200 372.400 C 311.543 372.400,312.083 372.040,312.400 371.600 C 312.717 371.160,313.257 370.800,313.600 370.800 C 313.943 370.800,314.483 370.440,314.800 370.000 C 315.117 369.560,315.657 369.200,316.000 369.200 C 316.343 369.200,316.883 368.840,317.200 368.400 C 317.517 367.960,318.021 367.600,318.320 367.600 C 318.618 367.600,319.554 366.880,320.400 366.000 C 321.246 365.120,322.149 364.400,322.408 364.400 C 322.943 364.400,325.200 362.103,325.200 361.558 C 325.200 361.361,325.476 361.200,325.813 361.200 C 326.151 361.200,327.057 360.570,327.827 359.800 C 328.597 359.030,329.496 358.400,329.826 358.400 C 330.156 358.400,332.394 356.420,334.800 354.000 C 337.206 351.580,339.410 349.600,339.699 349.600 C 339.987 349.600,340.488 349.214,340.812 348.742 C 341.135 348.270,341.985 347.286,342.700 346.555 C 343.415 345.825,344.008 344.996,344.018 344.713 C 344.029 344.431,344.754 343.570,345.631 342.800 C 349.022 339.821,352.000 336.824,352.000 336.391 C 352.000 336.141,352.720 335.246,353.600 334.400 C 354.480 333.554,355.200 332.654,355.200 332.400 C 355.200 332.146,355.920 331.246,356.800 330.400 C 357.680 329.554,358.400 328.585,358.400 328.245 C 358.400 327.905,359.030 326.997,359.800 326.227 C 360.570 325.457,361.200 324.713,361.200 324.574 C 361.200 324.435,361.740 323.817,362.400 323.200 C 363.060 322.583,363.600 321.831,363.600 321.528 C 363.600 321.225,363.960 320.717,364.400 320.400 C 364.840 320.083,365.200 319.543,365.200 319.200 C 365.200 318.857,365.560 318.317,366.000 318.000 C 366.440 317.683,366.800 317.143,366.800 316.800 C 366.800 316.457,367.160 315.917,367.600 315.600 C 368.040 315.283,368.400 314.743,368.400 314.400 C 368.400 314.057,368.760 313.517,369.200 313.200 C 369.640 312.883,370.000 312.343,370.000 312.000 C 370.000 311.657,370.360 311.117,370.800 310.800 C 371.240 310.483,371.600 309.903,371.600 309.512 C 371.600 309.120,371.780 308.800,372.000 308.800 C 372.220 308.800,372.400 308.558,372.400 308.262 C 372.400 307.966,372.760 307.398,373.200 307.000 C 373.640 306.602,374.000 306.034,374.000 305.738 C 374.000 305.442,374.164 305.200,374.365 305.200 C 374.566 305.200,374.846 304.512,374.988 303.672 C 375.130 302.831,375.596 301.891,376.023 301.583 C 376.450 301.275,376.800 300.703,376.800 300.312 C 376.800 299.920,376.980 299.600,377.200 299.600 C 377.420 299.600,377.600 299.240,377.600 298.800 C 377.600 298.360,377.780 298.000,378.000 298.000 C 378.220 298.000,378.400 297.640,378.400 297.200 C 378.400 296.760,378.580 296.400,378.800 296.400 C 379.020 296.400,379.200 296.040,379.200 295.600 C 379.200 295.160,379.380 294.800,379.600 294.800 C 379.820 294.800,380.000 294.440,380.000 294.000 C 380.000 293.560,380.180 293.200,380.400 293.200 C 380.620 293.200,380.800 292.840,380.800 292.400 C 380.800 291.960,380.980 291.600,381.200 291.600 C 381.420 291.600,381.600 291.330,381.600 291.000 C 381.600 290.670,381.780 290.400,382.000 290.400 C 382.220 290.400,382.400 290.040,382.400 289.600 C 382.400 289.160,382.580 288.800,382.800 288.800 C 383.020 288.800,383.200 288.260,383.200 287.600 C 383.200 286.940,383.380 286.400,383.600 286.400 C 383.820 286.400,384.000 286.040,384.000 285.600 C 384.000 285.160,384.180 284.800,384.400 284.800 C 384.620 284.800,384.800 284.440,384.800 284.000 C 384.800 283.560,384.980 283.200,385.200 283.200 C 385.420 283.200,385.600 282.840,385.600 282.400 C 385.600 281.960,385.780 281.600,386.000 281.600 C 386.220 281.600,386.400 281.060,386.400 280.400 C 386.400 279.740,386.580 279.200,386.800 279.200 C 387.020 279.200,387.200 278.840,387.200 278.400 C 387.200 277.960,387.380 277.600,387.600 277.600 C 387.820 277.600,388.000 277.060,388.000 276.400 C 388.000 275.740,388.180 275.200,388.400 275.200 C 388.620 275.200,388.800 274.750,388.800 274.200 C 388.800 273.650,388.980 273.200,389.200 273.200 C 389.420 273.200,389.600 272.660,389.600 272.000 C 389.600 271.340,389.780 270.800,390.000 270.800 C 390.220 270.800,390.400 270.440,390.400 270.000 C 390.400 269.560,390.569 269.200,390.776 269.200 C 390.982 269.200,391.276 267.940,391.427 266.400 C 391.579 264.860,391.860 263.600,392.052 263.600 C 392.243 263.600,392.400 263.060,392.400 262.400 C 392.400 261.740,392.580 261.200,392.800 261.200 C 393.020 261.200,393.200 260.570,393.200 259.800 C 393.200 259.030,393.380 258.400,393.600 258.400 C 393.820 258.400,394.000 257.680,394.000 256.800 C 394.000 255.920,394.180 255.200,394.400 255.200 C 394.620 255.200,394.800 254.660,394.800 254.000 C 394.800 253.340,394.980 252.800,395.200 252.800 C 395.420 252.800,395.600 251.900,395.600 250.800 C 395.600 249.700,395.780 248.800,396.000 248.800 C 396.220 248.800,396.400 247.900,396.400 246.800 C 396.400 245.700,396.580 244.800,396.800 244.800 C 397.020 244.800,397.200 243.990,397.200 243.000 C 397.200 242.010,397.380 241.200,397.600 241.200 C 397.822 241.200,398.000 240.133,398.000 238.800 C 398.000 237.467,398.178 236.400,398.400 236.400 C 398.637 236.400,398.800 234.944,398.800 232.833 C 398.800 230.336,398.950 229.217,399.300 229.100 C 400.032 228.856,400.032 179.544,399.300 179.300 C 398.969 179.190,398.800 178.264,398.800 176.567 C 398.800 175.122,398.625 174.000,398.400 174.000 C 398.178 174.000,398.000 172.933,398.000 171.600 C 398.000 170.267,397.822 169.200,397.600 169.200 C 397.378 169.200,397.200 168.133,397.200 166.800 C 397.200 165.467,397.022 164.400,396.800 164.400 C 396.580 164.400,396.400 163.680,396.400 162.800 C 396.400 161.920,396.220 161.200,396.000 161.200 C 395.780 161.200,395.600 160.390,395.600 159.400 C 395.600 158.410,395.420 157.600,395.200 157.600 C 394.980 157.600,394.800 156.880,394.800 156.000 C 394.800 155.120,394.620 154.400,394.400 154.400 C 394.180 154.400,394.000 153.680,394.000 152.800 C 394.000 151.920,393.820 151.200,393.600 151.200 C 393.380 151.200,393.200 150.660,393.200 150.000 C 393.200 149.340,393.020 148.800,392.800 148.800 C 392.580 148.800,392.400 148.260,392.400 147.600 C 392.400 146.940,392.241 146.400,392.047 146.400 C 391.852 146.400,391.568 145.230,391.415 143.800 C 391.262 142.370,390.971 141.200,390.768 141.200 C 390.566 141.200,390.400 140.660,390.400 140.000 C 390.400 139.340,390.220 138.800,390.000 138.800 C 389.780 138.800,389.600 138.260,389.600 137.600 C 389.600 136.940,389.420 136.400,389.200 136.400 C 388.980 136.400,388.800 136.040,388.800 135.600 C 388.800 135.160,388.620 134.800,388.400 134.800 C 388.180 134.800,388.000 134.260,388.000 133.600 C 388.000 132.940,387.820 132.400,387.600 132.400 C 387.380 132.400,387.200 131.860,387.200 131.200 C 387.200 130.540,387.020 130.000,386.800 130.000 C 386.580 130.000,386.400 129.640,386.400 129.200 C 386.400 128.760,386.220 128.400,386.000 128.400 C 385.780 128.400,385.600 127.950,385.600 127.400 C 385.600 126.850,385.420 126.400,385.200 126.400 C 384.980 126.400,384.800 126.040,384.800 125.600 C 384.800 125.160,384.620 124.800,384.400 124.800 C 384.180 124.800,384.000 124.440,384.000 124.000 C 384.000 123.560,383.820 123.200,383.600 123.200 C 383.380 123.200,383.200 122.840,383.200 122.400 C 383.200 121.960,383.020 121.600,382.800 121.600 C 382.580 121.600,382.400 121.240,382.400 120.800 C 382.400 120.360,382.220 120.000,382.000 120.000 C 381.780 120.000,381.600 119.640,381.600 119.200 C 381.600 118.760,381.420 118.400,381.200 118.400 C 380.980 118.400,380.800 117.860,380.800 117.200 C 380.800 116.540,380.620 116.000,380.400 116.000 C 380.180 116.000,380.000 115.640,380.000 115.200 C 380.000 114.760,379.820 114.400,379.600 114.400 C 379.380 114.400,379.200 114.080,379.200 113.688 C 379.200 113.297,378.840 112.717,378.400 112.400 C 377.960 112.083,377.600 111.503,377.600 111.112 C 377.600 110.720,377.420 110.400,377.200 110.400 C 376.980 110.400,376.800 110.130,376.800 109.800 C 376.800 109.470,376.620 109.200,376.400 109.200 C 376.180 109.200,376.000 108.840,376.000 108.400 C 376.000 107.960,375.836 107.600,375.635 107.600 C 375.434 107.600,375.154 106.912,375.012 106.072 C 374.870 105.231,374.404 104.291,373.977 103.983 C 373.550 103.675,373.200 103.103,373.200 102.712 C 373.200 102.320,373.020 102.000,372.800 102.000 C 372.580 102.000,372.400 101.680,372.400 101.288 C 372.400 100.897,372.040 100.317,371.600 100.000 C 371.160 99.683,370.800 99.143,370.800 98.800 C 370.800 98.457,370.440 97.917,370.000 97.600 C 369.560 97.283,369.200 96.703,369.200 96.312 C 369.200 95.920,369.020 95.600,368.800 95.600 C 368.580 95.600,368.400 95.252,368.400 94.827 C 368.400 94.402,368.040 93.940,367.600 93.800 C 367.160 93.660,366.800 93.270,366.800 92.934 C 366.800 92.597,366.260 91.817,365.600 91.200 C 364.940 90.583,364.400 89.831,364.400 89.528 C 364.400 89.225,364.040 88.717,363.600 88.400 C 363.160 88.083,362.800 87.575,362.800 87.272 C 362.800 86.969,362.260 86.217,361.600 85.600 C 360.940 84.983,360.400 84.273,360.400 84.021 C 360.400 83.770,359.950 83.114,359.400 82.564 C 358.850 82.014,358.400 81.295,358.400 80.966 C 358.400 80.637,357.680 79.683,356.800 78.846 C 355.920 78.009,355.200 77.194,355.200 77.036 C 355.200 76.878,354.300 75.871,353.200 74.800 C 352.100 73.729,351.200 72.657,351.200 72.419 C 351.200 71.842,332.964 53.600,332.387 53.600 C 332.140 53.600,331.246 52.880,330.400 52.000 C 329.554 51.120,328.654 50.400,328.400 50.400 C 327.861 50.400,324.800 47.311,324.800 46.767 C 324.800 46.565,324.466 46.400,324.058 46.400 C 323.650 46.400,322.885 45.887,322.358 45.261 C 321.831 44.634,320.905 44.001,320.300 43.853 C 319.695 43.706,319.200 43.408,319.200 43.192 C 319.200 42.977,318.912 42.800,318.560 42.800 C 318.209 42.800,317.417 42.260,316.800 41.600 C 316.183 40.940,315.463 40.400,315.200 40.400 C 314.937 40.400,314.217 39.860,313.600 39.200 C 312.983 38.540,312.191 38.000,311.840 38.000 C 311.488 38.000,311.200 37.820,311.200 37.600 C 311.200 37.380,310.880 37.200,310.488 37.200 C 310.097 37.200,309.517 36.840,309.200 36.400 C 308.883 35.960,308.433 35.600,308.200 35.600 C 307.967 35.600,307.517 35.240,307.200 34.800 C 306.883 34.360,306.303 34.000,305.912 34.000 C 305.520 34.000,305.200 33.820,305.200 33.600 C 305.200 33.380,304.880 33.200,304.488 33.200 C 304.097 33.200,303.517 32.840,303.200 32.400 C 302.883 31.960,302.303 31.600,301.912 31.600 C 301.520 31.600,301.200 31.420,301.200 31.200 C 301.200 30.980,300.880 30.800,300.488 30.800 C 300.097 30.800,299.517 30.440,299.200 30.000 C 298.883 29.560,298.303 29.200,297.912 29.200 C 297.520 29.200,297.200 29.020,297.200 28.800 C 297.200 28.580,296.840 28.400,296.400 28.400 C 295.960 28.400,295.600 28.236,295.600 28.035 C 295.600 27.834,294.880 27.549,294.000 27.400 C 293.120 27.251,292.400 26.966,292.400 26.765 C 292.400 26.564,292.130 26.400,291.800 26.400 C 291.470 26.400,291.200 26.220,291.200 26.000 C 291.200 25.780,290.840 25.600,290.400 25.600 C 289.960 25.600,289.600 25.420,289.600 25.200 C 289.600 24.980,289.240 24.800,288.800 24.800 C 288.360 24.800,288.000 24.620,288.000 24.400 C 288.000 24.180,287.640 24.000,287.200 24.000 C 286.760 24.000,286.400 23.820,286.400 23.600 C 286.400 23.380,286.040 23.200,285.600 23.200 C 285.160 23.200,284.800 23.020,284.800 22.800 C 284.800 22.580,284.440 22.400,284.000 22.400 C 283.560 22.400,283.200 22.220,283.200 22.000 C 283.200 21.780,282.840 21.600,282.400 21.600 C 281.960 21.600,281.600 21.420,281.600 21.200 C 281.600 20.980,281.240 20.800,280.800 20.800 C 280.360 20.800,280.000 20.620,280.000 20.400 C 280.000 20.180,279.460 20.000,278.800 20.000 C 278.140 20.000,277.600 19.820,277.600 19.600 C 277.600 19.380,277.240 19.200,276.800 19.200 C 276.360 19.200,276.000 19.020,276.000 18.800 C 276.000 18.580,275.550 18.400,275.000 18.400 C 274.450 18.400,274.000 18.220,274.000 18.000 C 274.000 17.780,273.640 17.600,273.200 17.600 C 272.760 17.600,272.400 17.420,272.400 17.200 C 272.400 16.980,271.860 16.800,271.200 16.800 C 270.540 16.800,270.000 16.620,270.000 16.400 C 270.000 16.180,269.460 16.000,268.800 16.000 C 268.140 16.000,267.600 15.820,267.600 15.600 C 267.600 15.380,267.240 15.200,266.800 15.200 C 266.360 15.200,266.000 15.020,266.000 14.800 C 266.000 14.580,265.280 14.400,264.400 14.400 C 263.520 14.400,262.800 14.220,262.800 14.000 C 262.800 13.780,262.260 13.600,261.600 13.600 C 260.940 13.600,260.400 13.420,260.400 13.200 C 260.400 12.980,259.961 12.800,259.424 12.800 C 258.887 12.800,258.336 12.620,258.200 12.400 C 258.064 12.180,257.513 12.000,256.976 12.000 C 256.439 12.000,256.000 11.820,256.000 11.600 C 256.000 11.380,255.280 11.200,254.400 11.200 C 253.520 11.200,252.800 11.039,252.800 10.842 C 252.800 10.645,251.360 10.356,249.600 10.200 C 247.840 10.044,246.400 9.755,246.400 9.558 C 246.400 9.361,245.500 9.200,244.400 9.200 C 243.300 9.200,242.400 9.020,242.400 8.800 C 242.400 8.580,241.770 8.400,241.000 8.400 C 240.230 8.400,239.600 8.220,239.600 8.000 C 239.600 7.778,238.533 7.600,237.200 7.600 C 235.867 7.600,234.800 7.422,234.800 7.200 C 234.800 6.971,233.600 6.800,232.000 6.800 C 230.400 6.800,229.200 6.629,229.200 6.400 C 229.200 6.169,227.933 6.000,226.200 6.000 C 224.467 6.000,223.200 5.831,223.200 5.600 C 223.200 5.360,221.600 5.200,219.200 5.200 C 216.800 5.200,215.200 5.040,215.200 4.800 C 215.200 4.540,209.867 4.400,200.000 4.400 C 190.133 4.400,184.800 4.540,184.800 4.800 M255.700 268.998 C 254.852 269.961,255.545 271.600,256.800 271.600 C 257.051 271.600,257.514 271.343,257.829 271.029 C 258.143 270.714,258.400 270.251,258.400 270.000 C 258.400 268.687,256.571 268.009,255.700 268.998 " stroke="none" fill="#ffffff" fill-rule="evenodd"></path><path id="path1" d="" stroke="none" fill="#ffffff" fill-rule="evenodd"></path></g></svg>