<?xml version="1.0" standalone="no"?>
<!DOCTYPE svg PUBLIC "-//W3C//DTD SVG 20010904//EN"
 "http://www.w3.org/TR/2001/REC-SVG-20010904/DTD/svg10.dtd">
<svg version="1.0" xmlns="http://www.w3.org/2000/svg"
 width="256.000000pt" height="256.000000pt" viewBox="0 0 256.000000 256.000000"
 preserveAspectRatio="xMidYMid meet">
<metadata>
Created by potrace 1.14, written by Peter Selinger 2001-2017
</metadata>
<g transform="translate(0.000000,256.000000) scale(0.100000,-0.100000)"
fill="#ffffff" stroke="none">
<path d="M0 1280 l0 -980 834 0 835 0 125 163 c69 89 148 191 176 227 188 246
312 407 323 420 27 33 223 284 245 313 12 17 22 35 22 40 0 13 -631 652 -641
649 -5 -1 -8 2 -7 7 2 5 -26 39 -61 75 l-63 66 -894 0 -894 0 0 -980z m1643
813 l37 -6 0 -128 0 -129 -82 0 c-64 0 -90 -4 -114 -19 -44 -27 -74 -94 -74
-164 l0 -57 110 0 110 0 0 -130 0 -130 -110 0 -110 0 0 -415 0 -415 -170 0
-170 0 0 415 0 415 -181 0 -181 0 5 -232 c2 -149 9 -246 17 -268 19 -56 53
-74 141 -78 l76 -4 7 -76 c3 -41 6 -96 6 -123 l0 -47 -50 -11 c-28 -6 -98 -11
-155 -11 -136 0 -198 22 -271 95 -42 42 -56 65 -73 120 -19 61 -21 91 -21 351
l0 284 -75 0 -75 0 0 130 0 130 75 0 75 0 0 94 c0 63 4 97 12 104 12 9 274 82
297 82 8 0 11 -43 11 -140 l0 -140 180 0 180 0 0 44 c0 71 28 186 61 253 58
117 166 188 329 217 26 4 118 -1 183 -11z"/>
</g>
</svg>
