<?xml version="1.0" standalone="no"?>
<!DOCTYPE svg PUBLIC "-//W3C//DTD SVG 20010904//EN"
 "http://www.w3.org/TR/2001/REC-SVG-20010904/DTD/svg10.dtd">
<svg version="1.0" xmlns="http://www.w3.org/2000/svg"
 width="512.000000pt" height="512.000000pt" viewBox="0 0 512.000000 512.000000"
 preserveAspectRatio="xMidYMid meet">
<metadata>
Created by potrace 1.14, written by Peter Selinger 2001-2017
</metadata>
<g transform="translate(0.000000,512.000000) scale(0.100000,-0.100000)"
fill="#ffffff" stroke="none">
<path d="M2237 5105 c-481 -68 -888 -238 -1257 -523 -106 -82 -346 -320 -430
-427 -213 -269 -384 -611 -469 -936 -66 -255 -76 -346 -76 -664 1 -257 3 -304
23 -413 106 -577 350 -1039 757 -1430 379 -365 833 -593 1359 -683 154 -27
511 -37 683 -19 292 29 588 114 853 243 799 389 1341 1164 1431 2041 17 172 7
526 -20 681 -92 532 -322 988 -691 1369 -395 407 -867 652 -1450 752 -132 23
-578 28 -713 9z m508 -315 c711 -64 1334 -448 1717 -1057 144 -229 254 -523
303 -813 22 -130 31 -439 16 -581 -80 -764 -544 -1435 -1226 -1776 -152 -76
-278 -123 -331 -123 -37 0 -51 5 -74 28 l-28 29 -5 399 c-4 339 -7 408 -22
459 -23 80 -60 154 -96 193 l-30 32 32 0 c54 0 272 48 365 81 343 120 543 363
608 741 16 89 24 289 15 373 -18 172 -81 335 -175 451 l-42 51 15 54 c21 78
27 231 14 319 -15 95 -48 205 -67 221 -19 16 -123 5 -211 -22 -85 -27 -205
-84 -312 -149 l-83 -51 -112 25 c-174 39 -278 51 -456 50 -176 0 -279 -11
-457 -50 l-111 -25 -69 44 c-163 106 -347 177 -466 180 l-71 2 -17 -35 c-9
-19 -25 -66 -35 -105 -25 -95 -26 -326 -2 -402 l17 -53 -35 -41 c-144 -173
-205 -400 -184 -686 24 -320 108 -523 284 -690 150 -143 374 -238 648 -275
l86 -12 -30 -35 c-39 -44 -84 -140 -98 -208 -7 -31 -18 -57 -28 -62 -35 -18
-188 -51 -237 -51 -61 0 -150 22 -207 51 -56 29 -136 110 -187 191 -84 134
-206 217 -329 225 -102 7 -138 -14 -116 -71 3 -8 43 -43 89 -77 113 -83 172
-161 238 -319 70 -168 215 -276 413 -311 66 -11 253 -7 317 7 l27 6 0 -208 c0
-183 -3 -212 -18 -230 -44 -55 -100 -57 -224 -9 -276 107 -523 266 -745 479
-349 335 -574 766 -660 1261 -25 145 -25 537 0 690 105 637 455 1176 998 1535
395 261 920 393 1394 350z"/>
</g>
</svg>
