<?xml version="1.0" standalone="no"?>
<!DOCTYPE svg PUBLIC "-//W3C//DTD SVG 20010904//EN"
 "http://www.w3.org/TR/2001/REC-SVG-20010904/DTD/svg10.dtd">
<svg version="1.0" xmlns="http://www.w3.org/2000/svg"
 width="512.000000pt" height="512.000000pt" viewBox="0 0 512.000000 512.000000"
 preserveAspectRatio="xMidYMid meet">
<metadata>
Created by potrace 1.14, written by Peter Selinger 2001-2017
</metadata>
<g transform="translate(0.000000,512.000000) scale(0.100000,-0.100000)"
fill="#ffffff" stroke="none">
<path d="M175 4621 c-49 -22 -73 -48 -91 -98 -20 -57 -20 -3999 0 -4056 18
-50 42 -76 91 -98 37 -17 74 -19 453 -19 l413 0 24 26 c14 15 27 45 32 72 11
73 8 243 -6 284 -22 65 -32 68 -248 68 l-193 0 0 1695 0 1695 195 0 196 0 24
26 c14 15 27 45 32 72 11 73 8 243 -6 284 -23 70 -9 68 -466 68 -376 0 -413
-2 -450 -19z"/>
<path d="M4063 4625 c-35 -25 -48 -80 -48 -210 0 -74 5 -134 13 -157 23 -65
33 -68 249 -68 l193 0 0 -1695 0 -1695 -193 0 c-216 0 -226 -3 -249 -68 -17
-50 -17 -264 0 -314 25 -70 10 -68 467 -68 376 0 413 2 450 19 48 22 69 44 90
94 13 32 15 259 15 2032 0 1773 -2 2000 -15 2032 -21 50 -42 72 -90 94 -37 17
-74 19 -450 19 -349 0 -414 -2 -432 -15z"/>
<path d="M2388 3745 c-26 -9 -56 -27 -67 -41 -20 -26 -21 -38 -21 -450 l0
-424 -395 0 -396 0 -23 -25 c-33 -36 -46 -97 -46 -222 0 -124 10 -170 46 -213
l26 -30 394 0 394 0 0 -429 0 -429 30 -25 c44 -37 118 -50 261 -45 137 4 193
22 216 68 10 19 13 130 13 443 l0 417 389 0 c377 0 389 1 414 21 37 28 57 104
57 215 0 116 -15 186 -47 224 l-25 30 -394 0 -394 0 0 418 c0 312 -3 423 -13
442 -24 49 -77 65 -232 67 -102 2 -153 -2 -187 -12z"/>
</g>
</svg>
