<?xml version="1.0" standalone="no"?>
<!DOCTYPE svg PUBLIC "-//W3C//DTD SVG 20010904//EN"
 "http://www.w3.org/TR/2001/REC-SVG-20010904/DTD/svg10.dtd">
<svg version="1.0" xmlns="http://www.w3.org/2000/svg"
 width="512.000000pt" height="512.000000pt" viewBox="0 0 512.000000 512.000000"
 preserveAspectRatio="xMidYMid meet">
<metadata>
Created by potrace 1.14, written by Peter Selinger 2001-2017
</metadata>
<g transform="translate(0.000000,512.000000) scale(0.100000,-0.100000)"
fill="#ffffff" stroke="none">
<path d="M790 5112 c0 -4 -18 -7 -41 -7 -22 0 -43 -5 -47 -10 -4 -6 -19 -11
-34 -12 -39 -2 -162 -59 -243 -111 -96 -61 -206 -171 -270 -267 -58 -87 -115
-211 -118 -253 -1 -15 -6 -30 -12 -34 -5 -4 -10 -25 -10 -47 0 -23 -3 -41 -7
-41 -4 0 -8 -418 -8 -928 l0 -928 46 -12 c25 -7 49 -10 54 -7 4 3 10 0 12 -5
2 -6 17 -12 33 -13 17 -1 33 -6 36 -10 3 -4 19 -9 35 -10 16 -1 32 -6 35 -10
3 -4 19 -9 35 -10 16 -1 32 -6 35 -10 3 -4 19 -9 35 -10 16 -1 31 -5 34 -8 8
-11 150 -50 159 -44 5 3 11 0 13 -5 2 -6 17 -12 33 -13 17 -1 33 -6 36 -10 3
-4 19 -9 35 -10 16 -1 32 -6 35 -10 3 -4 19 -9 35 -10 16 -1 31 -5 34 -8 9
-12 150 -50 160 -44 6 3 10 2 10 -4 0 -5 14 -12 31 -16 29 -7 37 -1 113 72 44
44 104 96 132 116 62 44 192 110 252 128 23 7 42 16 42 20 0 4 9 5 20 2 11 -3
20 -1 20 4 0 6 11 8 25 5 14 -2 25 0 25 5 0 5 14 8 30 5 17 -2 30 0 30 5 0 5
35 9 77 8 l77 0 271 375 c270 372 272 375 267 417 -3 30 -1 43 8 43 8 0 11 15
8 50 -1 28 1 50 6 50 4 0 6 16 4 35 -2 19 -1 35 2 35 6 0 44 142 45 165 0 6 3
15 8 20 4 6 30 56 57 112 92 185 236 349 410 465 84 56 206 115 288 139 23 7
42 16 42 20 0 4 9 5 20 2 11 -3 20 -1 20 5 0 6 9 8 20 5 11 -3 20 -1 20 4 0 5
14 8 30 5 17 -2 30 0 30 6 0 6 16 8 40 5 23 -3 40 -2 40 4 0 6 39 10 95 10 56
0 95 -4 95 -10 0 -6 17 -7 40 -4 24 3 40 1 40 -5 0 -6 13 -8 30 -6 17 3 30 0
30 -5 0 -5 9 -7 20 -4 11 3 20 1 20 -5 0 -6 9 -8 20 -5 11 3 20 2 20 -2 0 -10
101 -41 112 -35 4 3 8 1 8 -4 0 -4 28 -21 63 -37 163 -76 337 -219 447 -366
58 -77 138 -224 160 -291 6 -21 16 -38 20 -38 5 0 7 -7 4 -15 -4 -8 -2 -15 4
-15 6 0 8 -9 5 -20 -3 -11 -1 -20 5 -20 6 0 8 -9 5 -20 -3 -11 -1 -20 5 -20 6
0 8 -9 5 -20 -3 -11 -1 -20 5 -20 7 0 9 -14 5 -35 -3 -20 -1 -35 4 -35 6 0 8
-23 5 -55 -3 -37 -1 -55 7 -55 6 0 11 -17 11 -40 0 -22 -5 -40 -11 -40 -7 0
-10 -20 -7 -55 1 -30 -1 -55 -6 -55 -5 0 -6 -15 -3 -34 3 -19 2 -36 -2 -38 -7
-3 -51 -157 -55 -188 0 -8 -4 -17 -7 -20 -3 -3 -22 -39 -42 -80 -134 -279
-383 -503 -674 -605 -29 -11 -53 -22 -53 -26 0 -4 -9 -5 -20 -2 -11 3 -20 1
-20 -5 0 -6 -9 -8 -20 -5 -11 3 -20 1 -20 -4 0 -6 -11 -8 -25 -5 -14 2 -25 0
-25 -6 0 -7 -14 -9 -35 -5 -19 3 -35 2 -35 -3 0 -5 -35 -8 -78 -6 l-78 3 -381
-276 -381 -276 4 -69 c2 -47 0 -70 -7 -70 -8 0 -10 -13 -6 -35 4 -21 2 -35 -5
-35 -6 0 -8 -11 -6 -25 3 -14 1 -25 -5 -25 -5 0 -7 -9 -4 -20 3 -11 2 -20 -3
-20 -7 0 -35 -83 -35 -105 0 -5 -3 -12 -6 -15 -3 -3 -24 -40 -47 -83 -102
-191 -261 -341 -459 -434 -43 -20 -80 -39 -83 -42 -3 -4 -9 -6 -15 -6 -27 0
-135 -29 -135 -36 0 -4 -16 -5 -35 -2 -19 3 -35 2 -35 -3 0 -5 -49 -9 -110 -9
-60 0 -110 4 -110 9 0 5 -16 6 -35 3 -21 -4 -35 -2 -35 5 0 6 -9 8 -20 5 -11
-3 -20 -1 -20 5 0 6 -9 8 -20 5 -11 -3 -20 -1 -20 4 0 5 -6 9 -12 9 -29 1
-180 70 -249 115 -173 112 -342 322 -398 498 -7 20 -16 37 -21 37 -4 0 -6 9
-3 20 3 11 1 20 -5 20 -6 0 -8 9 -5 20 3 11 1 20 -4 20 -6 0 -8 11 -5 25 2 14
0 25 -5 25 -6 0 -8 11 -6 24 5 27 -27 52 -53 42 -8 -3 -14 -2 -14 3 0 10 -148
53 -160 46 -4 -3 -10 0 -12 5 -2 6 -17 12 -33 13 -17 1 -33 6 -36 10 -3 4 -19
9 -35 10 -16 1 -32 6 -35 10 -3 4 -19 9 -35 10 -16 1 -32 6 -35 10 -3 4 -19 9
-35 10 -16 1 -31 5 -34 8 -8 11 -150 50 -159 44 -5 -3 -11 0 -13 5 -2 6 -17
12 -33 13 -17 1 -33 6 -36 11 -4 5 -14 6 -23 3 -15 -6 -16 -51 -16 -452 1
-245 4 -445 8 -445 4 0 7 -18 7 -41 0 -22 5 -43 10 -47 6 -4 11 -19 12 -34 2
-39 59 -162 111 -243 61 -96 171 -206 267 -270 87 -58 211 -115 253 -118 15
-1 30 -6 34 -12 4 -5 25 -10 47 -10 23 0 41 -3 41 -7 0 -4 796 -8 1770 -8 974
0 1770 4 1770 8 0 4 18 7 41 7 22 0 43 5 47 10 4 6 19 11 34 12 42 3 166 60
253 118 96 64 206 174 267 270 52 81 109 204 111 243 1 15 6 30 12 34 5 4 10
25 10 47 0 23 3 41 7 41 4 0 8 796 8 1770 0 974 -4 1770 -8 1770 -4 0 -7 18
-7 41 0 22 -5 43 -10 47 -6 4 -11 19 -12 34 -3 42 -60 166 -118 253 -64 96
-174 206 -270 267 -81 52 -204 109 -243 111 -15 1 -30 6 -34 12 -4 5 -25 10
-47 10 -23 0 -41 3 -41 7 0 4 -796 8 -1770 8 -974 0 -1770 -4 -1770 -8z"/>
<path d="M3480 4179 c0 -7 -16 -8 -45 -3 -30 4 -45 3 -45 -5 0 -6 -7 -8 -14
-5 -20 8 -126 -24 -126 -37 0 -6 -4 -8 -9 -5 -14 9 -93 -28 -164 -76 -164
-111 -280 -267 -337 -455 -12 -40 -19 -81 -15 -93 4 -12 2 -20 -5 -20 -8 0 -9
-16 -5 -55 5 -38 4 -55 -4 -55 -6 0 -11 -11 -11 -25 0 -14 5 -25 11 -25 8 0 9
-17 4 -55 -4 -32 -3 -55 3 -55 5 0 7 -11 4 -25 -2 -14 0 -25 6 -25 6 0 8 -9 5
-20 -3 -11 0 -20 6 -20 5 0 8 -6 5 -14 -8 -21 47 -145 100 -225 88 -133 218
-241 366 -306 35 -15 77 -29 92 -29 15 -1 28 -5 28 -10 0 -4 9 -6 20 -3 11 3
20 0 20 -5 0 -6 12 -8 30 -4 17 3 30 2 30 -3 0 -5 52 -9 115 -9 63 0 115 4
115 9 0 5 14 6 30 3 18 -4 30 -2 30 4 0 5 9 8 20 5 11 -3 20 -1 20 3 0 5 13 9
29 10 35 1 160 59 234 108 73 49 170 148 224 230 51 75 107 202 99 223 -3 7 0
13 5 13 6 0 9 9 6 20 -3 11 0 20 5 20 6 0 8 12 5 30 -4 17 -3 30 1 30 4 0 7
59 7 130 0 72 -3 130 -7 130 -3 0 -4 9 -1 20 3 10 -5 52 -17 92 -59 193 -180
354 -346 461 -79 50 -198 102 -212 93 -6 -3 -12 -1 -14 6 -2 6 -21 12 -41 12
-20 1 -37 5 -37 10 0 4 -20 5 -45 2 -29 -5 -45 -4 -45 3 0 7 -26 11 -65 11
-39 0 -65 -4 -65 -11z m150 -273 c0 -4 11 -6 25 -4 14 3 25 2 25 -2 0 -3 24
-14 53 -23 123 -39 253 -157 316 -286 20 -42 39 -77 42 -79 4 -2 5 -12 2 -22
-3 -11 -1 -20 4 -20 6 0 8 -11 5 -25 -2 -14 0 -25 4 -25 5 0 9 -31 9 -70 0
-38 -4 -70 -9 -70 -4 0 -6 -13 -4 -30 3 -16 2 -30 -2 -30 -3 0 -14 -24 -23
-54 -21 -64 -81 -160 -137 -216 -51 -51 -143 -111 -198 -129 -23 -8 -42 -18
-42 -22 0 -4 -9 -5 -20 -2 -11 3 -20 1 -20 -4 0 -5 -13 -8 -30 -5 -18 3 -30 0
-30 -7 0 -7 -21 -11 -55 -11 -34 0 -55 4 -55 11 0 7 -12 10 -30 7 -16 -3 -30
0 -30 5 0 5 -9 7 -20 4 -10 -3 -20 -1 -22 4 -2 5 -14 10 -28 11 -14 2 -29 6
-35 10 -5 5 -45 31 -88 59 -89 59 -157 135 -200 229 -17 36 -34 66 -38 68 -4
2 -5 12 -2 22 3 11 1 20 -4 20 -6 0 -8 11 -5 25 2 14 0 25 -4 25 -9 0 -13 141
-4 150 3 3 13 36 23 74 24 95 68 168 151 252 50 49 92 81 141 105 39 18 72 36
75 39 3 3 21 6 40 8 19 1 36 6 37 10 4 10 183 9 183 -2z"/>
<path d="M1650 2250 c0 -3 -15 -5 -33 -6 -68 -2 -280 -112 -275 -143 3 -15 85
-44 105 -36 6 2 13 -1 15 -6 2 -5 17 -11 33 -12 17 -1 33 -6 36 -10 3 -4 19
-9 35 -10 16 -1 32 -6 35 -10 3 -4 19 -9 35 -10 16 -1 32 -6 35 -10 3 -4 19
-9 35 -10 16 -1 31 -5 34 -8 3 -4 39 -17 80 -29 93 -28 153 -58 206 -103 45
-39 99 -132 109 -189 4 -21 11 -38 16 -38 10 0 9 -73 -2 -80 -4 -3 -9 -23 -11
-45 -2 -22 -6 -42 -9 -45 -4 -3 -16 -23 -27 -46 -32 -63 -105 -132 -175 -164
-34 -17 -70 -30 -79 -30 -10 0 -18 -4 -18 -9 0 -10 -103 -9 -111 2 -3 4 -23 8
-45 10 -21 1 -42 6 -45 10 -3 4 -19 9 -35 10 -16 1 -32 6 -35 10 -3 4 -19 9
-35 10 -16 1 -32 6 -35 10 -3 4 -19 9 -35 10 -16 1 -31 5 -34 8 -8 11 -150 50
-159 44 -5 -3 -11 0 -13 6 -2 7 -18 12 -36 13 -18 0 -32 4 -32 9 0 13 -27 7
-40 -8 -11 -13 -7 -29 26 -93 75 -147 218 -270 386 -330 63 -22 91 -26 206
-27 72 -1 132 2 132 6 0 5 7 6 14 3 20 -8 126 24 126 37 0 6 5 7 10 4 22 -13
146 69 225 149 82 83 155 202 158 260 1 14 6 26 11 26 4 0 6 9 3 20 -3 11 0
20 5 20 6 0 8 12 5 30 -4 17 -3 30 2 30 5 0 9 45 9 100 0 55 -3 100 -7 100 -5
0 -6 11 -3 25 2 14 0 25 -6 25 -6 0 -8 9 -5 20 3 11 0 20 -6 20 -5 0 -8 7 -5
15 4 8 2 15 -2 15 -5 0 -10 11 -10 25 -3 48 -76 159 -159 241 -63 63 -100 91
-168 124 -47 24 -100 43 -117 44 -16 1 -30 5 -30 10 0 4 -11 5 -25 2 -14 -4
-25 -3 -25 1 0 5 -54 8 -120 8 -66 0 -120 -2 -120 -5z"/>
</g>
</svg>
